<svg xmlns="http://www.w3.org/2000/svg" width="76.15" height="46.81" viewBox="0 0 76.15 46.81">
  <title>ballball</title>
  <g id="圖層_2" data-name="圖層 2">
    <g id="圖層_1-2" data-name="圖層 1">
      <g>
        <path d="M76.15,37.35A26.68,26.68,0,0,1,63,34.26a24.55,24.55,0,0,0-12.26-2.91A24.57,24.57,0,0,0,38.5,34.26a26.68,26.68,0,0,1-13.12,3.09,26.68,26.68,0,0,1-13.12-3.09A24.55,24.55,0,0,0,0,31.35v-2a26.67,26.67,0,0,1,13.12,3.1,24.67,24.67,0,0,0,12.26,2.9,24.72,24.72,0,0,0,12.27-2.9,26.67,26.67,0,0,1,13.12-3.1,26.67,26.67,0,0,1,13.12,3.1,24.64,24.64,0,0,0,12.26,2.9Z" fill="#fff"/>
        <path d="M43.39,8A26.56,26.56,0,0,1,30.27,4.9,24.67,24.67,0,0,0,18,2V0A26.56,26.56,0,0,1,31.13,3.1,24.67,24.67,0,0,0,43.39,6,24.72,24.72,0,0,0,55.66,3.1a36.2,36.2,0,0,1,4.12-1.75l.65,1.89A37.82,37.82,0,0,0,56.51,4.9,26.56,26.56,0,0,1,43.39,8Z" fill="#fff"/>
        <g>
          <path d="M25.31,46.81a15.1,15.1,0,1,1,15.1-15.1A15.11,15.11,0,0,1,25.31,46.81Zm0-28.2a13.1,13.1,0,1,0,13.1,13.1A13.11,13.11,0,0,0,25.31,18.61Z" fill="#fff"/>
          <g>
            <rect x="24.22" y="37.16" width="2.19" height="4.81" fill="#fff"/>
            <rect x="24.22" y="21.32" width="2.19" height="4.94" fill="#fff"/>
            <rect x="17.41" y="36.41" width="4.08" height="2.18" transform="translate(-20.82 24.74) rotate(-45)" fill="#fff"/>
            <rect x="28.41" y="24.99" width="4.92" height="2.18" transform="translate(-9.4 29.47) rotate(-45)" fill="#fff"/>
            <rect x="14.99" y="30.55" width="4.88" height="2.19" fill="#fff"/>
            <rect x="30.76" y="30.55" width="4.88" height="2.19" fill="#fff"/>
            <rect x="18.66" y="23.63" width="2.18" height="4.92" transform="translate(-12.66 21.61) rotate(-45)" fill="#fff"/>
            <rect x="30.07" y="35.46" width="2.18" height="4.08" transform="translate(-17.39 33.03) rotate(-45)" fill="#fff"/>
          </g>
          <circle cx="25.31" cy="31.71" r="2.24" fill="#fff"/>
        </g>
      </g>
    </g>
  </g>
</svg>
