<svg xmlns="http://www.w3.org/2000/svg" width="336.23" height="91.83" viewBox="0 0 336.23 91.83">
  <title>brand-deco-1</title>
  <g id="圖層_2" data-name="圖層 2">
    <g id="design">
      <g>
        <path d="M8.63,19.52,7.22,23.21c-.27.73-.49,1.31-.64,1.75a3.4,3.4,0,0,0-.22,1,.73.73,0,0,0,.17.51,1.17,1.17,0,0,0,.56.27L9,27.32l.06,1c-1.91,0-3.46-.06-4.66-.06s-2.68,0-4.28.06l-.1-1,2.11-.63A2,2,0,0,0,3.22,26,8.87,8.87,0,0,0,4,24.48L13.84.53,16,.22l8.5,24a6.62,6.62,0,0,0,.9,1.86,2.22,2.22,0,0,0,1.16.7l1.93.58.06,1q-2.65-.06-5.37-.06-3.57,0-7,.06l-.1-1L18,26.78a1.26,1.26,0,0,0,.57-.29.72.72,0,0,0,.18-.53,3.79,3.79,0,0,0-.2-1c-.13-.43-.32-1-.57-1.69l-1.3-3.71ZM12.89,8.19c-.24.69-.49,1.4-.77,2.13l-2.7,7.15H16l-2.43-7.13C13.33,9.59,13.1,8.88,12.89,8.19Z" fill="#fff"/>
        <path d="M30.71.65c1.84,0,3.74.08,5.69.08L39.73.61c1.52,0,2.55-.08,3.12-.08q5,0,7.53,1.61a5.17,5.17,0,0,1,2.54,4.63q0,4.74-5.61,6.55a8.4,8.4,0,0,1,5,2.27,6.25,6.25,0,0,1,1.77,4.54,7,7,0,0,1-3.18,6.11q-3.18,2.16-9,2.16-1.14,0-2.4-.06t-3.12-.06c-1.93,0-3.79,0-5.59.06l-.1-1,2.65-.73a.68.68,0,0,0,.53-.62c0-.52,0-1.11,0-1.76s0-1.37,0-2.16V6.36c0-.66,0-1.26,0-1.8s0-1,0-1.48a.63.63,0,0,0-.47-.65l-2.65-.77Zm9.1,12.2,1.92,0a5.14,5.14,0,0,0,3.74-1.21c.8-.81,1.21-2.19,1.21-4.12a5.21,5.21,0,0,0-1.25-3.91A5.1,5.1,0,0,0,41.8,2.45l-.87,0c-.34,0-.71,0-1.12.11Zm0,1.78v11.8a14.49,14.49,0,0,0,2.33.18A5.26,5.26,0,0,0,46.25,25a6.64,6.64,0,0,0,1.4-4.55,6.12,6.12,0,0,0-1.42-4.43q-1.42-1.45-4.6-1.45C41,14.61,40.4,14.61,39.81,14.63Z" fill="#fff"/>
        <path d="M88.09,13.88q0,6.82-4,11T72.85,29Q66,29,62.23,25.18t-3.75-10.4Q58.48,8,62.53,4T73.72,0q6.87,0,10.62,3.72T88.09,13.88Zm-23,.25c0,4.21.72,7.43,2.14,9.66a7,7,0,0,0,6.25,3.35,6.62,6.62,0,0,0,6-3q2-3,1.95-9.55,0-6.12-2.06-9.41a6.94,6.94,0,0,0-6.35-3.28,6.56,6.56,0,0,0-6,3.05Q65.11,8,65.11,14.13Z" fill="#fff"/>
        <path d="M91.82.65c1.83,0,3.85.08,6.08.08s4.31,0,6.08-.08l.1,1-2.57.73A.6.6,0,0,0,101,3q0,.71,0,1.53c0,.55,0,1.14,0,1.77V17.15c0,3.59.54,6.08,1.62,7.45s2.83,2.07,5.25,2.07a6.55,6.55,0,0,0,5.36-2.18Q115,22.3,115,17.41V6.28c0-.63,0-1.22,0-1.77s0-1.06,0-1.53a.6.6,0,0,0-.51-.59L112,1.7l-.06-1c1.75,0,3.27.08,4.54.08s2.67,0,4.46-.08l.1,1-2.68.77a.65.65,0,0,0-.5.65c0,.45,0,.94,0,1.48s0,1.14,0,1.8v10q0,6.8-2.79,9.74t-8.12,2.95c-4,0-7-.93-8.94-2.81S95,21.38,95,17.25V6.36c0-.66,0-1.26,0-1.8s0-1,0-1.48a.64.64,0,0,0-.48-.65l-2.64-.77Z" fill="#fff"/>
        <path d="M135.28,28.28q-3.48,0-6.63.06l-.1-1,3.16-.87a.65.65,0,0,0,.51-.63c0-1,0-2.26,0-3.81V2.76h-5.68L124.76,8l-1.11.18L123.14.81l.14-.16q4.86.07,9.3.08h5.5q4.44,0,9.36-.08l.12.16L146.25,8l-1.1.18-1.28-5.45h-5.71V22.05c0,1.55,0,2.82,0,3.81a.66.66,0,0,0,.53.63l3.1.87.06,1C139.71,28.3,137.5,28.28,135.28,28.28Z" fill="#fff"/>
        <path d="M29.25,80.38a16.7,16.7,0,0,1,.53,2.11c.22-.72.43-1.41.66-2l4.1-11.83c.26-.77.45-1.37.56-1.78a3.76,3.76,0,0,0,.17-1,.66.66,0,0,0-.19-.51,1.27,1.27,0,0,0-.56-.28l-1.89-.53-.06-1.05c1.91.06,3.46.08,4.66.08s2.67,0,4.28-.08l.1,1-2.11.61a2.28,2.28,0,0,0-1.14.73,5.61,5.61,0,0,0-.76,1.54L29.09,91.1l-2.15.17L22,75.62c-.26-.83-.53-1.72-.81-2.68-.32.94-.62,1.83-.91,2.66L14.78,91.1l-2.13.17L5,67.59a5.79,5.79,0,0,0-.87-1.85A2.63,2.63,0,0,0,2.9,65L1,64.47l-.06-1c1.77.06,3.56.08,5.37.08,2.37,0,4.68,0,6.94-.08l.12,1L11.41,65a1.31,1.31,0,0,0-.57.3.71.71,0,0,0-.18.53,4.7,4.7,0,0,0,.15,1q.15.63.48,1.71L15,80.38c.21.71.39,1.41.53,2.11.21-.72.43-1.41.64-2l5.84-17,2-.17Z" fill="#fff"/>
        <path d="M45.93,82.33,44.53,86c-.28.73-.49,1.31-.64,1.75a3.18,3.18,0,0,0-.23,1,.69.69,0,0,0,.18.51,1.23,1.23,0,0,0,.55.28l1.89.55.06,1c-1.9,0-3.46-.05-4.65-.05s-2.68,0-4.29.05l-.1-1,2.12-.63a2,2,0,0,0,1.1-.72,8.7,8.7,0,0,0,.79-1.53l9.83-24L53.27,63l8.51,24a6.87,6.87,0,0,0,.9,1.87,2.32,2.32,0,0,0,1.15.7l1.94.57.06,1c-1.78,0-3.57-.05-5.37-.05q-3.59,0-7,.05l-.1-1,2-.57a1.36,1.36,0,0,0,.58-.3.72.72,0,0,0,.17-.53,3.72,3.72,0,0,0-.19-1c-.14-.43-.33-1-.58-1.69L54,82.33ZM50.19,71c-.23.69-.49,1.4-.77,2.13l-2.7,7.15h6.59l-2.43-7.13C50.63,72.4,50.4,71.69,50.19,71Z" fill="#fff"/>
        <path d="M73.36,88.75a.65.65,0,0,0,.5.69l2.52.69.06,1c-1.77,0-3.23-.05-4.38-.05s-2.61,0-4.44.05l-.1-1,2.65-.73a.65.65,0,0,0,.53-.61c0-1.07,0-2.38,0-3.93V69.17c0-1.32,0-2.41,0-3.28a.63.63,0,0,0-.47-.65l-2.65-.77-.06-1c1.84.06,3.26.08,4.25.08,1.28,0,2.51,0,3.67-.08L88.56,79.9q.8,1,1.62,2.1c0-.91,0-1.79,0-2.63V69.09c0-1.28,0-2.38,0-3.3a.6.6,0,0,0-.51-.59l-2.53-.69L87,63.46c1.82.06,3.29.08,4.42.08s2.63,0,4.41-.08l.09,1-2.68.77a.63.63,0,0,0-.47.65c0,.87-.06,2-.06,3.28V91.1l-2.27.21L74.88,71.83c-.46-.59-1-1.29-1.59-2.11,0,1,0,1.87,0,2.68V84.9C73.32,86.45,73.34,87.73,73.36,88.75Z" fill="#fff"/>
        <path d="M108.52,84.9c0,.79,0,1.5,0,2.12s0,1.19,0,1.69a.67.67,0,0,0,.51.63l2.9.83.06,1q-3.06,0-6.39-.05t-6.16.05l-.1-1,2.64-.73a.66.66,0,0,0,.54-.61q0-.8,0-1.77c0-.65,0-1.37,0-2.16V69.17c0-.66,0-1.26,0-1.8s0-1,0-1.48a.65.65,0,0,0-.48-.65l-2.64-.77-.06-1c1.84.06,3.66.08,5.47.08,1.23,0,2.43,0,3.6-.08s2.22-.08,3.19-.08q5.33,0,8.07,1.85a6.17,6.17,0,0,1,2.74,5.48,8.21,8.21,0,0,1-2.85,6.66c-1.9,1.58-4.58,2.38-8,2.38a24,24,0,0,1-3-.22Zm0-7.27a11.31,11.31,0,0,0,2.23.22,4.9,4.9,0,0,0,3.94-1.59,7.27,7.27,0,0,0,1.35-4.8,7.09,7.09,0,0,0-1.29-4.65,5,5,0,0,0-4-1.53,14.67,14.67,0,0,0-2.19.16Z" fill="#fff"/>
        <path d="M156,76.69q0,6.82-4,11t-11.21,4.16q-6.87,0-10.62-3.84t-3.75-10.4q0-6.82,4-10.8t11.2-4q6.85,0,10.61,3.72T156,76.69Zm-23,.25c0,4.21.71,7.44,2.13,9.67A7,7,0,0,0,141.38,90a6.63,6.63,0,0,0,6-3c1.3-2,1.94-5.21,1.94-9.55q0-6.12-2.05-9.41a7,7,0,0,0-6.36-3.28,6.55,6.55,0,0,0-6,3C133.62,69.75,133,72.83,133,76.94Z" fill="#fff"/>
        <path d="M160.09,72q2.83-2.39,2.84-4.7a3.43,3.43,0,0,0-2.21-3.18,2.62,2.62,0,0,1,.76-2,2.7,2.7,0,0,1,1.93-.72,2.61,2.61,0,0,1,2.09,1,3.69,3.69,0,0,1,.83,2.45,7.44,7.44,0,0,1-1.4,4.29A17.73,17.73,0,0,1,161,73Z" fill="#fff"/>
        <path d="M183.85,65.34a7.42,7.42,0,0,0-2.74-.5,5.28,5.28,0,0,0-3.54,1.23,4.26,4.26,0,0,0-1,5.15,5.52,5.52,0,0,0,1.26,1.48,9.85,9.85,0,0,0,1.81,1.16c.68.35,1.38.69,2.1,1s1.61.8,2.43,1.25a10.81,10.81,0,0,1,2.19,1.62A7.35,7.35,0,0,1,188,80a8.23,8.23,0,0,1-2.42,9.46,12.89,12.89,0,0,1-8,2.29,22.8,22.8,0,0,1-7.05-1.13l-.12-.18,1.05-7.1,1.22-.2,1.48,6a7.41,7.41,0,0,0,3.16.65,6.11,6.11,0,0,0,4-1.27,4.2,4.2,0,0,0,1.53-3.41,4.05,4.05,0,0,0-.48-2,5.17,5.17,0,0,0-1.28-1.5,9.64,9.64,0,0,0-1.84-1.17c-.68-.34-1.39-.69-2.13-1s-1.6-.81-2.4-1.24a9.54,9.54,0,0,1-2.16-1.58,7.06,7.06,0,0,1-2.13-5.35,7.2,7.2,0,0,1,2.88-6A11.86,11.86,0,0,1,180.81,63a28.31,28.31,0,0,1,6.66.91l.11.17-1.2,6.36-1.09.18Z" fill="#fff"/>
        <path d="M216.46,65.34a7.46,7.46,0,0,0-2.74-.5,5.31,5.31,0,0,0-3.55,1.23,4,4,0,0,0-1.45,3.16,3.91,3.91,0,0,0,.48,2,5.18,5.18,0,0,0,1.26,1.48,9.85,9.85,0,0,0,1.81,1.16c.67.35,1.37.69,2.1,1s1.61.8,2.43,1.25A11.09,11.09,0,0,1,219,77.76,7.71,7.71,0,0,1,220.56,80a8.23,8.23,0,0,1-2.42,9.46,12.9,12.9,0,0,1-8,2.29,22.69,22.69,0,0,1-7-1.13l-.12-.18,1-7.1,1.23-.2,1.48,6a7.41,7.41,0,0,0,3.16.65,6.08,6.08,0,0,0,4-1.27,4.2,4.2,0,0,0,1.53-3.41,4.05,4.05,0,0,0-.47-2,5.33,5.33,0,0,0-1.28-1.5,9.64,9.64,0,0,0-1.84-1.17c-.68-.34-1.39-.69-2.13-1s-1.61-.81-2.41-1.24a9.7,9.7,0,0,1-2.15-1.58,7.35,7.35,0,0,1-1.54-2.22,7.57,7.57,0,0,1-.59-3.13,7.2,7.2,0,0,1,2.88-6A11.85,11.85,0,0,1,213.42,63a28.24,28.24,0,0,1,6.65.91l.12.17L219,70.45l-1.09.18Z" fill="#fff"/>
        <path d="M235.61,91.1q-3.48,0-6.64.05l-.09-1L232,89.3a.68.68,0,0,0,.52-.63c0-1,0-2.26,0-3.81V65.57H226.9l-1.81,5.25L224,71l-.51-7.38.14-.16c3.23.06,6.33.08,9.29.08h5.51c3,0,6.08,0,9.35-.08l.12.16-1.3,7.22-1.1.18-1.29-5.45h-5.7V84.86c0,1.55,0,2.82,0,3.81a.66.66,0,0,0,.53.63l3.1.87.06,1Q238.94,91.11,235.61,91.1Z" fill="#fff"/>
        <path d="M279.82,76.69q0,6.82-4,11t-11.21,4.16q-6.87,0-10.62-3.84t-3.75-10.4q0-6.82,4-10.8t11.19-4q6.87,0,10.62,3.72T279.82,76.69Zm-23,.25c0,4.21.71,7.44,2.13,9.67A7,7,0,0,0,265.23,90a6.62,6.62,0,0,0,6-3c1.3-2,1.95-5.21,1.95-9.55q0-6.12-2.06-9.41a7,7,0,0,0-6.35-3.28c-2.78,0-4.8,1-6,3S256.84,72.83,256.84,76.94Z" fill="#fff"/>
        <path d="M293.36,84.9c0,.79,0,1.5,0,2.12s0,1.19,0,1.71.16.67.45.77l2,.67.06,1c-1.46,0-3.27-.05-5.42-.05q-3.46,0-6.16.05l-.1-1,2.64-.73a.67.67,0,0,0,.54-.61q0-.8,0-1.77c0-.65,0-1.37,0-2.16V69.17c0-.66,0-1.26,0-1.8s0-1,0-1.48a.65.65,0,0,0-.48-.65l-2.64-.77-.06-1c1.84.06,3.73.08,5.66.08l1.52,0,2.21-.07,2-.06,1.25,0q5.07,0,7.61,1.7a5.59,5.59,0,0,1,2.54,5,7,7,0,0,1-1.55,4.74A9.82,9.82,0,0,1,301,77.54q1.65,2.44,2.55,4c.6,1,1.2,2,1.81,3s1.15,1.85,1.65,2.6a11.17,11.17,0,0,0,1.39,1.78c.23.19.46.36.68.51a4.48,4.48,0,0,0,.68.37,4.55,4.55,0,0,0,.76.27l.9.21.08,1a30.72,30.72,0,0,1-4.42.28,10.21,10.21,0,0,1-2.77-.26,4.55,4.55,0,0,1-1.4-.73,8,8,0,0,1-1.67-1.85c-.5-.77-1-1.63-1.61-2.59s-1.14-2-1.74-3.06-1.23-2.14-1.89-3.19c-.19-.31-.36-.56-.48-.75a1.79,1.79,0,0,0-.38-.45,1.26,1.26,0,0,0-.39-.22,2.28,2.28,0,0,0-.52-.08l-.83,0Zm0-8.31c.69,0,1.33.06,1.89.06a5.36,5.36,0,0,0,4.11-1.41,6.34,6.34,0,0,0,1.3-4.42,6.06,6.06,0,0,0-1.25-4.23,5.13,5.13,0,0,0-3.9-1.33c-.3,0-.63,0-1,0s-.74.06-1.17.12Z" fill="#fff"/>
        <path d="M325,76.15l3.79-7.54c.35-.65.63-1.21.84-1.67a2.76,2.76,0,0,0,.32-1.13c0-.39-.3-.67-.89-.83l-1.77-.47-.06-1.05c1.46.06,3,.08,4.6.08,1.46,0,2.9,0,4.32-.08l.1,1-2.1.61a2.37,2.37,0,0,0-1.09.7,7.09,7.09,0,0,0-.78,1.18L326,78.5v6.4c0,.79,0,1.5,0,2.15s0,1.22,0,1.74q0,.51.69.69l2.21.69.06,1c-1.69,0-3.66-.05-5.88-.05s-4.28,0-6,.05l-.1-1,2.45-.73a.65.65,0,0,0,.53-.61c0-.53,0-1.12,0-1.77s0-1.37,0-2.16V79l-6.41-11.49a13.25,13.25,0,0,0-1.2-1.73,2.66,2.66,0,0,0-1.23-.76l-1.9-.53-.08-1c1.31.06,3.16.08,5.55.08,2.63,0,5.13,0,7.48-.08l.1,1-2,.49a1.45,1.45,0,0,0-.67.29.59.59,0,0,0-.22.48,2.54,2.54,0,0,0,.27,1c.19.39.45.86.77,1.4Z" fill="#fff"/>
      </g>
    </g>
  </g>
</svg>
