<svg xmlns="http://www.w3.org/2000/svg" width="168.05" height="94.2" viewBox="0 0 168.05 94.2">
  <title>drink-deco-2</title>
  <g id="圖層_2" data-name="圖層 2">
    <g id="design">
      <g>
        <g>
          <path d="M2.15,57.86H0V56.28H6.24v1.58H4.07v6.39H2.15Z" fill="#c9a063"/>
          <path d="M15,62.42H12.68l-.46,1.83h-2l2.47-8H15l2.47,8h-2Zm-.37-1.48-.17-.68c-.21-.79-.42-1.74-.63-2.56h0c-.2.84-.41,1.77-.61,2.56l-.18.68Z" fill="#c9a063"/>
          <path d="M22.65,56.28h1.92v8H22.65Z" fill="#c9a063"/>
          <path d="M30.33,60.31a3.84,3.84,0,0,1,3.8-4.18,3.41,3.41,0,0,1,2.43,1l-1,1.22a2,2,0,0,0-1.38-.62c-1,0-1.88.92-1.88,2.47s.73,2.51,1.85,2.51A2.08,2.08,0,0,0,35.67,62l1,1.2a3.31,3.31,0,0,1-2.6,1.18C32,64.4,30.33,63,30.33,60.31Z" fill="#c9a063"/>
          <path d="M42.14,56.28h1.92v3h2.62v-3h1.9v8h-1.9V61H44.06v3.28H42.14Z" fill="#c9a063"/>
          <path d="M54.69,60.5V56.28H56.6V60.7c0,1.51.45,2,1.33,2s1.35-.54,1.35-2V56.28h1.84V60.5c0,2.69-1.07,3.9-3.19,3.9S54.69,63.19,54.69,60.5Z" fill="#c9a063"/>
          <path d="M67.21,56.28h2l2,3.81.79,1.77h0a24.52,24.52,0,0,1-.26-3V56.28h1.83v8h-2l-2-3.85-.78-1.74h0c.08.89.24,2,.24,2.94v2.65H67.21Z" fill="#c9a063"/>
          <path d="M79.33,60.31a3.87,3.87,0,0,1,3.93-4.18,3.51,3.51,0,0,1,2.55,1l-1,1.22a2,2,0,0,0-1.47-.62c-1.18,0-2,.92-2,2.47s.7,2.51,2.18,2.51a1.34,1.34,0,0,0,.76-.2V61.26H83V59.7h3v3.73a4,4,0,0,1-2.66,1A3.76,3.76,0,0,1,79.33,60.31Z" fill="#c9a063"/>
          <path d="M100.14,57.86H98V56.28h6.24v1.58h-2.17v6.39h-1.92Z" fill="#c9a063"/>
          <path d="M113,62.42h-2.36l-.46,1.83h-1.95l2.47-8H113l2.47,8h-2Zm-.37-1.48-.17-.68c-.21-.79-.42-1.74-.63-2.56h0c-.2.84-.41,1.77-.61,2.56l-.18.68Z" fill="#c9a063"/>
          <path d="M120.64,56.28h1.92v8h-1.92Z" fill="#c9a063"/>
          <path d="M127.91,56.28h2l.51,3.63.32,2.53h0c.15-.85.31-1.7.47-2.53l.82-3.63h1.61l.83,3.63c.16.81.3,1.67.46,2.53H135c.09-.86.2-1.7.3-2.53l.51-3.63h1.82l-1.38,8h-2.41l-.72-3.47c-.13-.61-.24-1.25-.31-1.86h-.06c-.09.61-.19,1.25-.31,1.86l-.69,3.47h-2.37Z" fill="#c9a063"/>
          <path d="M146.77,62.42h-2.36L144,64.25H142l2.47-8h2.3l2.47,8h-2Zm-.37-1.48-.17-.68c-.21-.79-.42-1.74-.63-2.56h0c-.2.84-.41,1.77-.61,2.56l-.18.68Z" fill="#c9a063"/>
          <path d="M154.38,56.28h2l2,3.81.78,1.77h.06a24.52,24.52,0,0,1-.26-3V56.28h1.82v8h-2l-2-3.85L156,58.66H156c.09.89.25,2,.25,2.94v2.65h-1.82Z" fill="#c9a063"/>
        </g>
        <g>
          <path d="M4.48,81.87H3.67L2.36,79.43H.72v2.44H0V76.29H2.39a2.25,2.25,0,0,1,1.39.4,1.41,1.41,0,0,1,.55,1.17,1.45,1.45,0,0,1-1.22,1.46Zm-.89-4a.81.81,0,0,0-.27-.64A1.44,1.44,0,0,0,2.37,77H.72v1.82H2.37a1.4,1.4,0,0,0,.95-.28A.8.8,0,0,0,3.59,77.86Z" fill="#c9a063"/>
          <path d="M10.11,81.87H9.35l-.64-1.56H6.15l-.64,1.56H4.74l2.32-5.58H7.8ZM8.43,79.65l-1-2.42-1,2.42Z" fill="#c9a063"/>
          <path d="M14.79,77H13v4.92h-.72V77H10.38v-.66h4.41Z" fill="#c9a063"/>
          <path d="M19.72,81.87H19V79.41H16.13v2.46h-.72V76.29h.72v2.46H19V76.29h.71Z" fill="#c9a063"/>
          <path d="M24.16,81.87H20.63V76.29h3.53V77H21.35V78.7h2.48v.66H21.35v1.85h2.81Z" fill="#c9a063"/>
          <path d="M29.4,81.87h-.81l-1.31-2.44H25.64v2.44h-.72V76.29h2.39a2.25,2.25,0,0,1,1.39.4,1.41,1.41,0,0,1,.55,1.17A1.45,1.45,0,0,1,28,79.32Zm-.89-4a.81.81,0,0,0-.27-.64,1.44,1.44,0,0,0-.95-.27H25.64v1.82h1.65a1.4,1.4,0,0,0,.95-.28A.8.8,0,0,0,28.51,77.86Z" fill="#c9a063"/>
          <path d="M37.19,77.51l-.67.28A1.71,1.71,0,0,0,35,76.91a1.62,1.62,0,0,0-1.28.57,2.52,2.52,0,0,0-.55,1.72,2.16,2.16,0,0,0,.55,1.52,1.57,1.57,0,0,0,1.18.52,1.44,1.44,0,0,0,1-.38,1.71,1.71,0,0,0,.5-1.33v0H34.92v-.66h2.16v3.05h-.72v-.63a1.94,1.94,0,0,1-1.49.7,2.29,2.29,0,0,1-1.72-.74,2.81,2.81,0,0,1-.74-2A3.13,3.13,0,0,1,33.14,77,2.35,2.35,0,0,1,35,76.23,2.43,2.43,0,0,1,37.19,77.51Z" fill="#c9a063"/>
          <path d="M42.77,79.08a3.19,3.19,0,0,1-.62,2,2.3,2.3,0,0,1-3.57,0,3.58,3.58,0,0,1,0-4,2.33,2.33,0,0,1,3.57,0A3.2,3.2,0,0,1,42.77,79.08Zm-.74,0a2.43,2.43,0,0,0-.46-1.57,1.52,1.52,0,0,0-2.42,0,2.43,2.43,0,0,0-.46,1.57,2.48,2.48,0,0,0,.46,1.58,1.52,1.52,0,0,0,2.42,0A2.48,2.48,0,0,0,42,79.08Z" fill="#c9a063"/>
          <path d="M52.65,76.29l-1.56,5.58h-.71L49.2,77.46,48,81.87H47.3l-1.56-5.58h.75l1.16,4.47,1.2-4.47h.69l1.2,4.47,1.17-4.47Z" fill="#c9a063"/>
          <path d="M54,81.87H53.3V76.29H54Z" fill="#c9a063"/>
          <path d="M59.13,77H57.29v4.92h-.73V77H54.71v-.66h4.42Z" fill="#c9a063"/>
          <path d="M64.05,81.87h-.71V79.41H60.46v2.46h-.72V76.29h.72v2.46h2.88V76.29h.71Z" fill="#c9a063"/>
          <path d="M69.63,79.08a3.14,3.14,0,0,1-.63,2,2.29,2.29,0,0,1-3.56,0,3.54,3.54,0,0,1,0-4,2.32,2.32,0,0,1,3.56,0A3.15,3.15,0,0,1,69.63,79.08Zm-.74,0a2.43,2.43,0,0,0-.46-1.57,1.46,1.46,0,0,0-1.21-.6,1.43,1.43,0,0,0-1.21.6,2.43,2.43,0,0,0-.46,1.57A2.48,2.48,0,0,0,66,80.66a1.52,1.52,0,0,0,2.42,0A2.48,2.48,0,0,0,68.89,79.08Z" fill="#c9a063"/>
          <path d="M74.82,79.55a2.54,2.54,0,0,1-.58,1.86,2.26,2.26,0,0,1-1.64.53A2.23,2.23,0,0,1,71,81.41a2.54,2.54,0,0,1-.58-1.86V76.29h.72v3.26a2,2,0,0,0,.36,1.36,1.51,1.51,0,0,0,1.13.35,1.54,1.54,0,0,0,1.14-.35,2,2,0,0,0,.36-1.36V76.29h.72Z" fill="#c9a063"/>
          <path d="M79.85,77H78v4.92h-.73V77H75.43v-.66h4.42Z" fill="#c9a063"/>
          <path d="M86.76,80.32a1.41,1.41,0,0,1-.66,1.23,2.45,2.45,0,0,1-1.42.39,1.82,1.82,0,0,1-2-1.52l.66-.26a1.26,1.26,0,0,0,1.31,1.1,1.64,1.64,0,0,0,1-.29.79.79,0,0,0,.33-.65c0-.26-.19-.49-.58-.7a9.49,9.49,0,0,0-1-.38,4.53,4.53,0,0,1-1.11-.51,1.23,1.23,0,0,1-.52-1,1.3,1.3,0,0,1,.57-1.15,2.25,2.25,0,0,1,1.28-.33,1.74,1.74,0,0,1,1.93,1.31l-.66.27a1.61,1.61,0,0,0-.35-.62,1.37,1.37,0,0,0-.92-.28c-.74,0-1.11.27-1.11.8,0,.18.17.36.53.54.15.07.41.17.79.3a4.67,4.67,0,0,1,1.24.58A1.42,1.42,0,0,1,86.76,80.32Z" fill="#c9a063"/>
          <path d="M92.39,81.87h-.76L91,80.31H88.43l-.64,1.56H87l2.32-5.58h.74Zm-1.68-2.22-1-2.42-1,2.42Z" fill="#c9a063"/>
          <path d="M96.68,81.87H93V76.29h.71v4.92h3Z" fill="#c9a063"/>
          <path d="M101.4,77H99.56v4.92h-.73V77H97v-.66h4.41Z" fill="#c9a063"/>
          <path d="M108.06,77h-2.78V78.7h2.44v.66h-2.44v2.51h-.72V76.29h3.5Z" fill="#c9a063"/>
          <path d="M113.49,79.08a3.14,3.14,0,0,1-.63,2,2.29,2.29,0,0,1-3.56,0,3.54,3.54,0,0,1,0-4,2.32,2.32,0,0,1,3.56,0A3.15,3.15,0,0,1,113.49,79.08Zm-.74,0a2.43,2.43,0,0,0-.46-1.57,1.46,1.46,0,0,0-1.21-.6,1.43,1.43,0,0,0-1.21.6,2.43,2.43,0,0,0-.46,1.57,2.48,2.48,0,0,0,.46,1.58,1.52,1.52,0,0,0,2.42,0A2.48,2.48,0,0,0,112.75,79.08Z" fill="#c9a063"/>
          <path d="M118.72,81.87h-.8l-1.31-2.44H115v2.44h-.72V76.29h2.39a2.27,2.27,0,0,1,1.39.4,1.4,1.4,0,0,1,.54,1.17,1.45,1.45,0,0,1-1.21,1.46Zm-.88-4a.79.79,0,0,0-.28-.64,1.41,1.41,0,0,0-.94-.27H115v1.82h1.65a1.35,1.35,0,0,0,.94-.28A.78.78,0,0,0,117.84,77.86Z" fill="#c9a063"/>
          <path d="M126,77h-1.84v4.92h-.73V77h-1.85v-.66H126Z" fill="#c9a063"/>
          <path d="M130.92,81.87h-.71V79.41h-2.88v2.46h-.72V76.29h.72v2.46h2.88V76.29h.71Z" fill="#c9a063"/>
          <path d="M136.31,81.87h-.8l-1.32-2.44h-1.64v2.44h-.71V76.29h2.38a2.23,2.23,0,0,1,1.39.4,1.38,1.38,0,0,1,.55,1.17A1.45,1.45,0,0,1,135,79.32Zm-.88-4a.82.82,0,0,0-.28-.64,1.41,1.41,0,0,0-.94-.27h-1.66v1.82h1.66a1.37,1.37,0,0,0,.94-.28A.81.81,0,0,0,135.43,77.86Z" fill="#c9a063"/>
          <path d="M140.45,81.87h-3.53V76.29h3.53V77h-2.81V78.7h2.49v.66h-2.49v1.85h2.81Z" fill="#c9a063"/>
          <path d="M144.74,81.87h-3.53V76.29h3.53V77h-2.81V78.7h2.49v.66h-2.49v1.85h2.81Z" fill="#c9a063"/>
          <path d="M152.64,79.13a2.6,2.6,0,0,1-.79,2,3.15,3.15,0,0,1-2.21.73h-1.59V76.29h1.59a3.19,3.19,0,0,1,2.2.65A2.75,2.75,0,0,1,152.64,79.13Zm-.74,0a2.23,2.23,0,0,0-.52-1.67,2.44,2.44,0,0,0-1.74-.51h-.87v4.26h.87a2.36,2.36,0,0,0,1.72-.57A2,2,0,0,0,151.9,79.13Z" fill="#c9a063"/>
          <path d="M158.35,81.87h-.76L157,80.31h-2.56l-.64,1.56H153l2.32-5.58H156Zm-1.68-2.22-1-2.42-1,2.42Z" fill="#c9a063"/>
          <path d="M163.73,76.29l-2.21,3v2.59h-.72V79.29l-2.22-3h.87l1.71,2.31,1.72-2.31Z" fill="#c9a063"/>
          <path d="M168.05,80.32a1.43,1.43,0,0,1-.65,1.23,2.48,2.48,0,0,1-1.43.39,1.82,1.82,0,0,1-2-1.52l.66-.26a1.26,1.26,0,0,0,1.31,1.1,1.62,1.62,0,0,0,1-.29.79.79,0,0,0,.33-.65c0-.26-.19-.49-.58-.7a9.49,9.49,0,0,0-.95-.38,4.93,4.93,0,0,1-1.11-.51,1.22,1.22,0,0,1-.51-1,1.31,1.31,0,0,1,.56-1.15,2.25,2.25,0,0,1,1.28-.33,1.74,1.74,0,0,1,1.93,1.31l-.66.27a1.61,1.61,0,0,0-.35-.62,1.37,1.37,0,0,0-.92-.28c-.74,0-1.11.27-1.11.8,0,.18.18.36.53.54.15.07.41.17.79.3a4.94,4.94,0,0,1,1.25.58A1.44,1.44,0,0,1,168.05,80.32Z" fill="#c9a063"/>
        </g>
        <g>
          <path d="M4.41,89.22H2.57v4.91H1.85V89.22H0v-.66H4.41Z" fill="#c9a063"/>
          <path d="M9.34,94.13H8.63V91.67H5.75v2.46H5V88.56h.72V91H8.63V88.56h.71Z" fill="#c9a063"/>
          <path d="M15.27,94.13h-.75l-.65-1.55H11.31l-.64,1.55H9.91l2.32-5.57H13Zm-1.68-2.22-1-2.41-1,2.41Z" fill="#c9a063"/>
          <path d="M20.32,94.13h-.8l-2.95-4.49v4.49h-.72V88.56h.82l2.94,4.5v-4.5h.71Z" fill="#c9a063"/>
          <path d="M30.37,88.56,28.8,94.13h-.71l-1.18-4.4-1.18,4.4H25l-1.57-5.57h.75L25.37,93l1.2-4.47h.68L28.45,93l1.18-4.47Z" fill="#c9a063"/>
          <path d="M31.74,94.13H31V88.56h.72Z" fill="#c9a063"/>
          <path d="M36.84,89.22H35v4.91h-.73V89.22H32.43v-.66h4.41Z" fill="#c9a063"/>
          <path d="M41.76,94.13h-.71V91.67H38.17v2.46h-.72V88.56h.72V91h2.88V88.56h.71Z" fill="#c9a063"/>
          <path d="M47.34,91.34a3.2,3.2,0,0,1-.62,2,2.32,2.32,0,0,1-3.57,0,3.58,3.58,0,0,1,0-4,2.33,2.33,0,0,1,3.57,0A3.19,3.19,0,0,1,47.34,91.34Zm-.73,0a2.47,2.47,0,0,0-.47-1.57,1.46,1.46,0,0,0-1.21-.59,1.43,1.43,0,0,0-1.2.59,2.47,2.47,0,0,0-.47,1.57,2.53,2.53,0,0,0,.47,1.59,1.51,1.51,0,0,0,2.41,0A2.49,2.49,0,0,0,46.61,91.34Z" fill="#c9a063"/>
          <path d="M52.53,91.82A2.53,2.53,0,0,1,52,93.67a2.79,2.79,0,0,1-3.27,0,2.5,2.5,0,0,1-.58-1.85V88.56h.72v3.26a2,2,0,0,0,.36,1.36,1.53,1.53,0,0,0,1.13.34,1.57,1.57,0,0,0,1.15-.34,2,2,0,0,0,.35-1.36V88.56h.72Z" fill="#c9a063"/>
          <path d="M57.56,89.22H55.72v4.91H55V89.22H53.15v-.66h4.41Z" fill="#c9a063"/>
          <path d="M64.83,89.22H63v4.91h-.72V89.22H60.42v-.66h4.41Z" fill="#c9a063"/>
          <path d="M69,94.13H65.45V88.56H69v.66h-2.8V91h2.48v.66H66.17v1.85H69Z" fill="#c9a063"/>
          <path d="M74.76,94.13H74l-.64-1.55H70.8l-.64,1.55h-.77l2.32-5.57h.74Zm-1.69-2.22-1-2.41-1,2.41Z" fill="#c9a063"/>
          <path d="M81.38,89.22H78.61V91H81v.66H78.61v2.5h-.72V88.56h3.49Z" fill="#c9a063"/>
          <path d="M86.81,91.34a3.2,3.2,0,0,1-.62,2,2.32,2.32,0,0,1-3.57,0,3.54,3.54,0,0,1,0-4,2.33,2.33,0,0,1,3.57,0A3.19,3.19,0,0,1,86.81,91.34Zm-.74,0a2.46,2.46,0,0,0-.46-1.57,1.47,1.47,0,0,0-1.21-.59,1.45,1.45,0,0,0-1.21.59,2.46,2.46,0,0,0-.46,1.57,2.52,2.52,0,0,0,.46,1.59,1.52,1.52,0,0,0,2.42,0A2.49,2.49,0,0,0,86.07,91.34Z" fill="#c9a063"/>
          <path d="M92,94.13h-.8L89.93,91.7H88.29v2.43h-.72V88.56H90a2.19,2.19,0,0,1,1.39.4,1.39,1.39,0,0,1,.54,1.16,1.46,1.46,0,0,1-1.21,1.47Zm-.88-4a.8.8,0,0,0-.27-.63,1.44,1.44,0,0,0-1-.27H88.29V91h1.65a1.45,1.45,0,0,0,1-.28A.82.82,0,0,0,91.16,90.12Z" fill="#c9a063"/>
          <path d="M99.87,91.34a3.14,3.14,0,0,1-.62,2,2.32,2.32,0,0,1-3.57,0,3.58,3.58,0,0,1,0-4,2.33,2.33,0,0,1,3.57,0A3.13,3.13,0,0,1,99.87,91.34Zm-.73,0a2.53,2.53,0,0,0-.46-1.57,1.48,1.48,0,0,0-1.22-.59,1.44,1.44,0,0,0-1.2.59,2.47,2.47,0,0,0-.47,1.57,2.53,2.53,0,0,0,.47,1.59,1.52,1.52,0,0,0,2.42,0A2.55,2.55,0,0,0,99.14,91.34Z" fill="#c9a063"/>
          <path d="M105.11,94.13h-.81l-2.94-4.49v4.49h-.72V88.56h.81l3,4.5v-4.5h.71Z" fill="#c9a063"/>
          <path d="M109.56,94.13H106V88.56h3.53v.66h-2.81V91h2.49v.66h-2.49v1.85h2.81Z" fill="#c9a063"/>
          <path d="M111.15,94.2h-1v-1h1Z" fill="#c9a063"/>
        </g>
        <g>
          <path d="M.21.68c1.93,0,3.73.19,6.84.19C10.56.81,11.93.71,13.42.71a2.14,2.14,0,0,1,0,1.5,14.44,14.44,0,0,0-2.33.55,1.14,1.14,0,0,0-.62,1.53c1.15,4.63,3.63,12.93,5,17.49.09.1.19,0,.25-.06,1.89-5,5.4-15,6.59-19.48a16.14,16.14,0,0,0,3,0c1.21,4.07,5.87,16.75,7.27,20.2.09,0,.25,0,.28-.07,1.4-4.22,4.1-13.36,4.82-16.62.34-1.56.31-2.61-1.09-3a14.65,14.65,0,0,0-3-.55,1.89,1.89,0,0,1,.06-1.5c1.12,0,3.38.16,5.78.16C42.54.87,43.93.71,45,.71a2.93,2.93,0,0,1,0,1.5,9.61,9.61,0,0,0-2.11.52c-1.09.38-1.71,1.06-2.43,2.92-2.14,5.85-6.24,18.68-8.11,24.65a23.84,23.84,0,0,0-2.92.06c-1.15-3.82-5.56-16.22-7.15-20.11a.23.23,0,0,0-.24.07c-2,5.43-5.6,15.32-7,20a15.41,15.41,0,0,0-2.95.06C10.62,24.24,6.55,10.44,4.9,5.75c-.59-1.68-1.18-2.64-2.3-3A8.57,8.57,0,0,0,.09,2.21,2.12,2.12,0,0,1,.21.68Z" fill="#c9a063"/>
          <path d="M43.46,24.42C46,18.46,50.21,7,51.33,3.79a17.93,17.93,0,0,0,.87-3c.43,0,1.15.09,2,.09s1.52-.06,2-.09c.19.74.47,1.74.75,2.61C58.23,7,62.79,20.14,64.47,24.21c1.49,3.57,1.77,3.85,5.25,4.38a2.21,2.21,0,0,1-.12,1.49c-1.21,0-3.51-.15-6.37-.15-3.11,0-5.35.15-6.71.15-.16-.25-.22-1.33,0-1.49A17,17,0,0,0,58.94,28a.84.84,0,0,0,.5-1.12c-.47-1.8-1.77-5.5-2.55-7.46-.06-.09-.28-.31-.44-.31-.71-.06-2.39,0-4.1,0-2.51,0-3.29,0-3.88,0-.19,0-.41.25-.5.47-.93,2.45-2.21,5.9-2.21,6.87,0,.74.07,1.33,1.37,1.64.75.16,1.46.31,2.33.44a1.91,1.91,0,0,1-.12,1.49c-1.15,0-3.3-.15-6.06-.15-2.24,0-4,.15-5.19.15a2.18,2.18,0,0,1,0-1.49C41.44,28.12,42.1,27.75,43.46,24.42ZM52.38,6.68c-.9,2.52-2.45,7.27-3.29,9.63,0,.22,0,.32.15.35.5.06,1.78.06,3.3.06s2.7,0,3.2-.06c.09,0,.19-.19.19-.35-.78-2.23-2.46-7.33-3.3-9.63A.69.69,0,0,0,52.38,6.68Z" fill="#c9a063"/>
          <path d="M68.13.71c1.43,0,3.79.16,6.44.16,1.18,0,2.3-.06,2.82-.09a9.88,9.88,0,0,0,1.78,2.61c4.28,5.44,12.8,16,15.44,19.2.12,0,.12-.06.22-.09,0-6.28,0-13.89-.22-17.22-.12-1.46-.5-2.23-2-2.61a17.11,17.11,0,0,0-3-.46c-.25-.19-.16-1.4,0-1.5,1.24,0,3.38.16,6.4.16,2.11,0,4.54-.16,5.25-.16a2,2,0,0,1,0,1.5,11.55,11.55,0,0,0-2,.37C98,3,97.56,3.73,97.47,5.38c-.31,3.91-.37,10.62-.4,18.27,0,2.14,0,4.91.09,6.55-.62-.09-3.23,0-4,0C90.51,26.44,78.54,11.12,75.53,7.33c-.16-.12-.25,0-.25,0-.09,5.07,0,15.45.09,17.81.1,2,.78,2.64,2.06,2.92a19.36,19.36,0,0,0,2.82.53,2,2,0,0,1-.09,1.49c-1.37,0-3.54-.15-6-.15-2.73,0-4.69.15-6,.15a2.18,2.18,0,0,1,0-1.49,12.84,12.84,0,0,0,2.61-.53c1.11-.31,1.61-1.06,1.77-2.76.25-2.49.37-10.94.46-19.52a2.89,2.89,0,0,0-1.52-2.67,8.22,8.22,0,0,0-3.42-.9A2.82,2.82,0,0,1,68.13.71Z" fill="#c9a063"/>
          <path d="M112.82,17a.74.74,0,0,1,.18-.47,7,7,0,0,0,1.62.13,5.54,5.54,0,0,0,2.92-.72c1.86-1.09,2.61-3,2.61-5.9,0-4.39-2.24-7.46-6.87-7.46a5,5,0,0,0-1.67.25.74.74,0,0,0-.32.59c-.09,1.3-.15,3.91-.15,11,0,4,0,8.73.09,11.28.1,1.4.34,2.14,1.65,2.42a18.83,18.83,0,0,0,3,.47,1.83,1.83,0,0,1-.12,1.49c-1.62,0-4.85-.15-7.12-.15s-5.1.15-6.8.15a2.47,2.47,0,0,1-.07-1.49c1-.13,1.84-.25,2.55-.37,1.15-.35,1.34-1.06,1.43-2.68s.09-5.25.09-10.75c0-5.31.07-8.2-.06-9.69s-.31-2.27-1.65-2.58c-.62-.1-1.39-.22-2.29-.31a2,2,0,0,1,.09-1.5c1,0,3.63.16,6,.16,3.2-.06,5.28-.09,8.48-.09,1.59,0,4.41.21,6.28,1.71A7.79,7.79,0,0,1,125.81,9a8.91,8.91,0,0,1-4.63,8.08,11.56,11.56,0,0,1-5.57,1.37,7.34,7.34,0,0,1-2-.19A3,3,0,0,1,112.82,17Z" fill="#c9a063"/>
          <path d="M132.51,26.44a16.26,16.26,0,0,1-4.13-11.21A14.54,14.54,0,0,1,132,5.28,16.48,16.48,0,0,1,144.35,0c9.76,0,14.89,6.93,14.89,14.85a16.06,16.06,0,0,1-2.89,9.79,15.44,15.44,0,0,1-12.68,6.16C138.76,30.8,135,29.12,132.51,26.44Zm17.22.63c2.64-2.24,3.48-6.34,3.48-10.6,0-5-1.46-10.07-4.85-12.68A8.39,8.39,0,0,0,142.93,2a7.4,7.4,0,0,0-4,1c-3.11,2-4.39,6.19-4.39,10.94s1.56,10.2,5.32,13a9.23,9.23,0,0,0,5.44,1.68A6.77,6.77,0,0,0,149.73,27.07Z" fill="#c9a063"/>
        </g>
      </g>
    </g>
  </g>
</svg>
