<svg xmlns="http://www.w3.org/2000/svg" width="11.21" height="20.74" viewBox="0 0 11.21 20.74">
  <title>fb</title>
  <g id="圖層_2" data-name="圖層 2">
    <g id="menu">
      <path d="M10.79,0H8.1a4.72,4.72,0,0,0-5,5.1V7.46H.42A.42.42,0,0,0,0,7.88v3.41a.42.42,0,0,0,.42.42H3.13v8.6a.42.42,0,0,0,.42.43H7.08a.42.42,0,0,0,.42-.43v-8.6h3.16a.42.42,0,0,0,.42-.42V7.88a.43.43,0,0,0-.13-.3.41.41,0,0,0-.3-.12H7.5v-2C7.5,4.5,7.73,4,9,4h1.81a.42.42,0,0,0,.42-.43V.43A.42.42,0,0,0,10.79,0Z"/>
    </g>
  </g>
</svg>
