<svg xmlns="http://www.w3.org/2000/svg" width="39.34" height="43.71" viewBox="0 0 39.34 43.71">
  <title>fixmenu-close</title>
  <g id="圖層_2" data-name="圖層 2">
    <g id="design">
      <g>
        <path d="M30.75,1.53a.3.3,0,0,0-.15.38c0,.08,0,.18-.1.23s0,.09,0,.13-.05.32-.16.45-.15.2,0,.33a.19.19,0,0,1,0,.27c-.13.12-.27.22-.25.42S30,3.9,29.94,4a.39.39,0,0,0-.08.14c0,.08,0,.17-.1.2s0,0,0,.06a.83.83,0,0,1-.24.42.16.16,0,0,0,0,.15.57.57,0,0,1-.23.66.33.33,0,0,0-.18.35c0,.06-.09.16-.16.23s-.17.18-.47.22a3,3,0,0,1-.31,0,.18.18,0,0,1-.13,0c-.19-.22-.42,0-.64,0l0,0c-.05.18-.22.14-.36.16L26,6.7a.34.34,0,0,0-.18,0c-.05.17-.21.16-.33.16s-.21.18-.34.25,0,.09-.09.1-.23,0-.25.16-.1,0-.15,0a.71.71,0,0,0-.14.1s-.07.07-.12.08-.21,0-.21.15l-.07,0c-.22,0-.26.18-.38.27s-.07.08-.11.09l-.54.07c0-.27-.21-.35-.42-.47l.18-.16a2.64,2.64,0,0,0-.29-.21c-.12-.07-.17-.2-.06-.27s.09-.13.08-.21c0-.26-.07-.53-.1-.79,0-.09,0-.17.08-.24s0-.13,0-.2-.06-.2.09-.26,0-.09,0-.13,0-.26,0-.4a.19.19,0,0,1,.08-.23c.12-.08,0-.24-.17-.34A.28.28,0,0,0,22.72,4c0-.08,0-.17.1-.2a.17.17,0,0,0,0-.06c-.07-.15.07-.24.15-.34s.15-.16.13-.29.09-.15.15-.21c.28-.31.57-.61.85-.91a2,2,0,0,0,.18-.23s.07-.08.12-.08.19,0,.22-.15.08,0,.12-.05.17,0,.18-.12.07-.05.11-.06.19,0,.22-.14.1-.06.15,0c.24,0,.34-.14.46-.28S26,.71,26,.72c.22,0,.28-.16.36-.26a.32.32,0,0,1,.22-.12l.3,0s.12,0,.13,0c.12-.25.39-.12.58-.18,0,0,.05,0,.08,0,.24.13.28.12.44-.1.1.19.28.12.45.11a1,1,0,0,1,.41,0c.11,0,.18.16.29.21s.23.2.43.15c0,0,.12.07.18.11s.31.13.29.32c0,0,0,.05,0,.05.22,0,.16.22.2.35s.19.17.3.24Z" fill="#231815"/>
        <path d="M16.54,5.86a4.61,4.61,0,0,1-1-1,3.34,3.34,0,0,0-1-1,3.81,3.81,0,0,1-.67-.53c-.15-.15-.25-.35-.4-.51-.48-.52-.95-1-1.46-1.53-.24-.24-.06-.21-.36-.39A.64.64,0,0,0,11,.9c-.2.11-.17.06-.38.06a1.72,1.72,0,0,0-.9.33,2.43,2.43,0,0,1-1,.42c-.05,0-.09.07-.14.08-.3.06-.55.28-.89.26a.39.39,0,0,0-.29.08c-.12.15-.16.36-.37.43,0,.3-.31.34-.49.5l-.78.87a.17.17,0,0,1,0,.15,1.68,1.68,0,0,1-.39.51.44.44,0,0,0-.2.39c-.05.36-.09.72-.14,1.08l6.27,4.08,2.91,2.08.06.12,4.57,3.4a.54.54,0,0,1,.36.18,2.45,2.45,0,0,0,.66.53,8,8,0,0,1,1.13.89c.53.43,1,.88,1.58,1.29.11.07.19.18.3.26a9.42,9.42,0,0,1,.86.67,7,7,0,0,0,.69.53,5.08,5.08,0,0,0,.71.54,3.75,3.75,0,0,1,.89.76c.39.39.75.81,1.15,1.2.16.15.41.22.56.37s.73.42.83.86c0,0,.12.06.17.1.3.27.69.5.65,1L30,25a2.7,2.7,0,0,0,.33-.38c.15-.25-.26-.43-.28-.75s.21-.81,0-1.25a1.15,1.15,0,0,1-.23-.86s0-.09-.07-.14a4.06,4.06,0,0,1-.57-1,1,1,0,0,0-.29-.38,1.77,1.77,0,0,1-.47-.71,5.11,5.11,0,0,0-.41-.62c-.06-.09-.14-.16-.2-.25s-.22-.37-.32-.56a7.08,7.08,0,0,1-.49-.89,2.59,2.59,0,0,0-.87-1.12,2.31,2.31,0,0,1-.65-.81,1.7,1.7,0,0,0-.34-.5c-.31-.3-.65-.57-1-.86a.61.61,0,0,1-.18-.25L18.39,7.39A14.32,14.32,0,0,0,16.54,5.86Z" fill="#231815"/>
        <path d="M16.23,13c-.2,0-.41,0-.6.09a1.26,1.26,0,0,1-.57.11l-.06,0a3,3,0,0,1-.55.24.43.43,0,0,0-.16.14.91.91,0,0,1-.32.22,1.47,1.47,0,0,0-.28.14.87.87,0,0,0-.11.09l-.25.16c-.14.08-.26.17-.41.24a1.14,1.14,0,0,0-.49.4,1,1,0,0,1-.35.3.94.94,0,0,0-.23.16l-.35.43-.11.09L8.54,18.22a5.82,5.82,0,0,0-.63.8,2.22,2.22,0,0,1-.41.46,1.35,1.35,0,0,0-.41.45,1.48,1.48,0,0,1-.22.29,1.92,1.92,0,0,1-.22.18c-.22.22-.45.43-.66.66s.24.44.17.56a.17.17,0,0,0,0,.2.46.46,0,0,1,.15.22c0,.15.13.23.22.33s.25.21.27.37l0,0c.05.12.17.2.18.33s0,.09.06.1.18,0,.24.12.18.09.27.15l.24.12a.13.13,0,0,0,.06.07.57.57,0,0,1,.19.19c0,.14.17.2.27.28s.29.16.34.31l.06,0c.07.11.2.16.24.29a.14.14,0,0,0,.08.09c.08,0,.18,0,.25.07s.2.06.3.1l.51.14.07,0a1.14,1.14,0,0,1,.29.06.26.26,0,0,0,.21,0l.53-.12,1.07-2.89.59-1.38.05,0,1-2.18a.19.19,0,0,1,0-.16,1,1,0,0,0,.16-.32,3.49,3.49,0,0,1,.27-.55c.13-.25.27-.5.39-.76,0-.06.06-.1.08-.15s.12-.29.2-.42a2.49,2.49,0,0,0,.16-.33,1.3,1.3,0,0,0,.15-.34,1.91,1.91,0,0,1,.24-.44c.13-.2.28-.39.41-.6s.05-.18.1-.26.1-.33.29-.43c0,0,0,0,0-.08s.14-.32.37-.38v0h0v-.22a.93.93,0,0,0-.2-.1A.72.72,0,0,0,16.23,13Z" fill="#231815"/>
      </g>
      <g opacity="0.8">
        <path d="M39.34,41.21c-1.05-1-4.83-1.3-6.47-1.72a13.18,13.18,0,0,1-1.48-.32c-.31-.09.41,0,1.48.32l1.72.26c-.82-.41-1.61-.82-2.18-1.15l-1.29-.12c-1.93-.19-3.79-.23-5.7-.46-.69-.1-2.21-.09-2.88-.28,2.81,0,5.62.15,8.42.31L30.73,38c-1.47-.18-2.94-.32-4.42-.46a6.88,6.88,0,0,1-.77-.07l.77.07c.66,0,1.29-.08,2-.09.44,0,.94.18,1.39.21a4.22,4.22,0,0,1,1,.34l.66.08.21,0h0c-.51-.79-6.11-1.91-7-1.74-.74.1-1.41.73-2.23.81-.27,0-.5-.13-.71,0,0,.1-.12.17-.23.24-.54.07-1.1-.27-1.51,0-.29.13-1.17-1.38-1.23-1.09-.19,1-.05.29-.75.22-.09,0-.34.42-.51.38-.59-.24-.74.13-1.38.28-1,.38-1.21-.27-2,.45-.1.08-1.41.59-1.41.59-1.06,0-1.67.56-2.54-.11-.89.72-2.21.07-3.21.29s-1.46-.26-2.4-.61c-.26,0-.44,0-.6-.1s-.48.32-.74.28l0-.29-.34,0c-.09,0-.08-.12-.07-.21s0-.39-.13-.51a5.55,5.55,0,0,0-1.13-.24c-.34.19-.68.39-1,.61a2.06,2.06,0,0,1,0,.38l-.29.25c0,.29,0,.6,0,.79.11.8-.23,1.63,0,2.35.07.21.68.2,1,.54.08.11,0,.39-.06.68.35,0,.41.26.3.54l.17,0,0,.39c.93.24,2,.8,2.8.35a2.92,2.92,0,0,0,.65-.48c.09-.08.34.06.42.07a3.14,3.14,0,0,0,.09-.87c.67.22,2.09.57,1.95-.44.52,0,.58-.48,1.11-.58.7-.14,1.6-.29,2.49-.39a10,10,0,0,1,1.42-.16l.51,0c3.55-.33,6.18.35,9.62-.5a25.47,25.47,0,0,1,10.17-.09c3,.52,5.3,1.32,6.15,1.48Z" fill="#3a302e"/>
      </g>
    </g>
  </g>
</svg>
