<svg xmlns="http://www.w3.org/2000/svg" width="286.94" height="286.94" viewBox="0 0 286.94 286.94">
  <title>flaginnews</title>
  <g id="圖層_2" data-name="圖層 2">
    <g id="text">
      <path d="M226.9,72.12l-4.2-1.42-1.15-4.28A78.17,78.17,0,0,0,146.26,8.64h-5.58A78.17,78.17,0,0,0,65.39,66.42L64.24,70.7,60,72.12a75.22,75.22,0,0,0,0,142.7l4.2,1.42,1.15,4.28a78.17,78.17,0,0,0,75.29,57.78h5.58a78.17,78.17,0,0,0,75.29-57.78l1.15-4.28,4.2-1.42a75.22,75.22,0,0,0,0-142.7Z" fill="none"/>
      <g>
        <path d="M79.41,201.94H77.64v-1.3h5.11v1.3H81v5.24H79.41Z" fill="#231815"/>
        <path d="M90,205.68H88l-.38,1.5h-1.6l2-6.54H90l2,6.54H90.34Zm-.3-1.22-.14-.55c-.17-.65-.34-1.43-.52-2.1h0c-.16.69-.34,1.45-.5,2.1l-.14.55Z" fill="#231815"/>
        <path d="M96.19,200.64h1.58v6.54H96.19Z" fill="#231815"/>
        <path d="M102.49,204a3.15,3.15,0,0,1,3.11-3.43,2.81,2.81,0,0,1,2,.85l-.83,1a1.62,1.62,0,0,0-1.13-.5c-.84,0-1.54.75-1.54,2s.6,2.06,1.52,2.06a1.72,1.72,0,0,0,1.25-.6l.83,1a2.72,2.72,0,0,1-2.14,1A3,3,0,0,1,102.49,204Z" fill="#231815"/>
        <path d="M112.16,200.64h1.57v2.49h2.16v-2.49h1.55v6.54h-1.55v-2.69h-2.16v2.69h-1.57Z" fill="#231815"/>
        <path d="M122.45,204.1v-3.46H124v3.63c0,1.24.37,1.68,1.09,1.68s1.1-.44,1.1-1.68v-3.63h1.51v3.46c0,2.21-.87,3.2-2.61,3.2S122.45,206.31,122.45,204.1Z" fill="#231815"/>
        <path d="M132.7,200.64h1.6l1.63,3.13.64,1.45h0a20,20,0,0,1-.21-2.42v-2.16h1.49v6.54h-1.6L134.68,204l-.64-1.43h0c.07.73.21,1.63.21,2.42v2.17h-1.5Z" fill="#231815"/>
        <path d="M142.63,204a3.18,3.18,0,0,1,3.22-3.43,2.91,2.91,0,0,1,2.09.85l-.84,1a1.63,1.63,0,0,0-1.2-.5c-1,0-1.66.75-1.66,2S144.82,206,146,206a1.09,1.09,0,0,0,.63-.17v-1.05h-1v-1.28h2.43v3.05a3.21,3.21,0,0,1-2.18.8A3.08,3.08,0,0,1,142.63,204Z" fill="#231815"/>
        <path d="M159.68,201.94h-1.76v-1.3H163v1.3h-1.78v5.24h-1.57Z" fill="#231815"/>
        <path d="M170.24,205.68H168.3l-.37,1.5h-1.6l2-6.54h1.88l2,6.54h-1.65Zm-.3-1.22-.14-.55c-.18-.65-.35-1.43-.52-2.1h0c-.15.69-.33,1.45-.5,2.1l-.14.55Z" fill="#231815"/>
        <path d="M176.47,200.64H178v6.54h-1.57Z" fill="#231815"/>
        <path d="M182.43,200.64H184l.41,3,.26,2.07h0c.12-.69.25-1.39.38-2.07l.67-3h1.32l.68,3c.13.67.25,1.37.38,2.07h0c.08-.7.17-1.39.25-2.07l.42-3h1.49l-1.13,6.54h-2l-.59-2.85c-.11-.5-.2-1-.26-1.52h0c-.08.5-.16,1-.26,1.52l-.57,2.85h-1.94Z" fill="#231815"/>
        <path d="M197.88,205.68h-1.94l-.37,1.5H194l2-6.54h1.88l2,6.54h-1.66Zm-.3-1.22-.14-.55c-.18-.65-.34-1.43-.52-2.1h0c-.15.69-.33,1.45-.5,2.1l-.14.55Z" fill="#231815"/>
        <path d="M204.11,200.64h1.6l1.62,3.13.64,1.45H208a20,20,0,0,1-.21-2.42v-2.16h1.49v6.54h-1.6L206.09,204l-.64-1.43h0c.07.73.2,1.63.2,2.42v2.17h-1.49Z" fill="#231815"/>
      </g>
      <g>
        <path d="M78.3,221.61h-.65l-1.08-2H75.23v2h-.59V217h2a1.8,1.8,0,0,1,1.14.33,1.14,1.14,0,0,1,.45.95,1.2,1.2,0,0,1-1,1.21Zm-.72-3.29a.67.67,0,0,0-.23-.52,1.2,1.2,0,0,0-.77-.22H75.23v1.49h1.35a1.14,1.14,0,0,0,.77-.22A.69.69,0,0,0,77.58,218.32Z" fill="#231815"/>
        <path d="M82.92,221.61H82.3l-.53-1.28H79.68l-.53,1.28h-.63l1.9-4.57H81Zm-1.38-1.82-.82-2-.81,2Z" fill="#231815"/>
        <path d="M86.76,217.58H85.25v4h-.6v-4H83.14V217h3.62Z" fill="#231815"/>
        <path d="M90.79,221.61h-.58v-2H87.85v2h-.59V217h.59v2h2.36v-2h.58Z" fill="#231815"/>
        <path d="M94.43,221.61H91.54V217h2.89v.54h-2.3V219h2v.54h-2v1.51h2.3Z" fill="#231815"/>
        <path d="M98.72,221.61h-.66l-1.08-2H95.64v2h-.59V217h2a1.8,1.8,0,0,1,1.14.33,1.14,1.14,0,0,1,.45.95,1.21,1.21,0,0,1-1,1.21ZM98,218.32a.66.66,0,0,0-.22-.52,1.2,1.2,0,0,0-.77-.22H95.64v1.49H97a1.18,1.18,0,0,0,.77-.22A.68.68,0,0,0,98,218.32Z" fill="#231815"/>
        <path d="M105.11,218l-.56.23a1.38,1.38,0,0,0-1.26-.72,1.33,1.33,0,0,0-1.05.47,2,2,0,0,0-.45,1.4,1.76,1.76,0,0,0,.45,1.25,1.29,1.29,0,0,0,1,.42,1.14,1.14,0,0,0,.81-.31,1.38,1.38,0,0,0,.42-1.09v0h-1.19v-.54H105v2.5h-.58v-.52a1.6,1.6,0,0,1-1.23.58,1.87,1.87,0,0,1-1.4-.61,2.25,2.25,0,0,1-.61-1.64,2.61,2.61,0,0,1,.59-1.79,2,2,0,0,1,1.51-.64A2,2,0,0,1,105.11,218Z" fill="#231815"/>
        <path d="M109.67,219.32a2.58,2.58,0,0,1-.51,1.65,1.87,1.87,0,0,1-2.92,0,2.58,2.58,0,0,1-.51-1.65,2.62,2.62,0,0,1,.51-1.65,1.91,1.91,0,0,1,2.92,0A2.62,2.62,0,0,1,109.67,219.32Zm-.6,0a1.94,1.94,0,0,0-.38-1.28,1.25,1.25,0,0,0-2,0,2,2,0,0,0-.38,1.28,2.07,2.07,0,0,0,.38,1.3,1.19,1.19,0,0,0,1,.49,1.18,1.18,0,0,0,1-.49A2,2,0,0,0,109.07,219.32Z" fill="#231815"/>
        <path d="M117.77,217l-1.28,4.57h-.58l-1-3.61-1,3.61h-.58L112.11,217h.61l1,3.66,1-3.66h.56l1,3.66,1-3.66Z" fill="#231815"/>
        <path d="M118.89,221.61h-.58V217h.58Z" fill="#231815"/>
        <path d="M123.07,217.58h-1.5v4H121v-4h-1.51V217h3.61Z" fill="#231815"/>
        <path d="M127.11,221.61h-.58v-2h-2.36v2h-.59V217h.59v2h2.36v-2h.58Z" fill="#231815"/>
        <path d="M131.68,219.32a2.58,2.58,0,0,1-.51,1.65,1.88,1.88,0,0,1-2.93,0,2.58,2.58,0,0,1-.51-1.65,2.62,2.62,0,0,1,.51-1.65,1.92,1.92,0,0,1,2.93,0A2.62,2.62,0,0,1,131.68,219.32Zm-.6,0a2,2,0,0,0-.38-1.28,1.2,1.2,0,0,0-1-.49,1.15,1.15,0,0,0-1,.49,1.94,1.94,0,0,0-.39,1.28,2,2,0,0,0,.39,1.3,1.17,1.17,0,0,0,1,.49,1.2,1.2,0,0,0,1-.49A2.05,2.05,0,0,0,131.08,219.32Z" fill="#231815"/>
        <path d="M135.93,219.71a2.08,2.08,0,0,1-.48,1.52,2.26,2.26,0,0,1-2.68,0,2.09,2.09,0,0,1-.47-1.52V217h.59v2.67a1.67,1.67,0,0,0,.29,1.12,1.7,1.7,0,0,0,1.87,0,1.67,1.67,0,0,0,.29-1.12V217h.59Z" fill="#231815"/>
        <path d="M140.05,217.58h-1.51v4H138v-4h-1.52V217h3.62Z" fill="#231815"/>
        <path d="M145.71,220.34a1.16,1.16,0,0,1-.53,1,2.1,2.1,0,0,1-1.18.32,1.5,1.5,0,0,1-1.61-1.24l.55-.22a1,1,0,0,0,1.06.9,1.28,1.28,0,0,0,.83-.24.61.61,0,0,0,.28-.53c0-.21-.16-.4-.48-.58q-.23-.1-.78-.3a4.18,4.18,0,0,1-.91-.42,1,1,0,0,1-.42-.84,1.08,1.08,0,0,1,.47-.94,1.82,1.82,0,0,1,1-.27,1.46,1.46,0,0,1,1.58,1.07l-.55.23a1.2,1.2,0,0,0-.29-.51,1.06,1.06,0,0,0-.74-.23c-.61,0-.92.22-.92.65,0,.15.15.3.44.45a5.42,5.42,0,0,0,.65.24,4,4,0,0,1,1,.48A1.14,1.14,0,0,1,145.71,220.34Z" fill="#231815"/>
        <path d="M150.33,221.61h-.62l-.53-1.28h-2.1l-.53,1.28h-.62l1.9-4.57h.6Zm-1.39-1.82-.81-2-.82,2Z" fill="#231815"/>
        <path d="M153.84,221.61h-3V217h.59v4h2.45Z" fill="#231815"/>
        <path d="M157.71,217.58H156.2v4h-.6v-4h-1.51V217h3.62Z" fill="#231815"/>
        <path d="M163.16,217.58h-2.27V219h2v.54h-2v2.05h-.59V217h2.86Z" fill="#231815"/>
        <path d="M167.61,219.32a2.58,2.58,0,0,1-.51,1.65,1.88,1.88,0,0,1-2.93,0,2.57,2.57,0,0,1-.5-1.65,2.61,2.61,0,0,1,.5-1.65,1.92,1.92,0,0,1,2.93,0A2.62,2.62,0,0,1,167.61,219.32Zm-.6,0a2,2,0,0,0-.38-1.28,1.18,1.18,0,0,0-1-.49,1.15,1.15,0,0,0-1,.49,1.94,1.94,0,0,0-.38,1.28,2,2,0,0,0,.38,1.3,1.25,1.25,0,0,0,2,0A2.05,2.05,0,0,0,167,219.32Z" fill="#231815"/>
        <path d="M171.9,221.61h-.66l-1.08-2h-1.34v2h-.59V217h2a1.8,1.8,0,0,1,1.14.33,1.14,1.14,0,0,1,.45.95,1.2,1.2,0,0,1-1,1.21Zm-.72-3.29a.67.67,0,0,0-.23-.52,1.2,1.2,0,0,0-.77-.22h-1.36v1.49h1.36a1.18,1.18,0,0,0,.77-.22A.69.69,0,0,0,171.18,218.32Z" fill="#231815"/>
        <path d="M177.86,217.58h-1.51v4h-.6v-4h-1.51V217h3.62Z" fill="#231815"/>
        <path d="M181.89,221.61h-.58v-2H179v2h-.59V217H179v2h2.36v-2h.58Z" fill="#231815"/>
        <path d="M186.3,221.61h-.65l-1.08-2h-1.34v2h-.59V217h2a1.85,1.85,0,0,1,1.15.33,1.15,1.15,0,0,1,.44.95,1.2,1.2,0,0,1-1,1.21Zm-.72-3.29a.66.66,0,0,0-.22-.52,1.23,1.23,0,0,0-.78-.22h-1.35v1.49h1.35a1.19,1.19,0,0,0,.78-.22A.68.68,0,0,0,185.58,218.32Z" fill="#231815"/>
        <path d="M189.69,221.61h-2.88V217h2.88v.54H187.4V219h2v.54h-2v1.51h2.29Z" fill="#231815"/>
        <path d="M193.21,221.61h-2.89V217h2.89v.54h-2.3V219h2v.54h-2v1.51h2.3Z" fill="#231815"/>
        <path d="M199.68,219.37A2.13,2.13,0,0,1,199,221a2.55,2.55,0,0,1-1.81.6h-1.31V217h1.31a2.63,2.63,0,0,1,1.8.53A2.24,2.24,0,0,1,199.68,219.37Zm-.6,0a1.84,1.84,0,0,0-.43-1.37,2,2,0,0,0-1.42-.42h-.72v3.49h.72a1.87,1.87,0,0,0,1.4-.47A1.63,1.63,0,0,0,199.08,219.37Z" fill="#231815"/>
        <path d="M204.36,221.61h-.62l-.53-1.28h-2.09l-.53,1.28H200l1.91-4.57h.6ZM203,219.79l-.81-2-.82,2Z" fill="#231815"/>
        <path d="M208.77,217,207,219.49v2.12h-.59V219.5L204.55,217h.71l1.4,1.89,1.41-1.89Z" fill="#231815"/>
        <path d="M212.3,220.34a1.14,1.14,0,0,1-.53,1,2,2,0,0,1-1.17.32,1.5,1.5,0,0,1-1.61-1.24l.54-.22a1,1,0,0,0,1.07.9,1.3,1.3,0,0,0,.83-.24.62.62,0,0,0,.27-.53c0-.21-.16-.4-.47-.58q-.22-.1-.78-.3a4,4,0,0,1-.91-.42,1,1,0,0,1-.42-.84,1.08,1.08,0,0,1,.46-.94,1.86,1.86,0,0,1,1-.27,1.71,1.71,0,0,1,1.13.34,1.58,1.58,0,0,1,.45.73l-.54.23a1.2,1.2,0,0,0-.29-.51,1.1,1.1,0,0,0-.75-.23c-.61,0-.91.22-.91.65,0,.15.14.3.43.45a6.2,6.2,0,0,0,.65.24,4.08,4.08,0,0,1,1,.48A1.16,1.16,0,0,1,212.3,220.34Z" fill="#231815"/>
        <path d="M100.33,226.37H98.82v4h-.6v-4H96.71v-.54h3.62Z" fill="#231815"/>
        <path d="M104.36,230.4h-.58v-2h-2.36v2h-.59v-4.57h.59v2h2.36v-2h.58Z" fill="#231815"/>
        <path d="M109.22,230.4h-.62l-.52-1.28H106l-.53,1.28h-.62l1.9-4.57h.6Zm-1.38-1.82-.81-2-.82,2Z" fill="#231815"/>
        <path d="M113.36,230.4h-.66l-2.42-3.69v3.69h-.59v-4.57h.67l2.42,3.69v-3.69h.58Z" fill="#231815"/>
        <path d="M121.59,225.83l-1.28,4.57h-.59l-1-3.61-1,3.61h-.59l-1.28-4.57h.62l.95,3.66,1-3.66H119l1,3.66,1-3.66Z" fill="#231815"/>
        <path d="M122.71,230.4h-.59v-4.57h.59Z" fill="#231815"/>
        <path d="M126.89,226.37h-1.51v4h-.59v-4h-1.52v-.54h3.62Z" fill="#231815"/>
        <path d="M130.92,230.4h-.58v-2H128v2h-.59v-4.57H128v2h2.36v-2h.58Z" fill="#231815"/>
        <path d="M135.49,228.11a2.58,2.58,0,0,1-.51,1.65,1.89,1.89,0,0,1-2.92,0,2.58,2.58,0,0,1-.51-1.65,2.62,2.62,0,0,1,.51-1.65,1.91,1.91,0,0,1,2.92,0A2.62,2.62,0,0,1,135.49,228.11Zm-.6,0a2,2,0,0,0-.38-1.29,1.26,1.26,0,0,0-2,0,2,2,0,0,0-.38,1.29,2.07,2.07,0,0,0,.38,1.3,1.25,1.25,0,0,0,2,0A2.05,2.05,0,0,0,134.89,228.11Z" fill="#231815"/>
        <path d="M139.75,228.5a2.08,2.08,0,0,1-.48,1.52,2.3,2.3,0,0,1-2.68,0,2.07,2.07,0,0,1-.47-1.52v-2.67h.59v2.67a1.57,1.57,0,0,0,.29,1.11,1.64,1.64,0,0,0,1.86,0,1.57,1.57,0,0,0,.3-1.11v-2.67h.59Z" fill="#231815"/>
        <path d="M143.87,226.37h-1.51v4h-.6v-4h-1.51v-.54h3.62Z" fill="#231815"/>
        <path d="M149.82,226.37h-1.5v4h-.6v-4h-1.51v-.54h3.61Z" fill="#231815"/>
        <path d="M153.22,230.4h-2.89v-4.57h2.89v.54h-2.3v1.44h2v.53h-2v1.52h2.3Z" fill="#231815"/>
        <path d="M158,230.4h-.61l-.53-1.28h-2.1l-.53,1.28h-.62l1.9-4.57h.6Zm-1.38-1.82-.81-2-.82,2Z" fill="#231815"/>
        <path d="M163.38,226.37h-2.27v1.44h2v.53h-2v2.06h-.59v-4.57h2.86Z" fill="#231815"/>
        <path d="M167.82,228.11a2.58,2.58,0,0,1-.51,1.65,1.74,1.74,0,0,1-1.46.69,1.76,1.76,0,0,1-1.46-.69,2.58,2.58,0,0,1-.51-1.65,2.62,2.62,0,0,1,.51-1.65,1.78,1.78,0,0,1,1.46-.68,1.75,1.75,0,0,1,1.46.68A2.62,2.62,0,0,1,167.82,228.11Zm-.6,0a2,2,0,0,0-.38-1.29,1.26,1.26,0,0,0-2,0,2,2,0,0,0-.38,1.29,2.07,2.07,0,0,0,.38,1.3,1.2,1.2,0,0,0,1,.49,1.18,1.18,0,0,0,1-.49A2,2,0,0,0,167.22,228.11Z" fill="#231815"/>
        <path d="M172.12,230.4h-.66l-1.08-2H169v2h-.59v-4.57h2a1.85,1.85,0,0,1,1.15.33,1.15,1.15,0,0,1,.44,1,1.18,1.18,0,0,1-1,1.2Zm-.73-3.29a.66.66,0,0,0-.22-.52,1.17,1.17,0,0,0-.78-.22H169v1.49h1.35a1.19,1.19,0,0,0,.78-.23A.65.65,0,0,0,171.39,227.11Z" fill="#231815"/>
        <path d="M178.53,228.11a2.58,2.58,0,0,1-.51,1.65,1.77,1.77,0,0,1-1.47.69,1.73,1.73,0,0,1-1.45-.69,2.58,2.58,0,0,1-.51-1.65,2.62,2.62,0,0,1,.51-1.65,1.75,1.75,0,0,1,1.45-.68,1.79,1.79,0,0,1,1.47.68A2.62,2.62,0,0,1,178.53,228.11Zm-.6,0a2,2,0,0,0-.38-1.29,1.2,1.2,0,0,0-1-.48,1.16,1.16,0,0,0-1,.48,2,2,0,0,0-.38,1.29,2,2,0,0,0,.38,1.3,1.25,1.25,0,0,0,2,0A2.05,2.05,0,0,0,177.93,228.11Z" fill="#231815"/>
        <path d="M182.82,230.4h-.66l-2.42-3.69v3.69h-.59v-4.57h.67l2.42,3.69v-3.69h.58Z" fill="#231815"/>
        <path d="M186.46,230.4h-2.89v-4.57h2.89v.54h-2.3v1.44h2v.53h-2v1.52h2.3Z" fill="#231815"/>
        <path d="M187.77,230.45H187v-.8h.81Z" fill="#231815"/>
      </g>
      <g>
        <path d="M115.72,184.46a.39.39,0,0,0,.29.41l1.5.41,0,.61c-1.05,0-1.92,0-2.59,0s-1.55,0-2.64,0l-.06-.59,1.57-.43a.41.41,0,0,0,.32-.37c0-.63,0-1.4,0-2.32v-9.33c0-.78,0-1.43,0-1.94a.37.37,0,0,0-.28-.39l-1.57-.46,0-.59c1.1,0,1.93,0,2.52,0,.76,0,1.49,0,2.18,0l7.78,9.74c.31.4.63.81,1,1.25q0-.81,0-1.56v-6.1c0-.76,0-1.41,0-2a.36.36,0,0,0-.3-.35l-1.5-.41,0-.62c1.08,0,2,0,2.63,0s1.55,0,2.61,0l.05.59-1.59.46a.37.37,0,0,0-.28.39c0,.51,0,1.16,0,1.94v13l-1.35.13-9.22-11.55-1-1.25c0,.57,0,1.1,0,1.59v7.41Q115.69,183.56,115.72,184.46Z" fill="#231815"/>
        <path d="M132.82,169.51h3c1.89,0,3.86,0,5.9,0l.08.09-.73,3.9-.63.09-.75-2.84h-4.53v6.21h.63l2.19,0a.41.41,0,0,0,.4-.32l.42-1.6.77,0c0,1.13,0,2,0,2.54s0,1.38,0,2.51l-.77.06-.43-1.65a.38.38,0,0,0-.36-.33l-2.23,0h-.62v4q0,1.29,0,2.55h4.68l1.47-3.08.72-.1-.29,4.37-.08.09c-1.94,0-3.83,0-5.67,0h-3.11c-1,0-2,0-3.11,0l-.06-.59,1.57-.43a.4.4,0,0,0,.32-.37c0-.31,0-.66,0-1V171.78c0-.32,0-.61,0-.87a.37.37,0,0,0-.28-.39l-1.57-.46,0-.59C130.8,169.5,131.83,169.51,132.82,169.51Z" fill="#231815"/>
        <path d="M158.35,179.5a9.56,9.56,0,0,1,.32,1.25c.12-.43.25-.84.39-1.22l2.43-7c.16-.46.27-.81.33-1.06a2.19,2.19,0,0,0,.1-.59.37.37,0,0,0-.11-.3.73.73,0,0,0-.33-.17l-1.13-.31,0-.62c1.13,0,2.05,0,2.76,0s1.59,0,2.54,0l.06.59-1.25.37a1.31,1.31,0,0,0-.68.43,3.47,3.47,0,0,0-.45.91l-5,14.08L157,186l-3-9.28-.48-1.6c-.18.57-.36,1.09-.54,1.58l-3.23,9.19-1.26.11L144,171.91a3.54,3.54,0,0,0-.52-1.09,1.49,1.49,0,0,0-.7-.43l-1.14-.33,0-.59c1.05,0,2.11,0,3.18,0,1.41,0,2.78,0,4.12,0l.07.59-1.16.33a.89.89,0,0,0-.34.18.41.41,0,0,0-.1.31,2.71,2.71,0,0,0,.09.61c.06.25.15.59.28,1l2.18,7c.12.42.23.83.32,1.25.12-.43.25-.84.37-1.22L154,169.45l1.19-.1Z" fill="#231815"/>
        <path d="M173,170.58a4.33,4.33,0,0,0-1.63-.29,3.19,3.19,0,0,0-2.1.72,2.34,2.34,0,0,0-.86,1.87,2.46,2.46,0,0,0,.28,1.19,3.24,3.24,0,0,0,.75.87,5.78,5.78,0,0,0,1.07.69l1.25.61q.72.34,1.44.75a5.61,5.61,0,0,1,1.3,1,4.49,4.49,0,0,1,.93,1.32,4.87,4.87,0,0,1-1.43,5.61,7.67,7.67,0,0,1-4.73,1.36,13.63,13.63,0,0,1-4.18-.67l-.07-.11.62-4.21.73-.12.87,3.59a4.57,4.57,0,0,0,1.88.38,3.64,3.64,0,0,0,2.39-.75,2.52,2.52,0,0,0,.91-2,2.38,2.38,0,0,0-.29-1.21,2.91,2.91,0,0,0-.76-.89,5.9,5.9,0,0,0-1.08-.7l-1.27-.61c-.47-.23-1-.48-1.43-.74a5.33,5.33,0,0,1-1.27-.93,4.26,4.26,0,0,1-.91-1.32,4.33,4.33,0,0,1-.36-1.85,4.27,4.27,0,0,1,1.71-3.56,7.06,7.06,0,0,1,4.44-1.32,16.81,16.81,0,0,1,3.94.54l.07.1-.71,3.77-.64.1Z" fill="#231815"/>
      </g>
      <g>
        <path d="M84.54,137.83l3.22,2.69c-.18.31-.49.41-1.18.47a16.54,16.54,0,0,1-3.44,6.14A26.3,26.3,0,0,0,89,149.42l-.06.34a3.68,3.68,0,0,0-2.76,2.86A18.47,18.47,0,0,1,81,149.11a20.1,20.1,0,0,1-6.2,3.29l-.15-.44a15.55,15.55,0,0,0,5-4.34,19.57,19.57,0,0,1-3.38-7.34H74V151.9c0,.19-1,.81-2.6.81H70.8v-5.24c-1.89.77-4.49,1.77-8.15,3a1.29,1.29,0,0,1-.81.71l-2-3.63c.83,0,2.07-.12,3.56-.24V136.62H60.11L60,136H83.76l1.86-2.51,3.38,2.6c-.21.37-.59.53-1.49.53H74v3h8.75Zm-16.71-4.78v.44c0,.09-.5,1.17-3.26,1.17V124.12l3.47,1.4H80.75L82,123.81l3.59,2.51a2,2,0,0,1-1.27.65v6.55c0,.06-1,.8-3.28.8v-1.27Zm3,3.57H66.52v2.94H70.8Zm-4.28,3.56v3H70.8v-3Zm0,3.63v3.29l4.28-.38v-2.91Zm14.55-17.67H67.83v2.79H81.07Zm-13.24,6.32H81.07v-2.91H67.83Zm9,7.82a13.38,13.38,0,0,0,4.06,5.36,20,20,0,0,0,2-5.36Z" fill="#231815"/>
        <path d="M111.72,142.45l0,0c3.79.78,5,2.36,5,3.6a1.57,1.57,0,0,1-2.79,1.12,8.31,8.31,0,0,0-2.27-4.31v8.9c0,.06-.53,1-3.16,1v-7.35a22.26,22.26,0,0,1-5.71,5l-.34-.43a25.06,25.06,0,0,0,5.24-9.36h-4.59L103,140h5.55v-4.19h-5.77l-.15-.62h8.65c.46-1.89.93-4.5,1.21-6.36l4.18,1c-.09.34-.4.52-1.14.49a40.74,40.74,0,0,1-3.6,4.84h2l1.55-2,2.92,2c-.22.44-.65.56-1.46.56h-4.31c-.06.19-.31.34-.87.4V140h1.86l1.52-2.11,2.79,2.17c-.25.4-.62.56-1.46.56h-4.71Zm-8.4-13.89-.16-.59h5.37V123.5l4.49.44c-.06.43-.34.65-1.27.77V128h1.49l1.52-2.11,2.88,2.17c-.21.4-.62.53-1.45.53Zm2.26.34c2.58,1.42,3.44,3,3.44,4.15a1.86,1.86,0,0,1-1.7,2,1.49,1.49,0,0,1-1.3-.78c0-.31.06-.65.06-1a10.9,10.9,0,0,0-.84-4.19Zm23.16,3.41,3.41,2.63c-.24.37-.68.53-1.51.53h-2.08v16.28c0,.21-1,.93-2.7.93h-.56V135.47H122v1.08c0,5.65-.65,12-7.72,16.1l-.37-.37c4.31-4.41,4.9-10,4.9-15.79V126.07l3.5,1.12a30.32,30.32,0,0,0,5.86-3.66l3.54,2.82a1,1,0,0,1-.78.28,3.66,3.66,0,0,1-1-.18,44.18,44.18,0,0,1-7.91,1.67v6.73h5Z" fill="#231815"/>
        <path d="M145.66,132.21c4.16.53,5.49,2.11,5.49,3.38a1.81,1.81,0,0,1-1.73,1.83,1.9,1.9,0,0,1-1.31-.59,9.43,9.43,0,0,0-2.63-4.4Zm2,11.57c.46,0,.59,0,.93-.65s.74-1.21,7.16-14.54l.5.12c-1.46,4.06-4.13,11.6-4.62,13.27a13.43,13.43,0,0,0-.53,3c0,1.49,1.15,2.57,1.15,5,0,2.26-1.49,2.73-2.48,2.73-.69,0-1.37-.44-1.55-1.55a20,20,0,0,0,.31-3.35c0-2.92-.62-3.26-2.3-3.41v-.59c1.09,0,1.43,0,1.43,0Zm-.4-19.75c4.43.71,5.89,2.48,5.89,3.87a1.9,1.9,0,0,1-1.8,1.93,2,2,0,0,1-1.37-.62,10.09,10.09,0,0,0-2.91-4.93Zm9.08,1c3.88,1.43,5.12,3.38,5.12,4.87a1.87,1.87,0,0,1-1.74,2,1.79,1.79,0,0,1-1.33-.68,11.64,11.64,0,0,0-2.36-6Zm12.84,8.68,1.33-1.73,3.5,2.54a2.39,2.39,0,0,1-1.27.65v13.46c0,2.17-.56,3.75-4.12,4,0-2.55-.84-3.07-2.88-3.29V149H169c.34,0,.44-.13.44-.47V144.4H160v7c0,.09-.34,1.24-3.19,1.24v-20.4l3.41,1.42H163V123.56l4.59.44c0,.46-.37.65-1.34.8v8.9Zm.31.62H160v4.41h9.43ZM160,143.78h9.43v-4.43H160Zm7.54-11.88c.8-1.73,1.92-4.65,2.79-7.22l4.15,1.67c-.15.38-.46.53-1.24.47a35,35,0,0,1-5.3,5.36Z" fill="#231815"/>
        <path d="M193.37,143.75a9,9,0,0,1,.44,2.66c0,2.73-1.68,4.56-3.63,4.56-1.18,0-2-.65-2-1.55a2.08,2.08,0,0,1,1.46-1.76,4.61,4.61,0,0,0,3.25-3.91Zm3-3.2V141c0,.06-.43,1.24-3.25,1.24v-16.4l3.5,1.42h3.69c.22-1.11.56-2.76.75-3.9l5.17.9c-.09.52-.43.74-1.33.74l-2.76,2.26h6.64l1.33-1.76,3.56,2.57a2.24,2.24,0,0,1-1.27.65v12.53s-1,.9-3.31.9v-1.62ZM209,145.92,209,149.3c1.21.43,1.4.56,1.4,1,0,1.18-.93,1.86-4.38,1.86h-5.7c-3.38,0-4.12-.62-4.12-3.32v-5.67l4.21.31c-.06.34-.18.53-1,.65v4.75c0,.68,0,.68,1.15.68h5.55c.77,0,1.05,0,1.33-.44a20.27,20.27,0,0,0,1.4-3.22Zm.1-18H196.41v3.54h12.72Zm-12.72,7.76h12.72v-3.6H196.41Zm0,4.27h12.72v-3.65H196.41Zm2.67,1.4c5.08-.16,6.76,1.77,6.76,3.29a1.66,1.66,0,0,1-1.58,1.73,1.86,1.86,0,0,1-1.06-.34,10.59,10.59,0,0,0-4.28-4.4Zm10.85,2.08c5.61,1,7.41,3.47,7.41,5.33a2,2,0,0,1-1.86,2.2,2.06,2.06,0,0,1-1.36-.59,11.27,11.27,0,0,0-4.41-6.69Z" fill="#231815"/>
        <path d="M229.18,146.61a2.42,2.42,0,1,1-2.41,2.41A2.42,2.42,0,0,1,229.18,146.61Zm1.88,2.41a1.88,1.88,0,1,0-1.88,1.88A1.89,1.89,0,0,0,231.06,149Z" fill="#231815"/>
      </g>
      <g opacity="0.85">
        <g>
          <path d="M253.56,141.3h.14l-.07-.07S253.58,141.26,253.56,141.3Z" fill="#3a302e"/>
          <path d="M253.82,141.32h0l0,0Z" fill="#3a302e"/>
          <path d="M254.06,141.27a.25.25,0,0,0-.12,0A.17.17,0,0,0,254.06,141.27Z" fill="#3a302e"/>
          <path d="M253.87,141.22a.06.06,0,0,1,0,.08h0l.07,0A.19.19,0,0,1,253.87,141.22Z" fill="#3a302e"/>
          <path d="M253.87,141.22l0-.07A.43.43,0,0,0,253.87,141.22Z" fill="#3a302e"/>
          <path d="M253.93,140.55s0,.17.07.12.2-.14.31-.14.12.17.17.13.39-.31.23-.3-.42.08-.65.11-.36.17-.55.24a.26.26,0,0,1-.15,0l.21.09C253.66,140.84,253.78,140.59,253.93,140.55Z" fill="#3a302e"/>
          <path d="M252.56,141.18l.07-.06c.1.14.22.08.33,0a.31.31,0,0,1-.05-.1c-.07,0-.07.07,0,.11a.44.44,0,0,0-.37-.12C252.52,141.1,252.52,141.16,252.56,141.18Z" fill="#3a302e"/>
          <path d="M252.44,141.06l.08,0h0l-.07,0Z" fill="#3a302e"/>
          <path d="M254.57,141.09q.47,0,.9,0s0-.09.07-.06a.23.23,0,0,0,.07.07h.12l.05,0h0s0-.05,0-.08a.16.16,0,0,1,0-.07s0,0,0,.07a.18.18,0,0,0,.07.05.17.17,0,0,1,.12,0,.13.13,0,0,1-.12,0l-.07,0,0,0,.29,0h.06c.07,0,.14-.05.18,0h0v0l0,0,.22,0,.14-.11a.89.89,0,0,1,.05.1.21.21,0,0,1,.08-.1c0-.05-.07-.12-.1-.16s-.11.2-.17,0c.06.18.12-.11.17,0s.06.11.1.16.16,0,.23.1-.16,0-.23-.1a.21.21,0,0,0-.08.1.89.89,0,0,0-.05-.1l-.14.11.43.05c.95.12,1.83.1,2.81.19a14.75,14.75,0,0,1,1.55.25c1,.23,1.92,0,2.93.45a4,4,0,0,0,1.49.06c.5-.32.24-1.14.22-1.19-.31-.7-.55-.31-1.18-.72.43.23-.32.45-.72,0-.59-.73-1.42-.15-2.15-.34a3.62,3.62,0,0,0-.58,0,19.6,19.6,0,0,0-3.34,0,2.43,2.43,0,0,0-.85.28,3.09,3.09,0,0,1-.55-.06,1.73,1.73,0,0,0-.66.15c.23,0,.39-.09.64-.12s-.11.25-.22.31-.13-.18-.17-.13a.71.71,0,0,0-.31.14s0-.15-.07-.13-.27.29-.37.24l-.2-.09a.25.25,0,0,0-.12,0l-.09.05a.65.65,0,0,1,0,.2l-.14-.06.14.06a.65.65,0,0,0,0-.2,5.24,5.24,0,0,1-.64.29v0a.42.42,0,0,1,.38.12c-.06,0-.05-.1,0-.11l.05.09c-.11.06-.22.11-.32,0l-.08.07s0-.09,0-.14l-.07,0A1,1,0,0,0,254.57,141.09Z" fill="#3a302e"/>
          <path d="M255.85,141.1h-.06l.24,0C256,141.05,255.92,141.07,255.85,141.1Z" fill="#3a302e"/>
        </g>
      </g>
      <g opacity="0.85">
        <g>
          <path d="M252.67,146.06l.13.06a.19.19,0,0,1,0-.09S252.71,146,252.67,146.06Z" fill="#3a302e"/>
          <path d="M252.91,146.17h0Z" fill="#3a302e"/>
          <path d="M253.15,146.2a.2.2,0,0,0-.11,0A.1.1,0,0,0,253.15,146.2Z" fill="#3a302e"/>
          <path d="M253,146.1s0,.06,0,.07H253A.18.18,0,0,1,253,146.1Z" fill="#3a302e"/>
          <path d="M253,146.1a.29.29,0,0,0,0-.08S253,146.07,253,146.1Z" fill="#3a302e"/>
          <path d="M253.28,145.48s0,.17,0,.14.24-.06.34,0,.05.2.11.17.48-.15.32-.2-.42-.07-.64-.11l-.6,0a.46.46,0,0,1-.14-.07l.17.16C252.93,145.66,253.12,145.47,253.28,145.48Z" fill="#3a302e"/>
          <path d="M251.77,145.61l.09,0c0,.17.17.15.3.14s0-.07,0-.11-.09,0,0,.1a.45.45,0,0,0-.31-.24S251.74,145.57,251.77,145.61Z" fill="#3a302e"/>
          <path d="M251.7,145.45h0Z" fill="#3a302e"/>
          <path d="M253.69,146.21c.3.1.57.21.84.33,0,0,.06-.06.08,0a.39.39,0,0,0,0,.09l.12.05h0s0,0,0-.07a.31.31,0,0,1,0-.08l0,.08a.16.16,0,0,0,0,.07.27.27,0,0,1,.12,0,.12.12,0,0,1-.12,0h-.1l.26.12h.06c.08,0,.15,0,.16.1l0,0v0l0,0,.19.1a.61.61,0,0,1,.18-.05v.1a.15.15,0,0,1,.11-.06c0-.07,0-.14,0-.19s-.17.15-.16,0c0,.19.15-.06.16,0s0,.12,0,.19.15.05.18.17-.15-.06-.18-.17a.15.15,0,0,0-.11.06V147a.61.61,0,0,0-.18.05l.4.19c.85.44,1.68.72,2.57,1.15a12,12,0,0,1,1.37.76c.87.56,1.81.63,2.6,1.43a4,4,0,0,0,1.37.56c.58-.12.62-1,.62-1-.05-.76-.41-.48-.86-1.08.32.36-.46.31-.67-.28-.3-.89-1.28-.62-1.9-1.05a4,4,0,0,0-.54-.23,19.45,19.45,0,0,0-3.14-1.13,2.23,2.23,0,0,0-.89,0c-.19,0-.35-.2-.5-.25a1.74,1.74,0,0,0-.67-.08c.23,0,.4.05.65.11s-.2.19-.32.2-.06-.2-.12-.17-.21,0-.34,0,0-.15,0-.14-.35.18-.42.1l-.16-.16-.11-.05-.1,0a1.62,1.62,0,0,1,0,.2s-.08-.08-.11-.11.07.09.11.11a1.62,1.62,0,0,0,0-.2,5.51,5.51,0,0,1-.7.06h0a.46.46,0,0,1,.32.24c0-.06,0-.11.05-.1v.11c-.12,0-.25,0-.3-.14l-.09,0a.26.26,0,0,1,0-.15h-.07A.81.81,0,0,0,253.69,146.21Z" fill="#3a302e"/>
          <path d="M254.89,146.66h-.06l.22.11C255,146.66,255,146.66,254.89,146.66Z" fill="#3a302e"/>
        </g>
      </g>
      <g opacity="0.85">
        <g>
          <path d="M250.21,150.23l.09.09a.26.26,0,0,1,0-.09S250.25,150.21,250.21,150.23Z" fill="#3a302e"/>
          <path d="M250.39,150.41l0,0h0Z" fill="#3a302e"/>
          <path d="M250.61,150.53a.17.17,0,0,0-.1-.07A.2.2,0,0,0,250.61,150.53Z" fill="#3a302e"/>
          <path d="M250.49,150.37a.06.06,0,0,1-.05.06h0l.07,0A.29.29,0,0,1,250.49,150.37Z" fill="#3a302e"/>
          <path d="M250.49,150.37a.25.25,0,0,0,0-.08S250.49,150.34,250.49,150.37Z" fill="#3a302e"/>
          <path d="M251,149.89s-.1.14,0,.14.25,0,.33.09,0,.21,0,.21.5,0,.37-.08-.37-.21-.57-.33-.38-.1-.57-.17a.38.38,0,0,1-.11-.11l.1.2C250.58,149.94,250.83,149.83,251,149.89Z" fill="#3a302e"/>
          <path d="M249.51,149.49h.1c0,.17.11.2.23.23a.36.36,0,0,0,0-.1c-.05,0-.09,0-.08.07a.4.4,0,0,0-.21-.33S249.5,149.45,249.51,149.49Z" fill="#3a302e"/>
          <path d="M249.5,149.32l.07,0v0l-.08,0Z" fill="#3a302e"/>
          <path d="M251.11,150.72c.24.19.46.39.67.59.05,0,.09,0,.09,0a.31.31,0,0,0,0,.1l.09.09.05,0h0s0,0,0-.06,0-.06,0-.08a.28.28,0,0,1,0,.08.19.19,0,0,0,0,.08l.1.07c-.05,0-.09,0-.1-.07l-.07,0h0l.2.2.06,0c.07,0,.14.05.11.15l0,0v0l.16.16a1.08,1.08,0,0,1,.18,0l0,.11a.21.21,0,0,1,.13,0c0-.07,0-.14,0-.19s-.21.07-.14-.1c-.07.17.16,0,.14.1s0,.12,0,.19.12.1.11.22-.12-.11-.11-.22a.21.21,0,0,0-.13,0l0-.11a1.08,1.08,0,0,0-.18,0c.1.1.19.21.3.31.65.71,1.33,1.25,2,2a11.39,11.39,0,0,1,1,1.19c.62.81,1.49,1.21,2,2.23a4,4,0,0,0,1.1,1c.59.08.92-.72.93-.77.22-.74-.22-.59-.43-1.31.17.45-.54.14-.54-.49,0-.94-1-1-1.42-1.64a4.22,4.22,0,0,0-.43-.4,19.22,19.22,0,0,0-2.56-2.14,2.4,2.4,0,0,0-.82-.33c-.17-.1-.27-.31-.39-.41a1.69,1.69,0,0,0-.6-.3c.19.12.35.18.57.32s-.25.12-.37.09,0-.21-.05-.21-.21-.06-.33-.09.07-.14,0-.14-.39.05-.43-.06l-.1-.2a.24.24,0,0,0-.09-.08l-.09,0a.81.81,0,0,1-.1.18s0-.1-.07-.14,0,.1.07.14a.81.81,0,0,0,.1-.18,3.79,3.79,0,0,1-.68-.19v0a.39.39,0,0,1,.21.33c0-.07,0-.11.08-.08l0,.11c-.12,0-.24-.06-.23-.23h-.1s0-.09.06-.13l-.07,0A1,1,0,0,0,251.11,150.72Z" fill="#3a302e"/>
          <path d="M252.09,151.55l-.06,0,.17.18C252.23,151.6,252.16,151.57,252.09,151.55Z" fill="#3a302e"/>
        </g>
      </g>
      <g opacity="0.85">
        <g>
          <path d="M246.46,153.3l.06.12a.16.16,0,0,1,0-.09S246.5,153.3,246.46,153.3Z" fill="#3a302e"/>
          <path d="M246.57,153.54v0h0Z" fill="#3a302e"/>
          <path d="M246.74,153.72a.26.26,0,0,0-.07-.1A.13.13,0,0,0,246.74,153.72Z" fill="#3a302e"/>
          <path d="M246.68,153.53s0,.05-.07,0h0l.06.05A.14.14,0,0,1,246.68,153.53Z" fill="#3a302e"/>
          <path d="M246.68,153.53l0-.07A.16.16,0,0,0,246.68,153.53Z" fill="#3a302e"/>
          <path d="M247.3,153.24s-.14.1-.08.12.23.11.28.2-.09.19,0,.21.47.19.38,0-.28-.32-.42-.5-.33-.23-.48-.36a.25.25,0,0,1-.06-.14,1.79,1.79,0,0,0,0,.23C246.91,153.16,247.19,153.13,247.3,153.24Z" fill="#3a302e"/>
          <path d="M246.06,152.37l.09,0c-.06.16,0,.23.14.3l.06-.09c0-.05-.09,0-.1,0a.45.45,0,0,0-.09-.39S246.07,152.32,246.06,152.37Z" fill="#3a302e"/>
          <path d="M246.11,152.21l0,0h0l-.06-.05Z" fill="#3a302e"/>
          <path d="M247.14,154.07c.16.27.3.53.43.79,0,0,.09,0,.09,0a.23.23,0,0,0,0,.09.61.61,0,0,1,.05.12l0,0h0s.05,0,.07,0a.25.25,0,0,1,0-.07s0,0,0,.07a.14.14,0,0,0,0,.09.21.21,0,0,1,.06.1.12.12,0,0,1-.06-.1l-.06-.05h0a2,2,0,0,1,.12.26l.05.05c.06,0,.11.09,0,.18a.08.08,0,0,1,0,0v0l.09.21.16.07-.06.09a.18.18,0,0,1,.13,0l.08-.17c.06-.09-.22,0-.09-.14-.13.14.15,0,.09.14l-.08.17a.2.2,0,0,1,0,.25c-.11,0-.08-.14,0-.25a.18.18,0,0,0-.13,0l.06-.09-.16-.07c.05.13.11.26.17.4.37.88.82,1.63,1.23,2.53a12.62,12.62,0,0,1,.56,1.47c.3,1,1,1.64,1.07,2.76a3.62,3.62,0,0,0,.69,1.32c.52.28,1.11-.36,1.14-.4.45-.62,0-.64,0-1.39,0,.49-.55-.05-.34-.64.35-.87-.58-1.3-.77-2a3.71,3.71,0,0,0-.27-.52,18.31,18.31,0,0,0-1.67-2.89,2.5,2.5,0,0,0-.66-.6,2.71,2.71,0,0,1-.22-.51,2,2,0,0,0-.46-.5c.14.18.27.3.42.5s-.28,0-.38,0,.09-.2,0-.21-.18-.13-.28-.2.11-.11.08-.12-.39-.09-.39-.2a1.8,1.8,0,0,1,0-.22.34.34,0,0,0-.06-.12l-.08,0-.16.13s0-.11,0-.15,0,.11,0,.15l.16-.13a6,6,0,0,1-.58-.41h0a.42.42,0,0,1,.09.38c0-.07.06-.09.1,0l-.06.09c-.1-.07-.21-.14-.14-.3l-.09,0s.06-.07.1-.1l-.05-.06A.87.87,0,0,0,247.14,154.07Z" fill="#3a302e"/>
          <path d="M247.77,155.18l0,0,.1.22C247.89,155.28,247.83,155.23,247.77,155.18Z" fill="#3a302e"/>
        </g>
      </g>
      <g opacity="0.85">
        <g>
          <path d="M241.89,154.9s0,.09,0,.13A.33.33,0,0,1,242,155S241.93,154.91,241.89,154.9Z" fill="#3a302e"/>
          <path d="M241.92,155.16v0l0,0Z" fill="#3a302e"/>
          <path d="M242,155.39a.22.22,0,0,0,0-.12A.14.14,0,0,0,242,155.39Z" fill="#3a302e"/>
          <path d="M242,155.19s-.06,0-.08,0h0a.25.25,0,0,0,0,.07S242,155.22,242,155.19Z" fill="#3a302e"/>
          <path d="M242,155.19l.06-.05Z" fill="#3a302e"/>
          <path d="M242.7,155.13s-.17.05-.12.09.18.18.19.28-.14.15-.09.19.37.34.33.18-.15-.4-.22-.62-.23-.32-.33-.5a.38.38,0,0,1,0-.15c0,.07,0,.14,0,.22S242.63,155,242.7,155.13Z" fill="#3a302e"/>
          <path d="M241.83,153.89l.08.06c-.12.13,0,.23,0,.33l.09-.07c0-.06-.08-.06-.11,0a.42.42,0,0,0,.05-.4C241.91,153.84,241.85,153.85,241.83,153.89Z" fill="#3a302e"/>
          <path d="M241.93,153.75l0,.07h0a.25.25,0,0,1,0-.07Z" fill="#3a302e"/>
          <path d="M242.26,155.85c.06.31.11.61.14.9,0,0,.08,0,.07.05l-.06.08a.57.57,0,0,1,0,.13l0,0h0s.05,0,.08,0l.06-.06-.06.06a.14.14,0,0,0-.05.08.14.14,0,0,1,0,.11.13.13,0,0,1,0-.11l0-.07,0,0,0,.29s0,0,0,.06.08.13,0,.19a.43.43,0,0,1,0,.05h0v0c0,.07,0,.14,0,.22a1.54,1.54,0,0,1,.13.12l-.08.07a.14.14,0,0,1,.1.06c.05,0,.11-.09.14-.13s-.21-.08,0-.17c-.17.09.13.1,0,.17s-.09.08-.14.13,0,.16,0,.24c-.09-.07,0-.16,0-.24a.14.14,0,0,0-.1-.06l.08-.07a1.54,1.54,0,0,0-.13-.12l0,.43c0,1,.21,1.82.29,2.81,0,.53,0,1,0,1.57,0,1,.36,1.88.05,3a3.8,3.8,0,0,0,.2,1.47c.4.44,1.17,0,1.21,0,.64-.43.21-.6.51-1.29-.16.46-.5-.23-.09-.72.62-.7-.1-1.42,0-2.16a4.48,4.48,0,0,0-.07-.59,19.15,19.15,0,0,0-.58-3.28,2.4,2.4,0,0,0-.42-.79,3.7,3.7,0,0,1,0-.56,1.73,1.73,0,0,0-.26-.62c.07.22.15.37.22.61s-.26-.07-.34-.17.15-.15.1-.19-.12-.18-.19-.28.14-.07.11-.09-.33-.21-.29-.32a1.6,1.6,0,0,1,.05-.21.57.57,0,0,0,0-.13l-.06-.07-.2.07a.74.74,0,0,0,0-.14.74.74,0,0,1,0,.14l.2-.07a4.29,4.29,0,0,1-.4-.58h0a.43.43,0,0,1-.05.39c0-.06.09-.06.11,0l-.09.06c-.07-.1-.14-.2,0-.32l-.08-.06s.08-.05.13-.07l0-.07A1.24,1.24,0,0,0,242.26,155.85Z" fill="#3a302e"/>
          <path d="M242.48,157.12l0-.06c0,.08,0,.17,0,.25S242.52,157.18,242.48,157.12Z" fill="#3a302e"/>
        </g>
      </g>
      <g opacity="0.85">
        <g>
          <path d="M252.87,136.47l.13,0s-.05,0-.09,0S252.88,136.42,252.87,136.47Z" fill="#3a302e"/>
          <path d="M253.12,136.4h0v0Z" fill="#3a302e"/>
          <path d="M253.33,136.27a.16.16,0,0,0-.11,0A.15.15,0,0,0,253.33,136.27Z" fill="#3a302e"/>
          <path d="M253.13,136.29s.05.05,0,.08h0l.06-.05A.16.16,0,0,1,253.13,136.29Z" fill="#3a302e"/>
          <path d="M253.13,136.29l-.06,0Z" fill="#3a302e"/>
          <path d="M253,135.63s.08.16.11.1.14-.2.24-.24.17.12.2.06.27-.42.11-.36l-.56.33c-.15.14-.28.28-.44.41a.33.33,0,0,1-.14,0h.22C252.81,136,252.83,135.72,253,135.63Z" fill="#3a302e"/>
          <path d="M251.88,136.7l.05-.09c.15.1.23,0,.32-.08l-.08-.07c-.06,0,0,.08,0,.1a.44.44,0,0,0-.39,0S251.84,136.69,251.88,136.7Z" fill="#3a302e"/>
          <path d="M251.73,136.62l.07,0h0l-.06.05Z" fill="#3a302e"/>
          <path d="M253.74,135.93c.3-.11.58-.2.86-.28,0-.05,0-.09,0-.08l.09,0,.12,0,0,0h0s0,0,0-.07a.18.18,0,0,1-.07-.05l.07.05a.19.19,0,0,0,.08,0,.16.16,0,0,1,.11-.05.14.14,0,0,1-.11.05l-.06.05v0l.28-.07.05,0c.06-.05.11-.09.19,0h0l0,0h0l.21,0a.78.78,0,0,1,.1-.15l.08.07a.16.16,0,0,1,0-.11l-.15-.12c-.08-.07,0,.22-.16.07.12.15.08-.14.16-.07l.15.12c.06-.06.15-.06.25,0-.06.1-.15.05-.25,0a.16.16,0,0,0,0,.11l-.08-.07a.78.78,0,0,0-.1.15l.43-.1c.93-.21,1.75-.52,2.7-.77a14.11,14.11,0,0,1,1.55-.3c1-.13,1.79-.68,2.9-.57a3.76,3.76,0,0,0,1.42-.45c.37-.47-.16-1.15-.2-1.19-.53-.56-.62-.11-1.35-.28.48.07-.15.53-.69.22-.8-.49-1.39.34-2.13.41a3.52,3.52,0,0,0-.56.17,19.47,19.47,0,0,0-3.14,1.14,2.55,2.55,0,0,0-.7.55,2.47,2.47,0,0,1-.54.13,1.76,1.76,0,0,0-.57.37c.2-.11.34-.22.57-.33s0,.27-.12.36-.17-.12-.2-.06-.16.15-.24.24-.09-.13-.11-.1-.15.36-.26.35l-.22,0s-.09,0-.12,0l-.07.07a.54.54,0,0,1,.11.18l-.15,0,.15,0a.54.54,0,0,0-.11-.18,4.72,4.72,0,0,1-.5.5h0a.44.44,0,0,1,.39,0c-.06,0-.08-.07,0-.1l.08.07c-.09.09-.17.18-.32.08l0,.09a.21.21,0,0,1-.08-.12l-.06,0A1,1,0,0,0,253.74,135.93Z" fill="#3a302e"/>
          <path d="M255,135.5l0,0,.24-.06C255.07,135.4,255,135.45,255,135.5Z" fill="#3a302e"/>
        </g>
      </g>
      <g opacity="0.85">
        <g>
          <path d="M250.57,132.2l.12-.08h-.1S250.57,132.16,250.57,132.2Z" fill="#3a302e"/>
          <path d="M250.79,132.05l0,0v0S250.8,132,250.79,132.05Z" fill="#3a302e"/>
          <path d="M250.94,131.86a.24.24,0,0,0-.09.08A.14.14,0,0,0,250.94,131.86Z" fill="#3a302e"/>
          <path d="M250.76,131.94s.06,0,.05.07h0l0-.07Z" fill="#3a302e"/>
          <path d="M250.76,131.94l-.07,0Z" fill="#3a302e"/>
          <path d="M250.37,131.38s.13.12.14.06.07-.24.15-.31.2.05.21,0,.1-.49,0-.38-.27.33-.42.51-.17.36-.27.53a.29.29,0,0,1-.13.08l.22-.06C250.36,131.78,250.29,131.51,250.37,131.38Z" fill="#3a302e"/>
          <path d="M249.73,132.76a.77.77,0,0,1,0-.1c.17,0,.22-.07.27-.19l-.1,0s0,.1.06.09a.43.43,0,0,0-.36.16S249.69,132.76,249.73,132.76Z" fill="#3a302e"/>
          <path d="M249.56,132.74s0-.05.05-.06h0l0,.06Z" fill="#3a302e"/>
          <path d="M251.21,131.4c.24-.21.47-.39.71-.57,0,0,0-.08,0-.08h.1l.1-.08,0,0h0a.06.06,0,0,0,0-.06l-.08,0,.08,0h.09a.18.18,0,0,1,.08-.09.18.18,0,0,1-.08.09l0,.06v0l.24-.17a.1.1,0,0,0,0-.05c0-.06.07-.13.17-.08l0,0h0l.18-.12a.85.85,0,0,1,0-.17l.1,0a.28.28,0,0,1,0-.13l-.18,0c-.1,0,0,.22-.12.11.16.11,0-.15.12-.11l.18,0c0-.07.12-.1.24-.07s-.12.1-.24.07a.28.28,0,0,0,0,.13l-.1,0a.85.85,0,0,0,0,.17l.37-.24c.8-.51,1.46-1.09,2.27-1.66.45-.3.9-.56,1.35-.8.92-.47,1.45-1.25,2.54-1.53a3.93,3.93,0,0,0,1.18-.91c.18-.57-.55-1-.6-1-.69-.34-.62.11-1.37.2.48-.1.05.55-.57.44-.92-.19-1.18.8-1.86,1.12a3.35,3.35,0,0,0-.47.35,18.87,18.87,0,0,0-2.55,2.15,2.52,2.52,0,0,0-.48.75c-.12.15-.34.21-.46.31a1.89,1.89,0,0,0-.41.54c.16-.17.25-.32.42-.5s.07.26,0,.38-.2-.06-.21,0-.1.19-.15.3-.13-.08-.13,0,0,.39-.13.41l-.21.07a.26.26,0,0,0-.1.07l0,.09a.65.65,0,0,1,.16.13s-.11,0-.14,0,.11,0,.14,0a.65.65,0,0,0-.16-.13,5.31,5.31,0,0,1-.3.64h0a.44.44,0,0,1,.37-.15c-.07,0-.1,0-.06-.09l.1,0c-.05.11-.1.22-.27.19a.81.81,0,0,1,0,.09s-.08,0-.12-.08l0,.06A1,1,0,0,0,251.21,131.4Z" fill="#3a302e"/>
          <path d="M252.2,130.58l0,0,.2-.14C252.28,130.45,252.24,130.51,252.2,130.58Z" fill="#3a302e"/>
        </g>
      </g>
      <g opacity="0.85">
        <g>
          <path d="M247,129l.07-.12a.12.12,0,0,1-.09,0S246.94,128.94,247,129Z" fill="#3a302e"/>
          <path d="M247.11,128.76v0A.11.11,0,0,0,247.11,128.76Z" fill="#3a302e"/>
          <path d="M247.18,128.53a.22.22,0,0,0-.05.11A.13.13,0,0,0,247.18,128.53Z" fill="#3a302e"/>
          <path d="M247.05,128.67a.07.07,0,0,1,.07,0h0a.17.17,0,0,1,0-.07A.11.11,0,0,1,247.05,128.67Z" fill="#3a302e"/>
          <path d="M247.05,128.67s-.07,0-.08,0S247,128.67,247.05,128.67Z" fill="#3a302e"/>
          <path d="M246.49,128.28s.16.07.14,0a.88.88,0,0,1,0-.34c0-.07.21,0,.19-.09s-.07-.5-.14-.34-.14.4-.23.61,0,.4-.06.59a.41.41,0,0,1-.1.13l.18-.14C246.61,128.66,246.45,128.43,246.49,128.28Z" fill="#3a302e"/>
          <path d="M246.35,129.79a.41.41,0,0,0,0-.09c.18,0,.18-.15.19-.27h-.1c0,.06,0,.09.08.07a.44.44,0,0,0-.29.27S246.31,129.81,246.35,129.79Z" fill="#3a302e"/>
          <path d="M246.19,129.83a.64.64,0,0,1,0-.07h0s0,.05,0,.08Z" fill="#3a302e"/>
          <path d="M247.28,128c.15-.28.31-.53.47-.78,0,0-.05-.07,0-.08l.09,0,.07-.1a.09.09,0,0,0,0,0h0a.07.07,0,0,0-.07,0h0l.08,0a.24.24,0,0,1,.06-.11.2.2,0,0,1-.06.11.17.17,0,0,1,0,.07v0l.16-.24a.14.14,0,0,0,0-.06c0-.07,0-.15.13-.14l0,0h0l.13-.17a1.35,1.35,0,0,1,0-.18h.11a.19.19,0,0,1,0-.12l-.19,0c-.11,0,.11.19-.08.15.19,0,0-.16.08-.15l.19,0c0-.07.08-.13.2-.15s-.08.14-.2.15a.19.19,0,0,0,0,.12h-.11a1.35,1.35,0,0,0,0,.18l.26-.36c.58-.76,1-1.53,1.57-2.33a12,12,0,0,1,1-1.22c.7-.75.93-1.67,1.86-2.31a3.88,3.88,0,0,0,.79-1.26c0-.59-.86-.78-.92-.78-.76-.08-.54.32-1.22.66.42-.26.24.5-.38.61-.93.14-.84,1.15-1.36,1.68a3.92,3.92,0,0,0-.32.5,19,19,0,0,0-1.67,2.89,2.46,2.46,0,0,0-.18.87c-.07.18-.26.31-.33.45a1.75,1.75,0,0,0-.2.65c.08-.22.12-.39.22-.62s.16.23.15.35-.21,0-.2.08a.92.92,0,0,0,0,.34c0,.07-.15,0-.14,0s.11.37,0,.43l-.18.13a.21.21,0,0,0-.07.11v.09a.73.73,0,0,1,.19.07l-.12.09.12-.09a.73.73,0,0,0-.19-.07,4.27,4.27,0,0,1-.07.71h0a.42.42,0,0,1,.29-.27c-.07,0-.11,0-.09-.06h.11c0,.13,0,.25-.19.27l0,.1s-.09,0-.14,0a.19.19,0,0,0,0,.07A.85.85,0,0,0,247.28,128Z" fill="#3a302e"/>
          <path d="M247.93,126.9l0,.06.15-.2C248,126.75,247.94,126.82,247.93,126.9Z" fill="#3a302e"/>
        </g>
      </g>
      <g opacity="0.85">
        <g>
          <path d="M242.45,127.19a.65.65,0,0,0,0-.13.16.16,0,0,1-.08,0S242.42,127.16,242.45,127.19Z" fill="#3a302e"/>
          <path d="M242.52,126.93v0l0,0A.06.06,0,0,1,242.52,126.93Z" fill="#3a302e"/>
          <path d="M242.51,126.69a.17.17,0,0,0,0,.12A.12.12,0,0,0,242.51,126.69Z" fill="#3a302e"/>
          <path d="M242.43,126.87s.07,0,.08,0h0s0,0,0-.08A.13.13,0,0,1,242.43,126.87Z" fill="#3a302e"/>
          <path d="M242.43,126.87l-.07,0Z" fill="#3a302e"/>
          <path d="M241.78,126.69s.17,0,.13,0-.1-.23-.08-.33.19-.09.15-.14-.24-.45-.25-.28,0,.42,0,.65.1.39.14.58a.27.27,0,0,1-.05.15,1.27,1.27,0,0,0,.13-.19C242,127,241.79,126.85,241.78,126.69Z" fill="#3a302e"/>
          <path d="M242.17,128.16l-.06-.08c.16-.08.13-.2.09-.32l-.1,0c0,.07.05.08.1,0a.43.43,0,0,0-.18.36A.25.25,0,0,0,242.17,128.16Z" fill="#3a302e"/>
          <path d="M242,128.25v-.07h0s0,0,0,.07Z" fill="#3a302e"/>
          <path d="M242.43,126.17c0-.32.11-.61.17-.89,0,0-.07,0,0-.08a.16.16,0,0,0,.08,0l0-.13a.06.06,0,0,0,0,0h0a.06.06,0,0,0-.08,0l-.07,0,.07,0a.2.2,0,0,0,.07-.06.17.17,0,0,1,0-.12.12.12,0,0,1,0,.12s0,0,0,.08l0,0c0-.09,0-.19.07-.28v-.06c0-.08,0-.15.07-.17s0,0,0,0h0l.06-.22a.8.8,0,0,1-.08-.16l.1,0a.19.19,0,0,1-.08-.1l-.17.08c-.11,0,.17.15,0,.17.19,0-.09-.13,0-.17l.17-.08c0-.07,0-.15.13-.21.07.11,0,.17-.13.21a.19.19,0,0,0,.08.1l-.1,0a.8.8,0,0,0,.08.16c0-.13.08-.27.13-.41.28-.92.41-1.78.67-2.74a13.58,13.58,0,0,1,.52-1.48c.39-1,.3-1.9.95-2.81a3.91,3.91,0,0,0,.32-1.45c-.23-.55-1.09-.44-1.14-.42-.74.18-.4.48-.92,1,.31-.38.39.39-.15.71-.82.45-.39,1.37-.7,2a3,3,0,0,0-.13.57,19.32,19.32,0,0,0-.58,3.29,2.54,2.54,0,0,0,.13.88,2.64,2.64,0,0,1-.16.54,1.65,1.65,0,0,0,0,.67c0-.23,0-.4,0-.65s.22.16.25.28-.19.09-.15.14.05.21.08.33-.15,0-.13,0,.23.32.17.4-.09.13-.13.19a.53.53,0,0,0,0,.12l0,.09a.74.74,0,0,1,.21,0s-.07.08-.09.12.07-.08.09-.12a.74.74,0,0,0-.21,0,5.76,5.76,0,0,1,.19.68h0a.42.42,0,0,1,.18-.35s-.1,0-.1,0l.1,0c0,.12.07.24-.09.32l.06.08a.19.19,0,0,1-.15,0v.08A.86.86,0,0,0,242.43,126.17Z" fill="#3a302e"/>
          <path d="M242.66,124.9V125c0-.08.05-.15.07-.23S242.64,124.83,242.66,124.9Z" fill="#3a302e"/>
        </g>
      </g>
      <g opacity="0.85">
        <g>
          <path d="M33.72,140.77h-.14a.12.12,0,0,1,.07.07S33.7,140.81,33.72,140.77Z" fill="#3a302e"/>
          <path d="M33.46,140.75h0Z" fill="#3a302e"/>
          <path d="M33.22,140.8a.25.25,0,0,0,.12,0A.13.13,0,0,0,33.22,140.8Z" fill="#3a302e"/>
          <path d="M33.41,140.84a.06.06,0,0,1,0-.08h0l-.07,0A.18.18,0,0,1,33.41,140.84Z" fill="#3a302e"/>
          <path d="M33.41,140.84s0,.06,0,.07A.25.25,0,0,0,33.41,140.84Z" fill="#3a302e"/>
          <path d="M33.35,141.52s0-.17-.07-.12-.2.14-.31.14-.12-.17-.17-.13-.39.31-.22.3.41-.08.64-.12.36-.17.55-.24l.15,0a1.31,1.31,0,0,0-.21-.08C33.62,141.23,33.5,141.48,33.35,141.52Z" fill="#3a302e"/>
          <path d="M34.72,140.88l-.07.07c-.1-.14-.21-.09-.32,0l0,.09c.07,0,.08-.06,0-.1a.44.44,0,0,0,.38.11C34.76,141,34.76,140.91,34.72,140.88Z" fill="#3a302e"/>
          <path d="M34.84,141h-.07v0l.07,0Z" fill="#3a302e"/>
          <path d="M32.72,141a9,9,0,0,1-.91,0s0,.08-.07.06l-.06-.07h-.13l-.05,0h0s0,.05,0,.08l.05.07L31.5,141a.13.13,0,0,0-.07-.06.17.17,0,0,1-.12,0,.17.17,0,0,1,.12,0l.07,0,0,0-.29,0-.06,0c-.07,0-.14.05-.19,0h0v0l0,0-.22,0a.71.71,0,0,1-.14.1l-.05-.09a.15.15,0,0,1-.08.09.74.74,0,0,0,.11.16c.05.1.11-.19.16,0-.05-.18-.11.11-.16,0a.74.74,0,0,1-.11-.16c-.07,0-.16,0-.23-.09.09-.08.16,0,.23.09a.15.15,0,0,0,.08-.09l.05.09a.71.71,0,0,0,.14-.1l-.43,0c-1-.13-1.83-.1-2.81-.19a12.52,12.52,0,0,1-1.55-.26c-1-.22-1.92,0-2.93-.45a3.94,3.94,0,0,0-1.49-.05c-.5.31-.24,1.14-.22,1.19.31.7.56.31,1.18.72-.42-.23.32-.45.72,0,.59.73,1.43.15,2.15.33a2.77,2.77,0,0,0,.59,0,19.49,19.49,0,0,0,3.33,0,2.43,2.43,0,0,0,.85-.28,3,3,0,0,1,.55.06,1.73,1.73,0,0,0,.66-.15c-.23,0-.39.08-.64.11s.11-.24.23-.3.12.17.17.13.19-.09.31-.14,0,.15.06.13.27-.29.37-.24l.2.09a.28.28,0,0,0,.13,0l.08,0a1.18,1.18,0,0,1,0-.2l.14.06-.14-.06a1.18,1.18,0,0,0,0,.2c.2-.11.43-.21.64-.3h0a.42.42,0,0,1-.38-.12c.06,0,.05.1,0,.11l0-.1c.11,0,.22-.1.33,0l.07-.06s0,.09,0,.14l.07,0A1.12,1.12,0,0,0,32.72,141Z" fill="#3a302e"/>
          <path d="M31.43,141l.06,0-.24,0C31.29,141,31.36,141,31.43,141Z" fill="#3a302e"/>
        </g>
      </g>
      <g opacity="0.85">
        <g>
          <path d="M34.43,145.56l-.13,0,.08,0S34.42,145.6,34.43,145.56Z" fill="#3a302e"/>
          <path d="M34.17,145.63h0v0Z" fill="#3a302e"/>
          <path d="M34,145.76a.16.16,0,0,0,.11,0A.13.13,0,0,0,34,145.76Z" fill="#3a302e"/>
          <path d="M34.16,145.74s0-.05,0-.08h0l-.06.05A.13.13,0,0,1,34.16,145.74Z" fill="#3a302e"/>
          <path d="M34.16,145.74l.07,0Z" fill="#3a302e"/>
          <path d="M34.34,146.4s-.08-.16-.11-.1-.14.2-.24.24-.17-.12-.2-.06-.27.43-.12.36.37-.22.57-.33.28-.28.43-.41a.42.42,0,0,1,.15,0H34.6C34.49,146,34.46,146.3,34.34,146.4Z" fill="#3a302e"/>
          <path d="M35.41,145.33l0,.08c-.15-.09-.24,0-.32.08l.08.08s0-.09,0-.11a.42.42,0,0,0,.4,0S35.45,145.34,35.41,145.33Z" fill="#3a302e"/>
          <path d="M35.56,145.4l-.06,0v0l.05-.05Z" fill="#3a302e"/>
          <path d="M33.55,146.1c-.29.11-.57.21-.85.29,0,0,0,.09-.05.08a.12.12,0,0,0-.08,0l-.13,0,0,0h0s0,0,0,.08l.07.05-.07-.05a.13.13,0,0,0-.08,0l-.11.05a.13.13,0,0,1,.11-.05l.06,0v0l-.28.07,0,0c-.06.05-.12.1-.19,0h-.06l-.21,0a1.4,1.4,0,0,1-.1.16l-.08-.08a.21.21,0,0,1,0,.12l.15.11c.08.08,0-.21.16-.06-.12-.15-.08.14-.16.06l-.15-.11c-.06.06-.15.06-.25,0,.05-.1.15-.06.25,0a.21.21,0,0,0,0-.12l.08.08a1.4,1.4,0,0,0,.1-.16l-.43.11c-.93.21-1.75.53-2.7.78a14.41,14.41,0,0,1-1.54.3c-1,.13-1.79.68-2.91.58a3.87,3.87,0,0,0-1.42.45c-.36.47.17,1.16.21,1.19.53.56.62.11,1.35.28-.48-.07.14-.53.69-.22.8.49,1.38-.35,2.13-.42a3.86,3.86,0,0,0,.56-.17,19.08,19.08,0,0,0,3.13-1.15,2.55,2.55,0,0,0,.7-.55c.17-.1.4-.08.54-.14a1.61,1.61,0,0,0,.57-.37c-.2.12-.34.22-.56.33s0-.27.11-.36.17.12.2.06.16-.14.24-.23.09.12.11.09.15-.36.26-.34h.22a.42.42,0,0,0,.12,0l.06-.08a.61.61,0,0,1-.1-.18l.15,0-.15,0a.61.61,0,0,0,.1.18,4.83,4.83,0,0,1,.51-.5h0a.45.45,0,0,1-.4,0c.07,0,.08.07,0,.11l-.08-.08c.08-.09.17-.18.32-.08l0-.09s.06.07.09.12l.06,0A1,1,0,0,0,33.55,146.1Z" fill="#3a302e"/>
          <path d="M32.34,146.53l.06,0-.24.06C32.23,146.63,32.29,146.58,32.34,146.53Z" fill="#3a302e"/>
        </g>
      </g>
      <g opacity="0.85">
        <g>
          <path d="M36.73,149.82l-.11.08h.1S36.74,149.86,36.73,149.82Z" fill="#3a302e"/>
          <path d="M36.52,150h0v0A.05.05,0,0,1,36.52,150Z" fill="#3a302e"/>
          <path d="M36.37,150.17a.2.2,0,0,0,.09-.09A.13.13,0,0,0,36.37,150.17Z" fill="#3a302e"/>
          <path d="M36.54,150.08s0,0,0-.06h0a.21.21,0,0,0,0,.06A.11.11,0,0,1,36.54,150.08Z" fill="#3a302e"/>
          <path d="M36.54,150.08l.08,0Z" fill="#3a302e"/>
          <path d="M36.94,150.64s-.13-.12-.14-.06-.06.24-.14.31-.21,0-.22,0-.1.49,0,.38.27-.33.42-.5.17-.37.27-.54a.29.29,0,0,1,.13-.08l-.22.06C37,150.24,37,150.51,36.94,150.64Z" fill="#3a302e"/>
          <path d="M37.58,149.26a.84.84,0,0,0,0,.1c-.17,0-.22.07-.27.19l.1,0c0-.05,0-.1,0-.09a.44.44,0,0,0,.36-.16S37.62,149.26,37.58,149.26Z" fill="#3a302e"/>
          <path d="M37.74,149.28l0,.06h0a.43.43,0,0,0,0-.07Z" fill="#3a302e"/>
          <path d="M36.1,150.62a8.86,8.86,0,0,1-.71.57s0,.09,0,.09h-.1l-.1.07,0,0h0a.06.06,0,0,0,.05.06l.08,0-.08,0h-.08s0,.07-.09.08a.14.14,0,0,1,.09-.08l0-.07v0l-.24.16,0,0c0,.07-.07.13-.16.09l0,0h0l-.19.13a1,1,0,0,1,0,.17l-.1,0a.15.15,0,0,1,0,.13l.19,0c.1,0,0-.22.12-.12-.16-.1,0,.16-.12.12l-.19,0c0,.07-.12.1-.23.07s.12-.1.23-.07a.15.15,0,0,0,0-.13l.1,0a1,1,0,0,0,0-.17l-.36.24c-.81.52-1.46,1.1-2.28,1.66a13.26,13.26,0,0,1-1.34.81c-.91.47-1.45,1.26-2.53,1.54a4.09,4.09,0,0,0-1.18.91c-.18.57.55,1,.6,1.05.69.34.62-.11,1.37-.2-.48.09-.05-.55.57-.44.92.18,1.18-.81,1.85-1.13a3,3,0,0,0,.47-.36,17.62,17.62,0,0,0,2.55-2.15,2.48,2.48,0,0,0,.47-.75c.13-.15.35-.21.47-.31a1.76,1.76,0,0,0,.4-.55c-.15.18-.24.32-.42.51s-.07-.27,0-.38.21,0,.22,0a1.11,1.11,0,0,0,.14-.31c0-.06.13.09.13.06s0-.4.13-.42l.21-.06a.28.28,0,0,0,.11-.08l0-.09a.65.65,0,0,1-.16-.13l.15,0-.15,0a.65.65,0,0,0,.16.13,5.31,5.31,0,0,1,.3-.64h0a.45.45,0,0,1-.37.16c.07,0,.1,0,.06.09l-.1,0c0-.12.1-.23.27-.19l0-.1s.08.05.12.08l0-.06A1,1,0,0,0,36.1,150.62Z" fill="#3a302e"/>
          <path d="M35.11,151.45l0,0-.21.13C35,151.58,35.07,151.51,35.11,151.45Z" fill="#3a302e"/>
        </g>
      </g>
      <g opacity="0.85">
        <g>
          <path d="M40.36,153l-.08.12a.17.17,0,0,1,.1,0S40.38,153.07,40.36,153Z" fill="#3a302e"/>
          <path d="M40.21,153.25v.05A.09.09,0,0,0,40.21,153.25Z" fill="#3a302e"/>
          <path d="M40.14,153.48a.22.22,0,0,0,0-.11A.13.13,0,0,0,40.14,153.48Z" fill="#3a302e"/>
          <path d="M40.27,153.34a.07.07,0,0,1-.07,0h0a.17.17,0,0,1,0,.07Z" fill="#3a302e"/>
          <path d="M40.27,153.34h0Z" fill="#3a302e"/>
          <path d="M40.83,153.73s-.16-.07-.14,0,0,.25,0,.34-.2,0-.19.09.07.5.15.34.13-.4.22-.61,0-.4.06-.6a.54.54,0,0,1,.09-.12l-.17.14C40.71,153.35,40.87,153.58,40.83,153.73Z" fill="#3a302e"/>
          <path d="M41,152.22a.81.81,0,0,1,0,.09c-.17,0-.18.15-.19.27h.11c0-.06,0-.1-.09-.07a.4.4,0,0,0,.29-.27C41.05,152.23,41,152.2,41,152.22Z" fill="#3a302e"/>
          <path d="M41.13,152.18l0,.07h0s0,0,0-.08Z" fill="#3a302e"/>
          <path d="M40,154c-.15.27-.31.53-.47.77,0,0,0,.07,0,.09l-.1,0-.07.11a.06.06,0,0,1,0,0h0s0,0,.07.05h0a.11.11,0,0,0-.08,0,.22.22,0,0,1,0,.11.13.13,0,0,1,0-.11.22.22,0,0,0,0-.08v0c-.06.08-.11.16-.17.23s0,.05,0,.06,0,.15-.12.14l0,0h0l-.13.18a1.1,1.1,0,0,1,0,.18h-.11a.17.17,0,0,1,0,.12h.19c.11,0-.11-.19.07-.15-.18,0,0,.15-.07.15h-.19c0,.08-.08.14-.2.16s.08-.15.2-.16a.17.17,0,0,0,0-.12H39a1.1,1.1,0,0,0,0-.18c-.09.11-.17.23-.26.35-.58.76-1,1.53-1.57,2.34a13.4,13.4,0,0,1-1,1.22c-.7.76-.93,1.68-1.86,2.32a3.88,3.88,0,0,0-.79,1.26c0,.59.88.78.93.78.76.08.54-.32,1.21-.66-.41.25-.23-.5.39-.61.92-.15.83-1.16,1.35-1.69a3.06,3.06,0,0,0,.32-.5,18.57,18.57,0,0,0,1.66-2.89,2.51,2.51,0,0,0,.18-.88c.07-.18.25-.31.33-.45a1.75,1.75,0,0,0,.2-.65c-.09.22-.12.39-.22.62s-.16-.22-.15-.35.21,0,.19-.08a.91.91,0,0,0,0-.34c0-.06.15,0,.14,0s-.12-.38,0-.44l.17-.13a.39.39,0,0,0,.08-.1s0-.07,0-.1a.89.89,0,0,1-.19-.07l.12-.09-.12.09a.89.89,0,0,0,.19.07,5.69,5.69,0,0,1,.07-.71h0a.42.42,0,0,1-.29.27c.07,0,.11,0,.09.06H40c0-.12,0-.25.19-.27l0-.09s.09,0,.14,0l0-.07A.8.8,0,0,0,40,154Z" fill="#3a302e"/>
          <path d="M39.39,155.12l0-.06a1.43,1.43,0,0,0-.14.2C39.37,155.27,39.38,155.19,39.39,155.12Z" fill="#3a302e"/>
        </g>
      </g>
      <g opacity="0.85">
        <g>
          <path d="M44.87,154.81l0,.13a.22.22,0,0,1,.07-.06S44.9,154.84,44.87,154.81Z" fill="#3a302e"/>
          <path d="M44.8,155.06v.05A.09.09,0,0,0,44.8,155.06Z" fill="#3a302e"/>
          <path d="M44.81,155.31a.19.19,0,0,0,0-.13A.19.19,0,0,0,44.81,155.31Z" fill="#3a302e"/>
          <path d="M44.89,155.13a.06.06,0,0,1-.08,0h0a.17.17,0,0,1,0,.07A.18.18,0,0,1,44.89,155.13Z" fill="#3a302e"/>
          <path d="M44.89,155.13l.08,0A.11.11,0,0,0,44.89,155.13Z" fill="#3a302e"/>
          <path d="M45.55,155.3s-.17,0-.14,0a.91.91,0,0,1,.09.33c0,.06-.19.1-.16.15s.24.44.26.28,0-.43,0-.66-.11-.38-.15-.58a.34.34,0,0,1,0-.14l-.12.18C45.31,155,45.53,155.15,45.55,155.3Z" fill="#3a302e"/>
          <path d="M45.15,153.84l.06.08c-.16.08-.12.2-.09.32l.1,0c0-.06,0-.08-.1,0a.41.41,0,0,0,.18-.35A.25.25,0,0,0,45.15,153.84Z" fill="#3a302e"/>
          <path d="M45.29,153.75a.17.17,0,0,1,0,.07h0v-.08Z" fill="#3a302e"/>
          <path d="M44.9,155.83c0,.31-.11.61-.18.89,0,0,.08.05.05.08a.16.16,0,0,0-.08,0l0,.12a.07.07,0,0,0,0,.05h0s0,0,.08,0a.15.15,0,0,1,.07,0l-.07,0a.13.13,0,0,0-.07.06.17.17,0,0,1,0,.12.12.12,0,0,1,0-.12s0,0,0-.08l0,0c0,.09,0,.18-.07.28v.06c0,.07,0,.15-.07.17l0,.05h0l-.06.21c0,.06.06.11.08.16l-.1,0a.17.17,0,0,1,.08.09l.18-.08c.1,0-.17-.14,0-.16-.18,0,.09.13,0,.16l-.18.08c0,.08,0,.16-.13.21-.07-.1,0-.16.13-.21a.17.17,0,0,0-.08-.09l.1,0c0-.05,0-.1-.08-.16l-.12.42c-.29.92-.41,1.78-.67,2.74a12.86,12.86,0,0,1-.51,1.48c-.39,1-.3,1.9-1,2.81a4.15,4.15,0,0,0-.31,1.46c.23.55,1.09.43,1.14.42.74-.19.4-.49.91-1-.3.38-.39-.39.15-.71.83-.45.39-1.37.7-2.05a3.1,3.1,0,0,0,.13-.58,18.27,18.27,0,0,0,.56-3.28,2.4,2.4,0,0,0-.12-.89,2.55,2.55,0,0,1,.15-.53,1.72,1.72,0,0,0,0-.68c0,.23,0,.4,0,.66s-.23-.16-.26-.28.19-.09.15-.14a.8.8,0,0,0-.08-.33c0-.06.15,0,.13,0s-.24-.31-.17-.4l.12-.18a.28.28,0,0,0,0-.12l0-.09a1.33,1.33,0,0,1-.2,0s.07-.09.08-.13-.07.09-.08.13a1.33,1.33,0,0,0,.2,0c-.07-.22-.13-.46-.18-.69h0a.41.41,0,0,1-.17.35c.05-.05.1,0,.1,0l-.1,0c0-.12-.07-.24.08-.32l-.05-.08s.09,0,.14,0v-.07A.92.92,0,0,0,44.9,155.83Z" fill="#3a302e"/>
          <path d="M44.67,157.1V157c0,.07,0,.15-.07.23S44.69,157.17,44.67,157.1Z" fill="#3a302e"/>
        </g>
      </g>
      <g opacity="0.85">
        <g>
          <path d="M34.59,136l-.12-.06a.19.19,0,0,1,0,.09S34.56,136,34.59,136Z" fill="#3a302e"/>
          <path d="M34.35,135.86h0Z" fill="#3a302e"/>
          <path d="M34.11,135.83l.12,0A.12.12,0,0,0,34.11,135.83Z" fill="#3a302e"/>
          <path d="M34.28,135.93a.05.05,0,0,1,0-.07h-.08A.18.18,0,0,1,34.28,135.93Z" fill="#3a302e"/>
          <path d="M34.28,135.93s0,.07,0,.08S34.28,136,34.28,135.93Z" fill="#3a302e"/>
          <path d="M34,136.55s0-.17,0-.14a1,1,0,0,1-.34,0c-.06,0-.06-.21-.12-.18s-.47.16-.31.2.42.07.64.11l.6,0c.05,0,.09,0,.14.06l-.17-.15C34.34,136.37,34.15,136.56,34,136.55Z" fill="#3a302e"/>
          <path d="M35.5,136.42l-.09,0c0-.16-.17-.15-.3-.14s0,.08,0,.11.08,0,0-.09a.41.41,0,0,0,.31.23C35.5,136.51,35.52,136.46,35.5,136.42Z" fill="#3a302e"/>
          <path d="M35.57,136.57h-.08v0h.08Z" fill="#3a302e"/>
          <path d="M33.58,135.82a8.17,8.17,0,0,1-.84-.33s-.07.07-.09,0a.2.2,0,0,0,0-.08l-.11-.06h0a.07.07,0,0,0,0,.08s0,0,0,.08,0,0,0-.08a.22.22,0,0,0-.05-.08.2.2,0,0,1-.11,0,.12.12,0,0,1,.11,0h.11l-.27-.12h-.06c-.07,0-.15,0-.16-.1l0,0v0l-.2-.1-.17,0s0-.07,0-.11a.19.19,0,0,1-.11.07c0,.06,0,.14,0,.18s.17-.14.16,0c0-.19-.14.06-.16,0s0-.12,0-.18-.15-.06-.18-.17.15,0,.18.17a.19.19,0,0,0,.11-.07s0,.11,0,.11l.17,0-.39-.2c-.85-.43-1.68-.71-2.58-1.13a13.82,13.82,0,0,1-1.37-.76c-.87-.55-1.82-.62-2.61-1.42a3.89,3.89,0,0,0-1.37-.56c-.58.13-.62,1-.61,1,.05.77.41.48.86,1.08-.32-.36.45-.31.67.28.3.89,1.28.62,1.9,1a3.37,3.37,0,0,0,.54.23,20.84,20.84,0,0,0,3.14,1.13,2.43,2.43,0,0,0,.89,0,2.91,2.91,0,0,1,.5.25,1.79,1.79,0,0,0,.68.08c-.23,0-.4,0-.65-.11s.19-.19.32-.21.06.2.11.18a.68.68,0,0,0,.34,0c.06,0,0,.16,0,.15s.35-.19.43-.1l.16.15.11.05h.1a.51.51,0,0,1,0-.21s.07.08.11.11S33,136,33,136a.51.51,0,0,0,0,.21,5.35,5.35,0,0,1,.7-.07h0a.42.42,0,0,1-.31-.24c0,.06,0,.11,0,.1v-.11c.12,0,.24,0,.29.14l.09,0s0,.1,0,.15h.08A1.06,1.06,0,0,0,33.58,135.82Z" fill="#3a302e"/>
          <path d="M32.37,135.38h.06l-.22-.1C32.22,135.38,32.3,135.38,32.37,135.38Z" fill="#3a302e"/>
        </g>
      </g>
      <g opacity="0.85">
        <g>
          <path d="M37.05,131.79l-.1-.09a.22.22,0,0,1,0,.09S37,131.81,37.05,131.79Z" fill="#3a302e"/>
          <path d="M36.86,131.61l0,0h0Z" fill="#3a302e"/>
          <path d="M36.65,131.49a.23.23,0,0,0,.09.08S36.7,131.51,36.65,131.49Z" fill="#3a302e"/>
          <path d="M36.76,131.65s0-.06.05-.06h0l-.08,0A.11.11,0,0,1,36.76,131.65Z" fill="#3a302e"/>
          <path d="M36.76,131.65a.28.28,0,0,0,0,.08A.19.19,0,0,0,36.76,131.65Z" fill="#3a302e"/>
          <path d="M36.28,132.13s.1-.14,0-.14-.25,0-.33-.09,0-.21,0-.2-.5,0-.36.08.37.21.56.32l.58.17a.52.52,0,0,1,.1.11,1.74,1.74,0,0,0-.1-.19C36.67,132.08,36.42,132.2,36.28,132.13Z" fill="#3a302e"/>
          <path d="M37.74,132.53h-.09c0-.17-.11-.2-.23-.23l0,.1c.06,0,.1,0,.08-.07a.45.45,0,0,0,.22.33S37.75,132.57,37.74,132.53Z" fill="#3a302e"/>
          <path d="M37.75,132.69l-.06,0h0l.07,0Z" fill="#3a302e"/>
          <path d="M36.15,131.31c-.25-.2-.47-.4-.68-.6,0,0-.08,0-.09,0a.22.22,0,0,0,0-.09l-.09-.09-.05,0h0s0,0,0,.06a.22.22,0,0,1,0,.08.25.25,0,0,1,0-.08.15.15,0,0,0,0-.09.17.17,0,0,1-.1-.07.13.13,0,0,1,.1.07l.07,0h0l-.2-.21-.06,0c-.07,0-.14-.05-.11-.15l0,0v0s0,0,0,0l-.15-.16h-.18l0-.1a.17.17,0,0,1-.12,0,1.54,1.54,0,0,0,0,.19c0,.11.21-.08.14.1.07-.18-.16,0-.14-.1a1.54,1.54,0,0,1,0-.19c-.07,0-.12-.1-.12-.22s.13.1.12.22a.17.17,0,0,0,.12,0l0,.1h.18l-.3-.31c-.65-.71-1.34-1.25-2-2a12.52,12.52,0,0,1-1-1.19c-.63-.81-1.49-1.2-2-2.23a3.83,3.83,0,0,0-1.1-1c-.59-.08-.92.72-.93.77-.22.74.22.59.44,1.31-.18-.45.53-.14.53.49,0,.93,1,1,1.43,1.63a4.22,4.22,0,0,0,.43.4A18.52,18.52,0,0,0,32.74,130a2.64,2.64,0,0,0,.82.34c.17.09.27.3.39.4a1.69,1.69,0,0,0,.6.3c-.19-.12-.35-.18-.56-.32s.24-.12.36-.09,0,.21,0,.21.21.06.33.09-.06.14,0,.14.39-.05.43,0,.07.14.1.2a.26.26,0,0,0,.09.09l.09,0a.81.81,0,0,1,.1-.18s0,.1.07.13,0-.1-.07-.13a.81.81,0,0,0-.1.18,5.38,5.38,0,0,1,.69.18h0a.45.45,0,0,1-.22-.33c0,.07,0,.1-.08.07l0-.11c.12,0,.24.06.24.24h.09c0,.05,0,.09,0,.14l.06,0A1.07,1.07,0,0,0,36.15,131.31Z" fill="#3a302e"/>
          <path d="M35.16,130.48l.06,0-.17-.17C35,130.43,35.09,130.45,35.16,130.48Z" fill="#3a302e"/>
        </g>
      </g>
      <g opacity="0.85">
        <g>
          <path d="M40.78,128.71l-.06-.12a.15.15,0,0,1,0,.09S40.74,128.71,40.78,128.71Z" fill="#3a302e"/>
          <path d="M40.67,128.47v0h0Z" fill="#3a302e"/>
          <path d="M40.51,128.29a.18.18,0,0,0,.07.1A.2.2,0,0,0,40.51,128.29Z" fill="#3a302e"/>
          <path d="M40.56,128.48s0,0,.07,0h0a.12.12,0,0,1-.05-.05A.29.29,0,0,1,40.56,128.48Z" fill="#3a302e"/>
          <path d="M40.56,128.48a.21.21,0,0,1,0,.07A.16.16,0,0,0,40.56,128.48Z" fill="#3a302e"/>
          <path d="M40,128.77s.13-.1.07-.12-.22-.11-.27-.2.08-.19,0-.21-.47-.19-.37-.05.28.32.42.5.33.23.48.36a.35.35,0,0,1,.06.14,1.66,1.66,0,0,0,0-.22C40.33,128.86,40.06,128.88,40,128.77Z" fill="#3a302e"/>
          <path d="M41.19,129.64l-.09,0c.06-.16,0-.23-.14-.3l-.06.09s.09,0,.1,0a.4.4,0,0,0,.09.38S41.18,129.68,41.19,129.64Z" fill="#3a302e"/>
          <path d="M41.14,129.8l0-.06,0,0a.18.18,0,0,1,.07.05Z" fill="#3a302e"/>
          <path d="M40.1,128c-.16-.27-.3-.54-.43-.8,0,0-.09,0-.09,0a.16.16,0,0,0,0-.09l0-.11,0,0h0s-.05,0-.07,0a.16.16,0,0,1,0,.07l0-.07a.25.25,0,0,0,0-.08.3.3,0,0,1-.07-.11.13.13,0,0,1,.07.11l.06,0h0a2.1,2.1,0,0,1-.13-.26l0,0c-.06,0-.11-.09-.06-.17a.08.08,0,0,0,0,0h0s0,0,0,0l-.09-.2-.17-.07.06-.09a.21.21,0,0,1-.12,0,1.26,1.26,0,0,0-.08.18c-.06.09.22,0,.09.14.13-.14-.15,0-.09-.14A1.26,1.26,0,0,1,39,126c-.06,0-.08-.13,0-.24s.08.14,0,.24a.21.21,0,0,0,.12,0l-.06.09.17.07c-.06-.13-.11-.27-.17-.4-.37-.89-.83-1.63-1.25-2.53a14.62,14.62,0,0,1-.55-1.47c-.31-1-1-1.64-1.08-2.76a4.16,4.16,0,0,0-.69-1.32c-.53-.27-1.11.37-1.14.41-.46.62,0,.63,0,1.38,0-.48.55.05.34.64-.35.88.58,1.31.78,2a3.25,3.25,0,0,0,.27.52,18.68,18.68,0,0,0,1.67,2.88,2.54,2.54,0,0,0,.67.6,3.14,3.14,0,0,1,.22.51,1.81,1.81,0,0,0,.46.49c-.14-.18-.27-.29-.42-.5s.27,0,.38.05-.09.19,0,.21.18.13.28.2-.11.11-.08.12.39.09.39.2l0,.22a.22.22,0,0,0,0,.11l.08.05a1.14,1.14,0,0,1,.16-.14s0,.11,0,.15,0-.11,0-.15a1.14,1.14,0,0,0-.16.14,3.81,3.81,0,0,1,.58.41h0a.45.45,0,0,1-.09-.39c0,.07-.05.09-.1,0l.06-.09c.1.07.21.14.14.3l.09,0s-.06.07-.1.11a.12.12,0,0,1,.05.05A.84.84,0,0,0,40.1,128Z" fill="#3a302e"/>
          <path d="M39.46,126.83l0,0a1.47,1.47,0,0,1-.1-.22C39.35,126.73,39.41,126.78,39.46,126.83Z" fill="#3a302e"/>
        </g>
      </g>
      <g opacity="0.85">
        <g>
          <path d="M45.35,127.1a.66.66,0,0,1,0-.14.21.21,0,0,1-.06.08S45.31,127.08,45.35,127.1Z" fill="#3a302e"/>
          <path d="M45.32,126.84v0l0,0S45.32,126.82,45.32,126.84Z" fill="#3a302e"/>
          <path d="M45.23,126.61a.27.27,0,0,0,0,.12A.11.11,0,0,0,45.23,126.61Z" fill="#3a302e"/>
          <path d="M45.22,126.8s.05,0,.08,0h0l0-.06A.13.13,0,0,1,45.22,126.8Z" fill="#3a302e"/>
          <path d="M45.22,126.8l-.06.06Z" fill="#3a302e"/>
          <path d="M44.54,126.86s.17,0,.12-.08-.18-.18-.2-.28.15-.15.1-.19-.38-.34-.34-.18.16.4.23.62.23.32.33.5a.38.38,0,0,1,0,.15c0-.07,0-.14.05-.22S44.61,127,44.54,126.86Z" fill="#3a302e"/>
          <path d="M45.41,128.11l-.08-.06c.12-.13.05-.23,0-.33l-.09.06c0,.07.08.06.11,0a.43.43,0,0,0,0,.39S45.39,128.15,45.41,128.11Z" fill="#3a302e"/>
          <path d="M45.31,128.24l0-.07h0l0,.07Z" fill="#3a302e"/>
          <path d="M45,126.14c-.06-.31-.1-.6-.13-.89,0,0-.09,0-.07-.06a.15.15,0,0,0,0-.07c0-.05,0-.09,0-.13s0,0,0,0h0a.06.06,0,0,0-.08,0l-.06.05.06-.05a.3.3,0,0,0,0-.08.21.21,0,0,1,0-.12.15.15,0,0,1,0,.12l0,.07h0a2.64,2.64,0,0,1,0-.29l0,0c0-.07-.08-.13,0-.19v-.05h0l0,0c0-.07,0-.15,0-.22a1.54,1.54,0,0,1-.13-.12l.09-.07a.15.15,0,0,1-.11-.06c-.05,0-.11.09-.14.13s.21.08,0,.16c.17-.08-.13-.09,0-.16s.09-.08.14-.13,0-.16,0-.25c.09.08,0,.17,0,.25a.15.15,0,0,0,.11.06l-.09.07a1.54,1.54,0,0,0,.13.12l0-.44c0-.95-.21-1.81-.3-2.8,0-.53,0-1,0-1.57.05-1-.36-1.88-.06-3a4,4,0,0,0-.2-1.47c-.41-.44-1.17,0-1.21,0-.64.42-.22.59-.51,1.28.15-.46.5.24.09.72-.62.7.11,1.42.05,2.17a3.15,3.15,0,0,0,.07.58,19.3,19.3,0,0,0,.59,3.29,2.27,2.27,0,0,0,.42.78,3.7,3.7,0,0,1,0,.56,1.74,1.74,0,0,0,.27.62c-.08-.22-.16-.37-.23-.61s.26.07.34.17-.15.15-.1.19.12.18.19.28S44,125,44,125s.33.21.3.31a2.25,2.25,0,0,0,0,.22.2.2,0,0,0,0,.13l.06.07a.84.84,0,0,1,.19-.07.74.74,0,0,1,0,.14.74.74,0,0,0,0-.14.84.84,0,0,0-.19.07,6,6,0,0,1,.4.58h0a.42.42,0,0,1,0-.4c0,.07-.09.07-.11,0l.08-.07c.08.1.15.2,0,.33l.08.06s-.08,0-.13.07l0,.07A1.06,1.06,0,0,0,45,126.14Z" fill="#3a302e"/>
          <path d="M44.76,124.88a.17.17,0,0,0,0,.05,1.94,1.94,0,0,0,0-.24C44.68,124.75,44.72,124.81,44.76,124.88Z" fill="#3a302e"/>
        </g>
      </g>
      <g>
        <path d="M228,68.79,225.61,68,225,65.51A81.71,81.71,0,0,0,146.26,5.12h-5.58A81.69,81.69,0,0,0,62,65.51L61.33,68l-2.42.82a78.74,78.74,0,0,0,0,149.37l2.42.81.67,2.46a81.69,81.69,0,0,0,78.68,60.39h5.58A81.71,81.71,0,0,0,225,221.43l.66-2.46,2.42-.81a78.74,78.74,0,0,0,0-149.37ZM227,215.2l-4,1.35-1.1,4.07a78.59,78.59,0,0,1-75.68,58.09h-5.58A78.59,78.59,0,0,1,65,220.62l-1.1-4.07-4-1.35a75.62,75.62,0,0,1,0-143.46l4-1.35L65,66.32A78.59,78.59,0,0,1,140.68,8.23h5.58a78.59,78.59,0,0,1,75.68,58.09l1.1,4.07,4,1.35a75.62,75.62,0,0,1,0,143.46Z" fill="#fff" stroke="#040000" stroke-miterlimit="10" stroke-width="0.7"/>
        <path d="M229.55,64.27C219.65,27.56,186,.35,146.26.35h-5.58C101,.35,67.29,27.56,57.39,64.27a83.85,83.85,0,0,0-57,79.2h0a83.88,83.88,0,0,0,57,79.21,86.58,86.58,0,0,0,83.29,63.91h5.58a86.58,86.58,0,0,0,83.29-63.91,83.88,83.88,0,0,0,57-79.21h0A83.85,83.85,0,0,0,229.55,64.27Zm-1.06,155.26-1.68.57-.46,1.71a83.17,83.17,0,0,1-80.09,61.47h-5.58a83.17,83.17,0,0,1-80.09-61.47l-.46-1.71-1.68-.57a80.19,80.19,0,0,1,0-152.12l1.68-.57.46-1.71A83.16,83.16,0,0,1,140.68,3.67h5.58a83.16,83.16,0,0,1,80.09,61.46l.46,1.71,1.68.57a80.19,80.19,0,0,1,0,152.12Z" fill="#fff" stroke="#040000" stroke-miterlimit="10" stroke-width="0.7"/>
      </g>
      <g>
        <path d="M100,84.58c1.07,0,2.08.1,3.82.1,2,0,2.72-.09,3.55-.09.11.06.11.7,0,.84a7.32,7.32,0,0,0-1.3.31.64.64,0,0,0-.34.85c.64,2.59,2,7.22,2.79,9.77,0,.06.1,0,.14,0,1.06-2.8,3-8.4,3.68-10.89a7.58,7.58,0,0,0,1.65,0c.68,2.28,3.28,9.36,4.06,11.29,0,0,.14,0,.16,0,.78-2.36,2.29-7.46,2.69-9.28.19-.87.17-1.46-.61-1.67a7.33,7.33,0,0,0-1.66-.31,1.06,1.06,0,0,1,0-.84c.62,0,1.89.09,3.23.09,1.75,0,2.53-.09,3.12-.09a1.7,1.7,0,0,1,0,.84,5.18,5.18,0,0,0-1.18.29c-.6.21-1,.59-1.35,1.63-1.2,3.27-3.49,10.44-4.53,13.77a11.16,11.16,0,0,0-1.63,0c-.65-2.14-3.11-9.07-4-11.24a.16.16,0,0,0-.14,0c-1.11,3-3.12,8.56-3.92,11.16a8.35,8.35,0,0,0-1.65,0c-.8-3.42-3.07-11.13-4-13.75-.33-.94-.66-1.48-1.29-1.69a5,5,0,0,0-1.4-.29C99.87,85.32,99.9,84.65,100,84.58Z" fill="#231815"/>
        <path d="M124.19,97.84c1.42-3.33,3.77-9.72,4.39-11.53a9.34,9.34,0,0,0,.49-1.68c.24,0,.64.05,1.13.05s.85,0,1.09-.05c.11.41.26,1,.42,1.46.73,2,3.28,9.35,4.22,11.63.83,2,1,2.15,2.93,2.45a1.21,1.21,0,0,1-.07.83c-.67,0-2-.09-3.56-.09s-3,.09-3.75.09c-.08-.14-.12-.75,0-.83a9.21,9.21,0,0,0,1.36-.32.47.47,0,0,0,.28-.62c-.27-1-1-3.07-1.43-4.17,0,0-.15-.17-.24-.17-.4,0-1.34,0-2.29,0-1.41,0-1.84,0-2.17,0-.11,0-.23.14-.28.26A22,22,0,0,0,125.48,99c0,.42,0,.75.76.92.42.09.82.18,1.3.25.11.08,0,.73-.07.83-.64,0-1.84-.09-3.38-.09-1.25,0-2.23.09-2.9.09a1.19,1.19,0,0,1,0-.83C123.06,99.91,123.43,99.7,124.19,97.84Zm5-9.91c-.5,1.4-1.37,4.06-1.84,5.38,0,.12,0,.17.09.19.28,0,1,0,1.84,0s1.51,0,1.79,0c0,0,.1-.1.1-.19-.43-1.25-1.37-4.1-1.84-5.38A.32.32,0,0,0,129.17,87.93Z" fill="#231815"/>
        <path d="M138,84.59c.8,0,2.12.09,3.6.09.66,0,1.28,0,1.58-.05a5.31,5.31,0,0,0,1,1.46c2.39,3,7.15,8.92,8.63,10.73.07,0,.07,0,.12-.06,0-3.5,0-7.76-.12-9.61-.07-.82-.28-1.25-1.12-1.46a9.77,9.77,0,0,0-1.68-.26c-.14-.11-.09-.78,0-.84.69,0,1.89.09,3.58.09,1.18,0,2.53-.09,2.93-.09a1.11,1.11,0,0,1,0,.84,6.83,6.83,0,0,0-1.09.2c-.75.25-1,.65-1,1.57-.17,2.19-.21,5.94-.22,10.21,0,1.19,0,2.74.05,3.66-.35,0-1.81,0-2.22,0-1.5-2.1-8.18-10.66-9.86-12.78-.09-.07-.14,0-.14,0-.06,2.83,0,8.63.05,9.95,0,1.09.43,1.48,1.14,1.63a11.49,11.49,0,0,0,1.58.3,1.1,1.1,0,0,1-.05.83c-.76,0-2-.09-3.35-.09-1.53,0-2.62.09-3.33.09a1.19,1.19,0,0,1,0-.83,6.9,6.9,0,0,0,1.46-.3c.62-.17.9-.59,1-1.54.14-1.39.2-6.11.26-10.91a1.64,1.64,0,0,0-.85-1.49,4.76,4.76,0,0,0-1.91-.5A1.5,1.5,0,0,1,138,84.59Z" fill="#231815"/>
        <path d="M162.94,93.69a.41.41,0,0,1,.1-.26,4.24,4.24,0,0,0,.9.07,3.14,3.14,0,0,0,1.64-.4c1-.61,1.45-1.68,1.45-3.3,0-2.45-1.25-4.17-3.83-4.17a3,3,0,0,0-.94.14.45.45,0,0,0-.17.33c-.06.73-.09,2.19-.09,6.15,0,2.26,0,4.88.05,6.3,0,.78.19,1.2.92,1.36a10.62,10.62,0,0,0,1.65.26,1,1,0,0,1-.07.83c-.9,0-2.71-.09-4-.09s-2.85.09-3.81.09a1.39,1.39,0,0,1,0-.83c.56-.07,1-.14,1.42-.21.65-.19.75-.59.8-1.49s0-2.94,0-6,0-4.59,0-5.42-.17-1.27-.92-1.44c-.35,0-.78-.12-1.29-.17a1.13,1.13,0,0,1,.06-.84c.57,0,2,.09,3.36.09,1.79,0,3-.05,4.74-.05a5.9,5.9,0,0,1,3.51,1,4.37,4.37,0,0,1,1.75,3.65,5,5,0,0,1-2.58,4.51,6.42,6.42,0,0,1-3.11.77,4.1,4.1,0,0,1-1.15-.11A1.61,1.61,0,0,1,162.94,93.69Z" fill="#231815"/>
        <path d="M173.94,99a9.11,9.11,0,0,1-2.31-6.27,8.13,8.13,0,0,1,2-5.55,9.21,9.21,0,0,1,6.9-3c5.45,0,8.31,3.88,8.31,8.3A9,9,0,0,1,187.26,98a8.65,8.65,0,0,1-7.09,3.44A8.27,8.27,0,0,1,173.94,99Zm9.62.35c1.48-1.25,1.94-3.55,1.94-5.92,0-2.82-.81-5.63-2.7-7.09a4.67,4.67,0,0,0-3-1,4.15,4.15,0,0,0-2.24.59c-1.74,1.11-2.45,3.45-2.45,6.11s.87,5.69,3,7.27a5.18,5.18,0,0,0,3,.94A3.8,3.8,0,0,0,183.56,99.32Z" fill="#231815"/>
      </g>
    </g>
  </g>
</svg>
