<svg xmlns="http://www.w3.org/2000/svg" width="325.55" height="69.71" viewBox="0 0 325.55 69.71">
  <title>footer-flag</title>
  <g id="圖層_2" data-name="圖層 2">
    <g id="menu">
      <g>
        <path d="M6.43,69.34a.71.71,0,0,0,0-.21A7,7,0,0,0,7.6,67.87c.09-.16.13-.25.22-.42a.77.77,0,0,0,.06-.27V67.1a.12.12,0,0,1,0-.08c0-.06,0-.09,0-.14a1.43,1.43,0,0,1,.59-.38l-.2-.16.16-.23a1.61,1.61,0,0,1,.3-1.06A1.76,1.76,0,0,0,9,63.94c.28-.94.43-1.41.73-2.34,0-.12.08-.19.14-.31a8.25,8.25,0,0,1-.44-2.15c0-.4-.07-.6-.11-1a9.17,9.17,0,0,0-.15-1,2.12,2.12,0,0,0-.08-.41C9,56.25,8.9,56,8.78,55.5a1.31,1.31,0,0,1,0-.34A10,10,0,0,0,8,53.34L6.19,47.9a.53.53,0,0,0,0-.41L6,47.13C5.68,45.74,4.77,44,4.6,42.85a1.53,1.53,0,0,0-.1-.36l-.75-1.41c-.17-.33-.31-.63-.43-.91A.38.38,0,0,1,3.06,40c0-.13-.05-.19-.09-.32a2.67,2.67,0,0,1-.59-.84A3.34,3.34,0,0,0,1.82,38a2.21,2.21,0,0,0-1-.46,1.47,1.47,0,0,1-.51-.19A.5.5,0,0,1,0,37.07a4.72,4.72,0,0,0,.41-.37l1-1.05a4,4,0,0,1,1.45-1.1,3.3,3.3,0,0,1,1.76-.13l.2,0a.36.36,0,0,1,.25,0l.41.08a4.6,4.6,0,0,0,.82,0c.14,0,.45-.15.88-.28a6.52,6.52,0,0,0,.62-.21l.67-.23c.24-.1.47-.16.62-.22s.41-.14.55-.17a1.69,1.69,0,0,1,.61-.13.83.83,0,0,1,.35-.18,1.9,1.9,0,0,1,.35-.06h.19l.18,0a.71.71,0,0,0,.31,0c.56-.51.75-1,.58-1.42a3.82,3.82,0,0,0-3.28-2.53c-.16-.15-.14-.36,0-.62a1.16,1.16,0,0,1,.26-.3L9.32,28A.13.13,0,0,1,9.39,28l.07-.07a1.45,1.45,0,0,0,.62-.48l.63-1.09L11,26a1.61,1.61,0,0,1,.7-.52,9.49,9.49,0,0,1,2.7-.43c1.2-.06,1.89.11,2.05.53a.64.64,0,0,1,0,.51l-.15.22s0,0,0,.05l-.07.19a1.43,1.43,0,0,0-.25.6,2.71,2.71,0,0,0,.2,1l.33.47.2.68a1.89,1.89,0,0,0,.31.56q.36.45,1.26.12c1.17-.49,1.75-.73,2.92-1.2a1.89,1.89,0,0,1,.34-.09h.75l.26-.05c.05,0,.13-.13.25-.33a1,1,0,0,1,.21-.31,2.64,2.64,0,0,0,.39-.34l.88-1.18a1.57,1.57,0,0,0,.76-.74A1.58,1.58,0,0,1,25.7,25a.7.7,0,0,1,.6.14l.3.18a1.17,1.17,0,0,0,.38.17c.08.24.44.41,1,.55s1,.37,1,.62c.32.91,0,1.54-1,1.88-.79.28-1.74.45-2.57.67-.57.15-1.36.44-2.26.69s-1.72.61-2,.61a.89.89,0,0,0-.38.1l-1.18.6-.56.25c-.4.17-.83.39-1.23.54a.92.92,0,0,0,.52.52,1.08,1.08,0,0,0,.32.11l.28.14a3.49,3.49,0,0,1,.15,1.13A3.28,3.28,0,0,0,19.25,35c.21.56.38.95.49,1.17a2.39,2.39,0,0,0,.51.75c.39.39,1,.42,1.83.11a5.64,5.64,0,0,0,2.05-1.15.86.86,0,0,0,.3-.3l.22-.4a1.22,1.22,0,0,1,.18-.38.68.68,0,0,1,.33-.24c.13-.28.2-.43.34-.71a1.8,1.8,0,0,1,.87-.9A2.81,2.81,0,0,1,28,33a3.13,3.13,0,0,1,1.29.57l.3.6a1,1,0,0,1-.68,1.42L27,36.18a2.32,2.32,0,0,0-.39.18l-.34.2a1.2,1.2,0,0,1-.3.19,2.23,2.23,0,0,1-.35.17c-.82.29-1.23.44-2.05.75l-.14,0a.66.66,0,0,0-.27,0,.55.55,0,0,0-.22.16.27.27,0,0,0-.05.22l-1.21.44c-.32.12-.44.49-.36,1.09a4.24,4.24,0,0,0,.11.67,2.56,2.56,0,0,0,.12.43l.77,1.1a2.49,2.49,0,0,1,.21.44c.27.71.5,1.31.71,1.75A4.36,4.36,0,0,0,23.84,45a8,8,0,0,1,1.24-.3,8.59,8.59,0,0,0,1.36-.3,3.37,3.37,0,0,1,1-.67,2.94,2.94,0,0,0,.86-.59,1.48,1.48,0,0,0,.23-.36,3.72,3.72,0,0,1,.19-.34,1.12,1.12,0,0,1,.19-.35,4.54,4.54,0,0,1,.42-.7c.14-.19.22-.29.27-.25a2.73,2.73,0,0,1,.89,0,10.68,10.68,0,0,1,1.47.23c.51.11,1,.22,1.31.33s.61.22.63.29a1.45,1.45,0,0,1-.29,1.32c-.16.21-.24.31-.39.53a1.6,1.6,0,0,0-.15.6,3.81,3.81,0,0,0,.12.7,1.66,1.66,0,0,0,.08.37l1.27,3.13c.19.61.29.91.49,1.52a5.41,5.41,0,0,1,.19,1.54A2.32,2.32,0,0,1,33.47,54c-.53.19-.86.13-1-.2s-.06-.4-.11-.67a.44.44,0,0,0-.27-.26.88.88,0,0,0-.38-.1l-.41,0a1,1,0,0,1-.33-.19,19.52,19.52,0,0,1-1.84,1.07l-1.6.39c-.45.14-1,.35-1.48.52a5.3,5.3,0,0,0-1.47.76L24,55.7a5.06,5.06,0,0,1-.66.33L22,56.37c-.87.34-1.19.79-1,1.34a1.21,1.21,0,0,0,.16.29c.12.21.17.32.29.52a1.48,1.48,0,0,1,.16.3,1.66,1.66,0,0,1,.1.48c0,.2,0,.3,0,.51a1.46,1.46,0,0,1-1.1,1.63l-.1.08a.28.28,0,0,1-.18,0,1.67,1.67,0,0,1-.58-.25c-.27-.16-.63-.4-1.09-.72a.62.62,0,0,1-.12-.19l-.1-.24a.67.67,0,0,0-.34-.31l-1.1-3.15c-.19-.32-.28-.49-.46-.81a1.33,1.33,0,0,1-.17-.3,2.66,2.66,0,0,1-.11-.39c-.09-.31-.14-.47-.23-.79A2,2,0,0,0,16,54l-.23-.14c-.27-.66-.41-1-.67-1.65-.09-.13-.14-.19-.22-.32-.14-.43-.21-.65-.36-1.09l-.53-1a.51.51,0,0,0-.23-.22.88.88,0,0,0-.14-.35l-.3-.16h-.09L13,49a.4.4,0,0,1-.23-.23,1.55,1.55,0,0,1,1.07-1.64,1.82,1.82,0,0,1,.5-.12,1.89,1.89,0,0,1,.39,0l.39.08a1.72,1.72,0,0,0,.39,0,2.23,2.23,0,0,1,.59,0,3.11,3.11,0,0,0,.51,0l1.23.24a2.74,2.74,0,0,0,1.41-.2c.46-.36.54-1,.21-1.79l-.34-.9a5,5,0,0,0-.4-.8c-.49-1.24-.73-1.87-1.21-3.11a4.44,4.44,0,0,1-.55-.94c-.27-.56-.51-1.09-.71-1.6L16,37.46a3.94,3.94,0,0,0-.29-.61,2.07,2.07,0,0,0-.85-.9,8.53,8.53,0,0,1-1-.46c-.36-.22-.53-.36-.48-.4A7,7,0,0,1,13.86,34s-.1-.09-.24-.14c-1.25.55-1.87.82-3.11,1.39a3.31,3.31,0,0,1-.42.12l-.84.26a4.16,4.16,0,0,0-.5.16,2.15,2.15,0,0,0-.25.31,1.29,1.29,0,0,1-.34.33,1,1,0,0,1-.31.17l-.44.18L7,37.07a1.14,1.14,0,0,0-.32.25l-.26.39a1.12,1.12,0,0,0-.15.34,15.66,15.66,0,0,0,1.11,4L8,44a5.69,5.69,0,0,0,.34,1c.35.9.53,1.35.89,2.25q.12.42,0,.42l-.19.2a1.83,1.83,0,0,1,.44.5,1.63,1.63,0,0,1,.18.33l.13.31a2.68,2.68,0,0,1,.23.87c0,.16,0,.24,0,.41a1.3,1.3,0,0,0,0,.45.86.86,0,0,0,.19.25,1.4,1.4,0,0,1,.18.32,5.74,5.74,0,0,1,.24.79c0,.3.08.45.13.75a12.57,12.57,0,0,1,.68,3.25c.09,1.38.14,2.06.24,3.44l-.35,2.33a.82.82,0,0,1-.12.25,1.52,1.52,0,0,1-.19.28l-.19.29a.58.58,0,0,0-.12.25c-.52,1.26-.79,1.89-1.3,3.15-.06,0-.17.16-.33.47a1.27,1.27,0,0,0-.13.22c-.1.22-.15.33-.24.55s-.12.17-.19.29a4.12,4.12,0,0,1-1.6,2c-.29.13-.5.07-.62-.2A.13.13,0,0,0,6.43,69.34Zm2.14-3.11a.06.06,0,0,0,.1,0s0,0,0-.08-.07-.13-.09-.12S8.53,66.14,8.57,66.23ZM20.63,55.37a6,6,0,0,0,2.46-.6l2-1.16.28,0,.89-.34,1.58-.71c.3-.13.64-.23.83-.34a1.33,1.33,0,0,1,.38-.18,1.21,1.21,0,0,1,.42,0l.19.05a.38.38,0,0,0,.18,0,.77.77,0,0,0,.35,0c.31-.11.42-.5.32-1.18a9,9,0,0,0-.19-.88c-.06-.23-.16-.5-.23-.74a8.64,8.64,0,0,0-.5-1.4,1,1,0,0,1-.15-.3l-.37-.77-.23-.63c-.19-.53-.44-.84-.73-.92-2.24.75-3.36,1.14-5.59,1.92a7.12,7.12,0,0,0-1.19.66,7.58,7.58,0,0,1-1.18.65h-.37a4.55,4.55,0,0,0-1.66,1,1.8,1.8,0,0,0,0,.86c.06.22.17.52.32.91a10,10,0,0,0,.64,1.27l.52,1c0,.15,0,.23,0,.39a.68.68,0,0,0,.07.29C20,54.55,20.3,55.31,20.63,55.37Zm10.55-11.9s.07.05.15,0,.07-.06.05-.1-.07-.13-.13-.11S31.15,43.38,31.18,43.47Z" fill="#231815"/>
        <path d="M49.61,22.89l.52-.07a3.33,3.33,0,0,0,.62-.18l.6-.25.8-.19q.33-.09,1.14-.24l2-.43a1.22,1.22,0,0,0,.24-.1.92.92,0,0,0,.23-.14l.27-.15,2.34-.94a1.35,1.35,0,0,0,.6-1.65c-.13-.48-.5-.63-1.11-.47l-2.32.73c-.17.05-.33.12-.45.16-.3.11-.65.21-.95.34l-2.22.92c-.91.38-1.67.68-2.27.88a2.36,2.36,0,0,0-.28.12,1.12,1.12,0,0,0-.29.12l-.56.24-.28.12-.28.12a1.75,1.75,0,0,1-.69.12.7.7,0,0,1-.4-.15l-.31-.26a.62.62,0,0,0-.37-.2l-.52-.2c-.27-.1-.42-.22-.47-.36l.3-.39a1.45,1.45,0,0,1,.5-.15l1-.07a2.43,2.43,0,0,0,.57-.09c.47-.14,1.15-.39,2.05-.75s1.56-.59,2-.72,1.42-.43,2.57-.82L56.79,17l.43-.08a1.65,1.65,0,0,0,.7-.26c.46-.28.59-.81.39-1.6l-.24-.55a10,10,0,0,1-.38-1.13c0-.21-.29-.43-.72-.65s-.66-.44-.71-.66a.53.53,0,0,1,0-.26.23.23,0,0,1,.19-.16l.75-.09a1,1,0,0,0,.4,0,3.26,3.26,0,0,0,.42-.15,4.69,4.69,0,0,0,1.06.07l.45,0a1.27,1.27,0,0,0,.35-.05,2.14,2.14,0,0,1,1.14,0s.16.06.37.06l1.24,0c.15,0,.24.06.25.13a.46.46,0,0,1-.05.32c0,.08-.11.19-.19.32s-.17.2-.28.33a.63.63,0,0,0-.14.34c.13.68.19,1,.33,1.68a.29.29,0,0,0,.2.29,2.75,2.75,0,0,0,.41,0,.32.32,0,0,0,.14,0l.12,0a1,1,0,0,1,.22,0,1.27,1.27,0,0,1,.42.05l2.7-.65c0-.07.22-.21.77-.37s1-.27,1.47-.39a4.82,4.82,0,0,0,1-.76,12.93,12.93,0,0,0,1.39-1.38,1,1,0,0,1,.78.09l.74.33a2.39,2.39,0,0,0,.53.15l.57.17c.42.16.66.38.72.64s-.32.65-1.14.9a11.38,11.38,0,0,1-1.18.26l-1.11.22-1.47.56L68,15c-.29,0-.54.09-.77.14-.53.13-1.33.35-2.39.66l-1.12.35c-.3.1-.43.16-.4.18l-.13,0c-.14,0-.19.1-.17.19.14.55.21.82.34,1.37,0,.1.18.2.44.31a.88.88,0,0,0,.56.13l3.1-.75,1.14-.81a.67.67,0,0,0,.19-.35c0-.11.06-.17.11-.29s.27-.33.61-.41a1.34,1.34,0,0,1,.35,0l.49,0a.42.42,0,0,0,.22,0c.9.05,1.4.32,1.51.8s0,.9-.3,1a6.22,6.22,0,0,1-1.13.11,5,5,0,0,0-1,.09l-.4.17c-2.31.54-3.47.82-5.78,1.4l-.51.05a10.83,10.83,0,0,0-2.32.86l-2.71,1.21-3.35,1.29c-1.48.57-2.71,1-3.67,1.26s-1.71.13-1.91-.53C48.89,23.2,49.11,23,49.61,22.89Zm21,17.84a1,1,0,0,1-.44-.08l-.64-.23a2.81,2.81,0,0,0-1.4-.22,3.28,3.28,0,0,0-1,.59,3.21,3.21,0,0,1-1.22.66c.07,0,0,.08-.25.15l-.83.21c-.83.27-1.18.65-1.06,1.12a.63.63,0,0,0,.16.27l.53.43a.74.74,0,0,1,.17.3c.08.32-.2.66-.82,1l-.79.48a3.16,3.16,0,0,0-.65.4,1.77,1.77,0,0,0-.31.24,1.31,1.31,0,0,1-.31.24c-1,.62-1.56.94-2.59,1.57l-1.22,1-1.29.64a1.12,1.12,0,0,1-.26.11,11.72,11.72,0,0,0-1.09.59l-.31.21a1.93,1.93,0,0,1-.32.21c-.15.07-.25.09-.32.05s-.07-.09-.11-.23.07-.47.43-.67a1.84,1.84,0,0,1,.44-.25l.33-.13a7.38,7.38,0,0,0,1.33-1.09l1.06-1.15a1.26,1.26,0,0,1,.34-.29l.8-.42.35-.25a1.28,1.28,0,0,0,.38-.3,2.6,2.6,0,0,1,.35-.29,1.51,1.51,0,0,1,.27-.38l.23-.22a1.35,1.35,0,0,0,.27-.26c.47-.44.65-.83.56-1.19,0-.1-.15-.15-.35-.18a1.39,1.39,0,0,0-.46,0c-.16.05-.43.14-.81.3a6.58,6.58,0,0,0-.78.37.59.59,0,0,0-.13.46l0,.33,0,.36a1.29,1.29,0,0,1-1,1.24,1.06,1.06,0,0,1-.85-.18,1.22,1.22,0,0,1-.65-.62c-1.08-3.78-1.63-5.67-2.71-9.45a1.07,1.07,0,0,0-.57-.61l-.37-.24-.4-.15c-.17-.11,0-.34.41-.7a3.88,3.88,0,0,1,1.4-.75l.21-.17a1.17,1.17,0,0,1,.57-.16l.93.2a.94.94,0,0,0,.47,0,14,14,0,0,0,1.77-.68l1-.46c1.68-.49,2.51-.72,4.19-1.19a20.59,20.59,0,0,0,1.95-.69,17.48,17.48,0,0,1,2-.64l1.68-.37c.27-.07.59-.16,1-.28l1.07-.37a1.88,1.88,0,0,0,.61-.33l.41-.44a3,3,0,0,1,1.47-.72,3.21,3.21,0,0,1,1.39.06l1.37.34a1.61,1.61,0,0,0,.4.06l.39,0c.29,0,.46.14.49.31a.41.41,0,0,1-.09.36,1.49,1.49,0,0,1-.27.33l-.32.26a.83.83,0,0,0-.24.28,1.8,1.8,0,0,0-.08,1.16l.17.76a3,3,0,0,0,.13.39c.09.27.17.57.25.74a1.57,1.57,0,0,0,.22.44l.67,2.4c.08.26.15.4.21.41A3.09,3.09,0,0,1,78,37.87a2.43,2.43,0,0,1-1.76,1.61,2,2,0,0,1-1-.19A2.18,2.18,0,0,0,74,39.21l-2.51.71,0,.14c-.07,0,0,0,0,0a1.42,1.42,0,0,1,.22.07,1.27,1.27,0,0,0,.34,0,1.3,1.3,0,0,0,.43,0,1.68,1.68,0,0,0,.55,0,6.15,6.15,0,0,0,1.34-.17,3.92,3.92,0,0,1,1.09,0,3.74,3.74,0,0,0,1.17,0l1.2.18a1.7,1.7,0,0,1,.5,0l1.28.32a1.51,1.51,0,0,0,.53,0,.77.77,0,0,1,.43.25,2,2,0,0,1,.37.57,4.91,4.91,0,0,1,.48,1.26,1.44,1.44,0,0,1-.69,1.52,4.59,4.59,0,0,1-1.76.77,2.86,2.86,0,0,1-2-.69,1.12,1.12,0,0,1-.33-.35l-.06-.1a.26.26,0,0,0-.07-.1l-.12-.16a.84.84,0,0,0-.22-.25l-.4-.29a1.23,1.23,0,0,0-.46-.39.6.6,0,0,0-.28-.12l-.23-.1a.91.91,0,0,1-.66-.68A20,20,0,0,0,70.64,40.73ZM50.21,31.87a4.93,4.93,0,0,0-.16-1,7.33,7.33,0,0,0-.24-.7l-.43-1a2.52,2.52,0,0,1-.15-.34c-.07-.22-.17-.45-.23-.66l-.13-.43a.3.3,0,0,1-.25-.08.46.46,0,0,1-.08-.13c-.15-.32,0-.57.32-.75a.77.77,0,0,1,.27-.12l.24-.11a1.54,1.54,0,0,0,.4-.31s.13,0,.29-.08l.48-.18A4.68,4.68,0,0,1,52,25.92a17.53,17.53,0,0,0,3.39-1.06l.82-.26L57.78,24l.78-.24a2.32,2.32,0,0,0,.31-.16,1.5,1.5,0,0,1,.31-.16,2.57,2.57,0,0,1,1.12-.14l.46-.27a9.89,9.89,0,0,1,1.45-.34,1.85,1.85,0,0,0,.39-.06l.93-.16a4.61,4.61,0,0,0,.81-.28l.74-.38a6.73,6.73,0,0,1,1.58-.57L68.09,21a6.76,6.76,0,0,0,1.47-.47l.32-.11a2.19,2.19,0,0,1,.33-.12l.82-.23a1.46,1.46,0,0,0,.8-.56,1.85,1.85,0,0,0,.26-.37.39.39,0,0,0,.14-.18l.35-.57a1.43,1.43,0,0,1,.31-.38,1.89,1.89,0,0,1,.91-.47l.88.22.9.3a12.68,12.68,0,0,1,1.56.91.91.91,0,0,1,.37.49,1.76,1.76,0,0,0-.45,1.77l.11.51a4.11,4.11,0,0,0,.14.42,2.06,2.06,0,0,0,.57.86.12.12,0,0,1,0,.12l-.09.14-.28-.09-.11.09c-.07.1-.1.15-.09.18.08.36-.24.85-.89,1.48a4.34,4.34,0,0,1-2,1.2c-.38.09-.72-.16-1-.68s-.69-.75-1.1-.66a1.78,1.78,0,0,0-.44.18l-.67.46a1.57,1.57,0,0,1-.44.18l-1.94.62c-1.67.4-2.51.61-4.18,1a11.06,11.06,0,0,1-2.62,1,35.71,35.71,0,0,0-3.68,1.13c-.29.1-.69.26-1.19.47s-.89.37-1.18.48l-1.71.48c-.95.34-1.38.68-1.29,1a2.54,2.54,0,0,1,.08.6,1.7,1.7,0,0,1,0,.44.39.39,0,0,0-.12.19l-.05.13s0,0,0,0a1.85,1.85,0,0,0-.22.45.71.71,0,0,0-.26,0,.36.36,0,0,0-.18.13.37.37,0,0,1-.26.15c-.86-.26-1.36-.62-1.49-1.07A6.4,6.4,0,0,1,50.21,31.87Zm2.17-2.6c.16.68.47.95.93.82l1-.2c1.53-.4,2.4-.77,2.63-1.11a1.09,1.09,0,0,0,.09-.64,1.7,1.7,0,0,0-.06-.41c0-.19-.06-.28-.09-.47-.3-1.1-.7-1.58-1.19-1.45l-2.06.73a2.51,2.51,0,0,0-1.28.63c-.26.36-.24,1,0,2ZM60,42.19l1.16-.39,1-.2q1.23-.33,2.43-.72c1-.32,1.82-.6,2.48-.87l.68-.33c2.18-.58,3.27-.86,5.46-1.41a1.43,1.43,0,0,0,.87-1.65l-.23-1a2.38,2.38,0,0,1-.06-1c-.42-1.82-.63-2.73-1.06-4.55a.57.57,0,0,1-.12-.17l-.18-.22a.51.51,0,0,0-.53-.22q-1,.24-2.22.57c-3.29,1-4.93,1.5-8.19,2.56l-2.22.79-1.42.66c-.29.1-.56.19-.8.25a1,1,0,0,0-.21,1.1c.17.62.49.93,1,.93a1,1,0,0,0,.58-.08l1.19-.37a.49.49,0,0,0,.23-.1c.5-.16.94-.29,1.31-.39a2.29,2.29,0,0,0,.44-.15l.46-.2a2.06,2.06,0,0,1,.42-.19l.31-.12c3-.79,4.54-1.17,7.57-1.91.17,0,.26,0,.3.16s-.46.53-1.54.87a6.83,6.83,0,0,1-.67.21l-1.23.38-.43.18c-.43.11-.9.24-1.43.4-1.09.39-1.63.58-2.7,1l-2.51.74c-.56.15-1,.28-1.31.39-1,.42-1.46.94-1.29,1.55a1.44,1.44,0,0,0,.3.31q.28.22.36.21c1.26-.35,1.89-.53,3.14-.86l.21-.18.73-.15.46,0,1.61-.53c2.56-.76,3.84-1.13,6.42-1.84.48-.12.75,0,.82.26l.05.21a.16.16,0,0,1-.13.15,48.78,48.78,0,0,0-6.14,1.87l-1.42.45a6,6,0,0,0-1.39.52,6.07,6.07,0,0,1-.95.44L60.1,40c-1.27.45-1.84.87-1.74,1.25A1.19,1.19,0,0,0,60,42.19ZM60,24.12l-.07.05-.37.29c-.22.19-.3.31-.25.38l.6,2.29c.09.31.43.44,1,.38a6.56,6.56,0,0,0,.75-.15l.62-.16c1.2-.31,1.6-1.26,1.2-2.84,0-.08,0-.13-.06-.21a1.17,1.17,0,0,0-.13-.35c-.14-.32-.34-.45-.58-.39l-2.05.6s-.12.07-.25.07a1,1,0,0,0-.22,0Zm7.12,1.25a3.54,3.54,0,0,0,1.66-.17c2.52-.61,3.74-1.34,3.65-2.24L72,21.16,71.69,21l-1.54.2a1.19,1.19,0,0,0-.37.09l-1.22.4c-.27.09-.53.17-.78.23l-.93.15c-.66.16-.88.72-.64,1.68S66.73,25.2,67.09,25.37Z" fill="#231815"/>
        <path d="M117.84,33.17l.52-.06c1.13-.13,1.76-.53,1.9-1.22a3.79,3.79,0,0,0,.09-1,6.67,6.67,0,0,1,.08-1.13l-.35-3.21-.41-.29-.86,0c-1.65.17-2.48.26-4.13.45-.83.17-1.23.41-1.19.71a.63.63,0,0,0,.21.38,1.71,1.71,0,0,0,.4.18l.47.12a.64.64,0,0,1,.35.15,2.12,2.12,0,0,1,1.14,2c0,.27-.39.64-1,1a2.58,2.58,0,0,1-1.28.54l-.81-.57c-.34-1.36-.51-2-.86-3.4,0-.3-.16-.43-.38-.4-1,.13-2,.29-3,.51a27.25,27.25,0,0,0-2.75.73l-1.35.46c-.33.11-.8.27-1.38.44L102,30c-.47.15-.87.29-1.18.41l-2.37,1a2.54,2.54,0,0,1-.79.24.78.78,0,0,1-.44-.11L96,30.58a2,2,0,0,1-.29-.22l-.28-.21c-.32-.4,1.33-1.35,3.37-1.25.1,0,.23.05.35.06l.79-.25a2.56,2.56,0,0,1,.56-.16l.4-.1h.62a12.56,12.56,0,0,1,3.12-.89l1.58-.24c.63-.09,1.16-.18,1.59-.26l3.14-.77.57-.08a.69.69,0,0,0,.39-.16s.09,0,.25,0,.22,0,.26,0l.23-.15.53-.06c.49-.07,1.21-.19,2.11-.38l1.06-.2.94-.15a17.79,17.79,0,0,0,2.46-.58c.23-.12.33-.44.27-1a3,3,0,0,0-.36-1.41,2.57,2.57,0,0,0-1.51-.39c-2,.34-3,.52-4.91.88l-1.5.12-.3.26c-.55.07-1.35.22-2.41.44s-1.89.37-2.41.45a1.86,1.86,0,0,1-.38,0,1.33,1.33,0,0,0-.38,0l-.36.16a1.9,1.9,0,0,1-.35.17c-2.23.61-3.34.92-5.55,1.57a4.79,4.79,0,0,1-1.07.4c-.27,0-.49-.2-.67-.72,0-.14-.08-.21-.14-.35a1.5,1.5,0,0,0-.19-.38,1.82,1.82,0,0,0-.61-.65,1.93,1.93,0,0,1,.89-.45,8.91,8.91,0,0,1,1.27-.28l1.9-.27a3,3,0,0,0,.73-.19c.2-.09.31-.19.29-.31l-.19-.38-.25-.3a1.39,1.39,0,0,1-.26-.3,1.2,1.2,0,0,1-.15-.39c0-.35-.08-.53-.14-.88,0-.65-.07-1-.12-1.63a5.33,5.33,0,0,1-.47-1.62c-.19-1-.28-1.46-.47-2.44a8.48,8.48,0,0,0-.69-2.18A1.24,1.24,0,0,0,98,11.75a7.93,7.93,0,0,0-1.09.29,8.26,8.26,0,0,1-1.08.29,1.14,1.14,0,0,1-.55-.14,6.1,6.1,0,0,1-.76-.39,6.41,6.41,0,0,1-.69-.49c-.2-.17-.32-.3-.33-.39-.26-.11.38-.3,1.92-.55l.74-.28,3-.56c.79-.2,1.68-.39,2.67-.56l2.69-.39c.26,0,.69-.14,1.31-.3S107,8,107.36,8a5.08,5.08,0,0,0,2.13-.7q.2-.21.09-1c-.09-.66-.59-1.18-1.52-1.56l-.74-.27a.52.52,0,0,1-.23-.08c-.28-.12-.43-.22-.44-.32q-.06-.4,1.77-.87l1-.25a1.71,1.71,0,0,0,.34-.08,6.47,6.47,0,0,0,.81-.22l.88,0a5.65,5.65,0,0,1,1.12.13Q113.91,3,114,3.9c0,.11,0,.17,0,.29s0,.23,0,.38l-.93,1c.08.44.2.68.35.74l.71.1.36.11a17.53,17.53,0,0,1,1.91-.41,1.25,1.25,0,0,1,.26-.07l1.78-.34,1.17-.09a4.15,4.15,0,0,0,1.47-.45,2.82,2.82,0,0,0,.62-.32l.61-.4a8.78,8.78,0,0,1,1.29-.68,4.16,4.16,0,0,1,1.54-.29,3.43,3.43,0,0,1,1.87.95c.81.64,1.22,1.13,1.25,1.45,0,.54-.25.84-.88.9a1.63,1.63,0,0,1-.38,0l-.31,0a2.26,2.26,0,0,0-.35,0H126a4.57,4.57,0,0,0-.77,0c-.28,0-.66.1-1.11.14l-1.58.23c-.66.06-1.32.12-2,.16l-2.46.15-.77.05c-.53,0-1.06.08-1.55.14l-1.26.29a1.59,1.59,0,0,0-1.17.37,1.39,1.39,0,0,0-.17.39,1.26,1.26,0,0,1,0,.27c0,.12,0,.22-.06.26a1.16,1.16,0,0,0,1.36,1.19c.45-.06,1-.16,1.73-.32L118,9.6a3,3,0,0,1,.51-.09l.51-.09a4.9,4.9,0,0,0,1-.26l.24-.21s0,0,.07-.08.1-.09.13-.09a2.79,2.79,0,0,1,.43-.38A4.53,4.53,0,0,1,121.93,8a.49.49,0,0,1,.34,0l.45.18a3,3,0,0,1,1.6.52c.69.39,1,.79.88,1.14l-.67,1.07.15,1.55c.08,1.47.13,2.2.22,3.67a2,2,0,0,1-.21.5,3,3,0,0,0-.21.43,1.86,1.86,0,0,1-.3.41l-.81.75a.51.51,0,0,0-.15.23c0,.3.42.48,1.15.56l.43,0a1,1,0,0,0,.25,0s0,0,.08,0h.13a2.67,2.67,0,0,1,.68.08l.14.18a.39.39,0,0,1,.14.17,2.26,2.26,0,0,1,.85.14c.46.16.7.36.72.61a.56.56,0,0,1-.17.39,2.48,2.48,0,0,1-.5.45,2.36,2.36,0,0,1-1.08.51,2.07,2.07,0,0,1-.72-.08l-1.47-.53a2,2,0,0,0-.75-.07,1.11,1.11,0,0,0-.37.11.45.45,0,0,1-.16.09l-.2.09a1.68,1.68,0,0,1-.39.19,2.34,2.34,0,0,1-.58.14c0,.12,0,.18,0,.29a1.64,1.64,0,0,1,.38.08l.38.07a1.09,1.09,0,0,0,.5.39l.38.08a.54.54,0,0,1,.24.27,3.25,3.25,0,0,1,.16.84c0,.25.25.39.67.42l.5,0,.37,0s.32-.13,1-.24,1.2-.19,1.72-.23a3.7,3.7,0,0,0,1-.42,3.39,3.39,0,0,1,.76-.25,1.74,1.74,0,0,1,.37-.07l.37,0a5.17,5.17,0,0,1,1.21.05,2.54,2.54,0,0,1,1.06.32l.49.52a.59.59,0,0,0,.18.17.75.75,0,0,1,.18.18c.21.21.32.37.32.49.14.37-.09.57-.69.61a2.81,2.81,0,0,1-.41,0,3.06,3.06,0,0,1-.42,0l-.45,0a3.52,3.52,0,0,0-.46,0l-.07.11c-.33,0-.67,0-1,0h-1.69q-.4,0-.78,0l-3.67.46a.86.86,0,0,0-.63,1.07c.07.22.1.33.17.54a12,12,0,0,1,.15,1.41c0,1.1,0,1.65.07,2.75,0,.54.07,1.06.12,1.55s0,.58,0,1c0,0,0-.06,0,0l-.3.56-.32.44a3.26,3.26,0,0,1-2.14,1.5c-.34,0-.65-.18-.92-.65a1.75,1.75,0,0,1-.19-.27,2.72,2.72,0,0,0-.11-.25,2.31,2.31,0,0,0-.29-.45,2.35,2.35,0,0,0-1.2-.57l-.37-.07-.38-.15a2,2,0,0,1-.62-.41A2,2,0,0,1,117.84,33.17ZM103,12.1c.62-.09,1.53-.27,2.55-.33.16,0,.35,0,.55,0l1-.1,2-.49a1.23,1.23,0,0,0,.41-.13c.61-.2.88-.51.83-.93-.12-.91-.61-1.31-1.46-1.19A6.56,6.56,0,0,0,108,9l-1.56.36c-.31.07-.6.12-.89.16l-1.41.43a15.08,15.08,0,0,1-1.84.49l-.47.07a.65.65,0,0,0-.15.17l-1.4.22a.49.49,0,0,0-.22.26.77.77,0,0,0-.1.24c0,.05.13.1.33.17a4,4,0,0,0,.73.19,5.28,5.28,0,0,0,1.11.21,1.61,1.61,0,0,1,.4.05Zm-.13,2.61a1.72,1.72,0,0,0,1.45.24c1.14-.22,1.71-.32,2.85-.52h.9l.46-.07c1.52-.2,2.23-.67,2.13-1.4s-.61-.93-1.57-.8l-1.55.32a4,4,0,0,1-.54.11l-1.32.15a8.22,8.22,0,0,0-2.12.53.71.71,0,0,0-.69.59,1.84,1.84,0,0,0-.07.42Zm4.86,3.5a1.91,1.91,0,0,1,.43,0l.38,0,.45-.1c.14,0,.28-.06.41-.09s.36-.06.5-.1c.9-.27,1.36-.6,1.29-.81a2.14,2.14,0,0,1-.06-.48l-.06-.51c-.08-.62-.77-.84-2.06-.67l-.09-.1a5,5,0,0,0-.75.18,3.16,3.16,0,0,0-.65.24c-1.21.16-1.81.25-3,.43a.71.71,0,0,1-.2.1,1.86,1.86,0,0,0-.31.2c-.14.08-.27.16-.31.27a.67.67,0,0,0-.1.46c0,.19.07.28.11.47s0,.2,0,.34a.43.43,0,0,0,.22.3.71.71,0,0,0,.36.17l.58.15Zm-2.09,4.3a6.58,6.58,0,0,0,.88,0l.78-.11c.34,0,.7-.09,1.08-.15l.49-.11a3.81,3.81,0,0,0,.45-.1l1-.24c.36-.07.69-.13,1-.17a1.71,1.71,0,0,0,.41-1.4c-.12-.88-.83-1.24-2.13-1.06-.44.06-.83.13-1.12.18s-.36.07-.49.11l-.25.07a1,1,0,0,1-.28.08l-1.25.14c-1.33.19-1.9.91-1.72,2.16C104.47,22.29,104.86,22.49,105.6,22.51ZM108,12.17v-.11h-.09Zm7.69,8.89.78-.09c.64-.07,1.24-.17,1.78-.24.75-.1,1.38-.19,1.81-.28a2.73,2.73,0,0,0,.94-.28c0-.1,0-.23-.17-.36a1.9,1.9,0,0,0-.5-.36l-.57-.27c-.18-.08-.27-.14-.28-.19s0-.23.1-.24l.54-.09,1.19-.32c0-.65-.24-.92-.85-.8l-.61.14-.89,0a6.61,6.61,0,0,0-1.12.13l-1.33.19a15.57,15.57,0,0,0-1.83.25.75.75,0,0,0-.36.23.76.76,0,0,0-.09.31c0,.16,0,.25,0,.41s-.13.36-.15.47A1.35,1.35,0,0,0,115.71,21.06Zm-.66-7.65q.63-.08,2.1-.36c1-.18,1.78-.31,2.43-.38v.11a1.57,1.57,0,0,1,.41-.22l.45-.17a.72.72,0,0,0,.36-.26.82.82,0,0,0,.08-.49,1.73,1.73,0,0,0-.34-.71c-.2-.29-.39-.45-.56-.43-2,.26-3,.39-4.95.67h-.34a1.92,1.92,0,0,0-.68.12c-.49.16-.7.6-.61,1.31S114,13.53,115.05,13.41Zm-1.28,2.17c.12,1,.46,1.4,1,1.33l2.51-.29a1.72,1.72,0,0,1,.44-.16l.59,0,1-.22a6.51,6.51,0,0,0,.93-.36,1.36,1.36,0,0,0,.91-1.44.9.9,0,0,0-.59-.83l-3.17.34-.68,0a1.66,1.66,0,0,1-.62.21l-.88.11c-.84.12-1.35.36-1.54.71C113.73,15.18,113.74,15.31,113.77,15.58Z" fill="#231815"/>
        <path d="M161.06,30.47c-.06-.15-.09-.22-.16-.37v-.49a1.7,1.7,0,0,1,0-.4,1.88,1.88,0,0,1,.12-.45c0-.16.07-.24.11-.41a3,3,0,0,0,.12-.48c0-.1,0-.22-.16-.37l-.16-.19a.38.38,0,0,1-.09-.18,2,2,0,0,1,.16-.82c0-1.29,0-1.93,0-3.22q0-.78-.75-.78l-4,.05-.62,0a1.51,1.51,0,0,1-.45-.1,3.27,3.27,0,0,1-1.05-.94.44.44,0,0,1,.07-.23.49.49,0,0,0,0-.11l.95.06c.75,0,1.12,0,1.86,0l1.24-.09,2-.06c.22,0,.43-.19.57-.55a4.94,4.94,0,0,0,.16-1,1.46,1.46,0,0,0,0-.55L161,17.63c0-.13.05-.2.09-.33a3.61,3.61,0,0,1-.22-.44l-.12-.45a2.3,2.3,0,0,0-.51-.66,4,4,0,0,0-.38-.41.66.66,0,0,0-.29-.18,1.38,1.38,0,0,0-.88.45,3.49,3.49,0,0,0-.49.67,3.8,3.8,0,0,1-.63.49l-1.68,1.59-.53.56a1,1,0,0,1-.24.34,1.24,1.24,0,0,1-.37.23l-.29.16a.52.52,0,0,0-.2.19A24.17,24.17,0,0,1,151.58,22l-1.17.85c-.45.32-.83.59-1.12.82l-.4.24a2.19,2.19,0,0,0-.45.24,14.6,14.6,0,0,0-1.48.8l-1.08.71a1.4,1.4,0,0,0-.36.24A6.54,6.54,0,0,1,143,27c0-.18.1-.34.34-.5l.2-.12a.15.15,0,0,1,.07-.05.67.67,0,0,0,.24-.16c.06,0,.13-.1.24-.23l.31-.31a1.55,1.55,0,0,1,.88-.41,6.62,6.62,0,0,1,.64-.44l.56-.32a6.51,6.51,0,0,0,1.19-.9l1.11-1.12s.05,0,0,0a1.72,1.72,0,0,0,.36-.35c.56-.53,1-1,1.32-1.3.91-.9,1.73-1.77,2.46-2.63l.82-.76a3.85,3.85,0,0,0,.77-.83.69.69,0,0,1,.16-.38l.82-1a2.54,2.54,0,0,0,.37-.45,1.73,1.73,0,0,0,.66-.75,1.49,1.49,0,0,1,.71-.72,10.53,10.53,0,0,1,1.12-1.42l1.13-1.24a4.5,4.5,0,0,0,1.26-2.94V7.44c0-.13-.09-.19-.26-.19h-.34c-.23,0-.43,0-.56,0-.45.06-.73.1-.72.2-.17.71-.25,1.07-.41,1.78l-.68.56a2.16,2.16,0,0,1-1.22.47,1.48,1.48,0,0,1-1.17-1.43.82.82,0,0,0-.18-.33,2,2,0,0,1-.22-.33A.31.31,0,0,1,155,8V7.8c0-.1-.21-.13-.51-.14a5.83,5.83,0,0,0-1,.06c-.15,0-.32,0-.52,0l-1,.17a2.43,2.43,0,0,1-.51,0,6.26,6.26,0,0,1-1,.11l-.9,0c-.31,0-.49-.09-.52-.21a1.5,1.5,0,0,0-.28-.55,1.25,1.25,0,0,0-.35-.32,1.5,1.5,0,0,1-.31-.25.66.66,0,0,1-.14-.4,1.32,1.32,0,0,1,.76-.32l.9,0a.73.73,0,0,1,.52.13c1.54,0,2.31-.07,3.86-.1a1,1,0,0,1,.3-.12l.17,0a.25.25,0,0,0,.13,0,.34.34,0,0,0,.29-.34,11.92,11.92,0,0,0-.3-2.15,1.18,1.18,0,0,0-.05-.51.76.76,0,0,0-.23-.3l-.13-.11a.43.43,0,0,1-.13-.14A.49.49,0,0,1,154,2a.62.62,0,0,1,.25-.6,1.63,1.63,0,0,0,.34-.08l.43-.16a1.78,1.78,0,0,1,.83.1l.61.25,1.78.42c.82.26,1.22.63,1.23,1.1A1.55,1.55,0,0,1,159,4a1.55,1.55,0,0,0-.51.93,2.43,2.43,0,0,0,.14.78q.16.48.39.48a1.77,1.77,0,0,0,.55-.12,1,1,0,0,0,.3-.07l.35-.12a5,5,0,0,1,1.54-.3c.52,0,.67.5.77.67s0,.13-.08.33l-.13.26c0,.09,0,.13,0,.22s.11.1.34.22l.34.15,1.15.67a1.73,1.73,0,0,1,.47.41,3.9,3.9,0,0,1,.38.67l.25.56a.49.49,0,0,0,.09.15,5,5,0,0,0,.79,1.41l1.3,1.2c.17.15.32.28.46.38a18.34,18.34,0,0,0,1.75,1.54,13.37,13.37,0,0,0,4.22,2.4.46.46,0,0,1,.38,0,1.87,1.87,0,0,1,.32.16,3.54,3.54,0,0,1,.33.19.56.56,0,0,0,.33.12,12.58,12.58,0,0,0,1.33.42l.45.12a.31.31,0,0,1,.17.05,6.14,6.14,0,0,1,.66.17l.74.25a.21.21,0,0,1,.12,0l.62.21a1.62,1.62,0,0,0,.37.09,11.34,11.34,0,0,1,1.32.17l2,.32c.3.07.54.14.7.19s.32.12.32.2a1.6,1.6,0,0,1-.43.24c-.25.11-.58.23-1,.36a16.59,16.59,0,0,1-2.15.71,1.52,1.52,0,0,0-.64.27l-.13.14a.55.55,0,0,0-.09.15,1.08,1.08,0,0,1-.46.16,6.72,6.72,0,0,1-1.11,0c0-.08-.11-.12-.25-.12l-.53-.06a3.11,3.11,0,0,1-.7-.1,3.57,3.57,0,0,1-.86-.36l-.24-.08-.86-.44-1.19-.4a1,1,0,0,1-.33-.12,4.08,4.08,0,0,1-1.19-.62.77.77,0,0,1-.45-.09,2.45,2.45,0,0,1-.45-.3l-.49-.38-.58-.31a2.84,2.84,0,0,1-1.32-.84c-.58-.57-.86-.86-1.45-1.43A4.41,4.41,0,0,1,166,14.19c-.07-.13-.1-.2-.16-.33l-.38-.49a1.85,1.85,0,0,1-.21-.33c-.12-.21-.17-.32-.29-.52a8.21,8.21,0,0,0-.5-.78,7.9,7.9,0,0,0-.51-.64.8.8,0,0,0-.47-.29,1,1,0,0,0-.46.25l-.47.41-.33.6a3.18,3.18,0,0,1-.3.33,1.86,1.86,0,0,1-.38.3.79.79,0,0,1-.21.37c-.62.66-.93,1-1.54,1.64.08.3.49.49,1.22.59a.45.45,0,0,0,.16,0l.5.08q.3.08.3.18a13.21,13.21,0,0,0,1.63.48,14.35,14.35,0,0,1,1.46.49c.44.19.67.38.67.52a.39.39,0,0,1-.09.26l-.25.22a.6.6,0,0,0-.21.22.43.43,0,0,0-.13.26c0,.95,0,1.43,0,2.38,0,.22.3.33.91.34a10.55,10.55,0,0,0,1.2-.18l2-.45.25-.11a1.53,1.53,0,0,1,1.48.81c0,.79-.45,1.18-1.47,1.16l-1-.09c-.66,0-1.35,0-2.06.05a6.94,6.94,0,0,0-.95.1c-.24.05-.37.1-.37.15,0,.49,0,.73,0,1.22.11.08.17.26.17.56s-.13.29-.21.48a2.49,2.49,0,0,0-.21.52c0,.67-.05,1-.09,1.67,0,.46,0,.69.08,1.15a.88.88,0,0,1-.13.44l-.12.45c0,.07,0,.11,0,.18a1.41,1.41,0,0,0,.12.34,4.16,4.16,0,0,1-.37,2.33,2.87,2.87,0,0,1-1.73,1.59l-.32.11a1.87,1.87,0,0,1-.4.12.32.32,0,0,1-.36-.11,2.13,2.13,0,0,1-.33-.52,2.54,2.54,0,0,1-.36-1.15A2.6,2.6,0,0,1,161.06,30.47Zm-9.12-1.78,1-.77a5.57,5.57,0,0,0,.44-.5l.51-.64A4.63,4.63,0,0,1,155,25.72a3,3,0,0,1,.19-.45,4.73,4.73,0,0,1,.4-.67,2.79,2.79,0,0,1,1.09-1.14,4,4,0,0,1,1.14,3,2.53,2.53,0,0,1-1.34,2.14c-.19.12-.41.25-.65.38l-.64.38a12.05,12.05,0,0,0-1.19.77l-.88.61a2,2,0,0,1-1,.4.71.71,0,0,1-.74-.53,2.28,2.28,0,0,1-.16-1A1.88,1.88,0,0,1,151.94,28.69ZM166.15,9.26a1.35,1.35,0,0,1,.18-.67c-.07-.08-.1-.13-.17-.22,0-.72-.19-1.11-.59-1.19H165a1.19,1.19,0,0,1-.59-.15l-.3-.49a1.62,1.62,0,0,1-.21-.55c0-.1.14-.18.42-.23a1.92,1.92,0,0,1,.39,0l.52,0c.85,0,1.38-.19,1.41-.36s0-.57.14-1,.09-.49.14-.82a6.19,6.19,0,0,0-.08-.92,6.48,6.48,0,0,1-.07-.93,1.47,1.47,0,0,1-.39-.63,2.48,2.48,0,0,1-.21-.71A1.64,1.64,0,0,1,167.45,0a2.06,2.06,0,0,1,1,.27l.56.31a8.77,8.77,0,0,0,.82.34,4.85,4.85,0,0,1,1.38.66,1.65,1.65,0,0,1,.4,1.38l-.09.22a1.74,1.74,0,0,1-.18.37l-.27.51-.15,1.11a.64.64,0,0,0,.08.41.43.43,0,0,0,.3.27,7.14,7.14,0,0,0,2.23-.14L175.39,5l.66-.39a1.69,1.69,0,0,1,.78-.23h.52l.38.09a2.83,2.83,0,0,1,.67.73,4.63,4.63,0,0,1,.41.61,1.41,1.41,0,0,1,.19.49.58.58,0,0,1-.27.44.85.85,0,0,1-.44.13,13.77,13.77,0,0,0-1.59,0L175.59,7a.79.79,0,0,1-.34,0l-2.35-.18-.26,0a1.92,1.92,0,0,0-.43.07l-.73.09c-.37-.18-.72,0-1,.43a1.48,1.48,0,0,0-.17.29.32.32,0,0,0-.09.15l-.22.44a.85.85,0,0,1-.18.22l-1.29.76a2.13,2.13,0,0,1-1.58.53,1.1,1.1,0,0,1-.55-.19c-.16-.1-.25-.17-.25-.22Zm-.2,14.5a9.64,9.64,0,0,0,1.68.5c.43.1,1.06.21,1.88.33l2,.29a9.66,9.66,0,0,1,1.95.46,10.54,10.54,0,0,1,1.25.7,1.2,1.2,0,0,1,.28.16l.88.55.82,1.06a1.94,1.94,0,0,1-1.2,1.78l-.69.24a.63.63,0,0,1-.25.07,1.35,1.35,0,0,0-.62.35,3.47,3.47,0,0,1-.88-.1,1,1,0,0,1-.44-.23.6.6,0,0,1-.16-.16l-.55-.68a4.32,4.32,0,0,1-.55-.57L171,28.1a2,2,0,0,1-.27-.38l-.52-.41c-.59-.46-1-.78-1.17-.95l-1.49-1.25c0,.08-.15,0-.37-.19a1.55,1.55,0,0,0-.28-.26,1.15,1.15,0,0,0-.33-.11.76.76,0,0,0-.24-.08l-.25-.08c-.22-.1-.32-.23-.32-.41S165.79,23.76,166,23.76Z" fill="#231815"/>
        <path d="M192,31.68c0-.49.45-.95,1.24-1.36a.65.65,0,0,1,.07-.36,1.71,1.71,0,0,1,.36-.35l.3-.31a.55.55,0,0,0,.2-.35c.16,0,.38-.17.65-.47a11.33,11.33,0,0,0,.86-1l1-1.11a6.9,6.9,0,0,1,1-.87c0-.23.11-.49.43-.75s.55-.51.57-.73l.13-.06a2.8,2.8,0,0,1,1,1.47,4,4,0,0,1,.32,1.78,1.4,1.4,0,0,1-.5,1l-.74.49-.8.71a3.3,3.3,0,0,0-.86.48l-1.26.86a11.21,11.21,0,0,1-1.32.7,1.24,1.24,0,0,1-.94.15s0,0-.05.11a1,1,0,0,1-.26.24,1.83,1.83,0,0,1-.43.26,1.23,1.23,0,0,1-.53.07.28.28,0,0,1-.26-.2Zm1.23-1.21c0,.05,0,.08.08.08s.12,0,.12-.06,0-.15-.11-.16S193.28,30.37,193.27,30.47Zm8,3.74,0-.22a.39.39,0,0,1,.32-.35c0-.51-.05-.76-.08-1.27,0-1,.05-1.45.08-2.42.06-.54.09-.81.14-1.36a6.44,6.44,0,0,1,.13-.85c.05-.24.09-.35.11-.32a5.56,5.56,0,0,0,0-.82,3.68,3.68,0,0,0-.1-.68.9.9,0,0,1,.19-.65l.11-1c0-.64,0-1,0-1.6a1.19,1.19,0,0,1,0-.33c0-.23,0-.34.06-.56a1,1,0,0,0-1.1-.67c-.27,0-.74.13-1.27.18l-.63,0-.63.09-1.86-.16-.12-.13c-.07-.1-.11-.17-.1-.19a1.93,1.93,0,0,0-.29-1.11,1.83,1.83,0,0,1-.29-.95,1.11,1.11,0,0,1,1.35-1.15.54.54,0,0,1,.33.14.41.41,0,0,0,.24.13.5.5,0,0,0,.3-.05.45.45,0,0,1,.25-.05l.11.16a3.25,3.25,0,0,0,2.28-.54l.65-.6.32-.23a1.24,1.24,0,0,1,.32-.23h.12a.38.38,0,0,0,.18.39.5.5,0,0,0,.28.1c-.08-.18-.12-.28-.21-.46s-.23-.33-.34-.34l-1.41.09a1.83,1.83,0,0,1-.36-.63.88.88,0,0,1,0-.75A1.23,1.23,0,0,1,200,14a.16.16,0,0,1,0-.12l-.05-.33a1.46,1.46,0,0,0-.17-.5l-.13-.35a.8.8,0,0,1-.15-.31,1.22,1.22,0,0,1-.11-.61c0-.07,0-.11,0-.19s-.1.07-.27.06a.67.67,0,0,1-.69-.81.5.5,0,0,1,.16-.36,1.38,1.38,0,0,1,.41-.26l.8-.37a4.29,4.29,0,0,1,.33-.38,2.42,2.42,0,0,1,.33-.31l.74-.56a.6.6,0,0,0,.4-.08,8.62,8.62,0,0,1,1.68-1.74,3.47,3.47,0,0,1,1.7-.94.11.11,0,0,0,.09-.11.14.14,0,0,0,.06-.1V5.56a.39.39,0,0,1,.16-.21c.09-.09.35-.15.41-.22s0-.82-.38-1.38a3.93,3.93,0,0,0-.47-.57l-.35-.41a.83.83,0,0,0-.24-.17L204,2.42c-.22-.15-.32-.28-.31-.41a.67.67,0,0,1,.06-.21.22.22,0,0,1,.23-.09,3.21,3.21,0,0,0,1,.21l1.56.2c.63.09,1.15.18,1.5.27a2.26,2.26,0,0,1,1,.53,1.34,1.34,0,0,0,.43.49l.74.43c.6.36.87.77.82,1.21a1.58,1.58,0,0,1-.41.85.88.88,0,0,1-.91.34,3.84,3.84,0,0,1-.75.55c-.29.19-.74.48-1.36.86a.38.38,0,0,1-.18.13l-1.21.76a4.27,4.27,0,0,0-.84.59c-.13-.07-.31,0-.53.16L204,10l-.25,0a.43.43,0,0,1-.25-.14c0,.27-.31.54-.85.81s-.83.59-.86,1l1.28,1.32.25,0a.6.6,0,0,1,.4.34l.1.24a.2.2,0,0,0,.07.12c0,.47-.07.7-.12,1.18a1,1,0,0,0,.52,0,.94.94,0,0,0,.36-.18l.14-.14.09-.1s.05,0,.05-.07a3.74,3.74,0,0,1,.33-.3,4.77,4.77,0,0,0,1.25-.91l1-1.08c.07-.64.1-1,.17-1.59a2.33,2.33,0,0,1-.25-.47,1.57,1.57,0,0,1-.16-.47c0-.17.24-.32.65-.41a3.52,3.52,0,0,1,1.21,0c.45-.1.94.24,1.39,1a2.79,2.79,0,0,1,.54,1.26c-.06.26-.09.39-.16.65l.59.07a.42.42,0,0,1,0,.37,1.27,1.27,0,0,1-.26.34,1.78,1.78,0,0,0-.47.77l-.68.29-.87.5c-.74.48-1.13.94-1.17,1.35a.34.34,0,0,0,.09.28c.08.08.11.13.11.16v0c.58.61,1.2,1.32,1.83,2.11.46.59,1,1.36,1.62,2.25,0,0-.07.11-.19.17s-.12.07-.09.1l.49.06a.77.77,0,0,0,0,.38.79.79,0,0,0,.18.28l.17.28a1.13,1.13,0,0,1,0,.46,1.47,1.47,0,0,1-.09.4.61.61,0,0,0-.11.21V23a3.58,3.58,0,0,1-.51,1.09l-.9.9a1.83,1.83,0,0,1-1.26-.56,1.49,1.49,0,0,1-.53-1.22,4.4,4.4,0,0,0-.31-1.2,6.92,6.92,0,0,0-.3-.74c-.09-.2-.17-.32-.25-.33A3.15,3.15,0,0,0,207,21a1.68,1.68,0,0,0-.49.25,2.39,2.39,0,0,0-.4.22.62.62,0,0,0-.16.28l0,.18a.53.53,0,0,1-.06.22,1.7,1.7,0,0,1-.27.56,1.4,1.4,0,0,0-.16.29v.07a1.48,1.48,0,0,1,.9.55,3.46,3.46,0,0,1,.29.4,2,2,0,0,1,.17.32,2.07,2.07,0,0,1,.43.23,5.37,5.37,0,0,1,.53.44,4.32,4.32,0,0,1,.46.39c.09.12.12.21.09.23s.11,0,.33.08a6,6,0,0,1,.71.3c.69.39,1.06.79,1.09,1.22a1.59,1.59,0,0,1,1,.49l.32.42.44.43c0,.13,0,.2,0,.33l0,.23c0,.05-.07.14-.19.24a.59.59,0,0,1-.35.14l-.23-.14c-.07.59-.31.89-.59.82a.64.64,0,0,0-.38,0,.93.93,0,0,0-.33.33c-.23.32-.3.5-.22.54l1,.12a.4.4,0,0,0,0,.15l0,.08.95-.07h.28a1.6,1.6,0,0,1,.36.08l.29.3a.52.52,0,0,0,.2.06.3.3,0,0,0,.21,0l.18-.13a.39.39,0,0,1,.26-.11,1.24,1.24,0,0,1,.45,0l.47.18a.81.81,0,0,0,.41,0h.17a.44.44,0,0,1,.16,0l.44.1.19.1.24,0,.48-.46a.74.74,0,0,1,.34-.1c0-.09,0-.14,0-.23s0-.22,0-.23c.29-2.07.44-3.1.73-5.17,0-.28,0-.42-.07-.69l.45-3.23c-.08,0-.1-.07-.11-.13a.54.54,0,0,1,0-.19c0-.15,0-.23.07-.25l.14-.09c-.08,0-.1-.19-.11-.39a1.88,1.88,0,0,1,0-.53l.11-.21-.05-.23a.78.78,0,0,1,.14-.43l.16-.2.07-.22a3.47,3.47,0,0,1-.24-1.3.32.32,0,0,1,.07-.22l.16-.2-.14-.25.18-.68a1.25,1.25,0,0,0,0-.34,2.8,2.8,0,0,1-.09-.31c.05-1.1.08-1.65.12-2.75,0-.1-.21-.17-.61-.27a2.63,2.63,0,0,0-.46-.1l-.33,0-.32-.19-.43,0-1,.13a1.3,1.3,0,0,1-.43,0,2,2,0,0,1-1.88-.8,2.38,2.38,0,0,1-.2-.73c-.08-.4-.11-.6-.18-1a.53.53,0,0,0-.07-.15,1.21,1.21,0,0,1,0-.46.35.35,0,0,1,.2-.27.58.58,0,0,1,.36-.1l.22,0a1.17,1.17,0,0,1,.25.07c.15,0,.26.12.27.22s.19-.07.25-.23a2.63,2.63,0,0,0,.11-.51.94.94,0,0,1,.42.09.31.31,0,0,1,.15.21l0,.14a.44.44,0,0,0,.06.16.36.36,0,0,0,.23.29l.1-.1a1.19,1.19,0,0,1,.41.17l-.29.19a.41.41,0,0,0,.3.37c.06,0,.15-.12.26-.3a1,1,0,0,1,.35-.4l.6.08,1.12,0,.33.16a1,1,0,0,0,.22,0,.81.81,0,0,1,.31,0,.38.38,0,0,1,.16.06s.05.08.08.09h.78l.34.05.45.18c.3.11.48.18.54.19l.55-.19a1.14,1.14,0,0,1,.62-.09.68.68,0,0,1,.29.08.12.12,0,0,1,.08,0,.17.17,0,0,1,.12.06,5.8,5.8,0,0,0,2.43.07,3.05,3.05,0,0,0,.5-.15l.51-.18c.52-.17,1-.32,1.56-.44a1.27,1.27,0,0,1,.45-.37l.51-.15a1.77,1.77,0,0,1,1.36.79.59.59,0,0,0,.16.36,1.66,1.66,0,0,0,.3.28l.36.21a1.38,1.38,0,0,1,.31.24.79.79,0,0,0,.31.51c0,.3.29.61.76.91l.51.32c.13.1.19.18.17.26s-.29.33-.75.35L230,12.94a5.64,5.64,0,0,0-.88,0l-1.78-.29c0,.05-.15.12-.41.16a1.91,1.91,0,0,1-.57,0q0-.1-.24-.15l-1.14-.14a5.67,5.67,0,0,0-.7.05c-.21,0-.32.12-.34.21a1,1,0,0,0,0,.48.41.41,0,0,0,.14.21s0,.05.08.09l.11.09a.25.25,0,0,1,.05.23.28.28,0,0,1-.25.23l-.5.18.14.25a.61.61,0,0,1-.19.35.5.5,0,0,0-.17.27c0,.12,0,.26,0,.41s0,.25,0,.42a2.11,2.11,0,0,1,0,.38c0,.11,0,.25,0,.37-.14,1-.47,1.45-1,1.43-.1.06,0,.12.31.19s.44.12.41.14l-.43,1.66a2.1,2.1,0,0,0,0,.91c-.16,1-.24,1.54-.39,2.56-.06,0-.11.09-.16.2a.32.32,0,0,0-.1.14.3.3,0,0,1-.07.14l0,.15a1,1,0,0,1,.05.27,1.74,1.74,0,0,1,.05.5c-.05.62-.07.93-.11,1.55a3.56,3.56,0,0,0,0,.52,16.25,16.25,0,0,1-.23,2.07q-.07.48-.27,1.23c-.08.29-.12.44-.19.73a1.62,1.62,0,0,0,.26.41c.16.23.25.37.28.34l2.26.36c0,.05.2,0,.53-.26s.58-.35.83-.54c0,.08.16.08.34,0l.5-.25s0,0,.09-.06l.9-.46a1.47,1.47,0,0,1,.73-.14.91.91,0,0,1,.47.23l1,1.12.38.21a1.77,1.77,0,0,0,.4.52l.4.34c.07.06.12.1.15.1.43.35.62.69.57,1l0,.14c-.05.12-.1.17-.15.16l-.85-.15-1.51.15-1.52.23a.8.8,0,0,0-.35-.09l-1.55-.07a5.61,5.61,0,0,1-.7,0l-.34.06c-1.41-.23-2.11-.34-3.52-.55a.51.51,0,0,1-.42.08l-.4-.09a1.32,1.32,0,0,0-.41,0l-.34.06c-.06,0-.15-.1-.25-.26s-.14-.25-.17-.25l-.21.3-1.33-.07h-1.52l-.78-.22h-.29a3.07,3.07,0,0,1-.61,0,2.86,2.86,0,0,1-1.46.22c-.21,0-.48,0-.8-.07l-.76-.1c-.38,0-.61-.15-.7-.31a.53.53,0,0,0-.42.1.51.51,0,0,1-.26.16.59.59,0,0,1-.46-.28c0,.29-.29.41-.77.35-.32,0-.59-.42-.8-1.14a3.43,3.43,0,0,1-.21-1.33l.13-.1a.5.5,0,0,0,.15-.2.36.36,0,0,1,.29,0h.33c.29,0,.45-.06.48-.28a.34.34,0,0,0-.09-.27l-.18-.21a5.77,5.77,0,0,1-.48-1.18c-.15-.51-.23-.76-.39-1.28l.19-.2c0-.05,0-.13-.18-.21s-.28-.16-.3-.22l-.45-.8a5.6,5.6,0,0,1-.48-.87.8.8,0,0,1-.14-.28c0-.12-.05-.18-.09-.3a.64.64,0,0,0-.54-.4.14.14,0,0,0-.13.1c0,.23,0,.35-.07.59l.05.71-.3,1.61a.76.76,0,0,0,.09.35.79.79,0,0,1,.08.34.68.68,0,0,1-.07.25l-.1.18c0,.15,0,.23.1.23a6,6,0,0,1,0,.87c0,.45-.08.68-.13,1.14-.06.17-.1.26-.17.43s0,.13,0,.22a6.77,6.77,0,0,0,0,1.12,6.79,6.79,0,0,1,0,1.12c-.09.32-.13.48-.21.8s0,.31-.06.51l-.92.68a.65.65,0,0,1-.45-.27,1.55,1.55,0,0,1-.24.28.56.56,0,0,1-.41.1,1.18,1.18,0,0,0,0-.33.7.7,0,0,0-.17-.36l-.16.4c-.07.16-.16.24-.27.23s-.33,0-.57-.28-.36-.44-.35-.56Zm-4.83-15.9c0,.07,0,.11.08.11s.13,0,.13-.1,0-.11-.11-.12S196.5,18.23,196.49,18.31Zm.32.21v-.07h-.09Zm1.9,9.81c0,.08,0,.12.11.12s.09,0,.1-.1,0-.11-.07-.12S198.72,28.26,198.71,28.33Zm1.8-14.84s0,.08.08.08.08,0,.09-.07,0-.15-.07-.15S200.52,13.39,200.51,13.49Zm2.24,4s0,.07.11.08.09,0,.1-.06,0-.15-.07-.16S202.76,17.41,202.75,17.51Zm-.24,2.36c0,.05,0,.08.12.08a.07.07,0,0,0,.09-.06c0-.1,0-.15-.07-.16S202.52,19.77,202.51,19.87ZM203.77,9c0,.07,0,.11.08.12s.09,0,.1-.1,0-.12-.08-.12S203.78,8.89,203.77,9Zm.34,9.62c.22,0,.5.09.83.12l.71.08a1.67,1.67,0,0,1,.54,0l.7.12a2.88,2.88,0,0,0,.63,0,.5.5,0,0,0,.4-.18c.47-1.25-.08-2.69-.83-2.78a2.37,2.37,0,0,0-1.22.32l-.63.3c-.24.13-.42.2-.53.25a.69.69,0,0,0-.28.27.82.82,0,0,1-.28.26.75.75,0,0,1-.31.08l-.3.05a.46.46,0,0,0-.34.45C203.17,18.27,203.49,18.45,204.11,18.58Zm-2,12.1a.1.1,0,0,0,.11.12s.09,0,.09-.1,0-.11-.07-.12A.1.1,0,0,0,202.16,30.68Zm.15.91c0,.07,0,.12.11.12s.09,0,.09-.1,0-.11-.07-.12A.11.11,0,0,0,202.31,31.59ZM204,21.21l.24,0v-.08l-.25,0Zm-.11,3.35.25,0c0-.15,0-.23-.1-.24S203.92,24.41,203.9,24.56Zm0,1.6c0,.07,0,.11.11.12s.09,0,.1-.1,0-.11-.07-.12S203.87,26.08,203.86,26.16Zm-.34,3.21h.13v-.11h-.12Zm-.15,3c0,.08,0,.12.07.12s.08,0,.09-.1,0-.12-.07-.12S203.38,32.3,203.37,32.37Zm1-8.7s0,0,.12,0,.08,0,.09,0,0,0-.08-.05S204.37,23.65,204.37,23.67Zm-.47,8c-.09,0-.13.06-.15.21l.12,0C203.88,31.78,203.89,31.73,203.9,31.64Zm.85-5.65c0-.18-.05-.27-.08-.46q-.12,0-.15.21C204.51,25.89,204.58,26,204.75,26Zm-.65,6.42s0,0,.07.05.09,0,.09,0,0-.08-.07-.08S204.1,32.36,204.1,32.41Zm1.4-9.92.09-.1.06-.11-.12-.09C205.52,22.31,205.51,22.37,205.5,22.49Zm1.89-10.31s0,.07.11.08.09,0,.1-.06,0-.15-.07-.16S207.4,12.08,207.39,12.18Zm.23,1.36a.55.55,0,0,0-.18,0l-.08,0h.12Zm.8-2.22,0,.07,0,.08a.08.08,0,0,0,.09-.07C208.51,11.35,208.48,11.33,208.42,11.32Zm-.47,5s0,0,.12.05.08,0,.09,0,0,0-.08,0S208,16.28,208,16.31ZM209,11.2s0,.05.12.06.09,0,.09,0,0-.12-.07-.12S209.05,11.13,209,11.2Zm-.3,21.22h.08v-.11h-.08Zm.64-2.62v-.11h-.08Zm0,2.73,0,0a0,0,0,0,0-.05,0,.09.09,0,0,0,0,.08l0,0c.06,0,.09,0,.1-.1S209.43,32.54,209.37,32.53Zm.62-3.06c0,.05,0,.07.08.08s0,0,0-.07,0-.15,0-.15S210,29.37,210,29.47Zm.22-1.14h.09c0-.08,0-.13,0-.22h-.08Zm2.91-17.43c0,.08,0,.12.07.13a.11.11,0,0,0,.14-.1.11.11,0,0,0-.11-.13C213.16,10.8,213.13,10.83,213.12,10.9Zm1.78-.44c0,.07,0,.11.07.12s.05,0,.06-.11,0-.11,0-.11S214.91,10.38,214.9,10.46Zm-2,22.48c.11,0,.17-.06.19-.2l-.16,0Zm5.85-19.12.25,0-.06-.16-.17,0Zm.68,0,0,0s0,0-.05.07,0,.07,0,.08ZM219,16.1s0,.08.07.09.09,0,.1-.06,0-.16-.06-.16S219.05,16,219,16.1Zm.68-4.21.17,0V11.8l-.17,0Zm-2.08,16a.54.54,0,0,0,0,.19c0,.13.07.24.18.25l.1-.73a.21.21,0,0,0-.28.18Zm1.39-1,.11-.14h-.09Zm2.13-13.53a.31.31,0,0,0-.11.17.21.21,0,0,0,.23-.11.47.47,0,0,0,.07-.22Zm-.38,8.46c-.17,0-.26,0-.27.11l.25,0Z" fill="#231815"/>
        <path d="M244,34.78c.24-1.14.47-2.17.69-3.08.34-1.42.51-2.12.84-3.54.14-.52.27-1,.38-1.55s.2-1.18.3-2c.15-1.42.22-2.14.36-3.56a5.88,5.88,0,0,0-.06-2.18.84.84,0,0,0-.1-.32c0-.1,0-.15-.08-.24a.87.87,0,0,1-.09-.63.81.81,0,0,1,.09-.25.33.33,0,0,1,.34-.11,4,4,0,0,1,1,.82.31.31,0,0,0,.1.13l.4.39a3.1,3.1,0,0,0,.48.44,2.15,2.15,0,0,0,.46.29.23.23,0,0,0,.11.07l.12.06a.42.42,0,0,0,.19.12.72.72,0,0,1,.31.79,1.88,1.88,0,0,1-.43.39s0,.06-.11.09l-.27.25a1.88,1.88,0,0,0-.58.86c0,.27,0,.4-.06.67-.05.5-.14,1.16-.26,2l-.45,3.25a5.1,5.1,0,0,1-.26,1,9,9,0,0,0-.29,1c-.54,2.46-.57,3.74-.08,3.85l.53-.11c.1,0,.17.06.18.12a.42.42,0,0,0,.27.13c.26.06.51-.09.73-.44l.06-.1a.15.15,0,0,1,.07-.1c0-.1.08-.14.14-.24a1,1,0,0,1,.41-.32l-.11-.1,2-8.83c0-.46,0-.68,0-1.14s.18-.78.29-1.3c.06-.69.08-1,.13-1.72a11,11,0,0,1,.14-1.23l.25-1.31a3.15,3.15,0,0,0-.15-2.09s-.05-.11-.18-.19l-.67-.56c-.1-.1-.14-.18-.12-.26,0-.24.28-.35.69-.34l.48,0,1,.22a8.13,8.13,0,0,1,1.49,1.06,10,10,0,0,1,.77.71c.21.23.3.43.28.52-.06.27-.17.41-.32.42a.21.21,0,0,1-.14,0l-.09,0a.35.35,0,0,0-.23.06c-.06.05-.14.21-.26.36l-.52.71-.35,1.9a2.74,2.74,0,0,1-.71,1.55c0,.18-.06.26-.09.44-.1.86-.14,1.29-.24,2.15,0,.53,0,.79-.08,1.31q-.06.45-.15.84l-.27.63c-.11.45-.19,1-.28,1.57,0,.39-.12.92-.19,1.59a4.66,4.66,0,0,0-.29.7,3.56,3.56,0,0,0-.15.46l-.4,1.35a7.33,7.33,0,0,1-.29.73,1.31,1.31,0,0,0,.18.88,1.11,1.11,0,0,0,.72.7h1a.48.48,0,0,0,.36-.26,3.56,3.56,0,0,0,.3-.57,1.48,1.48,0,0,1,.13-.35l.12-.36a2.15,2.15,0,0,1,.21-.48c.69-2.92,1-4.38,1.72-7.29.1-.19.15-.29.24-.48a1.71,1.71,0,0,0,0-.92c.17-.7.25-1,.41-1.74a.81.81,0,0,0,0-.46l-.47-.79a.84.84,0,0,1,0-.47.3.3,0,0,1,.28-.27,1.37,1.37,0,0,1,.43.06,3.61,3.61,0,0,1,1.38.82c.58.5.84.93.77,1.22a.51.51,0,0,1-.15.23l-.22.18a.64.64,0,0,0-.21.17.49.49,0,0,0-.15.24l-.1.43-.22.52c0,.07,0,.12-.07.13-.15.82-.22,1.23-.36,2.05a3.6,3.6,0,0,0-.1.59,19.06,19.06,0,0,1-.47,2.29l-.17.72a.81.81,0,0,0,0,.54.57.57,0,0,1-.07.28l-.55,1.74a1.65,1.65,0,0,1,0,.27l-.1.59a.63.63,0,0,1-.21.33c-.23.95-.34,1.43-.57,2.38a.73.73,0,0,1-.14.2l-.18.22a1.64,1.64,0,0,0-.2.29,2.23,2.23,0,0,0-.13.39,2.81,2.81,0,0,1-.78.62,1.85,1.85,0,0,1-.53.29.89.89,0,0,1-.43,0c-.08-.11-.12-.16-.19-.27a3.27,3.27,0,0,0,.13-1.65c-.09-.2-.43-.37-1-.5s-1.32-.27-2.19-.39-1.69-.32-2.31-.4a.62.62,0,0,0-.65.46l-.17.42a1.06,1.06,0,0,1-.21.37c0,.13-.21.29-.52.5s-.51.3-.65.27-.45-.34-.48-.86S244,35.2,244,34.78ZM248.51,42a1.1,1.1,0,0,1,.45-.13l.51-.07a1.43,1.43,0,0,0,.43,0l2.09-.42a13.38,13.38,0,0,0,1.37-.48,18.34,18.34,0,0,0,3.65-1,11.51,11.51,0,0,0,1.83-.91,2.61,2.61,0,0,0,.9-.85c.06-.13.05-.27-.2-.39l-.31-.12a1.28,1.28,0,0,1-.18-.12,4,4,0,0,0-1.32-.18h-.55l-.37-.05a2.17,2.17,0,0,1-.94-.65,2,2,0,0,1-.4-.44.6.6,0,0,1-.11-.41c1,.25,1.63.12,1.76-.41a5.86,5.86,0,0,1,.31-.92c.15-.34.23-.51.38-.86a.54.54,0,0,1,.1-.2l.08-.17a1.46,1.46,0,0,0,.17-.34,2.87,2.87,0,0,0,.21-.49,20.66,20.66,0,0,0,.72-5c.13-.74.2-1.1.33-1.83a8,8,0,0,0,0-1.75,4.56,4.56,0,0,0-.05-1.39c-.07-.81-.1-1.22-.17-2l-.06-.28a.63.63,0,0,1-.05-.32c0-.14.08-.23.15-.26s.13,0,.3,0a1.27,1.27,0,0,1,.4.17l.7.6a1.18,1.18,0,0,0,.4.17,2.77,2.77,0,0,0,1.8-.12,1.9,1.9,0,0,0,.36-.21.93.93,0,0,1,.36-.18,2,2,0,0,0,.5-.07l.61-.11a2.52,2.52,0,0,1,.63.47c.31.28.47.45.45.5,0,.67-.56,1-1.78.88l-1.37-.16a1.49,1.49,0,0,0-.87.13c-.14.91-.22,1.37-.36,2.28l-.25,1.2a1.34,1.34,0,0,0,0,.69.75.75,0,0,0,.54.63,1,1,0,0,0,.42,0l.33-.07.36-.06a1.36,1.36,0,0,1,.48.05c.51,0,.56.44.6.69,0,0,0,.14-.18.22l-.26.13-2-.29a.49.49,0,0,0-.38.13.62.62,0,0,0-.25.32c-.09.64-.14.95-.23,1.59a3.24,3.24,0,0,0-.06.4,4.14,4.14,0,0,0-.07.45c-.06.69,0,1.08.32,1.15a1,1,0,0,0,.34,0l.56-.17a.64.64,0,0,1,.34,0,.49.49,0,0,1,.21.2.64.64,0,0,1,.13.15l.1.14a.71.71,0,0,0,.23.25.35.35,0,0,0,.22.17c.32.09.64-.35.95-1.32a1.1,1.1,0,0,0,.12-.28l.22-.7c.14-.3.26-.43.37-.4s.14.13.16.23a.79.79,0,0,1,0,.34l-.05.37c0,.11,0,.17.13.19.07.51.11.76.18,1.27a1.37,1.37,0,0,1,0,.39c0,.34-.37.64-1,.88a.8.8,0,0,1-.4,0l-.49-.1a1.41,1.41,0,0,0-.43,0c-.13,0-.23.08-.26.2l.15.39a.83.83,0,0,1,.1.29s0,0-.14,0l-.28-.07-1.23-.93a2.09,2.09,0,0,0-.54-.22c0-.1,0-.12-.11-.06a1.13,1.13,0,0,0-.27.35c-.25.45-.38,1.15-.6,1.53a.37.37,0,0,0-.05.22c0,.17,0,.26.06.43a2.88,2.88,0,0,1,0,1.11c.09.32.43.56,1,.71a7.78,7.78,0,0,0,.81.17l1.15.19a2.7,2.7,0,0,1,.41.07c.31.07.69.19,1,.22a.59.59,0,0,0,.49-.22l.2-.44a1.05,1.05,0,0,1,.15-.23l.23-.37a1.2,1.2,0,0,0,.22-.36.61.61,0,0,0,.15-.23c.5-1.74.76-2.61,1.26-4.34.12-.46.24-.95.35-1.48l.35-1.64a.13.13,0,0,1,0-.08c.09-.38.13-.57.21-.94A8.74,8.74,0,0,0,267.6,26c0-.1.18-.28.69-.43l1.18-.29a1.48,1.48,0,0,1,1.07.64,1.37,1.37,0,0,1,.29,1.19c0,.07-.16.12-.39.13s-.42,0-.47.1a26.18,26.18,0,0,0-1.42,3.88c-.28,1.14-.42,1.71-.69,2.85a1.12,1.12,0,0,1-.2.25.75.75,0,0,0-.2.25,4,4,0,0,1-.29.73.72.72,0,0,1-.12.27l-.32.57a.8.8,0,0,0-.12.27,2.47,2.47,0,0,0-.26.63c-.21.76,0,1.23.65,1.4l1.45.33a2.2,2.2,0,0,0,.43.16l.74.25a1.49,1.49,0,0,0,1.43-.17,5.73,5.73,0,0,0,1.13-2.42l.1-.51a.46.46,0,0,0-.34-.48l-1.83-.29-.68-.19a1,1,0,0,1-.31-.13c-.55-.23-.76-.56-.64-1a9.43,9.43,0,0,1,1.34.18l.32.09a3,3,0,0,0,.37.06c.24,0,.49.11.67.11,1,.17,1.64-.09,1.84-.78.31-1.09.47-1.63.78-2.71.12-.43-.09-.72-.63-.88l-.9-.1a5.74,5.74,0,0,1-.88-.17l-.2-.05a.56.56,0,0,1-.19-.1c-.15-.09-.21-.2-.18-.32a.54.54,0,0,1,.15-.22q.12-.12.12-.09a7.86,7.86,0,0,0,1.4.17c.37,0,.87,0,1.47,0,.08,0,.18-.07.3-.26s.18-.44.3-.72c0-.11.11-.25.16-.42l.63-2c.07-.36,0-.58-.22-.64a5.29,5.29,0,0,0-1.25-.16,7,7,0,0,1-1.25-.16,1.65,1.65,0,0,1-.32-.13c-.09-.06-.14-.13-.11-.23a.84.84,0,0,1,.93-.62l.35,0a1.28,1.28,0,0,1,.34.06l.35.06a.75.75,0,0,0,.29,0,3.33,3.33,0,0,0,1.23-.07,2.15,2.15,0,0,0,.45-.14l1.17-.63a1.16,1.16,0,0,1,.61-.24c.25,0,.51.31.61.68.06.18.08.28.14.46a1.4,1.4,0,0,0,.15.4l.65.85a1.21,1.21,0,0,1,.18.9l-1.38.87a2.47,2.47,0,0,0-.87,1.25c-.92,3.13-1.38,4.7-2.31,7.83a4.22,4.22,0,0,0-.77,1.28c-.09.23-.18.49-.27.77s-.13.45-.22.75c-.29,1-.22,1.55.2,1.68a2.43,2.43,0,0,0,1.27-.05,6.38,6.38,0,0,0,1.07-.41l.52.15c.32.1.48.23.49.39l.65,1.71a.72.72,0,0,1-.2.36l-.32.06L275.19,42,273,41.3c-1-.34-1.69-.57-2.15-.71-.78-.23-1.53-.47-2.21-.66l-.16,0a2.06,2.06,0,0,0-.35,0l-1.64-.42a2.41,2.41,0,0,1-1.29-.73,2.28,2.28,0,0,1-1.1,0l-.87-.27L260.53,38l-.13.2c-.14.22,0,.61.29,1.18s.5,1,.45,1.19a2.22,2.22,0,0,1-1,.52,1.47,1.47,0,0,0-.27,0l-2.74.53a2.18,2.18,0,0,1-.44.08,11,11,0,0,0-1.26.18l-1.26.23-.73.09-.71,0a.12.12,0,0,0-.08,0c-.64,0-.94,0-.91.13l-1.51.1a7.59,7.59,0,0,0-1,.11l-.26.05a2.28,2.28,0,0,1-.81-.3A1.59,1.59,0,0,1,248.51,42Zm17-18a1.4,1.4,0,0,1,.13-.34c.15-.3.23-.45.37-.75a2.41,2.41,0,0,0,.16-.42,10.16,10.16,0,0,0,.23-1.4l.15-1.07c.19-.45.28-.68.48-1.14a2.9,2.9,0,0,0,.11-1,4.43,4.43,0,0,1,.11-.93c.06-.41.09-.62.14-1a1.59,1.59,0,0,0-.17-.93s0-.16-.17-.35-.2-.29-.19-.32c0-.29.35-.37.91-.22a12.91,12.91,0,0,1,2.36,1c1.24.64,1.83,1.12,1.76,1.36a1.49,1.49,0,0,1-.4.81,4,4,0,0,0-1.45,1,3.55,3.55,0,0,0-.5,1.21c-.18.64-.1,1,.24,1.1a1.89,1.89,0,0,0,1.3-.18,1.65,1.65,0,0,1,1.13-.19.9.9,0,0,1,.61.55,1.15,1.15,0,0,1,.09.8,1.83,1.83,0,0,1-.79.93l-.17,0s-.17,0-.42-.11l-2.29-.74a.36.36,0,0,0-.41,0,1.86,1.86,0,0,0-.47.45l-.9,1.18,0,.24c-.13.53-.19.8-.31,1.34a2.76,2.76,0,0,1-.4,1,1.1,1.1,0,0,1-.7.13,3.19,3.19,0,0,1-.71-.12c-.11,0-.16-.09-.13-.18A6.78,6.78,0,0,1,265.47,24Zm1.9,16.73a5.29,5.29,0,0,0,.49.41l.55.46a1,1,0,0,0,.25.18l.21.14A.18.18,0,0,0,269,42l.11.07a2.23,2.23,0,0,1,.38.3l1.25,1,.19.21a11.35,11.35,0,0,1,1.62,1.47,6.08,6.08,0,0,1,.36.5,1.1,1.1,0,0,1,.17.28c-.09.32-.14.47-.23.78l-.32.8a.74.74,0,0,1-.43.3,4.44,4.44,0,0,1-.67.11,3.48,3.48,0,0,1-1.29-.07,1.3,1.3,0,0,1-.87-1.06c-.08-.44-.11-.66-.19-1.1l-.5-1.38-.25-.45a3.1,3.1,0,0,0-.53-.85c.1-.05.12-.17.05-.33a4.36,4.36,0,0,0-.38-.61l-.46-.62c-.15-.2-.21-.34-.18-.44A.4.4,0,0,1,267.37,40.73Z" fill="#231815"/>
        <path d="M310.74,62.71l1.38.62a1.67,1.67,0,0,0,1.81-.07l.28-.25.5-.63a1.49,1.49,0,0,1,.27-.33,2.82,2.82,0,0,0,.94-.93l1.66-2.47a13.09,13.09,0,0,0,.84-1.42l.3-.27a2.13,2.13,0,0,0,.3-.27,2.92,2.92,0,0,0,.54-.82c.42-.41.1-.86-1-1.35l-.89-.38a.75.75,0,0,1-.27-.12c-.29-.17-.53-.26-.5-.33a1.73,1.73,0,0,0-.46-.2l-.26,0-.2,0a.47.47,0,0,1-.17,0,1.43,1.43,0,0,1-.26-.15,1.16,1.16,0,0,1-.3-.25L315,53a.73.73,0,0,0-.28,0l-1.63-.67a.31.31,0,0,0-.26,0,.23.23,0,0,0-.24.14,3.81,3.81,0,0,0,.69,1.17l.39.36.52.38c.38.32.52.61.42.86l-.53.71a.64.64,0,0,0-.13.22c-.39.88-.59,1.32-1,2.21a4.9,4.9,0,0,1-1.39,1.94l-1.06.41a1.56,1.56,0,0,1-1-.07l-.23-.1-.19-.16a.55.55,0,0,1,0-.64,3.83,3.83,0,0,1,0-.78c0-.55-.17-.9-.39-1-.54-.21-1.29-.48-2.26-.79s-1.7-.55-2.18-.74l-.29,0-1.3-.5-.1,0-1.42-.55a1.5,1.5,0,0,0-.45-.09,1.3,1.3,0,0,0-.46-.06l-.5-.07a1.5,1.5,0,0,1-.45-.09A1.59,1.59,0,0,1,299,55l-.23-.21c-.77-.29-1.48.45-2.13,2.21l-.32.16a.38.38,0,0,0-.16.06s-.06,0-.1,0l0,0a4.39,4.39,0,0,1-.61.24,1.63,1.63,0,0,1-1.17,0c-.28-.1-.38-.46-.31-1.06a.44.44,0,0,1,0-.19l.05-.49a.89.89,0,0,0-.12-.52L296,49.93a11.65,11.65,0,0,0,.47-1.29,5.54,5.54,0,0,0,.26-1.32,1,1,0,0,0-.3-.9l-.94-.34-.16-.29a.24.24,0,0,0-.23,0,.45.45,0,0,0-.23.16l-.27.14a.58.58,0,0,1-.32,0,.34.34,0,0,1-.19-.06l-.17-.14-.3,0a.82.82,0,0,1-.28-.1.7.7,0,0,1-.25-.4,3.61,3.61,0,0,1-.16-.81,10.89,10.89,0,0,1-.12-1.57c0-.07.14-.1.34-.08l.66.15c.21.06.44.12.68.21l.32.11a6.76,6.76,0,0,1,1.05.53,7.21,7.21,0,0,0,1.14.56c.63.23,1.29-.73,2-2.9.06,0,.09-.09.09-.25a.13.13,0,0,1,0-.08l0-.34c.44-1.23.67-1.84,1.11-3.07l.2-.17a3.52,3.52,0,0,1,.17-1.23l.5-1.25a2.73,2.73,0,0,0,.17-.6c0-.17,0-.24-.07-.19a.5.5,0,0,0,.19-.25c0-.14,0-.21,0-.35a.23.23,0,0,0,0-.16c0-.33,0-.5.07-.84a8.94,8.94,0,0,1,.36-1.25,6.81,6.81,0,0,0,.28-1.28,5.68,5.68,0,0,0,.05-.77,2.53,2.53,0,0,0-.07-.58.42.42,0,0,0-.07-.34l-.18-.14a.24.24,0,0,0-.11-.08c-.05,0-.07-.07-.06-.1a1.64,1.64,0,0,1-.33-.35.44.44,0,0,1,0-.43l.15,0a.68.68,0,0,1,.27,0,1.39,1.39,0,0,1,.31.19l.26.17a.54.54,0,0,1,.24.24.74.74,0,0,1,.12.17s.06.05.1.11a.12.12,0,0,0,.07.07,2.2,2.2,0,0,0,.28.38,1.37,1.37,0,0,0,.42.26l.6.66.28.38a1.75,1.75,0,0,0,.29.34,1.63,1.63,0,0,1,.43.47l.28.5a1.39,1.39,0,0,0,.74.75,3.42,3.42,0,0,0,2.23-.11.47.47,0,0,1,.22-.07l.7-.25a1.8,1.8,0,0,1,.81,0l2.12-1.09a5.88,5.88,0,0,0,2.28-2.22,3.15,3.15,0,0,0,.17-.69c0-.14,0-.21,0-.34a1,1,0,0,0,.05-.38c0-.29.06-.43.09-.72a3.11,3.11,0,0,1,.18-.69.66.66,0,0,1,.32.28.62.62,0,0,1,.11.33l.06.34a.28.28,0,0,0,.15.22.64.64,0,0,0,.22,0v.72a.49.49,0,0,0,.42-.07l.16.06.8.88c.28.32.53.62.74.89a3.77,3.77,0,0,1,.76,2,.54.54,0,0,1-.19.24l-2.3.76-.87,0,.05-.14L315,32c.11.2.15.35.11.44l-.65.22a2.43,2.43,0,0,0-1.31,0l-1.33.28a2.4,2.4,0,0,0-.52,0l-.51.09a1.89,1.89,0,0,1-1.09-.07c0,.1-.25.12-.64.08l-.5,0-.67.06h-1a.75.75,0,0,0-.32,0,1.8,1.8,0,0,0-.41.09,1.09,1.09,0,0,1,.08.15l1.1.53.45.17a7.27,7.27,0,0,0,.93.36l1.45.35a1.92,1.92,0,0,1,.47.11,8.3,8.3,0,0,1,.92.27l.54.29a1.59,1.59,0,0,0,.55.26l1.5.24.79.27c.14,0,.3,0,.4,0,1.48.27,3,1.08,3.72,1.16a2.63,2.63,0,0,0,1.88-.55c0,.05.1,0,.36,0a1.63,1.63,0,0,1,.37-.09.71.71,0,0,1,.36,0l.88-.39a1.82,1.82,0,0,1,.49-.24.65.65,0,0,1,.42,0,1.5,1.5,0,0,1,.41.49l.3.42c.41.7.61,1,1,1.76a.71.71,0,0,1-.2.36,1.53,1.53,0,0,1-.29.24s-.05,0-.06,0l-.24.14a.37.37,0,0,0-.19.2A6.07,6.07,0,0,0,323,42l-.14.34a1.46,1.46,0,0,0-.11.36l-.16.17s0,.11,0,.15a.27.27,0,0,1,0,.12.22.22,0,0,1,0,.08.63.63,0,0,0,0,.36,1.78,1.78,0,0,1-.27.41l-.55.73a3.84,3.84,0,0,0-.21.4c-.16.3-.38.67-.55,1.05a1.39,1.39,0,0,0-.67-.16.76.76,0,0,0-.33.22l-.32.31a1,1,0,0,1-.62.26.66.66,0,0,1-.38.12l-.8-.06a1.55,1.55,0,0,0-.38.13.79.79,0,0,1-.57-1c.05-.54-.06-.87-.29-1l-.44-.06-2.77-1.13a4.84,4.84,0,0,0-.61-.21,4,4,0,0,0-.52-.09l-.45,0a1.54,1.54,0,0,1-.29-.07L310,42.74l-.71-.28a2.77,2.77,0,0,0-.8-.07.74.74,0,0,1-.25-.18L308,42.1a1.42,1.42,0,0,0-.52-.08,8.12,8.12,0,0,1-1.63-.51l-1.63-.62a1.45,1.45,0,0,0-1.47.28,2.47,2.47,0,0,0-.87,1.26.92.92,0,0,0,0,.44.26.26,0,0,0,.16.18l.56.21a1.5,1.5,0,0,1,.34.29,2.6,2.6,0,0,1,1.34.27l1.38.56c1.57.48,2.36.72,3.93,1.22,1.13.37,2,.68,2.45.85.33.13.75.27,1.19.45l2.44,1c.44.18.84.34,1.19.46l.76.16.26.14a1.53,1.53,0,0,0,.26.16,1.58,1.58,0,0,0,1,0l1.24-.4a.34.34,0,0,0,.21-.07l.64-.29a.89.89,0,0,1,.66-.12,1.22,1.22,0,0,1,.35.27,2.59,2.59,0,0,1,.3.38,4.33,4.33,0,0,0,.3.37,1.84,1.84,0,0,0,.34.31l.41.34c.3.29.42.52.35.68a1,1,0,0,1-.34.46.62.62,0,0,1-.43,0,.94.94,0,0,1-.24-.06l-.25-.07a1.7,1.7,0,0,0-.58-.17,1.13,1.13,0,0,0-.37,0,.1.1,0,0,0-.09,0h-.1a.33.33,0,0,1-.17,0,2.22,2.22,0,0,1-.62-.06.36.36,0,0,1-.19-.09l-.17-.15a1.42,1.42,0,0,1-.45,0L319.7,50l-.23-.1a2.12,2.12,0,0,0-.45-.15,1,1,0,0,0-.44.06l-1.72-.73a7.8,7.8,0,0,0-1.73-.48,1.41,1.41,0,0,1-.43-.18l-.49-.24a9.51,9.51,0,0,0-1-.52,1.15,1.15,0,0,0-.33-.1l-.52,0a.92.92,0,0,1-.25-.06,5.91,5.91,0,0,1-1.57-.87,2,2,0,0,1-.8-.16l-1.39-.51-.39-.07a1.78,1.78,0,0,1-.34-.06l-.29-.07c-.91-.36-1.37-.53-2.29-.88l-.26,0-.33-.21-1.14-.43a5.35,5.35,0,0,0-1-.24,1.17,1.17,0,0,0-1.37.76,1.08,1.08,0,0,0,.77,1.55,2.58,2.58,0,0,0,.62.16c1.38.52,2.07.78,3.45,1.32l.76.13,4.3,1.71c.7.28,1.64.62,2.81,1l2.1.75,2.64,1.12c.81.34,1.44.59,1.89.73a4.86,4.86,0,0,0,2.85,0l.12.06a2,2,0,0,1,.4.25,3.58,3.58,0,0,0,.61.92l.67.67a1.41,1.41,0,0,1,.28,1.55c-.1.2-.38.32-.84.31s-.83.08-1,.27l-.27.61A.4.4,0,0,1,323,58l-.47.23a.56.56,0,0,0-.18.21c.06,0,.07.14,0,.25a.41.41,0,0,0-.29-.05,1.07,1.07,0,0,1-.41,0h-.18v.12s0,.07,0,.12l.49.14,0,.13-.1.32q-1.62,2.12-3.06,3.75a4.6,4.6,0,0,1-1.16,1.2l-.1-.09-.25-.15c0,.27-.07.41-.11.68a.48.48,0,0,1-.18.2l-.33.14a1.56,1.56,0,0,0-.32.23.56.56,0,0,0-.25.26c-.14.31-.87.55-2.18.71a16.31,16.31,0,0,1-3,.11c-.36-.05-.52-.24-.47-.56a1.78,1.78,0,0,1,.13-.43l.1-.32a.72.72,0,0,0-.08-.36.74.74,0,0,1-.07-.35,4,4,0,0,0-.06-.47,1.41,1.41,0,0,1,0-.54.66.66,0,0,0-.16-.26L310,63c-.21-.2-.29-.36-.23-.5A2,2,0,0,1,310.74,62.71ZM293.13,43.29c0,.05,0,.08.05.1s.13,0,.15,0,0-.16-.07-.18S293.16,43.2,293.13,43.29ZM297.38,45l-.07.06,0,.08a.07.07,0,0,0,.1,0C297.45,45,297.43,45,297.38,45Zm.08,1.13c-.16-.05-.26,0-.29.06l.24.08Zm5.63-15.35s0,.08.05.1a.08.08,0,0,0,.11,0c0-.1,0-.15,0-.17S303.12,30.65,303.09,30.74Zm-2.37,6.52s0,.07,0,.09.09,0,.11,0,0-.15,0-.17S300.75,37.16,300.72,37.26Zm-2.25,16.16,2.42.92a1,1,0,0,0,1.22-.41l1.15-1.86.06-.26a.31.31,0,0,1,.21-.19l.65-1.58a1.66,1.66,0,0,0,.1-.36.78.78,0,0,0-.56-1l-.39-.15c-.15-.06-.21-.11-.17-.14l-.39,0a1.45,1.45,0,0,1-.51-.08,3.51,3.51,0,0,0-.5-.19l-.89-.13a3.35,3.35,0,0,1-.44-.13,3,3,0,0,0-1-.53l-.27-.1a2.52,2.52,0,0,0-.45-.13c-.41-.09-.65,0-.73.17s0,.62.45,1c.19.16.29.24.47.41a.88.88,0,0,1,.26.49,2.65,2.65,0,0,0-.11.43v.27a.5.5,0,0,1,0,.16c0,.06,0,.12,0,.13a4.72,4.72,0,0,1-.23,1.34l-.16.3a1.71,1.71,0,0,0-.22.35C298.19,52.76,298.19,53.22,298.47,53.42Zm3.27-15.24c0,.07,0,.12,0,.14s.1,0,.12-.08,0-.11,0-.13S301.77,38.11,301.74,38.18Zm-5.83,17.3c0,.05,0,.08,0,.1a.07.07,0,0,0,.1,0s0-.08-.05-.1S295.93,55.43,295.91,55.48Zm-.14.62c0,.07,0,.12.07.15s.09,0,.12-.08,0-.11,0-.13S295.79,56,295.77,56.1Zm9.06-19.94.13.25c.86.32,1.62.6,2.27.82l2.71.76c.49.17,1,.36,1.58.58-.08,0,0,0,.31,0l1,.27c1.06.31,1.88.59,2.47.82l1.31.34a4.74,4.74,0,0,1,.53.17l.59.29c.32.13.56.12.71,0s.09-.13.14-.22a.77.77,0,0,1,.22-.19c.46-1.18.41-1.88-.16-2.12l-.9-.33a11.24,11.24,0,0,1-1.08-.36l.09-.2-.57.13a2,2,0,0,1-.41,0c-.53-.16-1.08-.35-1.65-.55L312.54,36a5.91,5.91,0,0,1-1.14-.17l-1.35-.36a2.24,2.24,0,0,0-.38-.11l-.85-.21-2.35-.89c0,.09-.27.19-.7.26s-.82.47-1.1,1.21C304.65,35.78,304.7,35.93,304.83,36.16Zm-1.16,2.62c-.12.06-.09.24,0,.52s.19.39.29.43l3.16,1.08L310.26,42a5.85,5.85,0,0,1,1.46.26c.3.09.73.25,1.29.47s.71.29,1.19.48a8,8,0,0,0,1.35.44c1.05.21,1.71,0,2-.63a2.31,2.31,0,0,0,.27-1.57.61.61,0,0,0-.28-.32,4,4,0,0,0-.51-.25,2.49,2.49,0,0,0-.63-.18l-.57-.07a1.08,1.08,0,0,0-.47-.23l-.91-.17a1.71,1.71,0,0,1-.29-.08.74.74,0,0,1-.34-.09l-.92-.49-.85-.3h-.23c0,.08-.05.12-.08.21a4.71,4.71,0,0,1-.88-.23l-1.49-.58s0,0-.21,0l-.82-.16c-.43-.09-.88-.19-1.35-.32s-1.26-.44-1.87-.63a.85.85,0,0,0-1,.35,2.35,2.35,0,0,0-.31.45C303.77,38.51,303.73,38.6,303.67,38.78Zm.06,8.46.12,0,0-.07-.11,0Zm4-5.47s0,.08.05.1.05,0,.07,0,0-.14,0-.15S307.73,41.68,307.69,41.77Zm-3.56,9.56a.07.07,0,0,0-.11,0s0,0,0,.05.09,0,.1,0Zm-.27.57c0,.05,0,.08.05.1s.13,0,.15,0,0-.15-.07-.18S303.9,51.81,303.86,51.9Zm-.21,2.83,0,0a0,0,0,0,0-.06,0c0,.05,0,.08,0,.09h0Zm11.74-27.19.05-.14-.08,0C315.37,27.44,315.38,27.47,315.39,27.54Zm-1.33,3.86c.16.06.27,0,.33-.11l-.25-.1c-.12,0-.19,0-.21.08Zm-6.21,25.27a2.48,2.48,0,0,0,.36,0,1.21,1.21,0,0,1,.44,0l.5.08a.62.62,0,0,0,.41-.12,3.35,3.35,0,0,0,.87-1.48l.74-1.14c.34-.83.51-1.24.84-2.06a.83.83,0,0,1-.38-.4l-.77-.31c-.32-.13-.46-.22-.44-.26a10.65,10.65,0,0,0-1.65-.5l-1.71-.36a1.11,1.11,0,0,1-.19.36.58.58,0,0,1-.31.24.78.78,0,0,1,0,.45,1.72,1.72,0,0,1-.14.47,6.68,6.68,0,0,1-.59,1.51l-.68,1.49a.87.87,0,0,0,0,.88Zm6.77-26.21c0,.07,0,.12,0,.14s0,0,.08-.09,0-.11,0-.12S314.65,30.39,314.62,30.46Zm-.78,2a.08.08,0,0,0,.06.1s.05,0,.07-.05,0-.15,0-.16S313.88,32.34,313.84,32.43Zm-9,23.25h0a0,0,0,0,0-.05,0c0,.05,0,.07,0,.08l0,0Zm9.75-23.78c0,.07,0,.11,0,.13s.06,0,.08-.08,0-.11,0-.12S314.65,31.83,314.62,31.9Zm2-.35,0-.05s-.06,0-.08.09,0,.07,0,.08Zm.38-.49c-.11,0-.19,0-.25.15l.17.06Zm-7.13,28.42a.09.09,0,0,0,0,.13c.07,0,.13,0,.15-.06s0-.11-.07-.15S309.94,59.41,309.91,59.48Zm7.73-14h0s-.05,0-.06,0,0,.07,0,.08l0,0Zm3.18-3.57.24.1-.2-.2Zm.05,3.85,0,0s-.05,0-.07,0,0,.11,0,.12Z" fill="#231815"/>
      </g>
    </g>
  </g>
</svg>
