<svg xmlns="http://www.w3.org/2000/svg" width="21.54" height="135.47" viewBox="0 0 21.54 135.47">
  <title>footer-word-2</title>
  <g id="圖層_2" data-name="圖層 2">
    <g id="menu">
      <g>
        <path d="M6.73,1.1c0,.11-.17.37-.53.77A9.39,9.39,0,0,0,5.33,3a1.61,1.61,0,0,1,.07.23.94.94,0,0,1,0,.49c-.08.3-.21.76-.4,1.38-.07.27-.13.68-.21,1.25V7.8a1.94,1.94,0,0,1-.14.7A1.56,1.56,0,0,1,4.39,9a.87.87,0,0,0-.23.47s.08.23.26.73a3.9,3.9,0,0,1,.21,1.5c0,1.14-.06,2,0,2.53l.21,3.37A10.5,10.5,0,0,1,4.6,20q0,.08-.21.21a.51.51,0,0,1-.28.14H3.83c-.39,0-.59-.42-.61-1.26l0-1.34s0-.11,0-.28,0-.25,0-.28l.16-2.9c0-.77.11-1.91.17-3.42a2.06,2.06,0,0,1,.14-.73,3.47,3.47,0,0,0,.14-.42,2.14,2.14,0,0,0-.28-.8c0-.15-.1-.32-.14-.49a.44.44,0,0,0-.4-.26,3,3,0,0,0-1,.38A5.38,5.38,0,0,1,.86,9a.49.49,0,0,1-.64-.37c0-.13,0-.38,0-.75s.2-.49.61-.66.61-.24.94-.35A5,5,0,0,0,4.35,4,4.85,4.85,0,0,1,5,2.69a1.15,1.15,0,0,0,0-.14.92.92,0,0,0-.14-.33,1,1,0,0,1-.14-.44.72.72,0,0,1,.09-.28A2.83,2.83,0,0,0,5,.77a.89.89,0,0,1,.4-.61,1.06,1.06,0,0,1,1,.07A.91.91,0,0,1,6.73,1.1Zm1.5,4.66a.78.78,0,0,1-.11.45.47.47,0,0,0-.19.32,1.87,1.87,0,0,1-.3.71,1.82,1.82,0,0,0-.24.51.73.73,0,0,0,.05.4.5.5,0,0,1,.11.16c0,.46.11,1.08.19,1.88a23.39,23.39,0,0,1,.09,2.64q0,.62,0,1.17c0,.47,0,.79,0,.94.06,2.11-.18,3.16-.71,3.14s-.86-.67-.79-2c0-.54,0-2.3,0-5.3t0-.54a7.08,7.08,0,0,0,.07-.79,7.08,7.08,0,0,1,.11-.94,3.93,3.93,0,0,0,.19-.68.61.61,0,0,0-.16-.37,2.24,2.24,0,0,1-.1-.94s0-.2,0-.51-.07-.5-.07-.52a1,1,0,0,1,.18-.56.62.62,0,0,1,.52-.38c.16,0,.37.16.65.47A1.25,1.25,0,0,1,8.23,5.76Zm13.12,3a1.36,1.36,0,0,1-.31.72.87.87,0,0,1-.63.47,2.5,2.5,0,0,1-1.1-.26l-1.12-.49a19.83,19.83,0,0,1-2.3-1.08A2,2,0,0,0,15.14,8a2.91,2.91,0,0,0-.91.21c-.36.17-1,.43-1.8.77a10.06,10.06,0,0,1-3.54.78q-1-.07-1-.78a.88.88,0,0,1,.23-.51.72.72,0,0,1,.54-.21,4.58,4.58,0,0,1,1,0,14.21,14.21,0,0,0,2.2-.42c1.38-.34,2.06-.64,2.06-.89a6.15,6.15,0,0,0-.49-.47l-.18-.23A.53.53,0,0,0,13.11,6a6,6,0,0,0-.54-.47,4.59,4.59,0,0,1-1-.38A1.89,1.89,0,0,0,10.9,5a.87.87,0,0,0-.42.09.48.48,0,0,1-.23.14l-.85.26a.86.86,0,0,1-1-.87c0-.42.06-.63.28-.63a8.9,8.9,0,0,0,1.82-.61,6.81,6.81,0,0,0,1.69-.89,2.4,2.4,0,0,0,.61-.77,2.61,2.61,0,0,0,.38-.94,1.48,1.48,0,0,1,.14-.52A.49.49,0,0,1,13.74,0a1.06,1.06,0,0,1,.72.42,1.29,1.29,0,0,1,.43.77c0,.11-.11.28-.33.5s-.37.29-.35.42.24.15.68.11C15.6,2.15,16.63,2.07,18,2a2.52,2.52,0,0,1,1,.19c.08,0,.36,0,.84-.1a2,2,0,0,1,.68.12c.33.11.49.27.49.49,0,.55-.34.82-1.07.82l-.31,0a2.83,2.83,0,0,0-.35,0,1.24,1.24,0,0,0-.68.25.61.61,0,0,0-.32.42.7.7,0,0,1-.52.57c-.34.09-.55.2-.61.32A8.65,8.65,0,0,1,17,5.9a.82.82,0,0,1-.14.19.59.59,0,0,0-.12.21,2,2,0,0,0,.09.44c.06.22.12.34.17.36a8.72,8.72,0,0,0,1.87.7c.44.09.87.17,1.29.23C20.93,8.24,21.35,8.47,21.35,8.74Zm-1.22,7c0,.3-.33.49-.94.56a9.44,9.44,0,0,0-1.14.33,3.76,3.76,0,0,0-.75.52A7.27,7.27,0,0,1,14,18.9a13.29,13.29,0,0,1-1.87.49,4.5,4.5,0,0,0-.85.26,2.93,2.93,0,0,1-.89.21c-.65,0-1.05-.37-1.19-1.12,0-.27.15-.46.49-.59a2,2,0,0,1,.77-.19l.31.05L11,18a8.06,8.06,0,0,0,1.59-.18L15,17.07l1.59-.37a2.05,2.05,0,0,0,.84-.38l.78-1a4.08,4.08,0,0,1,1-.89.84.84,0,0,1,.75.52A1.36,1.36,0,0,1,20.13,15.69Zm-2.62-5.13a.65.65,0,0,1-.52.63l-.61.15a1.93,1.93,0,0,1-.77.16h-.56c-.13,0-.28.1-.47.3a1.27,1.27,0,0,1-.66.36c-.64.17-1.44.35-2.41.56l-.61.09-.51.14c-.77,0-1.15-.21-1.15-.63,0-.69.21-1,.63-1h.5l.44,0a3.76,3.76,0,0,0,.7-.07,3.36,3.36,0,0,1,.59-.09c.22,0,.75-.09,1.61-.17h.64l.32,0c.19,0,.45-.17.78-.49A6.76,6.76,0,0,0,16,9.84c.21-.24.33-.36.38-.36a1,1,0,0,1,.72.43A1,1,0,0,1,17.51,10.56Zm1.33,1.71a3.38,3.38,0,0,1,0,.82.49.49,0,0,1-.58.42c-.19,0-.55,0-1.06,0a.85.85,0,0,0-.73.37,3.63,3.63,0,0,1-1.82,1.24c-.72.19-1.44.38-2.16.59A6.56,6.56,0,0,1,10.9,16l-.25.05a1.5,1.5,0,0,1-.33.07,1.4,1.4,0,0,1-.66-.24c-.22-.2-.33-.36-.33-.47,0-.67.36-1,1.08-1,.13,0,.3,0,.52,0l.51,0A11,11,0,0,0,13.92,14a18.17,18.17,0,0,1,2.18-.51c.3,0,.64-.32,1-.94s.81-1,1.2-1q.17,0,.33.3A.8.8,0,0,1,18.84,12.27Zm-2.9-8.88a2.76,2.76,0,0,0-1.45-.07q-1.83.24-1.83.87a.4.4,0,0,0,.14.28.88.88,0,0,1,.14.31,1.3,1.3,0,0,0,.52.82,2.21,2.21,0,0,0,1.36.49A3.94,3.94,0,0,0,15.54,6c.34-.14.55-.24.63-.28a2.12,2.12,0,0,0,.45-.4L17,4.8A1.58,1.58,0,0,0,15.94,3.39Z" fill="#231815"/>
        <path d="M19.69,33.91c-2.33,0-3.84,0-4.55,0-3.65-.08-5.92-.08-6.81,0a7.27,7.27,0,0,1-2.46-.12,2.05,2.05,0,0,0-.54-.12.69.69,0,0,0-.4.15,3.83,3.83,0,0,1-.54.21,10.79,10.79,0,0,1-2.88.18c-.5,0-.75-.2-.75-.56A.81.81,0,0,1,1,33.05a.83.83,0,0,1,.59-.28,18.22,18.22,0,0,1,2.5-.12,1.53,1.53,0,0,1,.94.21,1,1,0,0,0,.66.17,1.61,1.61,0,0,0,.68-.29,2,2,0,0,1,1.14-.23q4.64,0,6.47-.09c.69,0,1.68,0,3-.05l2.29,0c1.05,0,1.57.26,1.57.73a.87.87,0,0,1-.35.61A1.27,1.27,0,0,1,19.69,33.91Zm-2.18-3.06c-.11,0-1.49,0-4.12-.05-1.63,0-3.39,0-5.27-.12a2.09,2.09,0,0,0-1.48-.09A5.6,5.6,0,0,1,4,31c-.64,0-1-.24-1-.68s.24-.63.73-.77a1.68,1.68,0,0,1,.63-.12,3.87,3.87,0,0,1,1.15.23c.39.11.76.23,1.12.35a.83.83,0,0,0,.54-.18,3.61,3.61,0,0,1,1.22-.43,28.25,28.25,0,0,1,4.33-.18c1.47,0,2.94,0,4.4.07,1.24,0,1.85.26,1.85.75,0,.22-.15.42-.44.61A1.76,1.76,0,0,1,17.51,30.85Zm.7,16.88a6,6,0,0,1-3.07.47c-.79,0-1.62,0-2.48-.09a4.87,4.87,0,0,0-1.76.16,4.32,4.32,0,0,1-2.71.12,12.51,12.51,0,0,0-2,0,3.65,3.65,0,0,1-2-.26c-.4-.23-.61-1-.61-2.32a9,9,0,0,1,.21-2c.14-.67.35-1.07.61-1.19a3.38,3.38,0,0,1,1.73-.33,7,7,0,0,1,1.74.21,3,3,0,0,0,.65.09,2.6,2.6,0,0,0,.64-.12,3.74,3.74,0,0,1,.86-.18,37.06,37.06,0,0,1,3.77-.12,15.2,15.2,0,0,1,2.91.21c.33.09.79.26,1.38.49.26.1.48.42.63,1a5.79,5.79,0,0,1,.26,1.78A2.5,2.5,0,0,1,18.21,47.73ZM17.11,40q-1.87.12-4.5.12A6.28,6.28,0,0,1,11.14,40a7.91,7.91,0,0,0-1.24-.26,1.41,1.41,0,0,0-.82.14,1.82,1.82,0,0,1-.66.21H4.58c-.67,0-1-.18-1-.56s.34-.72,1-.77a15.59,15.59,0,0,1,2-.07l1.9.07a1.67,1.67,0,0,1,.63.14,1.27,1.27,0,0,0,.52.19.63.63,0,0,0,.26,0,4.35,4.35,0,0,1,.72-.23,3.4,3.4,0,0,1,1.2-.19c1,0,2.76,0,5.15,0,.89,0,1.33.26,1.33.65S17.91,39.93,17.11,40Zm.05-3c-.82.05-2,.07-3.45.05A26.28,26.28,0,0,1,10.32,37a3.72,3.72,0,0,0-1.59.09,16,16,0,0,1-4,.17c-.61,0-.91-.23-.91-.54a.73.73,0,0,1,.26-.54,1.25,1.25,0,0,1,.65-.3,16,16,0,0,1,3.38-.07,1.94,1.94,0,0,1,.7.23,1.54,1.54,0,0,0,.58.16.36.36,0,0,0,.24-.07,5.8,5.8,0,0,1,2.08-.37c.88,0,2.44-.11,4.69-.19,1.14,0,1.71.23,1.71.77S17.8,37,17.16,37.05Zm0,8.93a1.67,1.67,0,0,0,.21-.82,1.32,1.32,0,0,0-1.06-1.41,17.68,17.68,0,0,0-3.23-.14l-3.16,0a1.14,1.14,0,0,1-.59-.24,1.43,1.43,0,0,0-.6-.23.49.49,0,0,0-.24.07,11.58,11.58,0,0,1-2.25.58,1.43,1.43,0,0,0-.82.59,1.87,1.87,0,0,0-.54,1.17.64.64,0,0,0,.17.44,6.29,6.29,0,0,0,.56.78A2.46,2.46,0,0,0,6.73,47,8.47,8.47,0,0,0,8,47c.6-.06,1-.09,1.24-.09a4,4,0,0,1,1.33.21,5.26,5.26,0,0,0,1.34.26,3.46,3.46,0,0,0,.82-.17A3.55,3.55,0,0,1,13.92,47C15.74,47.08,16.81,46.73,17.16,46Z" fill="#231815"/>
        <path d="M2.8,71.07a1.11,1.11,0,0,1-.23.61.91.91,0,0,0-.22.38,2.64,2.64,0,0,0,0,.58,2.07,2.07,0,0,1,.07.45,6.79,6.79,0,0,1-.66,3Q1.12,77.44.5,77.44c-.39,0-.55-.33-.49-1A10.2,10.2,0,0,1,.76,74.7a5.1,5.1,0,0,0,.73-2.22,4,4,0,0,0-.1-.8c0-.34-.07-.61-.07-.79a.77.77,0,0,1,.29-.54.66.66,0,0,1,.6-.28C2.6,70.11,2.8,70.45,2.8,71.07ZM8.37,66.2A2.55,2.55,0,0,1,7,68.36a6,6,0,0,0-1,1A3.29,3.29,0,0,0,5.63,71c0,.45,0,1-.07,1.57s-.09.74-.09.81a7,7,0,0,0,.09,1,6.35,6.35,0,0,1,.07.84c0,.2,0,.41,0,.61,0,.39-.05.77-.09,1.15-.11.65-.39,1-.82,1s-.53-.26-.59-.79a5.1,5.1,0,0,0,0-.92q0-1.8,0-2.64c0-1.69.07-2.64.07-2.86a1.65,1.65,0,0,0-.35-1.15,2.13,2.13,0,0,0-.78-.47,7.61,7.61,0,0,0-.75-.28,5.85,5.85,0,0,1-1.1-.68,1.76,1.76,0,0,1-.49-1.33A1.47,1.47,0,0,1,1,66.06a1.68,1.68,0,0,0,.33-.4,3.17,3.17,0,0,0,.35-1,1.16,1.16,0,0,1,.17-.52,1.09,1.09,0,0,0,.16-.51A3.21,3.21,0,0,0,1.51,63,1.76,1.76,0,0,1,1,61.73q0-1.08,1.5-2.16a1.55,1.55,0,0,1,.63-.16,2.29,2.29,0,0,1,.64,0c.08,0,.13-.09.16-.32a1.38,1.38,0,0,1,.26-.68c.2-.25.4-.5.58-.75a1.3,1.3,0,0,1,.64-.45c.2,0,.4.09.61.38a1.07,1.07,0,0,1,.37.7c0,.42-.47.79-1.41,1.1a4.1,4.1,0,0,0-.77.14.67.67,0,0,0-.23.3,2.48,2.48,0,0,1-.12.38,5.84,5.84,0,0,1-.73.61,1,1,0,0,0-.46.75,1.86,1.86,0,0,0,.18.75.72.72,0,0,0,.64.39l.35.08.61,0a3.17,3.17,0,0,0,.63,0,4.4,4.4,0,0,0,1.15-.35,1.22,1.22,0,0,0,.67-.63.77.77,0,0,0,0-.26A1.27,1.27,0,0,0,6.71,61a2.09,2.09,0,0,1-.35-.6c-.16-.44-.09-.7.19-.78a1.16,1.16,0,0,1,.91.24,1.51,1.51,0,0,1,.77.77,2,2,0,0,1,.26,1A1.84,1.84,0,0,1,7.86,63a3.36,3.36,0,0,1-2.39,1,3.39,3.39,0,0,0-1.92.32,1.09,1.09,0,0,0-.35.57,1.26,1.26,0,0,1-.35.63,3.13,3.13,0,0,1-.52.35c-.19.06-.3.15-.33.26-.09.4.11.75.61,1a2.34,2.34,0,0,0,1.2.35,11.54,11.54,0,0,0,1.54,0A4.1,4.1,0,0,0,6,67.18a1.17,1.17,0,0,0,.6-.39A1.43,1.43,0,0,0,7,66a.86.86,0,0,0-.22-.59A1.27,1.27,0,0,1,6.55,65c-.06-.34.07-.52.42-.52a1.18,1.18,0,0,1,1,.66A2,2,0,0,1,8.37,66.2Zm1.1,10.12c0,.44-.19.66-.58.66A1.11,1.11,0,0,1,8,76.46,5.69,5.69,0,0,1,7.58,75c0-.4-.07-1-.17-1.87a3.07,3.07,0,0,1-.44-.8q-.16-.93-.21-1.26A.93.93,0,0,1,7,70.58a.62.62,0,0,1,.53-.28c.47,0,.71.47.71,1.41a3,3,0,0,1-.1.46c-.08.29-.09.46,0,.54s.21.6.53,1.38c.11.22.27.54.47,1,0,.1.13.32.28.66A1.56,1.56,0,0,1,9.47,76.32ZM20.79,67c0,.2-.25.34-.75.4a2.36,2.36,0,0,1-1,.07l-1-.07c-.68,0-1.3-.07-1.85-.07l-1,.05H13.43l-.68-.05a1.57,1.57,0,0,1-.32-.14,2.12,2.12,0,0,0-.43-.1,1.74,1.74,0,0,0-.49.26,2.19,2.19,0,0,1-1,.21c-1,0-1.43-.21-1.43-.63a.71.71,0,0,1,.38-.56,1.67,1.67,0,0,1,1-.28,2.39,2.39,0,0,1,.75.21,4.13,4.13,0,0,0,.75.12,3.16,3.16,0,0,0,.84-.31,5.52,5.52,0,0,1,1.19-.35q.74-.12.75-1.38c0-1.11-1-1.67-3-1.67A5.15,5.15,0,0,1,11,63a2.92,2.92,0,0,1-1.33.31c-.61,0-.91-.28-.91-.85a.68.68,0,0,1,.42-.58,1.67,1.67,0,0,1,.75-.19,7.22,7.22,0,0,1,1.4.52s.16-.06.38-.21a3.44,3.44,0,0,1,1.43-.38,1.9,1.9,0,0,0,.81-.44c.43-.25.64-.49.64-.71V59.6a3.51,3.51,0,0,0-.12-.71,4.62,4.62,0,0,1-.07-.7,1,1,0,0,1,.19-.63.9.9,0,0,1,.77-.45.92.92,0,0,1,.66.33,1,1,0,0,1,.3.73l-.14.3a1.27,1.27,0,0,0-.07.33c0,.44,0,.77,0,1a1.56,1.56,0,0,0,.7,1.36,2.49,2.49,0,0,0,1.52.46l1.78,0c.94,0,1.41.27,1.41.77s-.39.66-1.15.66H17.93a2.05,2.05,0,0,0-1.27.51,1.54,1.54,0,0,0-.72,1.24,1,1,0,0,0,.51.89,1.44,1.44,0,0,0,.94.33l2.46,0a.89.89,0,0,1,.63.3A.85.85,0,0,1,20.79,67ZM21,74.7a2.68,2.68,0,0,1-.53,2,2.88,2.88,0,0,1-2,.54H17.06c-.56,0-1,0-1.36,0a4.66,4.66,0,0,1-1.49-.52,1.57,1.57,0,0,0-.5.22,2.1,2.1,0,0,1-.49.23l-1.1,0a2,2,0,0,1-1.75-.72,3.2,3.2,0,0,1-.43-1.88,6.29,6.29,0,0,1,.12-1.5,3.73,3.73,0,0,1,.14-.44,1.84,1.84,0,0,0,.21-.63s-.06-.15-.19-.31a1.07,1.07,0,0,1-.11-.49c0-.55.39-.91,1.19-1.1A12.75,12.75,0,0,1,12.94,70a1.4,1.4,0,0,1,.68.17,1.74,1.74,0,0,0,.45.09l1.12-.38a7.5,7.5,0,0,1,1.26,0l1.43,0a5.68,5.68,0,0,1,2.11.26,1.57,1.57,0,0,1,.87,1.62,1.91,1.91,0,0,1-.14.61,1.67,1.67,0,0,0-.12.37c.08.17.17.43.28.75A6.63,6.63,0,0,1,21,74.7Zm-.84-2c0-.08-.13-.22-.4-.43s-.33-.39-.35-.42c-.12-.51-.78-.75-2-.72a9.82,9.82,0,0,1-1.85.11A2.45,2.45,0,0,1,14.44,71a.78.78,0,0,0-.37-.19,1,1,0,0,0-.5.26,1.91,1.91,0,0,1-.77.35l-.84.11c-.42.11-.63.27-.63.47a3.07,3.07,0,0,0,.09.33,2.06,2.06,0,0,1,0,.73,3.19,3.19,0,0,0,.42,2.2.73.73,0,0,0,.5.3,3.84,3.84,0,0,1,1.05.26,3.32,3.32,0,0,1,.51.33,1.34,1.34,0,0,0,.31.23c-.05,0,.1-.08.44-.23a4.38,4.38,0,0,1,1.69-.23A6.71,6.71,0,0,0,19,75.52a1,1,0,0,0,.58-.86,6.27,6.27,0,0,1,.17-1.24,1.79,1.79,0,0,1,.16-.33A1.08,1.08,0,0,0,20.13,72.74Z" fill="#231815"/>
        <path d="M20.6,105.26c0,.47-.59.71-1.73.73h-1q-3.43-.08-6.77-.26c-.61,0-1.31,0-2.1,0-1,0-1.6,0-1.95,0a3.52,3.52,0,0,1-1.31-.19l-.44-.16a1,1,0,0,0-.47.21,1.2,1.2,0,0,1-.68.23c-.49,0-1,0-1.64,0-1,0-1.52-.21-1.52-.65,0-.25.16-.46.49-.63a2.45,2.45,0,0,1,1.24-.29,4.94,4.94,0,0,1,1.73.29l.63.25a2.56,2.56,0,0,0,.52-.23,2.79,2.79,0,0,1,.59-.28,3.73,3.73,0,0,1,1.21-.19c1.3.06,2-.58,2-1.94,0-.35,0-1,.07-2s.1-1.52.1-1.94A4.22,4.22,0,0,0,9.4,96.9c-.06-.22-.36-.37-.89-.47a4.08,4.08,0,0,1-.72-.21A3.48,3.48,0,0,0,7,95.94c-.06,0-.16.07-.28.21a1.7,1.7,0,0,1-.54.28,5.76,5.76,0,0,1-2,.24,1,1,0,0,1-.7-.26.68.68,0,0,1-.33-.56c0-.56.63-.85,1.87-.85a6,6,0,0,1,1.22.17,1.14,1.14,0,0,1,.54.21l.24.07a1.14,1.14,0,0,0,.49-.19A3.38,3.38,0,0,1,8.19,95l.89-.14a.73.73,0,0,0,.51-.45A7,7,0,0,0,9.73,93a1.62,1.62,0,0,1,.17-.68.59.59,0,0,1,.16-.23.68.68,0,0,0,.12-.38,1.46,1.46,0,0,0-.07-.3,1.66,1.66,0,0,1-.19-.26,4.18,4.18,0,0,1-.28-.91l-.1-.61q-.06-.32-.93-.54a3.71,3.71,0,0,0-1.1-.24,1.69,1.69,0,0,1-.68-.14,2.46,2.46,0,0,0-.45-.14,1.59,1.59,0,0,0-.72.17,1.75,1.75,0,0,1-.59.23,9.19,9.19,0,0,1-1,.14,6.52,6.52,0,0,1-1,0c-.7,0-1.05-.22-1.05-.65a1.18,1.18,0,0,1,.05-.29c.15-.37,1-.56,2.69-.56a2,2,0,0,1,.91.28,2.13,2.13,0,0,1,.47.28c.11,0,.24-.09.38-.28a3.66,3.66,0,0,1,2-.3l3.45,0,.21,0,.28,0,1.47-.07,1.46-.07.7,0c.51,0,.92.07,1.22.07,1.37,0,2.08.18,2.13.56s-.24.67-.87.79a2.88,2.88,0,0,1-1.17.1l-3.77-.12a3.16,3.16,0,0,0-1.62.26,2.54,2.54,0,0,0-.86,1.78.77.77,0,0,1-.26.44c-.16.16-.23.28-.23.35l.21.43a1.32,1.32,0,0,1,.21.58,6.37,6.37,0,0,0,.07,1.52,1.08,1.08,0,0,0,1.26.66c.17,0,.91,0,2.2.07l2.25-.07a2.22,2.22,0,0,1,1.08.21c.45.17.68.41.68.7s-.41.57-1.24.57c-.27,0-.6,0-1,0a9.09,9.09,0,0,0-.94-.07h-3a1.38,1.38,0,0,0-.8.35c-.33.2-.5.38-.52.54a7.17,7.17,0,0,0-.16,1.5c0,.45,0,1,0,1.78s0,1.37,0,1.54a3.71,3.71,0,0,0,.23,1.57,1.69,1.69,0,0,0,1.64.8h.63l.61,0,4.33,0a5,5,0,0,1,1.27.16C20.3,104.72,20.6,105,20.6,105.26Zm-2.79-3.58c0,.53-.21.8-.63.8a1.18,1.18,0,0,1-.87-.52q-.22-.49-.63-1.26a6.21,6.21,0,0,0-1.5-1.06c-.56-.3-.83-.55-.82-.75a.7.7,0,0,1,.33-.51,1,1,0,0,1,.63-.22,1,1,0,0,1,.75.43s.18.31.54.89l.87.51a3.21,3.21,0,0,1,1.17,1A1.36,1.36,0,0,1,17.81,101.68Z" fill="#231815"/>
        <path d="M10.13,128a1,1,0,0,1-.23.57c-.16.23-.32.35-.5.35A2.5,2.5,0,0,1,7.86,128a4.57,4.57,0,0,0-1-.82c-.28,0-.42.7-.42,2.09v.65a3.28,3.28,0,0,0,0,.4s0,.45,0,1.31q0,1,0,1.5c0,.31,0,.69,0,1.13a1.76,1.76,0,0,1-.28.72c-.17.31-.35.47-.54.47s-.5-.23-.65-.7a2.62,2.62,0,0,1-.17-1c0-.36,0-.86,0-1.5A24.39,24.39,0,0,0,5,128.44v-.7a.36.36,0,0,0-.39-.37,5.34,5.34,0,0,0-.87.82c-.64.65-1.06,1.07-1.27,1.26a2.15,2.15,0,0,1-1.45.66.86.86,0,0,1-.63-.26.93.93,0,0,1-.28-.66.77.77,0,0,1,.42-.72c2.87-1.49,4.31-3,4.31-4.52a3.27,3.27,0,0,0-.19-1.36,1.05,1.05,0,0,0-1-.56A1.09,1.09,0,0,1,3.1,122a.55.55,0,0,1-.18-.19s-.21.06-.5.23a1.91,1.91,0,0,1-.81.21c-.83,0-1.25-.2-1.25-.6a.78.78,0,0,1,.4-.71,1.07,1.07,0,0,1,.75-.23,4.74,4.74,0,0,1,.82,0c.2.07.33.14.38.24A.39.39,0,0,0,3,121l1.17-.42c.19,0,.36-.37.51-1a6.27,6.27,0,0,0,.26-1.29,1.69,1.69,0,0,1,.16-.46,1.49,1.49,0,0,0,.12-.43c0,.14-.08-.1-.23-.72a3,3,0,0,1-.14-1c0-.55.25-.82.75-.82a.84.84,0,0,1,.61.28.91.91,0,0,1,.3.73,1.6,1.6,0,0,1-.26,1,.92.92,0,0,0-.19.56,1.3,1.3,0,0,0,.12.66c0,.34.08.69.14,1.05,0,.61.15,1,.35,1.13a1.83,1.83,0,0,0,.73.14l.66,0c.92.1,1.38.39,1.38.89,0,.35-.14.54-.42.59s-.69.11-1.31.19a1.47,1.47,0,0,0-1,.49,1.07,1.07,0,0,0-.28.68,3.22,3.22,0,0,1,.19.58,4.19,4.19,0,0,0,1.26,2c.21.19.73.57,1.57,1.15C9.89,127.41,10.13,127.7,10.13,128Zm11.22,6.16A1.33,1.33,0,0,1,21,135c-.2.29-.4.44-.6.44q-1.7,0-5-3a1.34,1.34,0,0,0-.79-.23,1.1,1.1,0,0,0-.75.07A11.81,11.81,0,0,1,11,133.85c-.25.13-.68.33-1.31.61a3,3,0,0,1-1.24.26,1.33,1.33,0,0,1-1.17-.44,1,1,0,0,1-.21-.66.68.68,0,0,1,.63-.77,5.39,5.39,0,0,0,.89-.1c.3-.07.87-.2,1.71-.37a6.84,6.84,0,0,0,2.11-.8,2.73,2.73,0,0,0,.66-.61,1.19,1.19,0,0,0,.28-.72q-.29-.66-.57-1.29a6.37,6.37,0,0,1-.44-1.34c0-.11,0-.19-.19-.25a1,1,0,0,1-.37-.4q-.4-.73-1.17-1.92a2.19,2.19,0,0,0-.43-.26l-.28-.09c-.22,0-.32-.19-.3-.52,0-.59.51-.91,1.47-1h.52c.23,0,.41,0,.52,0,.68,0,1.12-.17,1.31-.51a1.58,1.58,0,0,0,.51-.56,5,5,0,0,0,0-1.38.82.82,0,0,0-.65-.75l-.59.07a6.38,6.38,0,0,1-1-.12l-.24-.09a.38.38,0,0,0-.33-.12,2.73,2.73,0,0,1-.28.4.86.86,0,0,1-.68.21l-.32,0a3,3,0,0,1-.36,0c-.35,0-.5-.28-.42-.74s.31-.72.92-.75a1.33,1.33,0,0,1,.63.16l.51.16.33,0a2.11,2.11,0,0,1,.49-.07,1.94,1.94,0,0,1,.66-.26,3.83,3.83,0,0,0,.82-.12,1.26,1.26,0,0,0,.61-.65,1.34,1.34,0,0,0,0-.5c-.06-.32-.1-.5-.1-.51a1,1,0,0,0-.16-.49l-.19-.28a2.52,2.52,0,0,1-.14-.92.71.71,0,0,1,.35-.49,1.22,1.22,0,0,1,.73-.23,1.29,1.29,0,0,1,.8.39.86.86,0,0,1,.42.68.54.54,0,0,1-.14.4,3.55,3.55,0,0,0-.26.28,1.37,1.37,0,0,0-.09.49,2.62,2.62,0,0,0,0,.43.79.79,0,0,1,.05.37.64.64,0,0,0,.35.7,2,2,0,0,0,.87.24c.75,0,1.33,0,1.73,0,.8,0,1.21-.06,1.24,0,.77,0,1.15.22,1.15.68s-.53.82-1.59.82q-.21,0-1.08-.09c-.58,0-1-.07-1.36-.07-.61,0-.93,0-1,.12a5.29,5.29,0,0,0-.38,1c-.11.6-.06,1,.14,1.08a5,5,0,0,0,.71.54,1.28,1.28,0,0,1,.51.3,1.76,1.76,0,0,0,.42.21,1.79,1.79,0,0,0,.5,0l.46,0a.79.79,0,0,1,.45.17,1.33,1.33,0,0,0,.35.09c.33,0,.49.19.49.47a.55.55,0,0,1-.3.47,3,3,0,0,0-.35.23c-.16.39-.33.9-.52,1.53a2.15,2.15,0,0,1-.49,1.07,1.73,1.73,0,0,0-.35.52,6.18,6.18,0,0,1-.82,1.92,2.3,2.3,0,0,0-.49,1.29.61.61,0,0,0,.11.4,5.35,5.35,0,0,0,1,.79l1,.63a3.21,3.21,0,0,0,1.13.43,7.23,7.23,0,0,1,1.16.28C21.07,133.66,21.35,133.88,21.35,134.11Zm-4.69-8c0-.29,0-.59.05-.89a1.33,1.33,0,0,0-.14-.79,1.9,1.9,0,0,0-1.33-.45,7,7,0,0,0-1.67.19,1.61,1.61,0,0,0-.75.3.68.68,0,0,0-.35.59,9,9,0,0,0,.28,1.66.8.8,0,0,1,.14.42.56.56,0,0,0,.07.26,2,2,0,0,1,.54.73,1.48,1.48,0,0,1,.19.35c.27.31.43.49.49.54a2.22,2.22,0,0,0,.68.14,1.22,1.22,0,0,0,1.06-.61,1.53,1.53,0,0,0,.44-.82,6.71,6.71,0,0,1,.12-.75A4.6,4.6,0,0,0,16.66,126.1Z" fill="#231815"/>
      </g>
    </g>
  </g>
</svg>
