<svg xmlns="http://www.w3.org/2000/svg" width="21.36" height="135.41" viewBox="0 0 21.36 135.41">
  <title>footer-word-1</title>
  <g id="圖層_2" data-name="圖層 2">
    <g id="menu">
      <g>
        <path d="M20.87.85a.85.85,0,0,1-.5.69,7.88,7.88,0,0,1-1.22,0l-2-.09a4.15,4.15,0,0,0-1.27.12,12.15,12.15,0,0,0-1.53.56,12.59,12.59,0,0,0-1.67,1.48,4.73,4.73,0,0,0-.78,1.7c-.08.31-.16.63-.26,1a14.12,14.12,0,0,0,0,1.81l.08,3.7a4.05,4.05,0,0,1-.15,1.6,1.17,1.17,0,0,0-.44.77.85.85,0,0,0,.28.5.88.88,0,0,1,.26.51,29.71,29.71,0,0,1,0,3c0,1-.3,1.47-.75,1.46s-.8-.45-.78-1.3l0-3.06a1.17,1.17,0,0,1,.19-.65,1.4,1.4,0,0,0,.12-.55,4.47,4.47,0,0,0-.26-.72,3.64,3.64,0,0,1-.17-1V8.08c0-.63-.28-1-.84-1a.7.7,0,0,0-.61.43,1,1,0,0,0-.17.56,1.17,1.17,0,0,1-.19.57,3.07,3.07,0,0,1-.89,1.2c-.61.59-1.65,1.51-3.11,2.75-.37.2-.76.43-1.17.68a2.56,2.56,0,0,1-1.27.33c-.61,0-.92-.25-.92-.75,0-.33.31-.66.92-1,.34-.17.68-.34,1-.49a22.65,22.65,0,0,0,2.35-1.35s.72-.68,2-2a2.3,2.3,0,0,1,.69-.49l.47-.28A.47.47,0,0,0,8.33,7a.71.71,0,0,1,.19-.49c.11-.19.33-.51.66-1,.21-.22.51-.51.89-.87a3.9,3.9,0,0,0,.68-.66l.78-.94a1.51,1.51,0,0,0,.3-.82,1.44,1.44,0,0,0,0-.24,1.16,1.16,0,0,0-.52-.54.88.88,0,0,0-.49,0h-.38l-1.1,0a9.6,9.6,0,0,0-2.59.05,3.25,3.25,0,0,1-1.37-.24,4.71,4.71,0,0,1-.63-.25c-.08,0-.23.09-.45.28a.66.66,0,0,1-.45.26H3.51a7.94,7.94,0,0,1-1.28.14q-1.5,0-1.5-.9C.73.46,1,.2,1.58.08A3.54,3.54,0,0,1,3.13.1,3.05,3.05,0,0,1,4.3.31l.45.24a7.75,7.75,0,0,0,1-.31A2.62,2.62,0,0,1,6.82,0L18.87,0a5.56,5.56,0,0,1,1.2.09C20.6.26,20.87.51,20.87.85Zm-.14,11.77c.17.28.07.62-.31,1a1,1,0,0,1-.71.4,1.72,1.72,0,0,1-.77-.37,16.33,16.33,0,0,1-1.55-1.13c-.8-.77-1.27-1.24-1.39-1.39a3.3,3.3,0,0,1-.71-1q-.13-.28-.33-.78A.43.43,0,0,0,14.63,9,2.13,2.13,0,0,1,14,8.71a5.11,5.11,0,0,1-.66-.82,2.35,2.35,0,0,1-.52-.8.7.7,0,0,1,.33-.78.8.8,0,0,1,.45-.16,1.19,1.19,0,0,1,.78.42,4.22,4.22,0,0,0,.33.49,1.78,1.78,0,0,1,.49.54c.25.35.34.59.26.71a2.54,2.54,0,0,0-.12.66c0,.14.16.27.38.38a4.54,4.54,0,0,0,.68.28l1.44,1c.48.33,1.15.77,2,1.32A6,6,0,0,1,20.73,12.62Z" fill="#231815"/>
        <path d="M11.32,35.4c0,.28-.2.54-.59.78A5.23,5.23,0,0,0,9.64,37a3.93,3.93,0,0,0-.46.89,6.88,6.88,0,0,1-.26.73,10.83,10.83,0,0,0-.57,1.06,8.31,8.31,0,0,1-.3,1.57,5.72,5.72,0,0,1-.71,1.41,2.45,2.45,0,0,0-.47,1.11,1.11,1.11,0,0,0,.61.92l1.13.78a11.48,11.48,0,0,1,1.22.72c.4.22.6.46.62.71a1.14,1.14,0,0,1-.17.82.68.68,0,0,1-.59.4,3.73,3.73,0,0,1-1.79-1,7.47,7.47,0,0,1-1.31-1.22,1.23,1.23,0,0,0-1-.52.91.91,0,0,0-.63.28c-.32.24-.74.59-1.27,1.06-.3.22-.72.49-1.25.8a3.56,3.56,0,0,1-1.32.47c-.33,0-.49-.25-.49-.8s.33-.88,1-1.27,1.23-.59,1.86-.92.86-.64.79-1a5.53,5.53,0,0,0-.75-.9,3.32,3.32,0,0,1-.82-1.76,8,8,0,0,1-.07-1.37,3.71,3.71,0,0,1,.26-1.08,3.14,3.14,0,0,0,.19-.49A2.17,2.17,0,0,0,3,38a1.38,1.38,0,0,1-.18-.59,2.34,2.34,0,0,1,.07-.35c0-.27.07-.41.07-.43,0-.23-.11-.35-.33-.35l-.73,0c-.43,0-.67,0-.73,0-.39,0-.59-.24-.59-.71a.76.76,0,0,1,.57-.82l1.41,0a1.5,1.5,0,0,0,1.27-.5,5.84,5.84,0,0,0,.37-1.29,1.66,1.66,0,0,1,.43-.78,1.94,1.94,0,0,0,.33-.47.57.57,0,0,0-.07-.44,1.49,1.49,0,0,1-.1-.52,7.23,7.23,0,0,1,.1-1,2.72,2.72,0,0,1,.4-1.15A1,1,0,0,1,6,28.3a.73.73,0,0,1,.59.3,1,1,0,0,1,.26.64,1.54,1.54,0,0,1-.1.45,1.63,1.63,0,0,0-.16.47A2.44,2.44,0,0,1,6,31.38l-.61.71a.39.39,0,0,0,0,.16,1.88,1.88,0,0,0,0,.28,1.14,1.14,0,0,1,.07.38,3.27,3.27,0,0,1,0,.4,2.4,2.4,0,0,0-.05.33q0,1,1.2,1c.19,0,.54,0,1-.07a8.51,8.51,0,0,1,1,0c.25,0,.71.06,1.39.09a1.89,1.89,0,0,1,.8.23C11.17,35,11.32,35.21,11.32,35.4Zm-4,.94a3,3,0,0,0-1-.33,1.93,1.93,0,0,0-2,1.34,3,3,0,0,0-.56.95,2.7,2.7,0,0,0,.09.94c.13.72.25,1.43.36,2.14q.39,1.32,1.41,1.32c.47,0,.89-.42,1.27-1.25.22-.49.45-1,.68-1.48a1.25,1.25,0,0,0,.33-.55s0-.07,0-.18a1.69,1.69,0,0,1,0-.43c0-.15,0-.48.07-1l.09-.71A1,1,0,0,0,7.29,36.34Zm12.8-2.91a4,4,0,0,1,0,.75c0,.38-.05.63-.05.77,0,.46,0,1.24-.07,2.33a1.62,1.62,0,0,1-.24.83.58.58,0,0,0-.18.52,5.31,5.31,0,0,1,.35,1,34.78,34.78,0,0,1,0,3.55,9.42,9.42,0,0,1-.44,3.29,2.26,2.26,0,0,1-2.1,1.06c-.19,0-.55,0-1.08-.07a4,4,0,0,0-.75,0h-.9a2.52,2.52,0,0,1-2.51-1.31,18.94,18.94,0,0,1-.19-4.75c0-.35,0-.79.07-1.32s.05-.78.05-.87a7.22,7.22,0,0,1,.32-2.66,1.62,1.62,0,0,0,.17-.71c-.06-.19-.12-.37-.17-.54a7.68,7.68,0,0,1-.09-1.17,5.13,5.13,0,0,1,.24-1.56A1.6,1.6,0,0,1,14,31.4q1.41-.09,2.28-.09a9.19,9.19,0,0,1,2.52.26,1.6,1.6,0,0,1,1.06.94A2.12,2.12,0,0,1,20.09,33.43Zm-1.18,5.13a3.18,3.18,0,0,0-.21-.8,8,8,0,0,1-.16-.9,2.59,2.59,0,0,1-.07-.63,5.37,5.37,0,0,1,.09-.92,6.13,6.13,0,0,0,.07-.75,2,2,0,0,0-.49-1.23,2.4,2.4,0,0,0-1.79-.56c-1.29-.1-2.11.13-2.47.68a4.18,4.18,0,0,0-.07,1.11s-.06.36-.16,1a9,9,0,0,0-.52,1,1.15,1.15,0,0,0,.14.54,3.53,3.53,0,0,1,.12.85c0,2-.05,3.4-.05,4.33a11,11,0,0,0,.19,2.66c.14.47.36.74.66.82A5.05,5.05,0,0,0,15.9,46q2.26,0,2.4-1.56t.21-4.26a8.32,8.32,0,0,1,.19-1,.69.69,0,0,1,.12-.24A.75.75,0,0,0,18.91,38.56Z" fill="#231815"/>
        <path d="M11.15,61.58c0,.61-.27.92-.8.92A3.76,3.76,0,0,1,8,61.16c-.17-.17-.57-.6-1.18-1.27-.36-.42-.59-.64-.68-.64a1.23,1.23,0,0,1-.28,0,.49.49,0,0,0-.24,0l-.51.44a1.44,1.44,0,0,1-.78.52c-.13,0-.14.21,0,.57l-.14.44a2.18,2.18,0,0,1-.4.57c-.27.3-.38.48-.35.54s.14.13.28.12c.38,0,.49-.08.35-.08l.26,0a3.08,3.08,0,0,1,.43,0l.37.12a3.37,3.37,0,0,0,.82.09.94.94,0,0,0,.36-.09.72.72,0,0,1,.35-.21A5.62,5.62,0,0,1,8,62.1a2.77,2.77,0,0,1,.8.12c.36.14.53.3.52.49s-.22.5-.64.64a3.08,3.08,0,0,1-1.13.16,2.88,2.88,0,0,1-1.13-.21,3.16,3.16,0,0,0-.56-.24c-.1,0-.21.08-.36.24a.81.81,0,0,1-.58.26c-.22,0-.56,0-1,.12a3.06,3.06,0,0,1-.65,0,.81.81,0,0,1-.66-.26.71.71,0,0,1-.12-.23c0-.1,0-.15-.05-.15a6.28,6.28,0,0,0-.77.4,4,4,0,0,1-.9.5c-.3,0-.5-.32-.61-1,0-.18.17-.41.5-.68s1-.58,1.85-1.08a12.37,12.37,0,0,1,1.3-.92c.12,0,.19-.09.19-.19q-.1-.43,0-.54c.1-.34.33-1,.71-2a1.07,1.07,0,0,1,1.06-.76c.51,0,1,.57,1.29,1.65,0,0,.25.25.71.66.2.2.51.48.91.82s1.26.68,2.22,1.23A.46.46,0,0,1,11.15,61.58Zm-1.34,8.1a1.44,1.44,0,0,1-1,1.13A3.61,3.61,0,0,1,7.43,71a4.33,4.33,0,0,1-1.1-.16A.46.46,0,0,1,6,70.66c-.09-.11-.17-.16-.23-.16a6.43,6.43,0,0,1-1.06.42c-.63,0-1,.25-1.18.59a2.56,2.56,0,0,0,0,.68,3.3,3.3,0,0,1,.05.64,1.18,1.18,0,0,1-.19.44.55.55,0,0,0-.12.31.48.48,0,0,0,.21.38l.4.28a1.7,1.7,0,0,0,.59.19,1.79,1.79,0,0,0,.42.07,1.87,1.87,0,0,0,1-.38c.43-.25.64-.51.66-.77,0,0-.09-.17-.26-.36a1,1,0,0,1-.23-.52c0-.32.29-.49.82-.49a2.41,2.41,0,0,1,.75.4,2.63,2.63,0,0,1,.83.71c.14.17.34.45.61.84a1.9,1.9,0,0,1,.42.43.86.86,0,0,1,.21.44c.08.22,0,.42-.28.59a1,1,0,0,1-.73.28c-.09,0-.22-.09-.38-.28a1,1,0,0,0-.37-.28A1.49,1.49,0,0,0,7.1,75q-.1-.08-.87.24a32.63,32.63,0,0,1-4.11,1.85,6.42,6.42,0,0,1-1,.36c-.27,0-.4-.23-.4-.69s.29-.7.89-1A1.19,1.19,0,0,0,2,75.44a1.29,1.29,0,0,0,.31-.64,6.46,6.46,0,0,0,.14-.75c.06-.14.14-.33.23-.56s0-.25-.11-.47a1.89,1.89,0,0,1-.21-.69,10.46,10.46,0,0,1-.05-1.55,5.9,5.9,0,0,1,.12-1.34c0-.27,0-1-.15-2l-.14-1.67c0-.84.67-1.27,2-1.27a2.28,2.28,0,0,1,1.13.24,2.14,2.14,0,0,0,.4.21,1.09,1.09,0,0,0,.69-.21,1.09,1.09,0,0,1,.77-.24h.68c.32,0,.54,0,.66,0a1.56,1.56,0,0,1,1.06.35,1.65,1.65,0,0,1,.14.68c0,.31.06.61.07.89.05.52.09,1.17.12,2A4,4,0,0,1,9.81,69.68Zm-1.36-.9c0-.15-.22-.3-.64-.44A5.27,5.27,0,0,0,6,68a1.19,1.19,0,0,0-.31.09,1.2,1.2,0,0,1-.38.14c-.22,0-.56.11-1,.24a1.94,1.94,0,0,0-.64.35,1.19,1.19,0,0,0-.09.54.62.62,0,0,0,.26.43,3.69,3.69,0,0,0,.84,0l.5.09.49.16a.36.36,0,0,0,.28-.14.68.68,0,0,1,.33-.09c.38,0,.68,0,.9,0a1.6,1.6,0,0,0,1-.23A.89.89,0,0,0,8.45,68.78Zm-.1-2.56c0-.3-.3-.54-.92-.73l-.91,0a2.28,2.28,0,0,1-.62-.26,1.47,1.47,0,0,0-.54.24,1.45,1.45,0,0,1-.61.21H4.09c-.33.06-.49.32-.49.78a.65.65,0,0,0,.52.7c.25,0,.58,0,1,0a1.11,1.11,0,0,1,.37.16.64.64,0,0,0,.31.12.43.43,0,0,0,.26-.12l.26-.16a1.12,1.12,0,0,1,.7-.07l.17,0,.3,0c.13,0,.31-.13.54-.38A.91.91,0,0,0,8.35,66.22Zm12.73,9.41a.56.56,0,0,1,.28.49.89.89,0,0,1-.38.68.93.93,0,0,1-.7.36.82.82,0,0,1-.31-.07,5.74,5.74,0,0,1-2-2,12.42,12.42,0,0,1-1.6-3.6q0-.16-.33-.21a.74.74,0,0,1-.35-.26,2.71,2.71,0,0,0-.21-.56.6.6,0,0,0-.4-.15c-.25,0-.49.26-.71.8a1.11,1.11,0,0,0-.19.5l.1.23a.74.74,0,0,1,0,.33A4.34,4.34,0,0,1,13.6,74a11,11,0,0,1-1.08,1.63c-.8,1-1.45,1.53-1.93,1.53-.21,0-.41-.14-.62-.43a1,1,0,0,1-.28-.58,1,1,0,0,1,.38-.62,10.48,10.48,0,0,0,2.42-2.65c.75-1.16,1.13-1.72,1.13-1.68s0,0-.07-.23a1.29,1.29,0,0,1-.05-.56c.16-1.29.24-1.89.24-1.79a5.46,5.46,0,0,0,.12-1c0-.63.05-1.49.07-2.57a.62.62,0,0,1,.19-.54.56.56,0,0,1,.35-.21,1.21,1.21,0,0,1,1,.52.69.69,0,0,1,.1.65.33.33,0,0,0-.07.24,4.72,4.72,0,0,0,.11.61,3.9,3.9,0,0,1,.1.85,3.52,3.52,0,0,0,.35,1.1c.27.68.45,1.18.54,1.51a5.72,5.72,0,0,0,.07,1,4,4,0,0,1,.76.54c.2.26.47.64.82,1.12.09.1.46.56,1.1,1.39A7.4,7.4,0,0,0,21.08,75.63Zm-.64-13a.73.73,0,0,1-.09.37,4.44,4.44,0,0,0-.21.59,5.81,5.81,0,0,1-.71,2A14.35,14.35,0,0,1,18.28,67a3.2,3.2,0,0,1-.38.29,1,1,0,0,1-.54.28.52.52,0,0,1-.45-.24.82.82,0,0,1-.11-.49q0-.28.84-1.11c.55-.51.83-.9.83-1.15a3,3,0,0,0-.1-1c-.15-.33-.63-.5-1.43-.5a7.08,7.08,0,0,0-2.8.4,2.05,2.05,0,0,0-.8.78l-.52.71-.56.61c-.51.67-1,1-1.39,1a.66.66,0,0,1-.57-.35,1,1,0,0,1-.21-.64,1.34,1.34,0,0,1,.24-.56,12.31,12.31,0,0,0,1.95-1.77,4.78,4.78,0,0,0,.85-1.31c.12-.41.25-.81.37-1.2a4.17,4.17,0,0,0,.31-.57c0,.06-.05-.23-.05-.89,0-1.27.28-1.91.83-1.91a1.07,1.07,0,0,1,.35.12c.27.11.42.24.47.4a.88.88,0,0,1,0,.42l-.22.47a3.66,3.66,0,0,1-.21.9,1.27,1.27,0,0,1-.44.49.65.65,0,0,0-.26.5c0,.53.51.87,1.53,1a14.38,14.38,0,0,0,2.63.24l.47-.12.5-.1a1.05,1.05,0,0,1,.68.33A.89.89,0,0,1,20.44,62.67Z" fill="#231815"/>
        <path d="M21.17,97c0,.58-.56.85-1.69.8-.69,0-1.47,0-2.33-.11a13,13,0,0,0-2,0,15.44,15.44,0,0,0-2,0,1,1,0,0,0-.56.35,1.09,1.09,0,0,0-.45.85V100a26,26,0,0,1-.38,4.24c-.3,1.63-1.53,2.44-3.71,2.44a9.66,9.66,0,0,1-2.15-.42C4.6,105.91,4,105.48,4,105a.82.82,0,0,1,.28-.57.83.83,0,0,1,.55-.25s.45.13,1.27.4A7.68,7.68,0,0,0,7.6,105a3.45,3.45,0,0,0,1.88-.38,2.71,2.71,0,0,0,.87-1.2,3.1,3.1,0,0,0,.33-1.48l0-2.23q0-.49-.09-1.23a1.43,1.43,0,0,0-.78-.77,5.17,5.17,0,0,0-1.67-.07L5,97.85a1.49,1.49,0,0,1-.54-.18A1.67,1.67,0,0,0,4,97.45a2.29,2.29,0,0,0-.44.24,1.56,1.56,0,0,1-.92.28H2.38L1.11,98a1.27,1.27,0,0,1-.66-.21Q0,97.55,0,97.29c0-.42.28-.7.85-.83.17,0,.54,0,1.1,0a3,3,0,0,1,1.3.24,1.6,1.6,0,0,0,.58.23.85.85,0,0,0,.43-.16l.28-.12a5.73,5.73,0,0,1,1.06-.19,12,12,0,0,1,2.14-.21,12.5,12.5,0,0,0,1.55-.07c.6-.13.9-.45.9-1,0-.16,0-.37,0-.66a1.72,1.72,0,0,1,.21-.87c.13-.28.24-.54.33-.77s0-.18-.12-.29a1.2,1.2,0,0,1-.3-.58,8.07,8.07,0,0,1-.19-1.28A1,1,0,0,0,9,89.86l-2,.21a1.75,1.75,0,0,0-.75,0,12.08,12.08,0,0,1-1.41.07.9.9,0,0,1-.61-.26A.85.85,0,0,1,4,89.34c0-.46.38-.68,1.15-.68a4.4,4.4,0,0,1,.8.07l1.48,0c.28,0,1.44-.17,3.46-.52a5.11,5.11,0,0,0,2-.75,7.36,7.36,0,0,0,1-1c.42-.42.74-.63.94-.63a1,1,0,0,1,.85.44,1.35,1.35,0,0,1,.33.92.88.88,0,0,1-1,1,3.53,3.53,0,0,0-2,.85,3.79,3.79,0,0,0-1.38,1.76A4.49,4.49,0,0,0,11.39,92a1.27,1.27,0,0,1-.29.68.12.12,0,0,0,0,.07.52.52,0,0,0,.19.33l.16.26a1.49,1.49,0,0,1,.33.77,5.44,5.44,0,0,0,0,.57,2.41,2.41,0,0,0,.3,1,1,1,0,0,0,.92.49q1.13,0,4.47-.09c.33,0,.86,0,1.6.07l1.29.07C20.91,96.25,21.17,96.5,21.17,97ZM8.92,94.47a1.41,1.41,0,0,1-.17.44.48.48,0,0,1-.38.26,4.25,4.25,0,0,1-2.09-.82c-.56-.41-1.14-.8-1.72-1.18A6.53,6.53,0,0,1,3.79,93a.63.63,0,0,1-.54-.66c0-.53.35-.8,1-.8s1.1.13,1.18.38c.1.45.71.92,1.84,1.39S8.92,94.14,8.92,94.47Zm9.92-2.9c0,.41-.43.86-1.24,1.34-1,.63-2.19,1.38-3.46,2.26a.39.39,0,0,1-.28.07c-.54,0-.8-.13-.8-.4s.33-.82,1-1.24l1.55-1a5,5,0,0,0,1.44-1.86.93.93,0,0,1,.73-.4,1,1,0,0,1,.73.49A1.38,1.38,0,0,1,18.84,91.57Z" fill="#231815"/>
        <path d="M10.77,130.54a.93.93,0,0,1,.17.49c0,.55-.39.79-1.15.73-.51,0-.91,0-1.2,0-1.16,0-1.8.22-1.91.64,0,.08,0,.61-.12,1.6s-.24,1.46-.58,1.46-.39-.16-.55-.47a2.23,2.23,0,0,1-.18-1c0-.19,0-.44,0-.76l0-.52c0-.56-.47-.94-1.41-1.12l-.59,0a5.72,5.72,0,0,0-1,.12,4.34,4.34,0,0,1-1.06,0c-.59-.1-.89-.39-.89-.87a.72.72,0,0,1,.28-.57,1,1,0,0,1,.82-.14c.29,0,1.2.11,2.76.19.73.06,1.12-.25,1.15-.94a1.47,1.47,0,0,0-.19-.87c-.22-.33-.74-.46-1.55-.38a2,2,0,0,1-1.95-1,3.39,3.39,0,0,1-.45-2c0-.79,0-1.57,0-2.36.13-1,.58-1.53,1.37-1.53a12.55,12.55,0,0,0,1.5,0,1.86,1.86,0,0,0,1-.54,1.3,1.3,0,0,0,.23-.92.52.52,0,0,0-.49-.33l-.85-.17L3.65,119a.45.45,0,0,0-.29-.18.4.4,0,0,0-.23.09,3.18,3.18,0,0,1-1.41.3c-.76,0-1.12-.25-1.11-.77s.28-.66.78-.66a4.28,4.28,0,0,1,1.13.23,3,3,0,0,0,.63.15.77.77,0,0,1,.68-.26c.54,0,.77,0,.69,0,.73-.09,1-.46.91-1.1a2.22,2.22,0,0,1-.14-.47,2.52,2.52,0,0,1-.07-1q0-.51.87-.51a.85.85,0,0,1,.92.66,1.49,1.49,0,0,1-.09.54l-.24.68a1.65,1.65,0,0,0-.09.49c0,.52.4.73,1.2.64a13.44,13.44,0,0,1,2.35-.12c.61.16.92.42.92.8s-.4.49-1.18.54a15.07,15.07,0,0,0-1.79-.07l-1,.09a.74.74,0,0,0-.52.69,1,1,0,0,0,.38,1,2.83,2.83,0,0,0,.89.14,3.36,3.36,0,0,1,2.21.64,2.47,2.47,0,0,1,.57,1.76c.06,1.33.09,1.94.09,1.81,0,1.1-.2,1.8-.61,2.12-.2.12-.42.27-.64.42a3.46,3.46,0,0,1-1.64.4,1.14,1.14,0,0,0-.83.47,1.31,1.31,0,0,0-.42.87c0,.47.31.73.92.78l.63,0,1.13,0C10.09,130.23,10.59,130.33,10.77,130.54ZM8.59,124c.55,0,.82-.29.82-.75s-.39-.9-1.18-1c-.23,0-.5,0-.8,0-.53,0-1.2,0-2,.11-.36,0-.71.06-1,.07a2.67,2.67,0,0,1-.64-.07,1.71,1.71,0,0,0-.59-.14c-.12,0-.26.1-.42.28a1,1,0,0,0-.26.64c0,.53.46.94,1.39,1.22a1.36,1.36,0,0,0,.42.07.93.93,0,0,0,.47-.14,2.21,2.21,0,0,1,.52-.11,12.78,12.78,0,0,1,2-.12A13.27,13.27,0,0,0,8.59,124Zm.59,2.43a.58.58,0,0,0,.11-.31c0-.61-.77-.92-2.3-.92H6.12a3,3,0,0,1-1.72-.28l-.1,0a1.5,1.5,0,0,0-.4.14.94.94,0,0,1-.37.16,1,1,0,0,0-.68.24.91.91,0,0,0-.29.66c0,.45.36.76,1.09.92a14.79,14.79,0,0,0,2.63,0C8,127,9,126.74,9.18,126.4Zm11.31-6.75c-.06.15-.34.26-.82.32H19a7.15,7.15,0,0,1-1.41.1l-1.46,0a10.53,10.53,0,0,0-1.81.16,2.88,2.88,0,0,0-1.27.52l-.69.61c-.58.41-.95.6-1.13.56-.56-.09-.84-.36-.84-.8a.79.79,0,0,1,.47-.84c.16-.07.56-.29,1.22-.68a2.12,2.12,0,0,0,.83-1c0-.15.05-.3.25-.44a1.22,1.22,0,0,0,.38-.26l-.14-.43c.41-1.88.82-2.76,1.25-2.63.64.19,1,.46,1,.82a1.82,1.82,0,0,1-.37,1.11,8.19,8.19,0,0,0-.66.89,1.29,1.29,0,0,1-.66.45.58.58,0,0,1,.09.26,1.47,1.47,0,0,0,.4.37,2.94,2.94,0,0,0,1.37.15,3,3,0,0,0,1-.1l.95-.07q1.13-.09,1.62-.09a2.51,2.51,0,0,1,.37,0c.6,0,.9.2.9.59A1.25,1.25,0,0,1,20.49,119.65Zm.35,12.72c0,.52-.45,1.15-1.36,1.89a5.48,5.48,0,0,1-3.41,1,3.79,3.79,0,0,1-2.9-1,2.78,2.78,0,0,1-.61-1.86,8.12,8.12,0,0,1,.85-3.25q.46-.91,1-1.83a1.52,1.52,0,0,1,.7-.85c.27-.09.43-.2.47-.33a.69.69,0,0,0,.22-.45,2,2,0,0,1,.09-.47,5.24,5.24,0,0,1,.42-.56,1.72,1.72,0,0,0,.38-.71c0-.15-.12-.23-.35-.23l-.33,0c-.46,0-1,.1-1.67.19a5.47,5.47,0,0,1-.92.09c-.55,0-.89-.18-1-.56a.82.82,0,0,1,0-.26c0-.31.24-.48.73-.49a9.45,9.45,0,0,1,1.31-.19c.47,0,1,0,1.56,0a3.32,3.32,0,0,1,1.34-.23,1.55,1.55,0,0,1,.92.47,1.09,1.09,0,0,1,.47.91,2.14,2.14,0,0,1-.8,1.49c-.27.22-.75.55-1.44,1a1.08,1.08,0,0,0-.52.61l-.14.68a25.6,25.6,0,0,1-1.1,2.43A5.83,5.83,0,0,0,13.9,132q.21,1.77,2.4,1.77a3.34,3.34,0,0,0,1.81-.38,7.1,7.1,0,0,0,.95-1,1.71,1.71,0,0,1,1.08-.68C20.61,131.74,20.84,132,20.84,132.37Z" fill="#231815"/>
      </g>
    </g>
  </g>
</svg>
