<svg xmlns="http://www.w3.org/2000/svg" width="333.74" height="88.3" viewBox="0 0 333.74 88.3">
  <title>idnex-scrolldown</title>
  <g id="圖層_2" data-name="圖層 2">
    <g id="TEXT">
      <g>
        <path d="M54.53,18.29a6.82,6.82,0,0,1-3,5.9A10.92,10.92,0,0,1,45,26.06q-6,0-9.36-3.38l3.24-3.24a8.4,8.4,0,0,0,6.2,2.16q4.53,0,4.53-3.17,0-2.62-3.06-3.06l-3.09-.44Q36.67,14,36.67,7.77a7,7,0,0,1,2.67-5.83A9.79,9.79,0,0,1,45.6,0a11.42,11.42,0,0,1,8.28,3L50.7,6.12a7.38,7.38,0,0,0-5.27-1.76,4.58,4.58,0,0,0-2.74.75A2.87,2.87,0,0,0,41.46,7.6c0,1.6,1.06,2.55,3.17,2.84l3,.43Q54.54,11.85,54.53,18.29Z"/>
        <path d="M79.37,18a9.56,9.56,0,0,1-3.12,5.94,9.3,9.3,0,0,1-6.31,2.16A9.42,9.42,0,0,1,63,23.26a8.39,8.39,0,0,1-2.23-4.43A37.29,37.29,0,0,1,60.5,13a38,38,0,0,1,.29-5.79A8.08,8.08,0,0,1,63,2.81,9.49,9.49,0,0,1,69.94,0a9.26,9.26,0,0,1,6.31,2.14,9.78,9.78,0,0,1,3.12,6H74.29c-.57-2.42-2-3.64-4.32-3.64a4,4,0,0,0-3.49,1.7q-1,1.37-1,6.87v2.31c0,.45,0,.93.07,1.44Q66,21.6,70,21.6q3.42,0,4.32-3.64Z"/>
        <path d="M105.25,25.85H99.41l-5-10.23H90.85V25.85h-5V.22h10a8.55,8.55,0,0,1,6,2.12,7.35,7.35,0,0,1,2.34,5.72,6.61,6.61,0,0,1-4.68,6.74Zm-6-17.79a3.12,3.12,0,0,0-1-2.46,3.8,3.8,0,0,0-2.59-.92H90.85v6.77h4.72a3.83,3.83,0,0,0,2.61-.9A3.15,3.15,0,0,0,99.2,8.06Z"/>
        <path d="M129.62,13a38.29,38.29,0,0,1-.32,5.8,8,8,0,0,1-2.23,4.43,10,10,0,0,1-13.86,0A8.29,8.29,0,0,1,111,18.83a37.71,37.71,0,0,1-.28-5.8A38.37,38.37,0,0,1,111,7.24a8,8,0,0,1,2.24-4.43,10,10,0,0,1,13.86,0,8.42,8.42,0,0,1,2.23,4.43A35.24,35.24,0,0,1,129.62,13Zm-5,0V11.16c0-.72,0-1.34-.07-1.87q-.43-4.83-4.43-4.83c-2.57,0-4,1.61-4.43,4.83V13c0,1.66,0,2.91.07,3.75.31,3.21,1.78,4.82,4.39,4.82a4.16,4.16,0,0,0,3.5-1.73Q124.63,18.58,124.62,13Z"/>
        <path d="M153.53,25.85H136.89V.22h5V21.38h11.63Z"/>
        <path d="M176.39,25.85H159.76V.22h5V21.38h11.63Z"/>
        <path d="M211.74,12.92a44.41,44.41,0,0,1-.22,5.62,8,8,0,0,1-3,5.44,9.92,9.92,0,0,1-6.14,1.87h-9.25V.22h9.25a10,10,0,0,1,6.1,1.83,8,8,0,0,1,3,5.37A41.8,41.8,0,0,1,211.74,12.92Zm-5,0V10.69a8.79,8.79,0,0,0-.18-2.12,4.56,4.56,0,0,0-.9-2.31,4.56,4.56,0,0,0-3.74-1.58h-3.78v16.7h3.78a4.53,4.53,0,0,0,3.74-1.58,6.21,6.21,0,0,0,1-3.31C206.71,16,206.73,14.77,206.73,12.92Z"/>
        <path d="M237.08,13a38.29,38.29,0,0,1-.32,5.8,8,8,0,0,1-2.23,4.43,10,10,0,0,1-13.86,0,8.22,8.22,0,0,1-2.24-4.43,37.71,37.71,0,0,1-.28-5.8,38.37,38.37,0,0,1,.28-5.79,8,8,0,0,1,2.24-4.43,10,10,0,0,1,13.86,0,8.42,8.42,0,0,1,2.23,4.43A35.24,35.24,0,0,1,237.08,13Zm-5,0V11.16c0-.72,0-1.34-.07-1.87q-.44-4.83-4.43-4.83c-2.57,0-4,1.61-4.43,4.83V13c0,1.66,0,2.91.07,3.75.31,3.21,1.78,4.82,4.39,4.82a4.16,4.16,0,0,0,3.5-1.73C231.75,19,232.08,16.73,232.08,13Z"/>
        <path d="M273.08.22l-6.87,25.63H262l-4.73-15.53-4.72,15.53h-4.17L241.58.22h5.26l3.93,16.13L255.44.22h3.75l4.68,16.16,4-16.16Z"/>
        <path d="M298.07,25.85h-4.46L283.45,10.13V25.85h-5V.22h4.46l10.15,15.69V.22h5Z"/>
      </g>
      <g>
        <line x1="333.49" y1="45.2" x2="166.87" y2="87.33" fill="none" stroke="#000" stroke-miterlimit="10" stroke-width="2"/>
        <line x1="0.25" y1="45.2" x2="166.87" y2="87.33" fill="none" stroke="#000" stroke-miterlimit="10" stroke-width="2"/>
      </g>
    </g>
  </g>
</svg>
