<svg xmlns="http://www.w3.org/2000/svg" width="20.74" height="20.74" viewBox="0 0 20.74 20.74">
  <title>ig</title>
  <g id="圖層_2" data-name="圖層 2">
    <g id="menu">
      <path d="M17.41,0H4.17A4,4,0,0,0,0,4V17.22c0,2.29,1.88,3.52,4.17,3.52H17.41c2.3,0,3.33-1.23,3.33-3.52V4C20.74,1.69,19.71,0,17.41,0Zm.89,4.06h0a1.63,1.63,0,0,1-1.62,1.63h0a1.63,1.63,0,0,1-1.62-1.63h0a1.62,1.62,0,0,1,1.62-1.62h0A1.63,1.63,0,0,1,18.3,4.06ZM7.71,8.39a3.78,3.78,0,0,1,6.16,0,3.74,3.74,0,0,1,.72,2.21A3.8,3.8,0,1,1,7.71,8.39Zm11.81,8.83a2.32,2.32,0,0,1-2.11,2.3H4.17c-1.14,0-2.86-1.16-2.86-2.3V8.54h4c-.28,0-.44,1.35-.44,2.14a5.9,5.9,0,0,0,11.8,0c0-.78-.16-2.15-.43-2.15h3.26Z"/>
    </g>
  </g>
</svg>
