<svg xmlns="http://www.w3.org/2000/svg" width="204.6" height="36.21" viewBox="0 0 204.6 36.21">
  <title>islandtea</title>
  <g id="圖層_2" data-name="圖層 2">
    <g id="menu">
      <g>
        <g>
          <path d="M.92,6.82c0,.35-.15.52-.46.52S0,7.17,0,6.82V.53C0,.19.15,0,.46,0S.92.19.92.53Z" fill="#231815"/>
          <path d="M9.39,5.43a1.65,1.65,0,0,1-.71,1.38,3.11,3.11,0,0,1-1.93.53,2.83,2.83,0,0,1-1.84-.65,1.52,1.52,0,0,1-.69-1.05c0-.36.16-.54.47-.54a.65.65,0,0,1,.52.37,2.7,2.7,0,0,0,.47.68,1.45,1.45,0,0,0,1.07.37A1.93,1.93,0,0,0,8,6.17a1,1,0,0,0,.4-.83c0-.38-.25-.7-.75-1S6.19,3.62,5.25,3.18a1.23,1.23,0,0,1-.59-.62,1.79,1.79,0,0,1-.24-.88A1.45,1.45,0,0,1,5.13.52,2.85,2.85,0,0,1,6.83,0,3.41,3.41,0,0,1,8.58.44a1.3,1.3,0,0,1,.71,1.13.55.55,0,0,1-.12.35.35.35,0,0,1-.28.14.51.51,0,0,1-.53-.35A1.27,1.27,0,0,0,7.87,1a1.82,1.82,0,0,0-1-.22,1.77,1.77,0,0,0-1.07.29.88.88,0,0,0-.38.74c0,.29.24.55.71.76.66.28,1.38.61,2.17,1A1.88,1.88,0,0,1,9.39,5.43Z" fill="#231815"/>
          <path d="M16.88,6.72c0,.27-.17.41-.51.41H12.69A.93.93,0,0,1,12,7a1,1,0,0,1-.19-.68V.42q0-.42.48-.42c.31,0,.47.14.47.42V5.86c0,.32.18.47.55.47h3C16.71,6.33,16.88,6.46,16.88,6.72Z" fill="#231815"/>
          <path d="M25.48,6.93c0,.28-.16.41-.47.41s-.31-.11-.42-.35l-.81-1.8H20.5L19.7,7a.46.46,0,0,1-.46.34c-.28,0-.42-.15-.42-.46a.77.77,0,0,1,.06-.3L21.67.37A.49.49,0,0,1,22.12,0a.51.51,0,0,1,.46.36l2.85,6.32A.69.69,0,0,1,25.48,6.93Zm-2-2.57L22.29,1.73c0-.09-.09-.13-.14-.13s-.12,0-.17.15L20.84,4.36Z" fill="#231815"/>
          <path d="M33.51,6.85c0,.33-.17.49-.51.49A.68.68,0,0,1,32.41,7L28.66,1.61V6.85c0,.33-.15.49-.47.49s-.44-.16-.44-.49V.51a.44.44,0,0,1,.49-.5.59.59,0,0,1,.51.23l3.85,5.5V.51c0-.33.15-.5.46-.5s.45.17.45.5Z" fill="#231815"/>
          <path d="M42,3.66a3.52,3.52,0,0,1-.88,2.57,3.21,3.21,0,0,1-2.42.91H36.77A.58.58,0,0,1,36.32,7a.64.64,0,0,1-.22-.48V.86a.6.6,0,0,1,.22-.47.57.57,0,0,1,.45-.21h1.94a3.08,3.08,0,0,1,2.52,1A3.76,3.76,0,0,1,42,3.66Zm-1,0a2.89,2.89,0,0,0-.58-1.9A2.34,2.34,0,0,0,38.49,1h-1.1c-.24,0-.35.11-.35.34V6a.37.37,0,0,0,.1.26.34.34,0,0,0,.25.11h1C40.1,6.33,41,5.44,41,3.66Z" fill="#231815"/>
          <path d="M55.46,5.17a1.94,1.94,0,0,1-.59,1.52,2,2,0,0,1-1.34.45H50.71A.62.62,0,0,1,50.25,7,.66.66,0,0,1,50,6.47V.86a.62.62,0,0,1,.21-.47.6.6,0,0,1,.46-.21h2.8a1.61,1.61,0,0,1,1.21.49,1.94,1.94,0,0,1,.51,1.39,1.65,1.65,0,0,1-.24.87,1.16,1.16,0,0,1-.6.56,1.43,1.43,0,0,1,.79.56A2.14,2.14,0,0,1,55.46,5.17ZM54.24,2.06c0-.7-.39-1.06-1.18-1.06H51.33a.29.29,0,0,0-.33.33V3.14h2.15A1,1,0,0,0,54.24,2.06Zm.2,3.11c0-.81-.5-1.21-1.5-1.21H51V6c0,.23.11.35.33.35h1.82C54,6.33,54.44,5.94,54.44,5.17Z" fill="#231815"/>
          <path d="M63,6.72c0,.27-.17.41-.51.41H58.77A1,1,0,0,1,58.11,7a1,1,0,0,1-.19-.68V.42q0-.42.48-.42c.31,0,.47.14.47.42V5.86c0,.32.18.47.56.47h3C62.79,6.33,63,6.46,63,6.72Z" fill="#231815"/>
          <path d="M71.56,6.93c0,.28-.16.41-.47.41s-.31-.11-.42-.35l-.81-1.8H66.59L65.79,7a.48.48,0,0,1-.47.34c-.28,0-.42-.15-.42-.46a.77.77,0,0,1,.06-.3L67.75.37A.49.49,0,0,1,68.21,0q.29,0,.45.36l2.85,6.32A.69.69,0,0,1,71.56,6.93Zm-2-2.57L68.37,1.73c0-.09-.09-.13-.14-.13s-.11,0-.16.15L66.93,4.36Z" fill="#231815"/>
          <path d="M80,5.22a1.34,1.34,0,0,1-.21.49,3.09,3.09,0,0,1-2.84,1.63,3,3,0,0,1-2.32-1,3.89,3.89,0,0,1-.88-2.69,3.83,3.83,0,0,1,.93-2.61,3,3,0,0,1,2.29-1,3.62,3.62,0,0,1,1.58.36,2.23,2.23,0,0,1,.94.76,1,1,0,0,1,.18.41c0,.44-.2.66-.59.66a.51.51,0,0,1-.47-.33,2.27,2.27,0,0,0-.51-.68A1.81,1.81,0,0,0,76.88.82a1.87,1.87,0,0,0-1.58.88,3.25,3.25,0,0,0-.61,2,3.2,3.2,0,0,0,.59,2A1.93,1.93,0,0,0,77,6.52a2.11,2.11,0,0,0,1.25-.4,2.47,2.47,0,0,0,.77-.9c.14-.3.31-.45.52-.45a.5.5,0,0,1,.31.13A.38.38,0,0,1,80,5.22Z" fill="#231815"/>
          <path d="M87.65,6.88a.42.42,0,0,1-.14.3.38.38,0,0,1-.3.16.77.77,0,0,1-.49-.24l-3.47-3V6.82c0,.35-.17.52-.49.52s-.48-.17-.48-.52V.53c0-.34.16-.52.48-.52s.49.18.49.52V2.85L86.49.22A.75.75,0,0,1,86.9,0a.39.39,0,0,1,.44.43.44.44,0,0,1-.21.37l-3,2.44c-.13.1-.19.18-.19.24s.07.16.22.27l3.38,2.75A.44.44,0,0,1,87.65,6.88Z" fill="#231815"/>
          <path d="M101.68.58q0,.42-.48.42H98.91V6.8c0,.35-.16.53-.47.53S98,7.15,98,6.8V1H95.69c-.31,0-.47-.14-.47-.42s.16-.39.47-.39h5.51Q101.68.19,101.68.58Z" fill="#231815"/>
          <path d="M108.84,6.74a.36.36,0,0,1-.41.4h-3.82a.62.62,0,0,1-.46-.19.66.66,0,0,1-.21-.48V.86a.62.62,0,0,1,.21-.47.6.6,0,0,1,.46-.21h3.82a.37.37,0,0,1,.41.42.36.36,0,0,1-.41.4h-3.2c-.24,0-.36.11-.36.34V3.15h3a.37.37,0,0,1,.41.41.37.37,0,0,1-.42.42h-3V6a.32.32,0,0,0,.36.35h3.2A.37.37,0,0,1,108.84,6.74Z" fill="#231815"/>
          <path d="M117.64,6.93c0,.28-.15.41-.47.41-.16,0-.3-.11-.41-.35L116,5.19h-3.28L111.87,7a.48.48,0,0,1-.47.34c-.28,0-.42-.15-.42-.46a.63.63,0,0,1,.07-.3L113.83.37a.5.5,0,0,1,.46-.36q.28,0,.45.36l2.85,6.32A.52.52,0,0,1,117.64,6.93Zm-2-2.57-1.15-2.63c0-.09-.09-.13-.14-.13s-.11,0-.16.15L113,4.36Z" fill="#231815"/>
          <path d="M130.57,5.43a1.65,1.65,0,0,1-.71,1.38,3.09,3.09,0,0,1-1.93.53,2.83,2.83,0,0,1-1.84-.65,1.52,1.52,0,0,1-.69-1.05c0-.36.16-.54.47-.54a.64.64,0,0,1,.52.37,3,3,0,0,0,.47.68,1.45,1.45,0,0,0,1.07.37,2,2,0,0,0,1.25-.35,1,1,0,0,0,.39-.83c0-.38-.25-.7-.75-1-.65-.36-1.45-.75-2.39-1.19a1.18,1.18,0,0,1-.58-.62,1.81,1.81,0,0,1-.25-.88,1.45,1.45,0,0,1,.71-1.16A2.85,2.85,0,0,1,128,0a3.39,3.39,0,0,1,1.75.43,1.3,1.3,0,0,1,.71,1.13.55.55,0,0,1-.12.35.34.34,0,0,1-.28.14.51.51,0,0,1-.53-.35,1.27,1.27,0,0,0-.49-.67,1.82,1.82,0,0,0-1-.22,1.77,1.77,0,0,0-1.07.29.88.88,0,0,0-.38.74c0,.29.24.55.71.76.66.28,1.38.61,2.17,1A1.88,1.88,0,0,1,130.57,5.43Z" fill="#231815"/>
          <path d="M138.41,2.18a1.94,1.94,0,0,1-.59,1.5,1.91,1.91,0,0,1-1.32.47H134V6.8c0,.35-.16.53-.48.53S133,7.15,133,6.8V.89a.67.67,0,0,1,.21-.5.63.63,0,0,1,.46-.2h2.81a1.92,1.92,0,0,1,1.32.48A2,2,0,0,1,138.41,2.18Zm-1,0a1.22,1.22,0,0,0-.32-.88,1.25,1.25,0,0,0-.88-.3h-1.89c-.22,0-.33.11-.33.34v2h2.22a1.25,1.25,0,0,0,.88-.3A1.14,1.14,0,0,0,137.4,2.18Z" fill="#231815"/>
          <path d="M145.77,6.74a.35.35,0,0,1-.4.4h-3.83a.6.6,0,0,1-.45-.19.64.64,0,0,1-.22-.48V.86a.6.6,0,0,1,.22-.47.58.58,0,0,1,.45-.21h3.83c.27,0,.4.14.4.42a.35.35,0,0,1-.4.4h-3.21a.31.31,0,0,0-.35.34V3.15h3a.36.36,0,0,1,.4.41.37.37,0,0,1-.41.42h-3V6a.31.31,0,0,0,.35.35h3.21A.36.36,0,0,1,145.77,6.74Z" fill="#231815"/>
          <path d="M154.36,5.22a1.34,1.34,0,0,1-.21.49,3.09,3.09,0,0,1-2.84,1.63,3,3,0,0,1-2.32-1,3.89,3.89,0,0,1-.88-2.69A3.83,3.83,0,0,1,149,1.06a3,3,0,0,1,2.3-1,3.57,3.57,0,0,1,1.57.36,2.27,2.27,0,0,1,1,.76,1.05,1.05,0,0,1,.17.41c0,.44-.19.66-.59.66a.52.52,0,0,1-.47-.33,2.27,2.27,0,0,0-.51-.68,1.78,1.78,0,0,0-1.17-.37,1.87,1.87,0,0,0-1.59.88,3.24,3.24,0,0,0-.6,2,3.2,3.2,0,0,0,.58,2,1.93,1.93,0,0,0,1.67.86,2.09,2.09,0,0,0,1.25-.4,2.6,2.6,0,0,0,.78-.9q.19-.45.51-.45a.48.48,0,0,1,.31.13A.38.38,0,0,1,154.36,5.22Z" fill="#231815"/>
          <path d="M158.45,6.82c0,.35-.16.52-.47.52s-.46-.17-.46-.52V.53c0-.34.15-.52.46-.52s.47.18.47.52Z" fill="#231815"/>
          <path d="M168.21,6.93c0,.28-.15.41-.47.41-.16,0-.3-.11-.41-.35l-.81-1.8h-3.28L162.44,7a.48.48,0,0,1-.47.34c-.28,0-.42-.15-.42-.46a.63.63,0,0,1,.07-.3L164.4.37a.5.5,0,0,1,.46-.36q.28,0,.45.36l2.85,6.32A.52.52,0,0,1,168.21,6.93Zm-2-2.57L165,1.73c0-.09-.09-.13-.14-.13s-.11,0-.16.15l-1.14,2.61Z" fill="#231815"/>
          <path d="M175.52,6.72c0,.27-.16.41-.5.41h-3.69a1,1,0,0,1-.66-.18,1,1,0,0,1-.19-.68V.42c0-.28.17-.42.49-.42s.46.14.46.42V5.86c0,.32.19.47.56.47h3C175.36,6.33,175.52,6.46,175.52,6.72Z" fill="#231815"/>
          <path d="M179.54,6.82c0,.35-.15.52-.47.52s-.45-.17-.45-.52V.53c0-.34.15-.52.45-.52s.47.18.47.52Z" fill="#231815"/>
          <path d="M188.21,6.72c0,.28-.16.42-.47.42h-4.56a.45.45,0,0,1-.33-.14.48.48,0,0,1-.14-.35.85.85,0,0,1,.18-.48l3.62-4.85a.42.42,0,0,0,.1-.21c0-.07-.06-.11-.19-.11h-3c-.29,0-.44-.13-.44-.4s.15-.42.44-.42h4.16c.28,0,.43.16.43.48a.71.71,0,0,1-.14.37l-3.67,5a.4.4,0,0,0-.1.2c0,.09.06.13.2.13h3.48C188.05,6.33,188.21,6.46,188.21,6.72Z" fill="#231815"/>
          <path d="M195.44,6.74a.35.35,0,0,1-.4.4h-3.83a.61.61,0,0,1-.45-.19.64.64,0,0,1-.22-.48V.86a.6.6,0,0,1,.22-.47.6.6,0,0,1,.45-.21H195c.27,0,.4.14.4.42a.35.35,0,0,1-.4.4h-3.21a.31.31,0,0,0-.35.34V3.15h3a.36.36,0,0,1,.4.41.37.37,0,0,1-.41.42h-3V6a.31.31,0,0,0,.35.35H195A.36.36,0,0,1,195.44,6.74Z" fill="#231815"/>
          <path d="M203.77,3.66a3.52,3.52,0,0,1-.89,2.57,3.21,3.21,0,0,1-2.42.91h-1.88a.62.62,0,0,1-.46-.19.66.66,0,0,1-.21-.48V.86a.62.62,0,0,1,.21-.47.6.6,0,0,1,.46-.21h1.93a3.05,3.05,0,0,1,2.52,1A3.76,3.76,0,0,1,203.77,3.66Zm-1,0a2.89,2.89,0,0,0-.58-1.9A2.35,2.35,0,0,0,200.3,1h-1.1c-.24,0-.36.11-.36.34V6a.42.42,0,0,0,.1.26.36.36,0,0,0,.26.11h1Q202.78,6.33,202.78,3.66Z" fill="#231815"/>
        </g>
        <g>
          <path d="M47.51,15.29c.14,0,.36.24.65.72a3.26,3.26,0,0,1,.31,1,.23.23,0,0,1-.07.13c-.29.34-.68.83-1.18,1.49L51,18.33a1.3,1.3,0,0,0,1-.46c.19-.32.33-.48.41-.48s.28.11.49.33.39.46.39.55a.72.72,0,0,1-.24.41,1,1,0,0,0-.26.62l-.6,3,.2.09q.48.33.48.39a.19.19,0,0,1-.08.18l-8.33.66c0,.6,0,1.12,0,1.57q6.53-.36,8.3-.65l.92-.09a1.51,1.51,0,0,1,.46.26c.21.15.31.26.31.33s-.24.15-.72.2l-9.27.65c0,.69,0,1.19,0,1.52l9.94-.71a1.32,1.32,0,0,0,.81-.41c.26-.31.44-.46.53-.46a2.51,2.51,0,0,1,.54.46,3.53,3.53,0,0,1,.51.5,1.27,1.27,0,0,1-.26.53,1.34,1.34,0,0,0-.46.81,56.31,56.31,0,0,1-1.73,6.61c-.36.89-.63,1.34-.82,1.34A22.78,22.78,0,0,1,51,33.38a.56.56,0,0,1-.06-.22v-.08a.9.9,0,0,1,.41.15,11.12,11.12,0,0,0,1.75,1.05.42.42,0,0,0,.42-.35,18.12,18.12,0,0,0,1.18-3.68,22.11,22.11,0,0,0,.49-2.91l-4.34.35a3.13,3.13,0,0,1,.41.44c.31.32.46.56.46.72a.43.43,0,0,1-.15.33,4,4,0,0,0-.39,1.73C51,32,50.87,32.65,50.77,33c-.07.11-.14.17-.2.17s-.19-.14-.33-.43a2.68,2.68,0,0,1-.15-.64c-.76.09-1.68.18-2.76.26s-2.43.38-4.23.73a.8.8,0,0,0-.61.37.36.36,0,0,1-.24.13,1.35,1.35,0,0,1-.55-.31c-.28-.16-.42-.28-.42-.37a.5.5,0,0,1,.18-.33l.33-.33a1.44,1.44,0,0,0,.11-.59v-1a10.6,10.6,0,0,0-.13-1.45,10.08,10.08,0,0,1-.2-1.07c0-.07,0-.11.09-.11s.29.14.57.42.63.54.63.65a3.91,3.91,0,0,1-.06.64v2.52l3.5-.4V30.1a6.83,6.83,0,0,0-.17-1.41,1.45,1.45,0,0,1-.18-.61,6,6,0,0,0-.63.09,4.54,4.54,0,0,1-.77.09.74.74,0,0,1-.22-.05c0,.18-.07.38-.11.62s-.16.48-.31.48-.27-.28-.52-.83a2.66,2.66,0,0,1-.26-1.19c0-.07.06-.17.19-.3a1.14,1.14,0,0,0,.26-.66c.06-1,.09-2.73.09-5.26A13.68,13.68,0,0,0,43.54,19a6,6,0,0,1-.13-1c0-.19.06-.29.17-.29s.28.35.55,1a2.57,2.57,0,0,0,.09.29l2.34-.22a.59.59,0,0,1,0-.13q.26-.69.48-1.47a9.93,9.93,0,0,0,.31-1.69C47.43,15.34,47.46,15.29,47.51,15.29Zm-3,7.73,4.65-.46a12.69,12.69,0,0,0,2-.31,1.87,1.87,0,0,1,.37,0L52,18.92l-7.55.68a3.6,3.6,0,0,1,.06.51v.65c2.45-.21,4-.39,4.71-.52l.53,0a1.71,1.71,0,0,1,.48.24c.2.17.31.3.31.37s-.15.11-.44.15q-3.07.24-5.59.48Zm5.78,8.43.07-.1a2.68,2.68,0,0,0,.24-.84,7.12,7.12,0,0,0,.11-.87c0-.08,0-.3,0-.66s0-.86,0-1.18c0-.05,0-.08,0-.09l-1.23.09c-.92.05-1.89.14-2.91.24a1.64,1.64,0,0,1,.24.19c.36.3.55.53.55.71a.8.8,0,0,1-.09.41,2.7,2.7,0,0,0-.09.75v1.68Z" fill="#231815"/>
          <path d="M66.16,16.49c.08,0,.35.23.81.68s.74.75.74.92a2.92,2.92,0,0,1-.22.92,24.22,24.22,0,0,0-.19,3.27v6.85l1.18-.22c0-.26.1-.56.17-.89a15.35,15.35,0,0,0,.2-2.13c0-.53.08-1.28.11-2.28,0-.09,0-.3,0-.65,0-.5-.07-.9-.07-1.19,0-.13.07-.19.2-.19s.22.16.5.5.46.58.46.74a1,1,0,0,1-.13.57,13.14,13.14,0,0,0-.39,3.25c-.15,1.95-.27,3.23-.38,3.83,0,.2-.11.31-.15.31s-.23-.14-.37-.42a2.12,2.12,0,0,1-.18-.79c-.33,0-.72.1-1.16.18s-1.19.32-2.08.61c-.13,0-.24.12-.33.31s-.08.11-.11.11a1.91,1.91,0,0,1-.55-.31c-.27-.16-.41-.29-.41-.37a.52.52,0,0,1,.15-.33,2.15,2.15,0,0,0,.35-.33,1.2,1.2,0,0,0,.13-.59V23.94a8.19,8.19,0,0,0-.15-1.44A8.42,8.42,0,0,1,64,21.4a.08.08,0,0,1,.09-.09c.12,0,.31.14.59.42q.66.48.66.63a3.09,3.09,0,0,1-.07.66c0,.22,0,.39,0,.5v5.94l1.23-.2V20a11.92,11.92,0,0,0-.24-2.34,4.6,4.6,0,0,1-.31-1C66,16.55,66,16.49,66.16,16.49Zm7.07,14c.13,0,.3.24.51.7A4.16,4.16,0,0,1,74,32a.21.21,0,0,1-.11.16,9.2,9.2,0,0,0-1.08.9,15,15,0,0,1-1.93,1.55A16.52,16.52,0,0,1,69,35.73l-.22.06c-.06,0-.08,0-.08-.09a.19.19,0,0,1,.1-.17,16.89,16.89,0,0,0,2.72-2.39,7.54,7.54,0,0,0,1.6-2.5C73.16,30.56,73.2,30.51,73.23,30.51Zm.09-13.84c.1,0,.28.14.53.44a1.19,1.19,0,0,1,.26.52.5.5,0,0,1-.13.29,4.24,4.24,0,0,0-.7.46,11.09,11.09,0,0,1-1.43,1v0l.09,3.29a4.79,4.79,0,0,0,1.14-.42l.15-.06a1.25,1.25,0,0,1,.44.22c.19.14.29.25.29.33s-.06.08-.18.11L72,23.17,72,25.91a6,6,0,0,0,1.07-.26l.13,0a1.58,1.58,0,0,1,.48.24c.21.16.31.28.31.35s0,.08-.15.11c-.67.1-1.28.2-1.82.31l.06,3,2.17-.13c0-1.38,0-2.68,0-3.93a3.26,3.26,0,0,0-.09-.67,1.29,1.29,0,0,1-.06-.33.08.08,0,0,1,.09-.09,1.35,1.35,0,0,1,.57.35c.26.25.39.45.39.61a.4.4,0,0,1-.09.24A1.23,1.23,0,0,0,75,26c0,1.05,0,2.21,0,3.48l.35,0,.73-.07.41-5.8c-.42,0-.84.09-1.24.15a1.12,1.12,0,0,0-.53.18.56.56,0,0,1-.24.13c-.09,0-.22-.08-.4-.24a.71.71,0,0,1-.19-.37.91.91,0,0,1,.11-.36,2.09,2.09,0,0,0,.26-1c.1-1,.17-2.19.22-3.5,0-.38,0-.84,0-1.38s0-.88,0-1,0-.19.09-.19.3.14.59.41.48.59.48.75a1.28,1.28,0,0,1-.2.57,3.18,3.18,0,0,0-.17.9l-.07.83a6.72,6.72,0,0,0,1.23-.33l.18,0a1.54,1.54,0,0,1,.41.19c.18.15.27.25.27.31s-.06.08-.18.11c-.72.1-1.37.2-2,.31L74.85,23l1,0a.62.62,0,0,0,.55-.4c.15-.27.26-.41.33-.41s.19.09.39.28.4.41.4.53-.08.17-.24.31a1,1,0,0,0-.31.63l-.31,5.37c.81-.09,1.5-.18,2.08-.29l.2-3.33-.79.11a1.34,1.34,0,0,1-.39.07,1.27,1.27,0,0,1-.53-.24c-.17-.15-.26-.24-.26-.27a.11.11,0,0,1,.09-.1L79,25l.19-2.83-.85.24a.9.9,0,0,1-.4.11,1.11,1.11,0,0,1-.5-.26,2,2,0,0,1-.28-.26.08.08,0,0,1,.08-.09l2-.4.19-3-1.38.33a.55.55,0,0,1-.19.07.85.85,0,0,1-.51-.22c-.19-.1-.28-.18-.28-.24a.23.23,0,0,1,.09-.18L78.6,18a.94.94,0,0,0,.7-.41c.2-.31.34-.46.42-.46s.24.12.48.35.39.45.39.52a.92.92,0,0,1-.24.51,1.87,1.87,0,0,0-.17.77l-.68,9.63a7.55,7.55,0,0,0,1.33-.3,1.22,1.22,0,0,1,.4-.09,2.18,2.18,0,0,1,.74.37c.37.26.55.43.55.51a.13.13,0,0,1-.15.15c-1.89.12-4.33.33-7.34.63a42.53,42.53,0,0,0-4.25.53,3.07,3.07,0,0,1-.44.07,1.64,1.64,0,0,1-.81-.38c-.2-.16-.31-.3-.31-.41s.11-.27.33-.27c.43,0,1.06,0,1.91-.06l-.18-5.87c0-1.14-.07-2.67-.17-4.58-.09-1.1-.13-1.7-.13-1.82V17.3c.1,0,.28.31.54.92a4,4,0,0,1,.24.66A4.81,4.81,0,0,0,73.12,17C73.2,16.76,73.26,16.67,73.32,16.67Zm3.26,14.11a1.09,1.09,0,0,1,.57.24,21,21,0,0,1,3,2.06c.43.35.64.64.64.87a8,8,0,0,1-.09,1c0,.33-.12.5-.24.5s-.21-.1-.31-.29a18.6,18.6,0,0,0-3.44-3.94.46.46,0,0,1-.19-.33S76.53,30.79,76.58,30.78Z" fill="#231815"/>
          <path d="M90.55,29.81c.11,0,.17.32.17,1A8.14,8.14,0,0,1,90,34.5c-.26.5-.49.74-.7.74s-.29-.16-.44-.48a3.3,3.3,0,0,1-.19-.63.5.5,0,0,1,.22-.4,6.08,6.08,0,0,0,1.44-3.63C90.37,29.91,90.43,29.81,90.55,29.81Zm2.89-14.28q.19,0,.63.81a2.25,2.25,0,0,1,.33.88.38.38,0,0,1-.17.28c-.3.32-.62.71-1,1.16l-2.83,4.56,3.22-.44a12.17,12.17,0,0,0,1.38-3c0-.11.09-.17.18-.17s.34.26.63.79a2.4,2.4,0,0,1,.33.87.45.45,0,0,1-.24.35,11.71,11.71,0,0,0-1.29,1.27l-3.7,4.89,4.64-1.14c-.19-.41-.38-.82-.59-1.23a1.62,1.62,0,0,1-.11-.46c0-.06,0-.08.09-.08s.15.06.28.19A12.46,12.46,0,0,1,96.72,27a1.33,1.33,0,0,1,.31.68,3.27,3.27,0,0,1-.13.77c-.15.36-.27.54-.37.54s-.23-.11-.29-.35a15.09,15.09,0,0,0-.52-1.62,39,39,0,0,0-5,1.8,1.79,1.79,0,0,1-.75.28q-.2,0-.48-.39a1.42,1.42,0,0,1-.22-.48.23.23,0,0,1,.13-.22,3.06,3.06,0,0,0,1.08-.79,36.39,36.39,0,0,0,2.82-3.94,23.35,23.35,0,0,0-3,.85,1.44,1.44,0,0,1-.52.13c-.12,0-.27-.12-.44-.37a1.11,1.11,0,0,1-.24-.5.17.17,0,0,1,.11-.18A3,3,0,0,0,90,22.5a37.63,37.63,0,0,0,2.17-3.86,11.84,11.84,0,0,0,1.16-3C93.32,15.58,93.36,15.53,93.44,15.53ZM92.67,29.4c.06,0,.12.05.2.17A12.15,12.15,0,0,1,94,32.11a1.82,1.82,0,0,1-.25.79c-.19.34-.35.5-.48.5s-.14-.06-.17-.19a25.53,25.53,0,0,0-.38-2.74,8.34,8.34,0,0,1-.15-1C92.56,29.42,92.6,29.4,92.67,29.4Zm1.93-.64a.42.42,0,0,1,.26.15,10.4,10.4,0,0,1,1.43,1.58.93.93,0,0,1,.32.57,3,3,0,0,1-.13.75c-.16.36-.3.54-.41.54s-.19-.09-.25-.28a13.55,13.55,0,0,0-1.2-2.83,1.17,1.17,0,0,1-.11-.39A.08.08,0,0,1,94.6,28.76Zm9.88-8.56a1.57,1.57,0,0,1,.72.26c.28.25.42.42.42.52s0,.16-.09.16c-1.31.14-2.78.34-4.38.59l-.11,0a2.84,2.84,0,0,1,.26.24c.5.45.75.76.75.92a2.81,2.81,0,0,1-.24.92,20.94,20.94,0,0,0-.22,3.27v5.52a18.4,18.4,0,0,0,4-.77.58.58,0,0,1,.3-.11,2.29,2.29,0,0,1,.81.44c.38.27.57.45.57.52s-.08.29-.24.29c-1.55.1-3.54.28-6,.52-2.16.24-3.33.39-3.5.46a1.18,1.18,0,0,1-.35.07,1.63,1.63,0,0,1-.88-.42c-.23-.16-.35-.28-.35-.37s.15-.26.46-.26c.67,0,2.12-.1,4.36-.29V24.84a13.6,13.6,0,0,0-.22-2.34c-.1-.31-.18-.53-.22-.66a15.93,15.93,0,0,0-2,.35.91.91,0,0,1-.33.09,1.53,1.53,0,0,1-.63-.33c-.28-.22-.42-.37-.42-.46a.16.16,0,0,1,.18-.18c1.22-.1,2.07-.19,2.54-.26l1.62-.22,1.8-.31a3.79,3.79,0,0,0,1-.24A1.92,1.92,0,0,1,104.48,20.2Z" fill="#231815"/>
          <path d="M130.2,18.18a2.29,2.29,0,0,1,.77.37q.57.39.57.51a.15.15,0,0,1-.17.17q-2.49.11-5.83.35c-.24.67-.46,1.34-.68,2-.15.35-.32.52-.53.52q-.06,0-.06-.15a3,3,0,0,1,.09-.55c.13-.6.26-1.18.39-1.75l-3.64.3c-.42.05-.81.08-1.16.09v2.15a.23.23,0,0,1-.26.26c-.06,0-.18-.13-.37-.39a.77.77,0,0,1-.24-.48,1.74,1.74,0,0,1,.11-.25,2.69,2.69,0,0,0,.08-.81v-.41c-2.51.2-3.9.34-4.16.41a2.67,2.67,0,0,1-.57.09,1.41,1.41,0,0,1-.81-.39c-.23-.15-.35-.27-.35-.38s.13-.28.37-.28c1,0,2.78-.07,5.5-.2a8.33,8.33,0,0,0-.41-2.34,2.91,2.91,0,0,1-.18-.68c0-.06,0-.09.07-.09a2,2,0,0,1,.72.42c.39.39.59.68.59.87a.65.65,0,0,1-.07.29c0,.15,0,.23,0,.26v1.23l2-.09c1.13-.09,2.13-.17,3-.26,0-.18.08-.33.1-.46a12.75,12.75,0,0,0,.27-2.81c0-.11,0-.17.09-.17s.43.17.72.53a1.8,1.8,0,0,1,.5.89c-.16.35-.34.74-.55,1.16s-.19.52-.26.77a26,26,0,0,0,3.9-.59A1.62,1.62,0,0,1,130.2,18.18Zm-8.12,2.43c.08,0,.28.19.59.57A1.51,1.51,0,0,1,123,22a.58.58,0,0,1-.09.33,1.36,1.36,0,0,0-.24.24l2.13,1.79a31.08,31.08,0,0,0,3.94,2.81,10.94,10.94,0,0,0,3.55.85c.12,0,.17.07.17.2s-.05.26-.17.26c-.53.05-1.23.13-2.1.26a6.64,6.64,0,0,1-1.08.16.69.69,0,0,1-.48-.24c-1-.91-2.21-2-3.7-3.29L122.3,23l-.2.2a23.07,23.07,0,0,1-3.9,3.52q-1.62,1.14-4.21,2.61a1.21,1.21,0,0,1-.52.22q-.09,0-.09-.15c0-.06.07-.12.2-.18a32.42,32.42,0,0,0,4.23-3,20.24,20.24,0,0,0,2.91-3A7.1,7.1,0,0,0,122,20.81C122,20.68,122,20.61,122.08,20.61Zm-2.46,9.11c.12,0,.28.24.49.71a3.84,3.84,0,0,1,.21.81s0,.08-.1.13a9.44,9.44,0,0,0-1,.74,14.8,14.8,0,0,1-1.8,1.29,13.93,13.93,0,0,1-1.75.92l-.17,0c-.08,0-.11,0-.11-.09s0-.09.11-.13a14.81,14.81,0,0,0,2.49-2.1,6.94,6.94,0,0,0,1.49-2.22C119.55,29.76,119.59,29.72,119.62,29.72Zm5.77-2.54a1.25,1.25,0,0,1,.61.27c.23.2.35.35.35.43s0,.18-.09.18l-3.42.31v4.9a8.47,8.47,0,0,1-.35,2.24c-.11.41-.22.61-.33.61a.34.34,0,0,1-.32-.24A19,19,0,0,0,120,33.73a.53.53,0,0,1-.14-.33s0-.08.09-.08a1.11,1.11,0,0,1,.4.19,4.32,4.32,0,0,0,1.44.86c.1,0,.16-.16.16-.48,0-.84.1-1.64.13-2.41V28.43c-1.46.12-2.35.21-2.68.26a.93.93,0,0,1-.32.07,1.26,1.26,0,0,1-.59-.28c-.25-.21-.38-.35-.38-.42s.07-.09.2-.09c1.17-.07,2-.13,2.41-.17l1.36-.14V26.33a5.18,5.18,0,0,0-.13-1,2.83,2.83,0,0,1-.07-.44c0-.06,0-.09.11-.09s.31.13.57.4.48.54.48.72a1.36,1.36,0,0,1-.09.48,3.36,3.36,0,0,0-.11.94v.29l1.19-.16a4.4,4.4,0,0,0,1-.15A1.87,1.87,0,0,1,125.39,27.18Zm-.79,3.18a1.44,1.44,0,0,1,.54.13,28.55,28.55,0,0,1,2.65,1.36c.38.26.57.46.57.59a7.46,7.46,0,0,1-.11,1.1c-.05.39-.16.59-.3.59s-.18-.09-.27-.27a15.12,15.12,0,0,0-3-3.17c-.14-.1-.2-.18-.2-.24A.08.08,0,0,1,124.6,30.36Z" fill="#231815"/>
          <path d="M153.32,17.46a1.17,1.17,0,0,1,.59.24c.25.23.38.39.38.48s0,.15-.09.15l-6.77.44c0,.53-.07,1.07-.09,1.64l3.18-.21a1.33,1.33,0,0,0,1-.51c.19-.31.33-.46.42-.46s.28.11.48.33.4.46.4.55a.69.69,0,0,1-.25.41,1.1,1.1,0,0,0-.26.62l-.39,2.8h0a1.62,1.62,0,0,1,.48.26c.22.18.33.3.33.38s-.24.16-.72.22l-.62,0,2.06,1.55a.47.47,0,0,1,.22.44,8.25,8.25,0,0,1-.11,1.25c0,.12-.06.18-.13.18a.31.31,0,0,1-.26-.18c-.25-.45-.51-.89-.79-1.31l-2.17.28a3,3,0,0,1,.26.24c.32.32.49.58.49.77a1.43,1.43,0,0,1-.09.5,2.89,2.89,0,0,0,0,.53,28.24,28.24,0,0,0,3.82-.64,1.9,1.9,0,0,1,.54-.11,2.35,2.35,0,0,1,.79.4c.4.31.59.49.59.57a.21.21,0,0,1-.24.24c-1.59.07-3.43.17-5.52.31v4.2a4,4,0,0,1-.46,1.69c-.16.3-.3.46-.41.46s-.27-.1-.35-.29a22,22,0,0,0-2.09-2.41.69.69,0,0,1-.13-.35c0-.06,0-.08.09-.08a1.18,1.18,0,0,1,.44.21,4.74,4.74,0,0,0,1.69,1c.13,0,.2-.12.21-.35.06-.57.11-1.13.14-1.69V29.92l-4,.31-1.84.15a13.8,13.8,0,0,1,1.29,1.51,1.17,1.17,0,0,1,.35.64,3.72,3.72,0,0,1-.13.76c-.15.38-.27.57-.38.57s-.23-.11-.3-.35a15.86,15.86,0,0,0-1.4-3.08c-2.21.17-3.44.29-3.68.35a3.28,3.28,0,0,1-.57.08,1.6,1.6,0,0,1-.88-.39c-.25-.15-.37-.27-.37-.37s.15-.29.46-.29c1.25,0,4-.11,8.3-.35l3.18-.28v-.57a5.11,5.11,0,0,0-.16-1.16,2,2,0,0,0-.09-.33l-4.86.63c-1.15.15-2.2.33-3.15.55a.87.87,0,0,1-.42.13,1.49,1.49,0,0,1-.74-.39q-.51-.33-.51-.48s.07-.08.2-.09c1.59-.1,3-.22,4.1-.35l2.27-.24V25.19c-1.22.12-2.39.22-3.5.31a7.41,7.41,0,0,1-.11,1c0,.09-.05.13-.15.13s-.22-.17-.4-.52a2.4,2.4,0,0,1-.19-.81,1.2,1.2,0,0,1,0-.35,11.41,11.41,0,0,0,.09-1.76A21.08,21.08,0,0,0,142.2,21q-.09-.9-.09-1.08c0-.1,0-.16.09-.17s.29.28.5.85a.45.45,0,0,1,0,.18l3.81-.31V18.86l-.17,0c-2.72.18-4.39.31-5,.42a2.53,2.53,0,0,1-.59.08,1.31,1.31,0,0,1-.59-.28c-.25-.22-.37-.36-.37-.42s.06-.08.17-.08c2.24-.11,3.76-.19,4.58-.27s1.36-.09,2-.15a11.48,11.48,0,0,0-.19-1.82,5.59,5.59,0,0,1-.29-1q0-.18.15-.18c.11,0,.39.22.86.66s.74.75.74.9a2.65,2.65,0,0,1-.22.92,2.65,2.65,0,0,0-.08.43c1.35-.11,2.44-.21,3.26-.3a13.6,13.6,0,0,0,1.77-.24A5.14,5.14,0,0,1,153.32,17.46Zm-10.27,7.36c1.34-.09,2.51-.18,3.5-.27V23.17c-1.11.08-1.81.14-2.1.2a.93.93,0,0,1-.24.05,1.44,1.44,0,0,1-.57-.27c-.2-.17-.31-.28-.31-.33s.06-.08.16-.08c1-.06,1.74-.11,2.1-.16a8.86,8.86,0,0,0,1-.08V21.14l-3.61.3a3.25,3.25,0,0,1,0,.51C143,22.18,143,23.14,143.05,24.82Zm4.29-3.75v1.34l1.1-.11.83-.13a1.76,1.76,0,0,1,.37-.07,1,1,0,0,1,.53.22c.23.21.35.34.35.42s0,.17-.09.17c-1,.05-2,.11-3.09.2v1.38c1.78-.16,3-.31,3.68-.44l.11,0,.31-3.29Zm0,4.05v1.67l4.67-.51A13.87,13.87,0,0,0,151,25s0-.08,0-.11C149.69,25,148.48,25.05,147.34,25.12Z" fill="#231815"/>
          <path d="M164.74,15.53c.11,0,.3.34.57,1,.12.39.2.71.25.94l3.33-.37a1.38,1.38,0,0,0,1-.51c.19-.3.33-.46.41-.46s.28.11.49.33.39.45.39.55-.09.24-.26.42a1,1,0,0,0-.24.63l-.53,4.78a2.6,2.6,0,0,1,.44.19c.22.17.33.28.33.36s-.13.13-.4.17l-4.86.48q0,8.33-.09,10.21a6.63,6.63,0,0,1-.15,1.12c0,.32-.13.48-.26.48s-.29-.28-.57-.83a2.94,2.94,0,0,1-.24-1.19,1.88,1.88,0,0,1,.19-.7,5.69,5.69,0,0,0,.24-1.6q.12-3.48.11-12.59a14.29,14.29,0,0,0-.13-2.15,5.14,5.14,0,0,1-.15-1C164.57,15.62,164.63,15.53,164.74,15.53Zm.88,7.84c1.91-.19,3.18-.34,3.79-.46l.42-5.23-4.21.54v2a16.26,16.26,0,0,0,2.5-.42l.3,0a1.18,1.18,0,0,1,.49.26q.3.23.3.33c0,.06-.08.1-.26.13l-3.33.44ZM173,15.7c.07,0,.21.26.42.77a3.11,3.11,0,0,1,.17.64l4.43-.53a.57.57,0,0,0,.46-.33,3.12,3.12,0,0,1,.68-.63,2.19,2.19,0,0,1,.61.35c.29.29.44.49.44.61a2.25,2.25,0,0,1-.48.77,1.25,1.25,0,0,0-.16.74V33.71a7.69,7.69,0,0,1-.11,1c-.07.27-.14.55-.19.83s-.22.44-.38.44a.71.71,0,0,1-.43-.22A33.19,33.19,0,0,0,175,32.51a.41.41,0,0,1-.11-.22l.09-.09a1.2,1.2,0,0,1,.5.13,10.61,10.61,0,0,0,2.76,1.45c.12,0,.18-.1.2-.29s.08-.57.11-.92,0-.7,0-1.31V22.87l-4.73.41v.66q0,.72-.24.72t-.42-.54a1.77,1.77,0,0,1-.31-1,2.55,2.55,0,0,1,.07-.44,19.21,19.21,0,0,0,.15-2.38,22.31,22.31,0,0,0-.22-3.71c0-.48-.08-.75-.08-.83S172.86,15.7,173,15.7Zm.86,6.9,4.75-.46V17.28l-4.91.48q.07.75.09,1.62v.31a27.31,27.31,0,0,0,2.83-.48l.35-.07a1.59,1.59,0,0,1,.46.24c.2.17.3.29.3.38s-.1.11-.3.15l-3.62.48C173.82,21.22,173.84,22,173.84,22.6Z" fill="#231815"/>
          <path d="M203.35,18.88a2,2,0,0,1,.75.26c.33.24.5.38.5.42a.2.2,0,0,1-.09.2l-7.31.52.24.22c.45.41.68.68.68.81a3,3,0,0,1-.18.86,15.94,15.94,0,0,0-.18,1.84q3.51-.32,4.47-.51a4.29,4.29,0,0,1,.53-.08,1.52,1.52,0,0,1,.5.28c.25.15.38.26.38.33s-.16.12-.46.15l-5.44.53v3.63l2.63-.28a1.61,1.61,0,0,0,1.1-.46c.22-.34.38-.5.5-.5s.27.13.5.39.46.47.46.57a.76.76,0,0,1-.26.48,1.25,1.25,0,0,0-.28.68l-.7,4.29a4.48,4.48,0,0,1,.43.27c.24.16.35.27.35.35s-.19.09-.56.11c-2.68.16-5.13.32-7.37.48a10.6,10.6,0,0,1-.06,1.14c0,.13,0,.19-.13.19s-.25-.17-.44-.52a2.43,2.43,0,0,1-.2-.79,2.94,2.94,0,0,1,0-.57,24.33,24.33,0,0,0,.11-2.76c0-.92-.06-1.91-.16-3,0-.83-.06-1.33-.06-1.51s0-.16.06-.18.33.3.55.9a4,4,0,0,1,.24,1l2.48-.24V23.06a10.9,10.9,0,0,0-.22-2.08c-.1-.32-.17-.54-.2-.65l-4.93.37c0,1.27-.08,2.62-.2,4.05a30.88,30.88,0,0,1-.67,4.47A25.08,25.08,0,0,1,189.53,33,27.05,27.05,0,0,1,187.89,36c-.11.16-.17.24-.2.24s-.09-.05-.09-.16a1.25,1.25,0,0,1,.11-.5c.48-.88.88-1.68,1.21-2.41a18,18,0,0,0,.91-2.82,31.37,31.37,0,0,0,.75-4.21,51.37,51.37,0,0,0,.26-5.85,8.08,8.08,0,0,0-.15-1.34c-.07-.49-.11-.8-.11-.92s.06-.19.18-.19a5.08,5.08,0,0,1,.41.74,3.35,3.35,0,0,1,.46,1.38V20c2.38-.24,4.92-.45,7.62-.66a25.64,25.64,0,0,0,3.2-.39A8,8,0,0,1,203.35,18.88ZM194.57,34c3.27-.19,5.37-.35,6.31-.46l.52-4.84-6.88.63C194.54,30.11,194.55,31.67,194.57,34Zm1-18.49a.66.66,0,0,1,.35.15,11.7,11.7,0,0,1,1.73,1.51c.27.22.4.4.4.53a3.5,3.5,0,0,1-.13.77q-.24.57-.42.57c-.13,0-.23-.11-.31-.31A12,12,0,0,0,195.62,16a1,1,0,0,1-.13-.39Q195.49,15.53,195.55,15.53Z" fill="#231815"/>
        </g>
      </g>
    </g>
  </g>
</svg>
