<svg xmlns="http://www.w3.org/2000/svg" width="47.26" height="30.33" viewBox="0 0 47.26 30.33">
  <title>lemon</title>
  <g id="圖層_2" data-name="圖層 2">
    <g id="圖層_1-2" data-name="圖層 1">
      <path d="M23.58,30.33A19.35,19.35,0,0,1,8.77,23.87a7.57,7.57,0,0,0-3.86-2.48c-.17,0-.34-.1-.52-.16A6.64,6.64,0,0,1,0,15.38V15A6.65,6.65,0,0,1,4.39,9.1l.52-.16A7.55,7.55,0,0,0,8.77,6.47,19.36,19.36,0,0,1,23.58,0,19.4,19.4,0,0,1,38.37,6.43,8.48,8.48,0,0,0,42.48,9l.53.18a6.62,6.62,0,0,1,4.25,6,6.61,6.61,0,0,1-4.26,6l-.52.19a8.46,8.46,0,0,0-4.11,2.55A19.4,19.4,0,0,1,23.58,30.33ZM2,15.29a4.64,4.64,0,0,0,3.06,4.06l.37.11a9.61,9.61,0,0,1,4.87,3.12,17.35,17.35,0,0,0,13.28,5.75,17.35,17.35,0,0,0,13.26-5.72,10.49,10.49,0,0,1,5.06-3.18l.36-.12a4.68,4.68,0,0,0,3-4.16,4.67,4.67,0,0,0-3-4.12h0l-.35-.13a10.48,10.48,0,0,1-5.07-3.18A17.39,17.39,0,0,0,23.58,2,17.35,17.35,0,0,0,10.3,7.75a9.48,9.48,0,0,1-4.87,3.12L5.06,11A4.62,4.62,0,0,0,2,15.05v.13L1,15.3Z" fill="#fff"/>
    </g>
  </g>
</svg>
