<svg xmlns="http://www.w3.org/2000/svg" width="24.74" height="23.4" viewBox="0 0 24.74 23.4">
  <title>line</title>
  <g id="圖層_2" data-name="圖層 2">
    <g id="text">
      <path d="M24.72,9.38C24.42,4.16,19,0,12.37,0,5.54,0,0,4.4,0,9.84c0,5,4.68,9.11,10.74,9.75a.66.66,0,0,1,.59.74l-.26,2.32a.68.68,0,0,0,1,.68c5.12-2.47,8.18-5,10-7.21.33-.4,1.42-1.92,1.64-2.32a8.25,8.25,0,0,0,.94-2.71,5.2,5.2,0,0,0,.1-.75A9.51,9.51,0,0,0,24.72,9.38ZM7.46,13.09H4.93a.63.63,0,0,1-.63-.63V7.69a.64.64,0,0,1,.63-.64.64.64,0,0,1,.64.64v4.14H7.46a.63.63,0,1,1,0,1.26ZM10,12.6a.49.49,0,0,1-.49.49H9.19a.49.49,0,0,1-.49-.49v-5a.49.49,0,0,1,.49-.5h.28a.49.49,0,0,1,.49.5Zm5.89-.17a.65.65,0,0,1-.64.66.6.6,0,0,1-.43-.17s-2.6-3.36-2.6-3.36v2.9a.64.64,0,0,1-.64.63.63.63,0,0,1-.63-.63V7.71A.63.63,0,0,1,12,7.27l2.56,3.33V7.69a.64.64,0,0,1,.63-.64.64.64,0,0,1,.64.64Zm4.11-3a.63.63,0,1,1,0,1.26h-1.9v1.13H20a.63.63,0,1,1,0,1.26H17.43a.64.64,0,0,1-.64-.63V7.69a.64.64,0,0,1,.64-.64H20a.64.64,0,0,1,.63.64.63.63,0,0,1-.63.63h-1.9V9.44Z" fill="#231815"/>
    </g>
  </g>
</svg>
