<svg xmlns="http://www.w3.org/2000/svg" width="254.44" height="57.37" viewBox="0 0 254.44 57.37">
  <title>logo-2-black</title>
  <g id="圖層_2" data-name="圖層 2">
    <g id="MENU">
      <g>
        <g>
          <g>
            <path d="M9.51,28.27l.06-.1a.58.58,0,0,1-.12-.56,1,1,0,0,1,.21-.34s.08-.07.08-.1c0-.27.21-.44.25-.67.26-.09.45-.23.48-.5,0-.07.07-.12.11-.19a.64.64,0,0,0,.08-.19c0-.12,0-.25.14-.34s0-.08,0-.13.22-.38.19-.61c.23-.12.13-.32.14-.49s0-.35,0-.52a.24.24,0,0,1,.1-.24c.06-.05.07-.18.11-.28s.29,0,.34-.16c0,0,.09,0,.14,0s.13,0,.14,0c.08-.19.25-.13.4-.14h.73c.11,0,.25,0,.31.12s.14,0,.22,0,.26-.05.31.12.1,0,.16,0,.14,0,.18.1.13.05.2.06a.54.54,0,0,1,.5.25c.05.07.18.08.31.14s0,.27.2.3c0,.14.15.11.26.11s.23,0,.35,0,.25,0,.34-.11a.17.17,0,0,1,.13,0c.26.06.42-.2.66-.19,0,0,0,0,.06-.06l.26-.09c.09,0,.21,0,.26,0s.37-.15.56-.21l.41-.08a.52.52,0,0,0,.31-.16.56.56,0,0,1,.43-.21c.1-.18.28-.14.44-.15s.07,0,.08,0c.13-.2.34-.12.53-.15a1.63,1.63,0,0,0,.3-.07,2.34,2.34,0,0,1,.24-.09c.24-.08.47-.2.7-.29s.37-.25.62-.23c.08,0,.17-.07.25-.1s0,0,0,0c.23,0,.38-.15.57-.21a2.16,2.16,0,0,1,.75-.17s.08,0,.12-.06l.29-.09c.05,0,.12,0,.15,0,.15-.18.36-.15.56-.15,0,0,.11,0,.14,0,.33-.24.71-.14,1.07-.16s.54,0,.81,0a.64.64,0,0,1,.33.08c.2.1.43.15.63.24a1.55,1.55,0,0,1,.33.24l.41.37a.08.08,0,0,0,.08,0c.21,0,.28.15.41.24a.6.6,0,0,0,.15.09c.09,0,.2,0,.23.12s.09,0,.13,0,.18,0,.21.11.06,0,.09,0a1.68,1.68,0,0,1,.77.43.22.22,0,0,0,.14.06c.1,0,.2,0,.24.12a.25.25,0,0,0,.13,0c.15,0,.32,0,.4.15.22,0,.33.2.54.2a.55.55,0,0,1,.29.19.84.84,0,0,0,.48.31,1.28,1.28,0,0,1,.43.35,1.23,1.23,0,0,0,.89.45.44.44,0,0,1,.35.36c0,.25,0,.5,0,.74a.27.27,0,0,1-.09.22c-.07.06-.07.19-.08.29s0,.37-.14.51,0,.14,0,.21.05.25-.13.3c0,0,0,.07,0,.12s0,.14-.11.18-.06.08-.06.13,0,.18-.13.22,0,.06,0,.09,0,.1,0,.11c-.18.12-.15.31-.2.47s-.09.24-.13.35,0,.05,0,.06c-.25.14-.1.38-.15.56a.29.29,0,0,0,.06.17.36.36,0,0,1,0,.45.38.38,0,0,0-.08.17.58.58,0,0,1-.13.35c-.06.06,0,.19,0,.29s.06.29-.14.38a.49.49,0,0,0,0,.07,1.61,1.61,0,0,1-.3.6s0,0,0,0c0,.3-.3.38-.42.6a1.8,1.8,0,0,1-.55.51,3.53,3.53,0,0,1-.93.52c-.17.06-.32.19-.49.26a.66.66,0,0,1-.64,0l-.05,0a5.17,5.17,0,0,1-.7-.21c-.24-.07-.49-.09-.72-.16s-.19-.14-.29-.15-.42-.22-.66-.21c0,0-.06,0-.06,0a4.46,4.46,0,0,1-.46.08h-.49c-.06,0-.15,0-.17,0s-.31.11-.47.15a3.33,3.33,0,0,0-.72.21c-.12,0-.28.13-.28.31s-.06.1-.1.15a.2.2,0,0,0,0,.31.23.23,0,0,1,.11.23c0,.21,0,.42,0,.63s0,.26.12.36.05.19.05.29c0,.55,0,1.1,0,1.64a.51.51,0,0,0,.23.43c.12.1.31,0,.47,0a2.33,2.33,0,0,1,.36-.08c.37,0,.74,0,1.11-.07a.52.52,0,0,0,.3-.2.29.29,0,0,1,.27-.12h.38c.1,0,.22,0,.27-.11s.12,0,.18,0H29c.15,0,.34.06.43-.13l0,0c.27,0,.54-.11.81-.14s.45,0,.67,0a2.15,2.15,0,0,0,.5-.12.8.8,0,0,1,.79,0,.41.41,0,0,0,.19,0,3.78,3.78,0,0,1,.67.13c.25.06.46.28.75.2a.16.16,0,0,1,.09.05c0,.12.12.1.2.11s.08,0,.09,0c.18.26.45.11.68.14a1.13,1.13,0,0,0,.26,0c.08,0,.16,0,.19.09a.14.14,0,0,0,.08.07c.19.06.39.1.58.18a5.52,5.52,0,0,1,.55.26c.15.06.28.15.43.2a3.12,3.12,0,0,1,1.2.78,3.65,3.65,0,0,0,.36.31.12.12,0,0,0,.09,0c.1,0,.2,0,.24.12a.09.09,0,0,0,.05,0c.34,0,.48.29.73.41s.27.15.28.34.13.18.22.23.12.13.12.22,0,.4,0,.6-.05.3.14.38c0,0,0,.08,0,.12s0,.12,0,.13c.19.09.13.26.15.41s0,.14,0,.18.13.37.14.56a2.17,2.17,0,0,0,0,.36.76.76,0,0,0,.09.18.83.83,0,0,1,.07.13c0,.08,0,.16.13.2a.26.26,0,0,1,.06.17c0,.47,0,1,0,1.42,0,0,0,.09,0,.11-.23.17-.12.4-.13.61s0,.18,0,.27,0,.12,0,.13c-.22.12-.13.32-.14.49s0,.19-.12.25-.05.15-.05.23c0,.43,0,.87,0,1.31,0,.11,0,.23-.13.27s0,0,0,.07a.83.83,0,0,1-.2.62c-.1.17-.11.37-.21.52A.74.74,0,0,0,40,51c0,.12,0,.27-.13.33s0,0,0,.07.06.34-.15.45a.2.2,0,0,0,0,.11c0,.22,0,.44,0,.66a.7.7,0,0,1-.12.54.18.18,0,0,0,0,.16c.08.15,0,.28-.07.4a.74.74,0,0,0-.08.29c0,.09-.08.18-.11.29a2.13,2.13,0,0,1-.23.45s-.09.11-.08.15c.06.23-.11.4-.17.59a.46.46,0,0,1-.17.2,6,6,0,0,0-.81.78.28.28,0,0,1-.2.12,1.14,1.14,0,0,0-.19.1.43.43,0,0,1-.18.06c-.4,0-.8,0-1.2,0-.2,0-.24-.19-.38-.24s-.11-.07-.17-.08-.18,0-.2-.11,0-.05-.07-.05c-.31,0-.41-.27-.63-.39l-.18-.1c-.05,0-.12,0-.18-.07a.64.64,0,0,0-.19-.08c-.09,0-.18,0-.26,0s-.45-.15-.42-.43c-.14-.06-.34,0-.4-.18,0,0-.09,0-.14,0s-.15,0-.17-.1,0-.05-.06-.05c-.33,0-.44-.26-.65-.39s-.35-.3-.62-.27c-.07,0-.14-.06-.21-.08A.67.67,0,0,0,31,54c-.1,0-.2,0-.24-.12a.09.09,0,0,0-.05,0c-.22,0-.34-.18-.55-.19s-.14-.09-.22-.12c-.27-.12-.56-.22-.83-.35a1.77,1.77,0,0,1-.62-.43.58.58,0,0,0-.18-.17c-.17-.07-.19-.19-.19-.34a.4.4,0,0,1-.34-.46c0-.16,0-.32.16-.45a.37.37,0,0,1,.27-.1l1.9,0a.47.47,0,0,0,.38-.1c.05-.06.18-.06.27-.06l1.2,0c.15,0,.3,0,.4-.12s.11,0,.16,0l.3,0c.08-.13,0-.31.2-.4s0-.2,0-.31-.09-.36.14-.49c0,0,0-.13,0-.2,0-.47,0-.94,0-1.4,0-.12,0-.26.13-.34s0-.1,0-.15v-.33s0-.11,0-.12c.22-.1.12-.28.14-.43s0-.27,0-.41,0-.14,0-.15c.21-.09.13-.25.13-.38s0-.25.18-.42c-.07-.08-.23-.12-.18-.26s0-.1,0-.1c.22-.08.13-.26.14-.4a.24.24,0,0,0-.07-.13c-.14-.14-.15-.21,0-.34s.09-.22,0-.33-.12-.4,0-.46a.18.18,0,0,0,.11-.19c0-.1,0-.2,0-.31s0-.17-.11-.19a0,0,0,0,1,0,0c.05-.2-.21-.3-.2-.49a.15.15,0,0,0,0-.08c-.22-.07-.17-.24-.16-.38s-.09-.17-.15-.24a.59.59,0,0,0-.56-.25c-.14,0-.31,0-.4-.12S32,41,32,41H31a1.55,1.55,0,0,1-.36-.08,1,1,0,0,0-.24,0H28.18c-.06,0-.15,0-.16,0s-.22.12-.35.13H25.91a.58.58,0,0,0-.47.16,2.16,2.16,0,0,1-.4.28l.14.16A.32.32,0,0,0,25,42a.49.49,0,0,1-.1.36.52.52,0,0,0,0,.54.32.32,0,0,0,.24.13c.12,0,.25,0,.38,0s.19,0,.25.09.12.06.18.06h.73c.2,0,.25-.09.31-.27a1.28,1.28,0,0,1,.43-.67h0c.4-.06.75-.31,1.17-.21a.77.77,0,0,1,.29.19s.07.09.1.09c.22,0,.35.19.57.22a2.45,2.45,0,0,1,.68.26c.14,0,.24.12.23.28s.05.06.09.09l.06,0c-.06.29.22.48.21.76,0,.84,0,1.68,0,2.52,0,.12,0,.24-.14.3s0,.11,0,.18v.76a.47.47,0,0,1-.1.34.49.49,0,0,0-.06.3c0,.3,0,.29-.22.48a1.28,1.28,0,0,1-1.18.2c-.21,0-.36-.23-.52-.37s-.07-.08-.09-.08c-.23,0-.3-.16-.44-.24S28,48.3,28,48.3c-.24,0-.31-.16-.42-.31a2.34,2.34,0,0,0-.31-.32q-.28-.24-.57-.45a.31.31,0,0,0-.18-.07l-1.58,0c-.05,0-.13,0-.14,0s-.31.13-.47.15a2.34,2.34,0,0,0-.24.09,1.22,1.22,0,0,1-.17.07c-.1,0-.2,0-.23.12s-.08,0-.13.05-.2,0-.23.12-.08,0-.12,0-.21,0-.23.13l-.07,0a1,1,0,0,0-.62.32s-.12,0-.17,0a.83.83,0,0,0-.16.09s-.08.07-.11.07c-.23-.06-.27.15-.4.24a4.75,4.75,0,0,0-.4.38s-.11,0-.16,0-.12,0-.13,0-.17.12-.28.13-.24,0-.29.12a.28.28,0,0,1-.16,0h-.29c-.05,0-.12,0-.15,0-.25.28-.59.11-.88.16,0,0,0,0-.06,0a.47.47,0,0,1-.5-.18.36.36,0,0,0-.34-.14c-.1,0-.2,0-.28-.1s-.14,0-.21-.05-.24,0-.29-.13-.08,0-.13,0-.34.06-.42-.14a.06.06,0,0,0-.06,0c-.22,0-.29-.15-.42-.25s-.26-.28-.49-.25a.5.5,0,0,0-.31-.34.41.41,0,0,1-.21-.16.32.32,0,0,0-.3-.16c-.06,0-.11-.09-.17-.14s-.32-.2-.4-.34a5.18,5.18,0,0,0-.57-.67.56.56,0,0,1-.05-.23c0-.11,0-.21-.14-.27s-.16-.17-.25-.23a.41.41,0,0,0-.3,0,.7.7,0,0,0-.36.49c0,.13,0,.26-.12.37s0,.14,0,.21,0,.17-.11.23-.05.13-.06.2,0,.25-.1.34-.05.14-.05.21a.46.46,0,0,1-.24.5A2.17,2.17,0,0,0,11,49a.7.7,0,0,0-.21.6.28.28,0,0,1,0,.15,1.86,1.86,0,0,0-.1.25c0,.1,0,.22-.13.27s0,.07,0,.1a.33.33,0,0,1-.11.27c-.05,0-.05.13-.07.2s0,.21-.12.25l0,0c0,.24-.25.4-.21.65a.36.36,0,0,1-.14.35c-.19.16-.42.35-.37.65,0,0,0,0,0,0-.22.11-.14.31-.16.48s0,0,0,.05c-.23.1-.15.3-.15.46,0,.7,0,1.4,0,2.11,0,.11,0,.24-.13.29l0,0a4.35,4.35,0,0,1-.61.78,1,1,0,0,1-.88.33A.71.71,0,0,1,7,57.15.37.37,0,0,0,6.72,57c-.06,0-.11-.05-.17-.08a.27.27,0,0,0-.14-.07c-.1,0-.19,0-.23-.12s0,0,0,0c-.32,0-.43-.26-.64-.38s-.24-.28-.47-.3-.17-.11-.25-.16l-.32-.24a2.35,2.35,0,0,1-.07-.23H4.13c-.09,0-.19,0-.22-.09s0-.06-.06,0c-.25,0-.36-.19-.55-.28a.79.79,0,0,0-.22-.06c-.09,0-.2,0-.23-.12s-.05,0-.08,0a.8.8,0,0,1-.46-.27s0,0,0,0-.28-.1-.43-.15a.9.9,0,0,1-.3-.17c-.1-.08-.18-.2-.37-.2S1,53.81.9,53.73s-.21-.24-.33-.35-.24-.15-.21-.31c-.3-.22-.14-.53-.17-.8A.6.6,0,0,0,0,51.76c.23-.09.18-.28.18-.45v-.44c0-.08,0-.15.1-.2s0-.1.06-.16,0-.22,0-.33A.6.6,0,0,1,.42,50S.49,50,.49,50a3.2,3.2,0,0,1,.33-.73,5,5,0,0,1,.37-.63A1.6,1.6,0,0,0,1.57,48a.18.18,0,0,1,.05-.07c.14-.12.3-.22.32-.43s.13-.18.21-.27.07-.05.07-.08.12-.23.21-.32.2-.16.19-.31,0-.06.08-.09.16-.1.19-.16a2,2,0,0,1,.49-.51s.06,0,.07,0l.2-.48a1.4,1.4,0,0,0,.16-.26A.36.36,0,0,1,4,44.73s.1,0,.1-.08c0-.21.17-.3.3-.42l0,0c0-.32.36-.45.52-.69a3.78,3.78,0,0,0,.3-.51c.08-.18.25-.27.39-.39s.1,0,.12-.08a1.72,1.72,0,0,1,.57-.63c0-.23.21-.32.34-.46a.12.12,0,0,0,0-.08c0-.2.13-.3.25-.41s.18-.34.4-.4c0,0,0-.08,0-.12s0-.15.12-.17.06-.08.06-.11c-.06-.3.15-.47.34-.63a.51.51,0,0,0,.2-.41h.71s.09,0,.13.07.11.08.17.08.16,0,.21.11.11.05.18.06.29,0,.38.12.11,0,.16,0a1.68,1.68,0,0,1,1.05.3.49.49,0,0,0,.14,0c.14,0,.32,0,.4.14.26,0,.41.26.69.19a.29.29,0,0,1,.18.05.37.37,0,0,0,.44,0,1.52,1.52,0,0,1,.76-.12c.15,0,.32,0,.41-.13s.11,0,.17,0,.27,0,.35-.12.08,0,.13,0,.1,0,.11,0c.15-.21.38-.14.58-.16s.12,0,.14,0,.33-.12.51-.14.33,0,.46-.14.16,0,.24,0,.3,0,.44,0,.18-.12.28-.15.29,0,.34-.05.35-.11.53-.13.34,0,.45-.13.09,0,.14,0a.76.76,0,0,0,.68-.29c0-.43,0-.91,0-1.4s0-1,0-1.42c0-.09,0-.18,0-.27s0-.22-.11-.28,0-.09-.06-.14a.59.59,0,0,0-.59-.49H17.85c-.11,0-.23,0-.32-.09s-.16-.05-.24-.05l-.85,0c-.17,0-.36,0-.47-.15,0,0-.11,0-.16,0s-.29,0-.38-.13-.19,0-.22,0-.4-.11-.53-.3a.56.56,0,0,0-.54-.18.53.53,0,0,1-.4-.16,2.52,2.52,0,0,0-.51-.34,3.79,3.79,0,0,1-1.07-.56c0-.25-.31-.35-.48-.55,0,0-.08-.06-.08-.1,0-.19-.2-.28-.35-.38s-.34-.19-.38-.4c0-.06-.12-.11-.17-.17a3.5,3.5,0,0,0-.45-.51A.67.67,0,0,1,10,30c0-.24-.26-.42-.19-.68-.24-.18-.13-.43-.17-.66A1.91,1.91,0,0,0,9.51,28.27ZM19.58,42.13h-.85c-.05,0-.12,0-.14,0s-.26.12-.41.13-.18,0-.22,0a.77.77,0,0,1-.55.13c-.06,0-.15,0-.19.05s-.3.1-.46.11-.37,0-.48.07a.72.72,0,0,1-.46.11c-.31,0-.63,0-.94,0s-.36-.08-.45.14c0,0-.07,0-.11,0-.19,0-.25.16-.37.24a2.43,2.43,0,0,0-.34.3s0,.11,0,.12-.11.15-.12.24,0,.21-.07.24a.22.22,0,0,0-.12.21.54.54,0,0,1-.37.54l.26.35c.22-.08.33-.28.57-.29,0,0,0-.06.08-.09a.6.6,0,0,1,.5-.21.41.41,0,0,0,.4-.12s.1,0,.16,0l1.19,0a1.11,1.11,0,0,0,.3-.08,4.64,4.64,0,0,0,.72-.23c.07,0,.17,0,.26,0s.12,0,.14,0c.15-.2.37-.12.56-.14s.26,0,.31,0a.58.58,0,0,1,.43-.13s.09,0,.1,0,.34-.23.41-.43a.89.89,0,0,1,.21-.35.25.25,0,0,0,.1-.2ZM24.39,28.5c0,.31,0,.59,0,.87s.17.28.33.35.12,0,.13,0,.3-.09.46-.11a2.35,2.35,0,0,0,.6-.09,1.27,1.27,0,0,1,.5-.1h.82a.39.39,0,0,0,.37-.15c.08-.12.17-.43.07-.48s-.13-.24-.15-.38,0-.12,0-.13c-.17-.06-.13-.23-.2-.36a3.23,3.23,0,0,0-.44,0c-.33,0-.7-.1-1,.16,0,0,0,0,0,0-.24,0-.49,0-.68.16C24.87,28.22,24.67,28.42,24.39,28.5Zm-1.11-3.35a1.71,1.71,0,0,1,.29.08c.09.06.16.14.25.21a.22.22,0,0,0,.32,0,.21.21,0,0,1,.19-.09h.35c.06,0,.15,0,.16,0s.2-.12.31-.12l1,0c.11,0,.23,0,.28-.14a.24.24,0,0,0-.1-.31,1.23,1.23,0,0,0-1-.38h-.12c-.27,0-.57-.07-.8.15,0,0-.09,0-.14,0s-.41,0-.54.16c0,0-.06,0-.09,0C23.35,24.73,23.26,24.85,23.28,25.15Zm-6.07,5.42c.22.3.54.24.85.24a2.41,2.41,0,0,1,.38,0,.51.51,0,0,0,.44-.19.4.4,0,0,0,.06-.31c0-.1,0-.24-.07-.3a1.07,1.07,0,0,0-.9-.37,2.14,2.14,0,0,1-.44,0c-.17,0-.33,0-.44.16s-.15.42-.06.47S17.17,30.48,17.21,30.57Zm.47-3.88.13,0c.29,0,.34,0,.52-.18a.14.14,0,0,0,0-.15.57.57,0,0,0-.66-.14C17.68,26.38,17.68,26.52,17.68,26.69Z" fill="#231815"/>
            <path d="M25.48,5.68a.37.37,0,0,0,.24-.44s0-.07,0-.08c-.23-.12-.14-.33-.15-.51s0-.17-.11-.23-.06-.14-.07-.22,0-.24-.12-.3,0-.08-.05-.12,0-.07,0-.08c-.29-.2-.14-.49-.18-.74s.06-.28-.14-.35c0,0,0-.08,0-.12,0-.32,0-.64,0-1,0-.09,0-.16.12-.2s.07-.12,0-.17L24.72,1c-.1-.09-.12-.21,0-.29s.11-.11.09-.18.08-.22.16-.3c.3-.29.67-.21,1-.2.06,0,.11.07.17.1a4,4,0,0,0,.45.25,1.67,1.67,0,0,0,.53.14.14.14,0,0,1,.1.05c0,.12.15.09.24.1A.48.48,0,0,1,28,1a.22.22,0,0,0,.09.12l.69.52s.08.07.08.1.12.17.23.22a1,1,0,0,1,.29.2,4.86,4.86,0,0,1,.38.41s0,0,0,0c.31,0,.44.32.73.38a1,1,0,0,1,.42.31,1.1,1.1,0,0,0,.49.32c.18,0,.31.23.46.35S31.92,4,32,4c.31,0,.42.27.64.4a.83.83,0,0,1,.38.42c.05.14.25.23.38.35l.58.49,0,0c0,.16.1.26.18.39s0,.22.17.27,0,.09,0,.13,0,.13,0,.16.15.31.15.48v.52c0,.13-.05.28.15.34,0,0,0,.07,0,.1a.3.3,0,0,0,.23.33.61.61,0,0,0,.48,0,.82.82,0,0,1,.52-.12h.35l.22,0a2.35,2.35,0,0,1,.35-.11c.14,0,.3,0,.38-.14s.09,0,.13,0,.3,0,.42-.13.21,0,.32,0,.09.08.14.09c.27.08.51.22.77.31a1,1,0,0,1,.39.26.28.28,0,0,0,.27.1.45.45,0,0,1,.47.3.33.33,0,0,0,.23.18.78.78,0,0,1,.22.15c.23.17.45.34.69.5a1,1,0,0,1,.39.63,1.23,1.23,0,0,1-.16.57c-.11.25-.37.39-.55.59,0,0-.08,0-.08.07,0,.24-.28.25-.38.41s-.1,0-.16,0-.27,0-.36.12-.13,0-.2,0-.24,0-.33.12-.18,0-.27,0l-3.07,0c-.13,0-.28,0-.36.12s-.1,0-.15.05l-.17.08s-.08.07-.12.07c-.23,0-.37.14-.56.23v.39a.4.4,0,0,1-.09.33.45.45,0,0,0-.08.23c0,.19,0,.38,0,.57s0,.23-.13.27,0,.08,0,.12a.87.87,0,0,1-.35.76.5.5,0,0,0-.19.41c-.24,0-.33.14-.49.23l-.47.29s-.06,0-.07,0c-.16.37-.5.43-.87.46h-.12a2.62,2.62,0,0,1-.39.15c-.14,0-.29,0-.39.14s-.12,0-.19,0h-.73a1.07,1.07,0,0,1-.46-.11,2.15,2.15,0,0,0-.63-.23,2.58,2.58,0,0,1-.57-.16c0-.08,0-.17-.05-.28l-.3,0c-.07-.11,0-.3-.18-.34,0,0,0-.07,0-.1s0-.12,0-.13c-.28-.18-.12-.45-.16-.67s0-.19-.13-.25-.05-.16-.05-.25,0-.34-.14-.48,0-.1,0-.15,0-.22-.14-.26,0-.12,0-.18,0-.38,0-.58,0-.17-.1-.23-.06-.16-.07-.24.05-.35-.15-.47c0,0,0,0,0-.05a1,1,0,0,0-.18-.66c-.05-.07,0-.18-.14-.22s0-.13,0-.2c0-.32,0-.64,0-1,0-.12,0-.24-.11-.34s0-.16-.05-.25,0-.33,0-.49a.13.13,0,0,1,0-.11c.21-.17.11-.32,0-.5a.69.69,0,0,1,0-.38.51.51,0,0,0-.25-.5.22.22,0,0,1-.1-.18V7.06c0-.12,0-.28-.14-.35,0,0,0-.1,0-.15V6.07A.34.34,0,0,0,25.48,5.68Z" fill="#231815"/>
            <path d="M12.06,17.74a.4.4,0,0,1-.57.05.6.6,0,0,0-.3-.06.57.57,0,0,1-.4-.11.24.24,0,0,0-.16-.05c-.11,0-.21,0-.28-.11s-.08,0-.12-.05l-.23-.1s-.05,0-.07,0c-.26,0-.44-.14-.66-.2A1.88,1.88,0,0,1,9,16.86a6,6,0,0,0-.61-.52A1.64,1.64,0,0,1,7.88,16c-.08-.1-.19-.26-.39-.2h0c-.11-.18-.32-.12-.48-.16a4.51,4.51,0,0,1-.52-.17,1.15,1.15,0,0,1-.26-.19C6.06,15.12,6,15,5.73,15s-.17-.11-.24-.17l-.6-.57s0,0,0,0c-.27,0-.39-.21-.57-.34s-.41-.35-.63-.5a.21.21,0,0,1-.11-.2v-.53a.32.32,0,0,1,.1-.26c.11-.09.13-.25.21-.37s.14-.36.32-.49,0-.24.15-.29c.06-.33.42-.41.62-.63a1.81,1.81,0,0,1,.49-.41,1,1,0,0,1,.49-.12A.27.27,0,0,0,6.13,10a6.28,6.28,0,0,1,.54-.49.21.21,0,0,1,.29,0,.36.36,0,0,0,.26.09.64.64,0,0,1,.69.48l.29,0a.23.23,0,0,1,.23.09s.07.05.12.06a2.18,2.18,0,0,1,1.08.6.39.39,0,0,0,.2.06c.14,0,.28,0,.38.1s.1,0,.16,0l1.75,0H13c.12,0,.26-.05.32.12s.12,0,.19,0h.79c.09,0,.19,0,.25.1s.15,0,.23.06.22,0,.3.1.18,0,.27,0,.34,0,.45.13c0,0,.07,0,.11,0h.9c0-.12,0-.24,0-.35s0-.39,0-.58a.52.52,0,0,0-.1-.26.69.69,0,0,1-.05-.69c.07-.17.31-.29.49-.39s.34-.25.57-.2a.06.06,0,0,0,.06,0c.34-.27.75-.14,1.12-.14.22,0,.43.16.68.16.15.2.48.18.6.43,0,0,.19,0,.21,0s.36.11.5.26a.67.67,0,0,0,.48.17,1.09,1.09,0,0,1,.66.3c.09.05.15.16.24.21s.21.21.41.2.18.14.28.22.05.06.08.07a3.21,3.21,0,0,1,1,.36,2.32,2.32,0,0,1,.69.53c.1.09.25.18.22.35.25.12.13.41.3.58s0,.28,0,.42a1,1,0,0,1-.41.85,1.47,1.47,0,0,0-.44.72,1.16,1.16,0,0,1-.41.59.4.4,0,0,0-.14.18.27.27,0,0,1-.13.15c-.3.14-.46.43-.72.62l-.16.13a.54.54,0,0,0-.21.41l-.27,0c-.06,0-.15,0-.17.05s-.24.11-.38.14l0,.27c-.11.09-.33,0-.36.17-.19,0-.15.19-.17.31l-.4.26a.2.2,0,0,0-.07.09.91.91,0,0,1-.58.57c-.06,0-.11.1-.18.12s-.22.24-.43.21c-.06,0-.1.15-.24.14-.32,0-.65,0-1,0-.09,0-.17-.13-.26-.19a.43.43,0,0,0-.21-.11.56.56,0,0,1-.3-.19c-.17-.15-.15-.39-.34-.53s0-.19,0-.29c0-.27,0-.29-.32-.31-.1,0-.19,0-.26-.09s-.1-.06-.15-.06h-.61c-.16.22-.4.13-.61.15s-.4,0-.57.14a.3.3,0,0,1-.29,0,.43.43,0,0,0-.37-.11h-.64c-.11,0-.22,0-.27.11s-.08.05-.13.05c-.23,0-.47,0-.7,0C12.25,17.86,12.17,17.79,12.06,17.74Z" fill="#231815"/>
          </g>
          <g>
            <path d="M81.12,30c.14.12.19.33.42.31.08.14.24.15.36.22a.27.27,0,0,1,.09.2c0,.24.21.4.29.61,0,0,.06.06.07.09,0,.3.27.48.42.71a1.2,1.2,0,0,1,.35.61,1,1,0,0,0,.22.43.33.33,0,0,1,.06.36,3.28,3.28,0,0,1-.35.67c-.32.41-.67.81-1,1.2-.1.12-.24.22-.34.34a2.93,2.93,0,0,0-.33.53,2.57,2.57,0,0,1-.63.83,3.46,3.46,0,0,0-.64.84,9.67,9.67,0,0,1-1,1.48l-.2.31c.18.16.33.33.51.46a1.53,1.53,0,0,0,.54.37s.09.06.14.1a1.62,1.62,0,0,0,.78.43c.11,0,.2.13.29.21s.14.22.23.28.21.27.42.21c.12.16.32.15.48.23a3.22,3.22,0,0,1,.92.76c.09.1.24.08.35.19s.35.17.53.24a3.82,3.82,0,0,0,.46.21,1.24,1.24,0,0,1,.5.31.57.57,0,0,0,.47.17c.06,0,.12.07.19.11s0,.05,0,.05c.35,0,.61.29,1,.25.11,0,.24.07.35.13a5.8,5.8,0,0,1,.8.45,3,3,0,0,0,.64.39,2,2,0,0,1,.68.34,1.53,1.53,0,0,0,.59.21c.09,0,.2,0,.24.13s0,0,.07,0c.21.07.43.12.64.2a.85.85,0,0,1,.35.19c.13.16.3.14.46.16s.22,0,.29.1.13,0,.19.06.31-.06.39.14c0,0,.11,0,.17,0,.26,0,.54-.07.75.17.26,0,.48.28.77.19h0a6.82,6.82,0,0,0,.68.25.59.59,0,0,0,.29.1s.1,0,.12,0c.16.19.37.14.58.17s.21.1.33.14.27,0,.34.08a.57.57,0,0,0,.41.12c.14,0,.3,0,.39.13.23,0,.33.26.57.22,0,0,.08.05.11.08s0,0,.06.06l.71.17c.13,0,.23,0,.31.17a.64.64,0,0,0,.35.2,2.48,2.48,0,0,0,.39,0c.13,0,.28-.05.36.12.28,0,.47.25.77.25s.46.18.73.17c.16.22.51.07.67.31h0c.39,0,.66.22,1,.38a.66.66,0,0,0,.16.41,1,1,0,0,1,.21.49.64.64,0,0,1-.24.68.79.79,0,0,1-.33.2c-.18.06-.35.17-.54.24s-.1.14-.13.22a1.31,1.31,0,0,0,0,.25l-.28-.11c-.19-.08-.26-.07-.41.09a.76.76,0,0,1-.47.24c-.22,0-.43.18-.68.2,0,0,0,.06-.07.08a1.18,1.18,0,0,1-.51.26,1.18,1.18,0,0,0-.51.26,1.41,1.41,0,0,0-.32.24,1.07,1.07,0,0,1-.42.18c-.14,0-.33,0-.42.18s-.11,0-.16,0a1,1,0,0,0-.17.1s-.07.08-.11.08a.68.68,0,0,0-.42.19.74.74,0,0,1-.43.19s-.1.05-.15.07l-.3.11-.39.17c-.14,0-.29.07-.43.12s-.42.33-.63.5c0,0-.07.1-.11.1s-.22.12-.32.2a5,5,0,0,1-.46.34.6.6,0,0,1-.2,0c-.12,0-.25,0-.32.12a.1.1,0,0,1-.05,0c-.31.07-.63.16-.95.2s-.54,0-.81,0a1.14,1.14,0,0,1-.93-.3l0,0a1.09,1.09,0,0,1-.61-.18,1.72,1.72,0,0,0-.33-.14c-.06.19-.2.15-.32.11l-.36-.52L89,55.62c-.17,0-.3-.25-.55-.2A2.57,2.57,0,0,1,88,55c-.13-.2-.35-.29-.48-.48a1.05,1.05,0,0,0-.31-.28c-.13-.1-.2-.27-.41-.29s-.19-.16-.29-.25c-.28-.27-.58-.52-.83-.81a2.27,2.27,0,0,1-.49-.61,2.37,2.37,0,0,0-.54-.61,1.79,1.79,0,0,1-.52-.64.35.35,0,0,0-.15-.17c-.17-.09-.18-.3-.3-.43s-.45-.48-.68-.71a3,3,0,0,1-.54-.59,2.29,2.29,0,0,0-.43-.45c-.27-.26-.52-.54-.8-.77a4.79,4.79,0,0,1-.75-.67c-.48-.12-.7-.57-1-.85,0,0,0,0-.07-.06-.34-.1-.52-.39-.74-.63s-.18-.29-.34-.38a1.64,1.64,0,0,1-.42-.26c-.1-.11-.29-.17-.26-.38,0,0,0-.1-.08-.14a3.5,3.5,0,0,0-.5-.44,6.22,6.22,0,0,1-.7-.66c-.22-.22-.31-.21-.52,0a2.38,2.38,0,0,1-.43.34,5.08,5.08,0,0,1-.47.23.52.52,0,0,0-.17.16c-.19.26-.35.54-.55.79a1.46,1.46,0,0,1-.35.3,1.64,1.64,0,0,0-.54.54,1.93,1.93,0,0,1-.76.74,5.35,5.35,0,0,0-.62.44c-.13.09-.27.19-.39.29s-.11.11-.17.16a2.93,2.93,0,0,1-.43.36,1.47,1.47,0,0,0-.49.41.67.67,0,0,1-.25.25,3,3,0,0,0-.67.5s-.07.07-.1.07a.92.92,0,0,0-.63.25c-.3.22-.63.1-.93.16s-.43-.14-.63-.22a2.36,2.36,0,0,1-.32-.2v-.42c.36,0,.49-.32.67-.56,0,0,0-.12.06-.14.32-.11.39-.44.56-.68s.13-.31.23-.44c.25-.32.53-.62.79-1a2.54,2.54,0,0,0,.48-.71,3.18,3.18,0,0,1,.34-.57,4.34,4.34,0,0,1,.33-.54,7.92,7.92,0,0,0,.42-.69c0-.08.12-.15.17-.24.25-.43.54-.84.81-1.26a5.3,5.3,0,0,0,.55-.9,2.09,2.09,0,0,1,.34-.53.56.56,0,0,0,0-.57.47.47,0,0,0-.37-.29l-.29,0L72,39.24a.6.6,0,0,1-.43-.22L71.5,39c0-.22-.18-.3-.23-.48s-.18-.22-.28-.33-.25-.22-.25-.41-.21-.28-.33-.33c0,.35-.27.63-.2,1a.22.22,0,0,1-.06.2c-.15.11-.11.26-.12.4s0,.35-.13.49,0,.15,0,.23,0,.34,0,.51a1.93,1.93,0,0,1-.32.84.13.13,0,0,0,0,.08c0,.26-.18.43-.2.67,0,0,0,.06-.07.09a.26.26,0,0,0,0,.4.27.27,0,0,1,.06.3c-.15.31-.31.61-.45.92s-.15.38-.23.57-.15.32-.23.49l-.4.07s0,.06,0,.08,0,.33-.17.46-.16.26-.32.35a.4.4,0,0,0-.24.39,1,1,0,0,1,0,.28c-.34,0-.49.24-.64.44a8.47,8.47,0,0,1-.63.7c-.23.24-.51.43-.72.69s-.41.37-.49.66a.4.4,0,0,1-.22.24c-.25,0-.36.25-.52.39s-.29.4-.59.39c-.05,0-.1.1-.16.14l-.69.49a.34.34,0,0,1-.14.05c-.2,0-.42,0-.57.18-.3,0-.52.28-.83.24h-.06c-.37.27-.8.1-1.21.14a.59.59,0,0,1-.2-.09c-.06,0-.11-.07-.16-.07a.62.62,0,0,1-.46-.19c-.1-.12-.32-.11-.4-.2a.6.6,0,0,0-.36-.17.25.25,0,0,0,0-.07c-.31-.5-.16-.4.12-.81a8,8,0,0,1,.7-.72.1.1,0,0,0,0,0,2.36,2.36,0,0,1,.68-.89,0,0,0,0,1,0,0,4.6,4.6,0,0,1,.2-.66,2.66,2.66,0,0,1,.25-.57c0-.09.07-.18.11-.27a3.36,3.36,0,0,1,.19-.38c.2-.25.2-.63.5-.8a6.45,6.45,0,0,1,.49-.81,1.9,1.9,0,0,1,.39-.64c0-.24.25-.36.22-.61,0-.08.15-.18.24-.27s.08-.05.08-.07c0-.36.28-.66.2-1s.17-.37.24-.57.08-.18.1-.27,0-.35.15-.45c0,0,0-.1,0-.14s0-.12,0-.15c.22-.27.11-.59.16-.89,0-.14,0-.32.14-.42s0-.15,0-.23,0-.24.12-.31,0-.12,0-.19c0-.24,0-.48,0-.71a.42.42,0,0,1,.12-.35c.06-.07,0-.23,0-.35a.65.65,0,0,1,.13-.53s0-.11,0-.17c0-.47,0-1,0-1.43a.43.43,0,0,1,.1-.36s0-.15,0-.22c0-.6,0-1.19,0-1.79,0-.13,0-.28.12-.36s0-.13,0-.19c0-.57,0-1.14,0-1.7,0,0,0-.07,0-.09a1.61,1.61,0,0,0,.16-.81c.23-.17.13-.42.16-.64s.12-.33,0-.51,0-.1.06-.16a.83.83,0,0,0,.08-.22.6.6,0,0,1,.14-.47s0-.17,0-.25c0-.27,0-.54,0-.81s0-.36.1-.51,0-.12,0-.18c0-.58,0-1.15,0-1.73a1.06,1.06,0,0,0-.09-.58.82.82,0,0,1,0-.47c0-.2.09-.4.13-.61a1.18,1.18,0,0,0,0-.27c0-.09,0-.2.1-.25s.05-.06.06-.1c0-.23.12-.45.15-.68s.17-.27.3-.38.1.09.15.09a2.07,2.07,0,0,1,.83.33.42.42,0,0,0,.2,0h.47c.06,0,.16,0,.17,0,.12.21.31.13.48.14h.84a3.76,3.76,0,0,1,.93.15,2.34,2.34,0,0,0,.83,0,1.69,1.69,0,0,0,.42-.13c.07,0,.13-.08.19-.11a.47.47,0,0,1,.09-.06c.4-.07.79-.15,1.19-.21a.52.52,0,0,0,.36-.13,1.13,1.13,0,0,1,.54-.2,2.12,2.12,0,0,1,.44-.05.21.21,0,0,0,.21-.24v-1s0-.09,0-.1c-.19-.08-.14-.25-.14-.39l0-2.18c0-.14.06-.3-.13-.4s0-.14,0-.22c0-.53,0-1.06,0-1.59,0-.11,0-.22,0-.33a.69.69,0,0,1,.14-.58l-.13-.17s0,0,0,0c.31-.29.06-.65.13-1a.21.21,0,0,0,0-.14c-.21-.11-.14-.31-.14-.47s0-.54,0-.81a.77.77,0,0,0-.13-.51.2.2,0,0,1,0-.08c0-.31-.17-.56-.23-.85a4.65,4.65,0,0,0-.28-.7c-.08-.2-.17-.39-.26-.58a1,1,0,0,0-.08-.18.44.44,0,0,1,0-.48A2.17,2.17,0,0,1,73.42,6a.21.21,0,0,1,.11,0c.5,0,1-.28,1.46-.21.12,0,.24,0,.36,0a2.64,2.64,0,0,1,1.2.28,6.15,6.15,0,0,1,.81.41l.62.38c.34.22.68.44,1,.68a14.62,14.62,0,0,1,1.24,1,6.51,6.51,0,0,1,.75.9.74.74,0,0,1,.12.29,1.61,1.61,0,0,1-.31,1.3c-.18.22-.29.48-.45.71a1,1,0,0,0-.14.6c0,.93,0,1.86,0,2.79a2,2,0,0,1-.08.4s0,0,0,0c.16.28-.13.53-.07.8,0,0,0,.1,0,.11-.22.12-.12.33-.15.5a1.91,1.91,0,0,1-.15.69,1.8,1.8,0,0,0,0,.66c.16,0,.29,0,.42-.08a.49.49,0,0,1,.25-.08l1.28-.06a.49.49,0,0,0,.37-.09s.13,0,.19-.06a1.76,1.76,0,0,0,.2-.09.64.64,0,0,1,.19-.08.61.61,0,0,0,.42-.17,2.12,2.12,0,0,1,.72-.4,2.55,2.55,0,0,0,.28-.21.59.59,0,0,1,.66,0,1,1,0,0,0,.34.07c.1,0,.21,0,.24.12s0,0,0,0c.18,0,.27.13.4.2s.47.21.69.33a1,1,0,0,0,.59.22s.08.08.13.11a3.12,3.12,0,0,1,.87.71l0,0c.32,0,.43.33.66.48s.19.34.36.47a2.28,2.28,0,0,1,.48.5c.19.28.53.42.65.76a.15.15,0,0,0,.1.09.78.78,0,0,1,.42.32s0,.05.06.05c.26,0,.39.22.56.38a2.59,2.59,0,0,0,.46.41c.15.1.22.33.37.43s.19.32.33.46,0,.27,0,.41-.09.46.13.66a.28.28,0,0,1,0,.28c-.15.15-.13.34-.17.53a.76.76,0,0,0-.4.2,3.09,3.09,0,0,1-.71.4c-.29.16-.63.21-.9.39s-.32.27-.48.4a.42.42,0,0,1-.12.08,1.37,1.37,0,0,0-.79.5.15.15,0,0,1-.06,0,2.28,2.28,0,0,0-.83.5.59.59,0,0,1-.14.06c-.08,0-.19,0-.2.13s0,0,0,0c-.38.07-.53.45-.81.65a5.8,5.8,0,0,1-.62.49,3.11,3.11,0,0,0-.9.63c-.21,0-.32.27-.55.26,0,0-.08,0-.13.06l-.26.11c-.06,0-.14,0-.17,0-.19.22-.44.15-.67.17s-.41-.08-.56.15c0,0-.23,0-.3,0a.6.6,0,0,0-.39-.1c-.28,0-.56,0-.84,0a.26.26,0,0,1-.18-.06C81.37,29.89,81.25,30,81.12,30Zm2.5-7.21a.52.52,0,0,0-.5,0,.9.9,0,0,1-.5.12c-.27,0-.58-.11-.8.16,0,0-.07,0-.11,0a.82.82,0,0,1-.27,0c-.4-.07-.74.17-1.12.21a.14.14,0,0,0-.08.05c-.1.12-.24.11-.38.12s-.22,0-.33,0c-.32,0-.61.2-1,.16a.26.26,0,0,0-.19.06,1,1,0,0,0-.41.86c0,.08,0,.2,0,.23s-.12.32-.14.49,0,.1,0,.11c-.18.11-.14.28-.11.43.08.38-.2.67-.23,1,0,0,0,0-.07.05a.25.25,0,0,0-.06.13.75.75,0,0,1-.17.61c0,.4,0,.81,0,1.22,0,.12.13.23.21.38h2.16a.35.35,0,0,1,.32.1,1.2,1.2,0,0,0,.42.23.13.13,0,0,0,.11,0c.24-.25.54-.48.53-.89,0-.05,0-.11.08-.17a1.93,1.93,0,0,0,.26-.49c.06-.22.26-.4.21-.66a.07.07,0,0,1,0-.05c.16-.06.14-.2.14-.32a.64.64,0,0,1,.21-.47c.11-.13.26-.26.27-.4s.27-.33.23-.55c.13-.11.11-.3.2-.41a3,3,0,0,0,.32-.62.64.64,0,0,1,.08-.14c0-.05.09-.1.08-.14,0-.21.14-.28.23-.41s.09,0,.09-.06a2.2,2.2,0,0,1,.22-.67A1.62,1.62,0,0,0,83.62,22.82ZM72.16,25.73a1,1,0,0,0-.2.52,3.92,3.92,0,0,0-.07.68c0,.25,0,.5,0,.75,0,.06,0,.17-.05.19s-.12.17-.12.28a1.24,1.24,0,0,1-.14.8s0,.1,0,.15a1.26,1.26,0,0,1-.14.73c-.09.12,0,.35,0,.53s0,.29,0,.35-.09.38-.12.58,0,.28-.1.36a.3.3,0,0,0-.1.26q0,.31,0,.63c0,.32-.26.57-.2.9l0,0c-.15.1-.12.26-.13.4s0,.25,0,.29c-.21.14-.11.34-.12.52a.22.22,0,0,0,.22.26,3.07,3.07,0,0,1,.9.14,6.27,6.27,0,0,1,.64.3c.12.05.2.21.31.22a.92.92,0,0,1,.55.32c.23.29.6.42.82.72a.33.33,0,0,0,.32,0c.07-.07.13-.13.21-.12a.8.8,0,0,1,.26.09l.18-.11,1.28-2.29c-.14,0-.25-.1-.36,0a.25.25,0,0,1-.15.08.52.52,0,0,0-.36.19.51.51,0,0,1-.31.2.74.74,0,0,0-.63.33c-.19.24-.21.22-.5.07,0,0,0,0-.08,0a1.06,1.06,0,0,1-.71-.34c-.06-.07-.14-.13-.2-.19s-.35-.24-.41-.41a1.34,1.34,0,0,0-.33-.44c-.13-.13-.27-.24-.25-.45,0,0-.06-.08-.1-.13s-.07-.07-.07-.11a.44.44,0,0,0-.17-.26.69.69,0,0,1-.17-.27c0-.11,0-.18.11-.26a.24.24,0,0,0,0-.17.59.59,0,0,1,.17-.44c.1-.12.24-.06.33-.18s0-.17.07-.26.26,0,.34-.18a.47.47,0,0,1,.27-.19c.2,0,.32-.26.53-.22a.44.44,0,0,1,.38-.18s0,0,.06-.05a.46.46,0,0,0,.18-.46c0-.17,0-.39-.06-.49a.75.75,0,0,1-.15-.49.31.31,0,0,0,0-.17.6.6,0,0,1-.12-.53c0-.18-.09-.4.14-.54,0,0,0-.07,0-.11,0-.24,0-.48,0-.72s-.06-.42.14-.58a.24.24,0,0,0,0-.09c0-.25,0-.51,0-.78-.22,0-.41-.07-.55.13a.23.23,0,0,1-.16.05,1.58,1.58,0,0,0-.85.34Z" fill="#231815"/>
            <path d="M52.18,34.08l.19-.13s0-.07,0-.07a.3.3,0,0,1-.17-.33c0-.11,0-.24-.13-.29S52,33.1,52,33s.05-.26-.13-.29c0,0-.05,0,0-.07,0-.19-.12-.27-.21-.38s-.2-.16-.17-.33-.06-.06-.09-.1-.07,0-.08-.07a.94.94,0,0,0-.3-.47.2.2,0,0,1-.07-.09c0-.13,0-.26-.16-.3,0,0,0-.09,0-.14a.58.58,0,0,0,0-.14c0-.06-.14-.1-.14-.16a5.3,5.3,0,0,1,0-.69c0-.1.2-.09.17-.24s0-.17.12-.23.06-.2.08-.33h.35a.39.39,0,0,1,.14.08.23.23,0,0,0,.38,0,.42.42,0,0,1,.52,0s.08.05.1.09a.38.38,0,0,0,.43.17c.09,0,.18,0,.21.12s0,.05.06.05.28,0,.34.16c0,0,.07,0,.11,0,.27-.06.42.11.57.29,0,0,0,.06.06.06.33,0,.44.28.64.44a9.2,9.2,0,0,1,.76.77.13.13,0,0,0,.07,0c.18,0,.26.08.36.18a.42.42,0,0,0,.36.19c.07,0,.16.11.23.19.26.26.52.52.77.79,0,0,0,.06.06.06.34,0,.45.28.65.44s.54.55.82.81a.24.24,0,0,1,.1.19,4,4,0,0,0,0,.69.63.63,0,0,1-.27.56c-.15.14-.3.3-.45.45s0,.05,0,.05-.24,0-.3.08-.11.16-.22.15-.17,0-.18.11a0,0,0,0,1,0,0c-.1,0-.24,0-.3.09s-.1.15-.22.14-.16,0-.18.11,0,0,0,0-.24,0-.3.08-.1.16-.22.15-.16,0-.18.11,0,.06-.06.06c-.33,0-.4.31-.63.42a.35.35,0,0,0-.17.17c-.06.15-.25.2-.22.41s-.14.19-.23.27-.17.14-.25.21,0,.09,0,.14,0,.19-.11.21-.07.07-.06.09c.06.21-.13.29-.22.4s-.16.13-.14.26,0,.11-.1.16a2.83,2.83,0,0,0-.4.38s0,0,0,.08,0,.24-.14.28c0,0,0,.09,0,.14s0,.18-.12.2a.14.14,0,0,0-.05.1c0,.11,0,.24-.14.28s0,.09,0,.14,0,.18-.12.21,0,0,0,.09,0,.25-.15.28c0,0,0,.09,0,.14V43c0,.08,0,.15.11.19s.1.1.16.17l.46-.44.83-.85c.06-.06.15-.11.19-.19s.16-.16.3-.18.14-.1.2-.17c.27-.26.54-.53.8-.8s.51-.55.78-.82.55-.54.82-.81c0,0,.07-.1.09-.1.18,0,.27-.08.36-.19s.09-.07.08-.1c0-.23.16-.31.27-.43s.32-.27.28-.53h.33a10.84,10.84,0,0,1,0,1.14c0,.1-.17.18-.25.28s-.31.2-.27.43c0,0,0,0,0,0-.23.1-.12.3-.17.46a.52.52,0,0,1-.23.3.17.17,0,0,0-.11.21.48.48,0,0,1-.23.51.25.25,0,0,0-.13.23c0,.06-.07.1-.1.16a.37.37,0,0,0-.07.14c0,.1,0,.2-.13.23s0,.09-.05.13,0,.21-.13.23,0,.09,0,.13,0,.2-.13.23,0,.11,0,.16,0,.13,0,.14c-.21.08-.16.26-.14.4s-.15.26-.24.33a.34.34,0,0,0-.12.27c0,.13,0,.28-.14.35,0,0,0,.11,0,.16a.83.83,0,0,1-.09.16s-.07.07-.08.11,0,.24-.15.29,0,.09,0,.13,0,.13,0,.14c-.29.16-.12.43-.14.64s.1.15.16.24c-.22.09-.17.3-.16.48s0,.11,0,.12c.22.1.14.3.16.47s0,.24.13.29,0,.1,0,.16,0,.24,0,.36,0,.13,0,.14c.2.07.14.23.15.37s0,.17.12.21.05.14.06.21,0,.28.15.34c0,0,0,.09,0,.14s0,.18.12.2a0,0,0,0,1,0,0c0,.22.22.34.22.56a4.89,4.89,0,0,0,0,.54c0,.12.07.23.09.34,0,.31,0,.61.08.92,0,0,0,.08,0,.08-.21,0-.12.22-.17.36l-.18,0s-.13,0-.14.07-.11.1-.19.11-.13,0-.14,0c-.08.23-.27.15-.43.16a2.54,2.54,0,0,1-.39,0c-.11,0-.24.05-.32-.12s-.25-.06-.34,0l-.1.11c-.06-.16-.15-.25-.31-.2a.29.29,0,0,0-.12.07c-.15.15-.21.15-.36,0a.31.31,0,0,0-.18-.07h-.54c-.08,0-.15,0-.19-.1s-.11-.07-.17-.08-.15,0-.19-.1a.22.22,0,0,0-.17-.07h-.35c.06-.38-.28-.48-.43-.7s-.21-.12-.25-.21a.28.28,0,0,0-.31-.17s-.07,0-.11-.08-.07-.09-.1-.08c-.21.06-.31-.12-.39-.22s-.18-.11-.29-.15-.28-.18-.28-.27-.19-.29-.29-.43-.06,0-.09-.07a.53.53,0,0,1-.19-.47s0-.13,0-.14c-.22-.08-.15-.27-.15-.43s0-.53,0-.8c0-.07,0-.18,0-.2.23-.11.12-.31.12-.47s-.1-.11-.18-.19c.24-.1.19-.31.19-.49s0-.38,0-.57.05-.27-.14-.32c0,0,0-.1,0-.16s0-.28,0-.42,0-.26-.14-.32c0,0,0-.14,0-.22s0-.26-.14-.31,0-.11,0-.16,0-.28,0-.42,0-.26-.14-.32c0,0,0-.27,0-.29s.12-.22.13-.35a1.92,1.92,0,0,1,0-.24.47.47,0,0,1,.09-.17.91.91,0,0,0,.08-.13c0-.11,0-.22.14-.26s0-.09,0-.13,0-.18.11-.21.07-.07.06-.09c0-.17.09-.23.17-.34s.11-.12.19-.1c.25.05.39-.12.54-.28a.45.45,0,0,0,.18-.45c0-.14.09-.16.16-.24s.22-.33.46-.31c.06,0,.26-.27.27-.34s-.07-.34.15-.43c0,0,0-.07,0-.11s0-.13,0-.14c.22-.1.14-.29.16-.46a.5.5,0,0,1,.08-.14s.08-.08.09-.13,0-.22.14-.26,0-.08,0-.13,0-.24,0-.36,0-.13,0-.14c.25-.12.14-.34.16-.52s0-.25.14-.29,0-.09,0-.13,0-.24,0-.36,0-.14,0-.15c.25-.12.13-.34.15-.52s0-.22.12-.27a.11.11,0,0,0,.05-.09,4,4,0,0,0,0-.69C52.37,34.23,52.27,34.18,52.18,34.08Z" fill="#231815"/>
            <path d="M58.36,25.89a.37.37,0,0,0-.43-.21c-.11,0-.22,0-.26-.13s-.11-.06-.16,0c-.24.06-.38-.1-.52-.23s-.22-.18-.39,0a.25.25,0,0,1-.34,0c-.13-.15-.23-.31-.47-.31-.09,0-.17-.15-.26-.23a.36.36,0,0,0-.15-.1c-.1,0-.21,0-.23-.13s0,0-.07-.05a.92.92,0,0,1-.47-.29.23.23,0,0,0-.18-.06.73.73,0,0,1-.76-.33.4.4,0,0,0-.4-.22c-.07,0-.17-.12-.25-.2s-.2-.2-.2-.53c0-.11,0-.22,0-.32s0-.12,0-.14c.29-.18.08-.45.13-.68a.07.07,0,0,0,0-.05c-.21-.07-.14-.25-.15-.39,0-.34,0-.68,0-1,0-.07,0-.18,0-.2-.2-.07-.16-.23-.15-.37s-.19-.24-.25-.38-.1-.07-.11-.11,0-.24-.15-.28,0-.11,0-.17a.83.83,0,0,0-.09-.16c0-.05-.08-.09-.09-.13s0-.23-.15-.25c0,0,0-.05,0-.08,0-.23-.18-.29-.27-.43s-.09-.08-.09-.12a5.71,5.71,0,0,1,0-.59c.32,0,.45-.18.61-.38l.17.21c.11-.11.2-.19.29-.29s.27-.15.33,0,.15.11.25.11h1c.11,0,.21,0,.28.12s.15,0,.24.05.24,0,.3.12.1.06.15.06h.48c.11,0,.19,0,.27.12s.28.06.43-.14a.37.37,0,0,0,.41.19c.1,0,.21,0,.23.12s.05.05.07,0c.19,0,.28.11.38.2s.18.18.34.18.16.11.23.18l1,1L59,19s.09.09.09.14,0,.21.15.25,0,.09,0,.13,0,.18.11.21.06.08.07.12,0,.21.14.26,0,.11,0,.16c0,.25.12.38.27.52s.1.07.09.1c0,.22.15.31.25.41a.28.28,0,0,1,.12.24c0,.11,0,.22,0,.33s0,.13,0,.14c.29.16.09.43.15.64a.15.15,0,0,1,0,.08c-.19.24-.19.28.06.48-.24.09-.18.29-.19.46a1.28,1.28,0,0,1,0,.44c-.05.12-.22.18-.29.29s-.28.21-.24.43c0,.05-.1.12-.16.17s-.2.32-.43.28c0,0,0,0,0,0-.09.23-.29.15-.45.18s-.23.17-.33.28A.36.36,0,0,0,58.36,25.89Z" fill="#231815"/>
          </g>
        </g>
        <g>
          <g>
            <path d="M129.27,6.53c0-.16,0-.25.08-.28l2.62.08,1.48,0c.31,0,.6,0,.88,0,0,0,.06.12.06.28s0,.25-.06.27c-.48.11-.81.18-1,.24s-.37.34-.3.76.23.94.42,1.61l1.15,4.28.57,2s0,0,.08,0c.24-.64.49-1.33.75-2.08l.86-2.45c.31-.92.58-1.72.8-2.4s.44-1.4.57-1.84a3.61,3.61,0,0,0,1,0c.11.42.3,1,.59,1.9l.88,2.61q1,2.85,1.59,4.42s.06,0,.1,0c.34-1,.73-2.28,1.16-3.75.24-.8.44-1.5.61-2.12s.33-1.23.41-1.61c.17-.73,0-1.16-.41-1.27s-.7-.15-1.16-.22c-.05,0-.07-.14-.06-.29s0-.23.06-.26l2.28.06c.51,0,1,0,1.45,0l.8,0s.06.12.06.28,0,.25-.06.27a5.36,5.36,0,0,0-.86.22,2,2,0,0,0-1,1.21c-.2.55-.45,1.3-.77,2.24s-.6,1.79-.94,2.87q-1,3.06-1.59,5.15l-1,0c-.1-.39-.29-1-.57-1.82L140,14.14c-.69-2-1.24-3.56-1.65-4.63a.12.12,0,0,0-.08,0c-.26.72-.51,1.44-.76,2.16-.33.89-.62,1.72-.88,2.49s-.61,1.72-.85,2.41-.48,1.43-.63,1.9a4,4,0,0,0-1,0c-.31-1.3-.77-3.07-1.39-5.29-.29-1.08-.55-2-.78-2.87l-.63-2.06c-.25-.73-.58-1.16-1-1.27a7.55,7.55,0,0,0-1-.22A.47.47,0,0,1,129.27,6.53Z" fill="#231815"/>
            <path d="M148,17.48a3.65,3.65,0,0,0,.86-1.42c.23-.56.53-1.29.88-2.18l1-2.55q1-2.69,1.44-3.9a6.15,6.15,0,0,0,.33-1.12l.9,0,.39,0,.14.47a3.94,3.94,0,0,0,.18.55l1.51,4.3,1,2.74c.34.91.59,1.55.75,1.93a3.18,3.18,0,0,0,.74,1.21,3.24,3.24,0,0,0,1.37.38s.06.11,0,.27a.74.74,0,0,1-.08.3l-.47,0-.58,0c-.51,0-1,0-1.34,0s-.93,0-1.49,0l-1.08,0a.68.68,0,0,1-.06-.3c0-.14,0-.23,0-.27a6.38,6.38,0,0,0,1.08-.22.36.36,0,0,0,.22-.49c-.12-.4-.3-1-.55-1.67s-.45-1.23-.63-1.7a.17.17,0,0,0-.18-.14h-3.47a.17.17,0,0,0-.12.06.42.42,0,0,0-.08.12l-.66,1.8a7.75,7.75,0,0,0-.4,1.37c0,.36.19.59.63.71a6.51,6.51,0,0,0,.94.16.41.41,0,0,1,0,.27.68.68,0,0,1-.06.3l-1.7-.06h-.81c-.43,0-.87,0-1.33,0l-.24,0-.53,0a.47.47,0,0,1-.06-.3.41.41,0,0,1,.06-.27A3.31,3.31,0,0,0,148,17.48Zm4.67-9.13-.06,0c-.07.21-.17.52-.32.92l-1.15,3.32c0,.08,0,.12.07.14s.29,0,.59,0h1.75l.55,0s0,0,.06-.06a.17.17,0,0,0,0-.1c-.55-1.69-1-3.1-1.45-4.24Z" fill="#231815"/>
            <path d="M159.25,6.55c0-.16,0-.25.08-.28l1.72.06h.73c.48,0,.78,0,.88,0l.08.16a1,1,0,0,0,.12.19,6.56,6.56,0,0,0,.51.71l1.8,2.24,2.08,2.55,3.08,3.73a.08.08,0,0,0,.08,0V11.51c0-.78,0-1.44,0-2s0-1.11-.06-1.43a1,1,0,0,0-.74-1,6.67,6.67,0,0,0-1.32-.24.41.41,0,0,1-.06-.27.9.9,0,0,1,.06-.28l1.77.06L173,6.27s.06.12.06.28a.41.41,0,0,1-.06.27,5.76,5.76,0,0,0-.86.2,1.06,1.06,0,0,0-.67,1.06c0,.35,0,.79-.06,1.31l-.06,2.75,0,2.33c0,.47,0,.92,0,1.34,0,.93,0,1.82,0,2.69a7.61,7.61,0,0,0-1.35,0q-.36-.51-1.47-1.95l-2.28-2.92-3.86-4.85h0s0,0,0,0c0,1.08,0,2.47,0,4.2v2.12c0,.67,0,1.13,0,1.39,0,.67.31,1.06.8,1.18l.51.12.67.08s0,.13,0,.27a.51.51,0,0,1-.08.3l-1.67-.06H161l-1.53.06a.71.71,0,0,1,0-.3.54.54,0,0,1,0-.27,7.23,7.23,0,0,0,1-.18,1.11,1.11,0,0,0,.75-1.16c0-.49.07-1.49.1-3s.05-3.18.08-5.34a2,2,0,0,0,0-.23,1.72,1.72,0,0,0-.08-.28,1,1,0,0,0-.43-.45,3.72,3.72,0,0,0-1.57-.43S159.25,6.7,159.25,6.55Z" fill="#231815"/>
            <path d="M178.22,13.26a1.12,1.12,0,0,1-.1-.24.19.19,0,0,1,.08-.18,3.79,3.79,0,0,0,.77.06,3,3,0,0,0,1.37-.29,2.64,2.64,0,0,0,1.2-2.53,3.25,3.25,0,0,0-.73-2.24A3.1,3.1,0,0,0,178.4,7h-.2L178,7a1,1,0,0,0-.4.08.31.31,0,0,0-.15.27l0,1.3c0,.79,0,1.91,0,3.35v2.83c0,.85,0,1.48,0,1.9s.29.9.72,1a3.61,3.61,0,0,0,.53.1l.47.06.18,0s0,.13,0,.29a.53.53,0,0,1-.06.28l-2-.06h-1.39l-1.85.06a.42.42,0,0,1-.06-.28.54.54,0,0,1,0-.27l.59-.08a3.19,3.19,0,0,0,.45-.08c.38-.1.58-.48.61-1.14s.06-2.13.06-4.39V9.49c0-.73,0-1.22,0-1.47,0-.6-.27-.95-.71-1a9.61,9.61,0,0,0-1-.16s-.05-.14,0-.29a.52.52,0,0,1,.08-.26l2.32.06,3.18,0a6,6,0,0,1,1.27.14,3.22,3.22,0,0,1,1.33.61,3,3,0,0,1,.85,1,3.46,3.46,0,0,1,.37,1.63,3.7,3.7,0,0,1-.65,2.19,3.66,3.66,0,0,1-1.43,1.22,4.44,4.44,0,0,1-2.06.49,2.59,2.59,0,0,1-.84-.1A.65.65,0,0,1,178.22,13.26Z" fill="#231815"/>
            <path d="M186.87,17a6.75,6.75,0,0,1-1.68-4.7,6.25,6.25,0,0,1,1.21-3.79A6.08,6.08,0,0,1,191.64,6a5.7,5.7,0,0,1,4.51,1.86,6.15,6.15,0,0,1,1.51,4.26,6.79,6.79,0,0,1-1.19,4.08,6,6,0,0,1-5.16,2.57A5.75,5.75,0,0,1,186.87,17Zm7.28.24a4.17,4.17,0,0,0,1.28-1.9,7.59,7.59,0,0,0,.37-2.51,7.76,7.76,0,0,0-.55-3,4.85,4.85,0,0,0-1.71-2.23A4.35,4.35,0,0,0,191,6.76a3.61,3.61,0,0,0-1.76.43,3.83,3.83,0,0,0-1.59,1.87,7,7,0,0,0-.51,2.75,7.64,7.64,0,0,0,.61,3.06,5.05,5.05,0,0,0,1.88,2.35,4.54,4.54,0,0,0,2.45.67A3.09,3.09,0,0,0,194.15,17.2Z" fill="#231815"/>
            <path d="M138.86,36.7c0,.16,0,.25-.1.26l-2-.06h-1.88l-2,.06a.5.5,0,0,1-.06-.29.6.6,0,0,1,.06-.28,9.45,9.45,0,0,0,1.39-.2q.72-.13.75-1.41l0-1.59c0-.63,0-1.38,0-2.25s0-1.65,0-2.57V25.8c0-.11,0-.16-.13-.16-.53,0-1.37,0-2.53,0a1,1,0,0,0-.83.55,6.06,6.06,0,0,0-.37.76L130.84,28s-.15,0-.32,0-.28-.08-.29-.13a24.17,24.17,0,0,0,.39-3.24s0,0,.1-.06a.14.14,0,0,1,.12,0,3.53,3.53,0,0,0,1.59.29h7.26a4.73,4.73,0,0,0,1.9-.29c.1,0,.17,0,.2.1a8.45,8.45,0,0,0-.26,1.51l-.2,1.8c0,.06-.13.08-.31.08s-.29,0-.31-.06a5.88,5.88,0,0,0-.32-1.74.79.79,0,0,0-.76-.57c-1.23,0-2.15,0-2.75,0a.14.14,0,0,0-.1.15l0,7.85c0,.75,0,1.24,0,1.47,0,.59.28.94.67,1a8.47,8.47,0,0,0,1.33.22A.67.67,0,0,1,138.86,36.7Z" fill="#231815"/>
            <path d="M143,25a.51.51,0,0,1,.08-.27l1.8,0c.29,0,.56,0,.81,0h3.86c.44,0,.84,0,1.22,0s.78,0,1,0,.08.08.08.09a10.14,10.14,0,0,0-.21,1.28c-.06.47-.1.94-.14,1.41,0,.05-.15.08-.32.08s-.26,0-.29,0c0-.26-.06-.5-.1-.71l-.12-.49a1,1,0,0,0-1-.74l-2.47,0-.53,0c-.06,0-.12.06-.18.16a.52.52,0,0,0-.05.21c0,.47,0,1.19,0,2.16v2c0,.09,0,.14.09.14q.69,0,1.53,0c.66,0,1.15,0,1.48,0a.74.74,0,0,0,.66-.59,4.44,4.44,0,0,0,.22-.78.88.88,0,0,1,.33,0,.48.48,0,0,1,.32.09,8.15,8.15,0,0,0-.1.81c0,.38,0,.72,0,1s0,.65,0,1,0,.5,0,.8c0,.06-.17.08-.34.08s-.28,0-.33-.06a3.59,3.59,0,0,0-.16-.8.71.71,0,0,0-.66-.57c-.28,0-.75-.05-1.42-.06l-1.53,0-.06.06a.22.22,0,0,0,0,.1v1.94l0,2a.71.71,0,0,0,.46.75,10.13,10.13,0,0,0,1.29.1l1.61,0a1.8,1.8,0,0,0,1.45-.65,6.85,6.85,0,0,0,1-1.73.72.72,0,0,1,.3.06.54.54,0,0,1,.27.16,9.76,9.76,0,0,1-.82,2.69.53.53,0,0,1-.1.13.77.77,0,0,1-.18.1,3.8,3.8,0,0,1-.94.08l-3.67-.06-1.43,0h-.92l-2.18.06s-.06-.12-.06-.27a.47.47,0,0,1,0-.3l.84-.08a6.57,6.57,0,0,0,.65-.12c.39-.1.62-.45.67-1.06,0-.17,0-.73,0-1.68V27.91c0-.78,0-1.25,0-1.41,0-.57-.22-.91-.59-1a9.7,9.7,0,0,0-1-.2C143,25.27,143,25.17,143,25Z" fill="#231815"/>
            <path d="M154.3,36a3.79,3.79,0,0,0,.87-1.41c.23-.57.53-1.29.88-2.18l1-2.55c.68-1.79,1.16-3.1,1.43-3.91a5.41,5.41,0,0,0,.34-1.12l.9,0,.39,0,.14.48a4.27,4.27,0,0,0,.18.54l1.51,4.3,1,2.75c.34.9.59,1.54.74,1.92a3.36,3.36,0,0,0,.75,1.22,3.44,3.44,0,0,0,1.37.37s.05.12,0,.28a1,1,0,0,1-.08.29l-.47,0-.59,0-1.33,0-1.49,0-1.08,0a.66.66,0,0,1-.06-.29c0-.15,0-.24,0-.28a6.85,6.85,0,0,0,1.08-.22.35.35,0,0,0,.21-.49c-.11-.4-.3-1-.55-1.66s-.44-1.24-.62-1.71a.18.18,0,0,0-.18-.14h-3.47a.17.17,0,0,0-.12.06.28.28,0,0,0-.08.12l-.67,1.8a6.65,6.65,0,0,0-.39,1.38c0,.35.18.59.63.7a6.28,6.28,0,0,0,.94.16s0,.13,0,.28a.66.66,0,0,1-.06.29l-1.7-.06H155l-1.33,0-.24,0-.53,0a.46.46,0,0,1-.06-.29.42.42,0,0,1,.06-.28A3.21,3.21,0,0,0,154.3,36ZM159,26.85l-.06,0c-.06.21-.17.52-.31.93l-1.16,3.31c0,.08,0,.13.08.14s.29,0,.59,0h1.75l.55,0s0,0,.05-.06a.09.09,0,0,0,0-.1c-.55-1.68-1-3.1-1.45-4.24Z" fill="#231815"/>
            <path d="M171.9,36a3.15,3.15,0,0,0,1.92.53,2.26,2.26,0,0,0,1.44-.47,2,2,0,0,0,.66-1.59,2.2,2.2,0,0,0-.62-1.57,10.51,10.51,0,0,0-2-1.38A8.36,8.36,0,0,1,171.24,30a3.15,3.15,0,0,1-.81-2.15,3,3,0,0,1,1.14-2.46,4.19,4.19,0,0,1,2.73-.86,11.19,11.19,0,0,1,1.68.14l.67.12a6.33,6.33,0,0,0,.63.07c-.07.3-.13.72-.2,1.24s-.1.94-.14,1.47c0,.05-.11.09-.27.1s-.27,0-.29-.08c-.11-1.08-.36-1.76-.77-2a2.71,2.71,0,0,0-1.59-.41,1.91,1.91,0,0,0-1.53.65,2,2,0,0,0-.53,1.35,2.39,2.39,0,0,0,.35,1.31,3.59,3.59,0,0,0,1,.93c.3.19.71.44,1.25.72l.31.18.16.08a.48.48,0,0,1,.16.08l.55.31a5.23,5.23,0,0,1,1.33,1.16,2.88,2.88,0,0,1,.55,1.74,3.25,3.25,0,0,1-1.14,2.53,4.57,4.57,0,0,1-3.21,1.1,7,7,0,0,1-1.67-.21,6,6,0,0,1-1.16-.39,2.79,2.79,0,0,1-.16-.48q-.08-.33-.15-.84c-.12-.68-.2-1.22-.24-1.63,0-.05.11-.1.28-.15a.55.55,0,0,1,.33,0A4.36,4.36,0,0,0,171.9,36Z" fill="#231815"/>
            <path d="M179.1,25.32s0-.13,0-.27,0-.24.06-.27l1.75,0h1.63l1.59,0a.85.85,0,0,1,0,.29c0,.14,0,.23-.06.25l-.94.18c-.36.11-.54.41-.55.9,0,.3,0,.76,0,1.38v2.27c0,.11,0,.17.09.2l.65,0,2.69,0c2,0,3,0,3.08,0a.11.11,0,0,0,.12-.12V28c0-.93,0-1.54,0-1.84a.69.69,0,0,0-.39-.65,7.52,7.52,0,0,0-1.16-.22s-.07-.13-.06-.27a.42.42,0,0,1,.08-.29l1.69,0c.27,0,.53,0,.76,0l2.43,0a.55.55,0,0,1,.06.27c0,.14,0,.24-.06.27-.45.07-.79.14-1,.2s-.51.46-.55,1.06,0,1.85,0,4.18v2.65c0,1,0,1.59,0,1.88.06.49.24.78.55.88a4.73,4.73,0,0,0,1.26.22s0,.14,0,.3,0,.24-.1.27l-1.88-.06H190l-1.43,0-1.06,0a.41.41,0,0,1-.06-.27.52.52,0,0,1,.06-.3,7.88,7.88,0,0,0,1.12-.2q.45-.13.51-.9l0-.69V31.35c0-.09,0-.14-.12-.14s-.59,0-1.29,0H183l-.4,0s0,0,0,.06l0,.06v3.14l0,.61c0,.61.24,1,.6,1.07l.48.12.7.12a.42.42,0,0,1,0,.31c0,.15-.06.23-.1.26l-1.67-.06h-1.72l-1.77.06a.46.46,0,0,1-.06-.29.7.7,0,0,1,0-.28c.38,0,.74-.11,1.06-.18s.64-.6.69-1.43l0-4c0-.94,0-1.86,0-2.75s0-1.4,0-1.59c0-.49-.22-.78-.55-.86l-.49-.12Z" fill="#231815"/>
            <path d="M196,35.47a6.72,6.72,0,0,1-1.69-4.71A6.22,6.22,0,0,1,195.51,27a6.06,6.06,0,0,1,5.23-2.49,5.74,5.74,0,0,1,4.52,1.86,6.2,6.2,0,0,1,1.51,4.26,6.79,6.79,0,0,1-1.2,4.08,6,6,0,0,1-5.16,2.57A5.77,5.77,0,0,1,196,35.47Zm7.28.23a4.1,4.1,0,0,0,1.27-1.9,7.54,7.54,0,0,0,.37-2.51,7.75,7.75,0,0,0-.55-3,4.88,4.88,0,0,0-1.7-2.24,4.45,4.45,0,0,0-2.57-.78,3.52,3.52,0,0,0-1.77.43,3.87,3.87,0,0,0-1.59,1.86,7,7,0,0,0-.51,2.75,7.57,7.57,0,0,0,.61,3.06,5,5,0,0,0,1.88,2.35,4.49,4.49,0,0,0,2.46.67A3.13,3.13,0,0,0,203.26,35.7Z" fill="#231815"/>
            <path d="M212.67,31.76a.72.72,0,0,1-.09-.24c0-.09,0-.15.07-.17a3.86,3.86,0,0,0,.77.06,3,3,0,0,0,1.37-.3,2.63,2.63,0,0,0,1.2-2.53,3.21,3.21,0,0,0-.73-2.24,3.12,3.12,0,0,0-2.41-.88h-.2l-.23,0a.87.87,0,0,0-.39.08.3.3,0,0,0-.16.27l0,1.3c0,.8,0,1.92,0,3.35v2.83c0,.85,0,1.48,0,1.9s.29.9.73,1a2.52,2.52,0,0,0,.52.1l.48.06.17,0s.05.14,0,.3a.52.52,0,0,1-.06.27l-2-.06H210.3l-1.85.06a.5.5,0,0,1,0-.27c0-.16,0-.25,0-.28l.58-.08a2.46,2.46,0,0,0,.46-.08c.37-.1.58-.48.6-1.13s.06-2.14.06-4.4V28c0-.73,0-1.22,0-1.47,0-.6-.27-.95-.7-1s-.64-.12-1-.16a.42.42,0,0,1,0-.29c0-.13,0-.22.07-.25l2.32,0,3.18,0a6,6,0,0,1,1.27.14,3.39,3.39,0,0,1,1.34.61,3.15,3.15,0,0,1,.84,1,3.49,3.49,0,0,1,.37,1.63,3.8,3.8,0,0,1-.64,2.2,3.66,3.66,0,0,1-1.44,1.21,4.41,4.41,0,0,1-2.06.49,3.06,3.06,0,0,1-.84-.09A.75.75,0,0,1,212.67,31.76Z" fill="#231815"/>
          </g>
          <g>
            <path d="M136.76,45.85c0,.3-.17.45-.52.45H133.8v6.18c0,.38-.16.56-.5.56s-.48-.18-.48-.56V46.3h-2.44c-.34,0-.5-.15-.5-.45s.16-.41.5-.41h5.86C136.59,45.44,136.76,45.57,136.76,45.85Z" fill="#231815"/>
            <path d="M145.92,52.61c0,.3-.16.45-.5.45-.18,0-.32-.13-.44-.38l-.86-1.92h-3.5l-.85,1.93a.51.51,0,0,1-.5.37c-.3,0-.44-.17-.44-.5a.81.81,0,0,1,.06-.31l3-6.63a.52.52,0,0,1,.49-.37.53.53,0,0,1,.48.37l3,6.74A.79.79,0,0,1,145.92,52.61Zm-2.17-2.74-1.23-2.79q-.06-.15-.15-.15c-.06,0-.12.06-.17.16L141,49.87Z" fill="#231815"/>
            <path d="M150.22,52.5c0,.37-.17.56-.5.56s-.49-.19-.49-.56V45.8c0-.37.17-.55.49-.55s.5.18.5.55Z" fill="#231815"/>
            <path d="M160.4,50.79a1.48,1.48,0,0,1-.23.53,3.28,3.28,0,0,1-3,1.74A3.16,3.16,0,0,1,154.68,52a4.15,4.15,0,0,1-1-2.86,4,4,0,0,1,1-2.78,3.14,3.14,0,0,1,2.44-1.12,3.84,3.84,0,0,1,1.67.37,2.54,2.54,0,0,1,1,.81,1.19,1.19,0,0,1,.19.45c0,.47-.22.7-.64.7a.56.56,0,0,1-.5-.35,2.47,2.47,0,0,0-.54-.73,1.89,1.89,0,0,0-1.25-.39,2,2,0,0,0-1.69.93,3.48,3.48,0,0,0-.65,2.11,3.41,3.41,0,0,0,.62,2.11,2.07,2.07,0,0,0,1.79.92,2.22,2.22,0,0,0,1.33-.43,2.54,2.54,0,0,0,.82-1c.15-.31.33-.47.56-.47a.47.47,0,0,1,.32.13A.42.42,0,0,1,160.4,50.79Z" fill="#231815"/>
            <path d="M169,52.5c0,.37-.17.56-.52.56s-.5-.19-.5-.56V49.36h-4.06V52.5c0,.37-.17.56-.51.56s-.5-.19-.5-.56V45.8c0-.37.17-.55.51-.55s.5.18.5.55v2.68h4.06V45.8c0-.37.17-.55.49-.55s.53.18.53.55Z" fill="#231815"/>
            <path d="M177.6,50.52a2.36,2.36,0,0,1-.85,2,3.47,3.47,0,0,1-2.1.58,3.39,3.39,0,0,1-2.07-.58,2.31,2.31,0,0,1-.87-2V45.66c0-.27.18-.41.53-.41s.5.14.5.41v4.63a1.92,1.92,0,0,0,3.84,0V45.66c0-.27.17-.41.5-.41s.52.14.52.41Z" fill="#231815"/>
            <path d="M186.51,52.53a.47.47,0,0,1-.54.53.73.73,0,0,1-.64-.35l-4-5.76v5.58c0,.35-.17.53-.5.53s-.47-.18-.47-.53V45.77a.46.46,0,0,1,.52-.52.61.61,0,0,1,.54.24l4.1,5.85V45.77c0-.35.17-.52.49-.52s.49.17.49.52Z" fill="#231815"/>
            <path d="M195.56,46.86c0,.4-.14.6-.43.6a.62.62,0,0,1-.48-.26,3.29,3.29,0,0,1-.35-.46,1.86,1.86,0,0,0-1.62-.63,2.14,2.14,0,0,0-1.85.9,4.17,4.17,0,0,0-.65,2.46,2.87,2.87,0,0,0,.65,1.89,2.2,2.2,0,0,0,1.78.82,2.63,2.63,0,0,0,1.34-.32.89.89,0,0,0,.54-.76V49.89a.34.34,0,0,0-.37-.38h-1.29a.38.38,0,0,1-.44-.43.37.37,0,0,1,.42-.42h2a.68.68,0,0,1,.5.22.76.76,0,0,1,.21.51v2a1.37,1.37,0,0,1-.79,1.17,4,4,0,0,1-2.13.52A3.14,3.14,0,0,1,190.05,52a3.79,3.79,0,0,1-.92-2.62,4.48,4.48,0,0,1,.9-2.91,3.23,3.23,0,0,1,2.66-1.17,3.88,3.88,0,0,1,2,.54C195.28,46.14,195.56,46.5,195.56,46.86Z" fill="#231815"/>
            <path d="M210.71,45.85q0,.45-.51.45h-2.44v6.18c0,.38-.17.56-.5.56s-.49-.18-.49-.56V46.3h-2.44c-.33,0-.5-.15-.5-.45s.17-.41.5-.41h5.87C210.54,45.44,210.71,45.57,210.71,45.85Z" fill="#231815"/>
            <path d="M219.88,52.61c0,.3-.17.45-.5.45-.18,0-.33-.13-.45-.38l-.86-1.92h-3.49l-.85,1.93a.51.51,0,0,1-.5.37c-.3,0-.45-.17-.45-.5a.67.67,0,0,1,.07-.31l3-6.63a.52.52,0,0,1,.48-.37.54.54,0,0,1,.49.37l3,6.74A.79.79,0,0,1,219.88,52.61Zm-2.17-2.74-1.23-2.79q-.07-.15-.15-.15c-.06,0-.12.06-.18.16l-1.21,2.78Z" fill="#231815"/>
            <path d="M224.17,52.5c0,.37-.16.56-.49.56s-.49-.19-.49-.56V45.8c0-.37.16-.55.49-.55s.49.18.49.55Z" fill="#231815"/>
            <path d="M236.5,45.68a.81.81,0,0,1,0,.2l-1.86,6.68c-.09.33-.26.5-.51.5s-.39-.17-.49-.5L232.1,47l-1.54,5.56c-.09.33-.25.5-.48.5s-.43-.17-.52-.5l-1.86-6.68a1,1,0,0,1,0-.2c0-.29.2-.43.61-.43a.3.3,0,0,1,.33.21l1.49,5.36,1.37-4.94c.12-.42.32-.63.61-.63s.48.21.61.63l1.36,4.94,1.5-5.36c0-.14.14-.21.32-.21C236.3,45.25,236.5,45.39,236.5,45.68Z" fill="#231815"/>
            <path d="M245.88,52.61c0,.3-.17.45-.5.45-.18,0-.33-.13-.44-.38l-.87-1.92h-3.49l-.85,1.93a.51.51,0,0,1-.5.37c-.3,0-.45-.17-.45-.5a.82.82,0,0,1,.07-.31l3-6.63a.52.52,0,0,1,.48-.37.54.54,0,0,1,.49.37l3,6.74A.79.79,0,0,1,245.88,52.61Zm-2.17-2.74-1.23-2.79q-.06-.15-.15-.15c-.06,0-.12.06-.17.16l-1.22,2.78Z" fill="#231815"/>
            <path d="M254.44,52.53a.47.47,0,0,1-.54.53.72.72,0,0,1-.63-.35l-4-5.76v5.58c0,.35-.17.53-.5.53s-.47-.18-.47-.53V45.77a.46.46,0,0,1,.53-.52.63.63,0,0,1,.54.24l4.1,5.85V45.77c0-.35.16-.52.48-.52s.49.17.49.52Z" fill="#231815"/>
          </g>
        </g>
      </g>
    </g>
  </g>
</svg>
