<svg xmlns="http://www.w3.org/2000/svg" width="156.99" height="320.63" viewBox="0 0 156.99 320.63">
  <title>logo-black</title>
  <g id="圖層_2" data-name="圖層 2">
    <g id="menu">
      <g>
        <g>
          <path d="M27.09,79l.17-.28a1.65,1.65,0,0,1-.3-1.58,3.25,3.25,0,0,1,.57-1c.07-.1.24-.2.24-.29-.06-.74.61-1.21.73-1.86a1.73,1.73,0,0,0,1.33-1.39c0-.19.2-.35.29-.53a2.32,2.32,0,0,0,.25-.53c.08-.34,0-.73.4-1,.08,0,.07-.23.1-.35.19-.58.62-1.09.56-1.74.63-.32.37-.89.4-1.37s0-1,0-1.47a.71.71,0,0,1,.28-.66c.19-.13.21-.49.32-.79.3-.11.8.07,1-.44,0,0,.25,0,.38-.07s.34,0,.37-.08c.23-.53.7-.36,1.1-.37.67,0,1.34,0,2,0,.32,0,.7-.12.86.35,0,.09.39.09.59.12s.71-.13.85.35c0,.07.28.1.43.11a.5.5,0,0,1,.5.29c.06.11.35.16.55.17a1.56,1.56,0,0,1,1.37.74c.11.19.48.23.84.39.14.22,0,.76.53.87.1.38.41.32.71.31s.64,0,1,0,.7.11.93-.28a.42.42,0,0,1,.37-.1c.72.18,1.16-.55,1.83-.53.05,0,.1-.12.17-.15.24-.09.47-.19.72-.26s.57,0,.69-.1c.44-.44,1-.4,1.56-.55a9.82,9.82,0,0,1,1.13-.23,1.37,1.37,0,0,0,.85-.41,1.55,1.55,0,0,1,1.21-.6c.26-.51.76-.37,1.19-.4.08,0,.21,0,.23,0,.37-.56,1-.34,1.46-.4a5.12,5.12,0,0,0,.84-.2c.22-.06.43-.17.66-.24.67-.22,1.29-.55,1.93-.79s1-.68,1.71-.63c.23,0,.47-.17.7-.27,0,0,.07-.1.1-.1.63.07,1.05-.4,1.59-.56a5.17,5.17,0,0,1,2.05-.44c.11,0,.22-.13.35-.17s.53-.18.8-.26.33,0,.39-.05c.43-.5,1-.39,1.56-.4.14,0,.3,0,.39-.06.9-.66,1.94-.37,2.93-.41.74,0,1.5,0,2.25.06a1.73,1.73,0,0,1,.88.23c.54.31,1.17.45,1.73.72a4.05,4.05,0,0,1,.88.66c.39.35.75.73,1.12,1.08a.31.31,0,0,0,.22.07c.58-.08.77.41,1.12.67a1.33,1.33,0,0,0,.41.27c.25.06.55,0,.64.34,0,.07.22.11.35.12s.48,0,.56.33c0,.06.16.12.25.14a4.6,4.6,0,0,1,2.08,1.24.75.75,0,0,0,.4.19c.26,0,.53,0,.66.32,0,.07.23.1.36.12.41,0,.87-.07,1.08.44.6-.07.89.55,1.48.58a1.43,1.43,0,0,1,.78.53,2.47,2.47,0,0,0,1.3.91,3,3,0,0,1,1.17,1,3.35,3.35,0,0,0,2.43,1.31,1.18,1.18,0,0,1,.94,1c0,.7,0,1.39,0,2.09a.7.7,0,0,1-.26.59,1.41,1.41,0,0,0-.22.84c0,.5.07,1-.41,1.43-.12.1-.07.39-.09.59s.14.69-.37.82c-.07,0-.11.22-.12.34s0,.39-.29.49c-.1,0-.18.24-.19.37s0,.51-.34.63c-.07,0-.1.17-.13.26s0,.26,0,.3c-.5.31-.42.86-.58,1.31l-.37,1s0,.13,0,.15c-.7.39-.28,1.07-.44,1.59a.71.71,0,0,0,.16.48,1,1,0,0,1,0,1.26,1.08,1.08,0,0,0-.2.47,1.68,1.68,0,0,1-.39,1c-.16.18-.09.53-.12.81s.15.84-.38,1.08c-.06,0-.08.13-.1.2a4.66,4.66,0,0,1-.86,1.67s0,0,0,.06c.1.85-.83,1.06-1.16,1.68a5,5,0,0,1-1.55,1.4A9.76,9.76,0,0,1,85.77,95c-.49.16-.9.52-1.38.71a1.86,1.86,0,0,1-1.76,0s-.08-.08-.12-.09A15.36,15.36,0,0,1,80.59,95c-.65-.2-1.33-.29-2-.48-.29-.09-.52-.42-.8-.45-.65-.08-1.12-.63-1.8-.62a.21.21,0,0,1-.15-.11c-.48.08-.87.17-1.26.2s-.91,0-1.37,0c-.15,0-.4,0-.46,0-.34.45-.85.32-1.3.41a10,10,0,0,0-2,.56c-.32.14-.76.35-.78.86,0,.14-.16.29-.27.42-.23.29-.27.68,0,.87a.65.65,0,0,1,.3.66c0,.59,0,1.18,0,1.77,0,.37-.09.74.33,1,.16.12.13.53.13.81,0,1.54,0,3.09-.07,4.63a1.4,1.4,0,0,0,.6,1.2c.35.3.86.15,1.31,0a5,5,0,0,1,1-.21c1-.07,2,0,3-.16a1.31,1.31,0,0,0,.85-.54.77.77,0,0,1,.74-.33c.35,0,.7,0,1,0s.58.08.73-.3c0-.1.33-.14.5-.14.43,0,.86,0,1.29,0s.93.18,1.19-.36c0,0,0,0,.06,0,.75-.13,1.49-.28,2.24-.38s1.23-.07,1.84-.1a5.4,5.4,0,0,0,1.36-.33,2.18,2.18,0,0,1,2.17.16,1.13,1.13,0,0,0,.53.14,9.6,9.6,0,0,1,1.84.41c.68.18,1.23.81,2,.59a.35.35,0,0,1,.25.15c.07.32.33.28.56.3s.21,0,.24,0c.47.74,1.23.34,1.86.44.24,0,.49,0,.73,0s.43,0,.51.26a.36.36,0,0,0,.21.19c.52.18,1.07.31,1.57.51s1,.51,1.53.76a11.54,11.54,0,0,0,1.16.6,8.58,8.58,0,0,1,3.25,2.24,11.87,11.87,0,0,0,1,.9.48.48,0,0,0,.26.14c.27,0,.54,0,.65.34,0,0,.09.09.13.08.93,0,1.3.84,2,1.2a1.15,1.15,0,0,1,.76,1c0,.22.34.51.6.63s.31.37.31.63c0,.57,0,1.13,0,1.7,0,.38-.15.83.38,1.07.07,0,.06.23.09.36s0,.33.07.36c.55.26.37.73.41,1.14,0,.18,0,.42.11.52.49.46.34,1,.35,1.59,0,.33,0,.67,0,1a1.82,1.82,0,0,0,.24.51,2.05,2.05,0,0,1,.2.39c0,.22,0,.44.33.56.11,0,.16.31.16.47,0,1.34,0,2.68-.07,4,0,.1,0,.25,0,.3-.63.46-.33,1.12-.39,1.7,0,.26,0,.52,0,.77s0,.33-.06.37c-.62.33-.37.89-.42,1.37,0,.27,0,.54-.32.72-.14.06-.17.4-.17.62,0,1.23,0,2.47,0,3.71,0,.29.09.63-.34.76a.21.21,0,0,0-.11.19c.17.68-.27,1.21-.56,1.72s-.32,1.05-.6,1.45a2.19,2.19,0,0,0-.31,1.29c0,.34.08.74-.4.91,0,0-.09.13-.09.2,0,.47.15,1-.43,1.27,0,0,0,.19,0,.29,0,.62,0,1.24,0,1.86a2,2,0,0,1-.37,1.53.47.47,0,0,0,0,.43,1.14,1.14,0,0,1-.2,1.14,1.8,1.8,0,0,0-.23.82,7.46,7.46,0,0,1-.32.81,5.79,5.79,0,0,1-.66,1.25c-.08.14-.26.31-.23.43.16.64-.32,1.11-.47,1.66a1.29,1.29,0,0,1-.48.54,16.51,16.51,0,0,0-2.25,2.17.87.87,0,0,1-.57.34,2.41,2.41,0,0,0-.53.27,1.31,1.31,0,0,1-.5.15c-1.1,0-2.2,0-3.3,0-.55,0-.63-.53-1-.67-.16,0-.29-.2-.45-.24s-.49,0-.55-.33a.25.25,0,0,0-.18-.13c-.87.05-1.13-.77-1.71-1.12a5.09,5.09,0,0,0-.5-.3c-.15-.08-.33-.13-.49-.2a4.22,4.22,0,0,0-.53-.25c-.23-.06-.48-.06-.71-.12-.64-.18-1.21-.43-1.14-1.23-.37-.17-.92,0-1.08-.5,0-.06-.24-.06-.38-.06s-.42,0-.48-.3a.25.25,0,0,0-.16-.14c-.89.07-1.18-.75-1.75-1.13s-1-.86-1.72-.8c-.18,0-.38-.15-.57-.24a2.3,2.3,0,0,0-.49-.2c-.25,0-.55,0-.65-.33,0,0-.09-.09-.12-.08-.62.1-.93-.53-1.51-.56-.2,0-.38-.26-.59-.36-.75-.34-1.53-.64-2.27-1a4.82,4.82,0,0,1-1.69-1.23,1.44,1.44,0,0,0-.5-.51.86.86,0,0,1-.49-1,1.13,1.13,0,0,1-.92-1.33c0-.45-.06-.89.45-1.26a1.09,1.09,0,0,1,.75-.25c1.75,0,3.49,0,5.23,0a1.29,1.29,0,0,0,1-.28,1.27,1.27,0,0,1,.75-.17c1.1,0,2.2,0,3.3,0,.4,0,.81.07,1.1-.32.07-.09.29-.08.45-.09s.53,0,.81-.06c.21-.36,0-.87.56-1.11.14-.06,0-.58.06-.88.06-.47-.23-1,.42-1.36.1-.06.07-.39.07-.59,0-1.31,0-2.63,0-3.94,0-.34-.09-.73.36-.94.09-.05.11-.27.12-.42,0-.31,0-.62,0-.92,0-.13,0-.34.08-.36.63-.25.36-.78.4-1.2s0-.77,0-1.15c0-.15,0-.4.1-.43.56-.23.36-.69.37-1.06,0-.71,0-.71.51-1.18-.2-.22-.62-.33-.49-.74,0-.1,0-.26.08-.28.61-.22.37-.72.4-1.11a.6.6,0,0,0-.19-.38c-.38-.38-.38-.58,0-.94s.28-.63-.07-1-.33-1.13,0-1.29a.49.49,0,0,0,.3-.54c0-.29,0-.57,0-.85s0-.48-.31-.55c0,0-.12-.06-.11-.08.14-.58-.56-.86-.54-1.4,0-.08,0-.21-.05-.22-.59-.21-.45-.69-.41-1.09s-.26-.47-.42-.69a1.55,1.55,0,0,0-1.51-.7c-.4,0-.85.12-1.1-.38,0-.09-.34-.08-.52-.08-.89,0-1.78,0-2.66,0a5,5,0,0,1-1-.25,2.69,2.69,0,0,0-.68-.16l-6.12-.07c-.15,0-.41,0-.43.09-.19.49-.62.34-1,.34-1.61,0-3.22,0-4.83,0a1.5,1.5,0,0,0-1.32.43,5.93,5.93,0,0,1-1.09.75l.36.46a.92.92,0,0,0-.47,1,1.33,1.33,0,0,1-.3,1,1.55,1.55,0,0,0-.06,1.53c.07.18.4.33.64.37a6,6,0,0,0,1,0c.26,0,.53,0,.69.27.06.11.32.17.5.18.66,0,1.34,0,2,0s.69-.22.84-.74a3.71,3.71,0,0,1,1.21-1.86l.07,0c1.09-.13,2.08-.83,3.22-.54a2.6,2.6,0,0,1,.79.56c.1.08.18.26.26.26.62,0,.95.55,1.56.62a8.12,8.12,0,0,1,1.87.77c.37.15.65.35.61.79,0,.08.15.18.23.26s.19.11.18.14c-.18.79.58,1.34.55,2.14-.09,2.37-.05,4.74-.07,7.11,0,.32.1.68-.38.82-.08,0-.1.33-.1.5,0,.72,0,1.45,0,2.17a1.38,1.38,0,0,1-.3.92,1.64,1.64,0,0,0-.18.87c0,.83,0,.82-.63,1.33a3.43,3.43,0,0,1-3.22.53c-.58-.13-1-.67-1.42-1.08-.08-.08-.19-.23-.27-.22-.61.1-.79-.46-1.17-.7-.12-.07-.23-.24-.34-.24-.66,0-.85-.47-1.15-.89a5.1,5.1,0,0,0-.84-.9c-.5-.45-1-.89-1.54-1.31a.86.86,0,0,0-.48-.18l-4.35,0c-.13,0-.34,0-.38.06-.33.49-.84.35-1.3.41a2.76,2.76,0,0,0-.66.24,2.82,2.82,0,0,1-.48.19c-.26,0-.55,0-.64.32,0,.07-.22.11-.34.13s-.55,0-.64.33c0,.07-.22.11-.34.13s-.56,0-.63.34c0,0-.12.1-.2.1a2.82,2.82,0,0,0-1.72.89c-.1.09-.31,0-.46.09a1.85,1.85,0,0,0-.44.23c-.11.06-.23.2-.31.18-.62-.15-.76.43-1.1.67s-.73.71-1.11,1.05c-.11.09-.3.08-.45.13s-.34.05-.36.12c-.13.41-.48.33-.79.35s-.65-.11-.8.32c0,.08-.28.11-.43.12s-.53,0-.8,0-.33,0-.39,0c-.71.77-1.63.29-2.45.42a.43.43,0,0,0-.16,0,1.25,1.25,0,0,1-1.35-.53,1,1,0,0,0-.93-.41c-.29,0-.57,0-.76-.3-.07-.12-.39-.1-.6-.14s-.66,0-.78-.38c0-.06-.23-.1-.35-.11-.42-.07-.94.12-1.16-.43,0,0-.1,0-.15,0-.61.1-.8-.43-1.15-.71s-.7-.81-1.34-.72a1.31,1.31,0,0,0-.84-1,1.16,1.16,0,0,1-.56-.47.85.85,0,0,0-.81-.45c-.16,0-.32-.28-.48-.42a4.65,4.65,0,0,1-1.08-1,16.41,16.41,0,0,0-1.53-1.89,1.32,1.32,0,0,1-.13-.67c0-.3,0-.57-.38-.75s-.42-.5-.69-.66a1,1,0,0,0-.8-.11,1.9,1.9,0,0,0-1,1.37c0,.37.07.75-.34,1-.12.09-.1.38-.13.58s0,.5-.31.66c-.13.07-.14.36-.16.55,0,.35.09.71-.31,1-.13.08-.15.38-.13.58a1.28,1.28,0,0,1-.7,1.4,6.35,6.35,0,0,0-1.8,1.74,2,2,0,0,0-.59,1.69,1.09,1.09,0,0,1-.13.41,6.81,6.81,0,0,0-.28.7c-.07.29.05.64-.37.78-.06,0-.09.17-.1.27,0,.28,0,.54-.31.75-.13.09-.15.37-.18.57s0,.59-.36.69c0,0-.06,0-.06,0,0,.67-.68,1.12-.58,1.83a1,1,0,0,1-.41,1c-.54.44-1.17,1-1.05,1.81,0,.05,0,.14,0,.15-.62.3-.41.87-.47,1.34,0,0,0,.13-.06.14-.62.29-.4.83-.41,1.28,0,2,0,4-.05,6,0,.31.12.7-.36.83,0,0-.07.07-.09.12A11.51,11.51,0,0,1,22.81,160a2.75,2.75,0,0,1-2.4.88,1.94,1.94,0,0,1-1.53-.62.85.85,0,0,0-.64-.36c-.16,0-.3-.15-.45-.23a1.35,1.35,0,0,0-.39-.21c-.27,0-.54,0-.63-.35a.16.16,0,0,0-.12-.09c-.86.06-1.15-.74-1.73-1.1-.43-.27-.66-.79-1.29-.84-.23,0-.44-.31-.66-.48l-.89-.68-.17-.64-.73,0c-.23,0-.5,0-.58-.29,0-.05-.11-.14-.16-.14-.69,0-1-.55-1.51-.79a3.18,3.18,0,0,0-.6-.18c-.26-.05-.55,0-.64-.35,0,0-.13-.08-.2-.11a2.18,2.18,0,0,1-1.25-.8s-.08-.1-.11-.1c-.48,0-.78-.31-1.17-.45a2.66,2.66,0,0,1-.82-.47c-.28-.23-.51-.6-1-.59-.24,0-.51-.37-.73-.59s-.56-.69-.88-1-.65-.43-.56-.9c-.83-.62-.38-1.49-.44-2.25A1.76,1.76,0,0,0,0,144.76c.65-.23.51-.76.51-1.25s0-.82,0-1.23c0-.23,0-.45.29-.57.11,0,.16-.29.17-.45,0-.31,0-.62,0-.93a1.21,1.21,0,0,1,.22-.44c.05-.08.19-.13.2-.21a8.4,8.4,0,0,1,.94-2,13.49,13.49,0,0,1,1-1.76,4.72,4.72,0,0,0,1.08-1.74.39.39,0,0,1,.14-.18c.39-.33.81-.62.88-1.21,0-.26.38-.49.58-.73.07-.08.2-.15.2-.23,0-.43.34-.64.6-.9s.57-.43.52-.85c0-.08.16-.18.25-.25s.42-.28.51-.47a6,6,0,0,1,1.38-1.41c.05-.06.16-.07.18-.13.2-.44.37-.9.59-1.34a7.82,7.82,0,0,0,.45-.72.94.94,0,0,1,.57-.6c.11-.05.27-.14.27-.22,0-.57.49-.83.86-1.16,0,0,.11-.06.12-.1.13-.89,1-1.24,1.47-1.91a9.36,9.36,0,0,0,.85-1.42c.23-.5.7-.74,1.08-1.08.09-.09.27-.12.32-.22a4.66,4.66,0,0,1,1.61-1.75c0-.65.58-.91,1-1.3a.3.3,0,0,0,.09-.21c-.1-.58.38-.85.71-1.15s.52-.95,1.13-1.11c.06,0,.08-.22.11-.35s.06-.4.33-.47a.35.35,0,0,0,.16-.31c-.15-.82.43-1.31,1-1.75a1.3,1.3,0,0,0,.56-1.14c.68,0,1.32,0,1.95,0,.13,0,.25.15.38.22a1.18,1.18,0,0,0,.45.22c.25,0,.44.06.57.33,0,.1.32.13.49.15.38,0,.82-.12,1,.36,0,.08.29.07.45.07a4.6,4.6,0,0,1,2.85.89.89.89,0,0,0,.38.09c.4.06.88-.11,1.1.41.71-.07,1.12.76,1.88.57a.62.62,0,0,1,.5.16,1.05,1.05,0,0,0,1.2.15,4.27,4.27,0,0,1,2.11-.31c.4,0,.86.13,1.13-.34.06-.09.3-.09.46-.11.35,0,.75.1,1-.35,0-.07.24-.07.37-.1s.27,0,.31,0c.41-.59,1-.39,1.6-.42.13,0,.33,0,.39,0,.39-.45.9-.32,1.4-.36s.91.06,1.25-.37c.11-.13.45-.12.68-.13a11.87,11.87,0,0,0,1.2,0c.28-.05.51-.32.79-.4s.79,0,.92-.11c.43-.53,1-.33,1.47-.37s.91.11,1.24-.34c.06-.07.25-.08.38-.09a2,2,0,0,0,1.89-.77c0-1.22,0-2.58,0-3.94s0-2.68-.05-4c0-.25.07-.51.08-.76s.1-.62-.31-.8c-.09,0-.13-.25-.15-.4a1.62,1.62,0,0,0-1.59-1.38l-3,0c-.31,0-.62,0-.87-.27-.11-.14-.44-.15-.68-.15-.77,0-1.55,0-2.33,0-.46,0-1,.09-1.28-.42,0-.09-.28-.11-.43-.13-.38,0-.8.08-1-.38-.06-.11-.51,0-.59-.13-.35-.51-1.1-.33-1.45-.87a1.5,1.5,0,0,0-1.46-.53,1.34,1.34,0,0,1-1.1-.48,6.85,6.85,0,0,0-1.4-1c-.93-.53-2.05-.72-2.9-1.61,0-.7-.85-1-1.3-1.58-.07-.1-.21-.18-.23-.28-.1-.54-.53-.8-.94-1.07s-.91-.56-1-1.17c0-.17-.33-.29-.46-.46A8.89,8.89,0,0,0,29,85.16a2,2,0,0,1-.71-1.4c0-.67-.7-1.19-.48-1.92-.65-.51-.36-1.22-.44-1.86A6.61,6.61,0,0,0,27.09,79Zm27.08,39.46H51.83c-.13,0-.33,0-.37.09-.28.47-.73.33-1.14.35-.21,0-.49,0-.61.1-.44.42-1,.33-1.5.35-.18,0-.43,0-.53.12-.37.39-.84.27-1.28.3s-1-.06-1.32.17a1.89,1.89,0,0,1-1.26.31c-.86,0-1.72,0-2.58,0-.43,0-1-.23-1.24.38,0,.05-.2.07-.29.05-.55-.07-.7.44-1.05.65a5.05,5.05,0,0,0-.93.86c-.09.08-.09.3-.16.32-.44.09-.3.41-.34.67s0,.59-.2.68a.6.6,0,0,0-.32.57,1.56,1.56,0,0,1-1.06,1.51l.72,1c.61-.21.92-.78,1.56-.79.08,0,.15-.19.24-.27a1.61,1.61,0,0,1,1.37-.57,1.08,1.08,0,0,0,1.1-.31c.07-.09.29-.1.44-.1,1.1,0,2.19,0,3.28-.06a2.72,2.72,0,0,0,.82-.23,12.15,12.15,0,0,0,2-.62c.18-.1.47,0,.71,0s.33,0,.38-.06c.42-.55,1-.34,1.56-.38.29,0,.7.06.84-.1a1.63,1.63,0,0,1,1.18-.36c.1,0,.25,0,.3-.07.31-.46.93-.63,1.14-1.2a2.24,2.24,0,0,1,.58-1,.74.74,0,0,0,.29-.57C54.17,119.68,54.17,119.12,54.17,118.44ZM67.94,80.26c0,.86,0,1.65,0,2.44,0,.51.45.8.89,1,.1.05.33.05.37,0,.34-.45.83-.25,1.26-.3a6,6,0,0,0,1.66-.22,3.33,3.33,0,0,1,1.38-.27c.75,0,1.5,0,2.25,0a1,1,0,0,0,1-.41c.23-.32.5-1.2.22-1.36-.51-.28-.35-.68-.39-1.06,0-.13,0-.34-.07-.36-.46-.19-.33-.66-.53-1-.4,0-.8,0-1.19,0-.93.08-1.94-.31-2.76.42H72c-.65,0-1.35-.09-1.87.44C69.28,79.47,68.72,80,67.94,80.26Zm-2.88-9.5a3.58,3.58,0,0,1,.78.25,5.24,5.24,0,0,1,.67.59.61.61,0,0,0,.89,0,.55.55,0,0,1,.53-.24c.32,0,.64,0,1,0,.16,0,.41,0,.44-.11.15-.47.54-.33.86-.33.91,0,1.82,0,2.74,0,.31,0,.64,0,.78-.38a.75.75,0,0,0-.26-.9,3.32,3.32,0,0,0-2.75-1.09c-.11,0-.22,0-.32,0-.75.07-1.55-.21-2.2.39-.07.07-.26,0-.39,0-.52.09-1.14-.17-1.5.43,0,.05-.15,0-.22.05C65.26,69.58,65,69.91,65.06,70.76Zm-16.91,15c.59.84,1.48.7,2.33.7a9,9,0,0,1,1,0A1.4,1.4,0,0,0,52.74,86a1.34,1.34,0,0,0,.18-.86c0-.29,0-.7-.18-.86a2.91,2.91,0,0,0-2.47-1.08,6,6,0,0,1-1.2,0c-.48,0-.92,0-1.22.44-.18.28-.44,1.18-.19,1.3C48.1,85.16,48,85.51,48.15,85.79Zm1.44-10.92.37.07c.79,0,.94,0,1.43-.5a.44.44,0,0,0,0-.43,1.58,1.58,0,0,0-1.8-.42C49.6,74,49.6,74.4,49.59,74.87Z" fill="#040000"/>
          <path d="M71.88,16a1,1,0,0,0,.68-1.23c0-.08,0-.2,0-.22-.63-.36-.36-1-.4-1.45,0-.25,0-.48-.29-.65-.14-.07-.14-.4-.17-.61s.1-.68-.34-.86c-.08,0-.08-.23-.11-.35s0-.19,0-.23c-.79-.57-.35-1.38-.45-2.09,0-.36.16-.79-.39-1-.06,0-.08-.23-.08-.35,0-.91,0-1.81,0-2.71,0-.23,0-.43.32-.55s.2-.32,0-.49L70,2.75a.49.49,0,0,1,0-.82.48.48,0,0,0,.26-.5c-.06-.4.22-.61.46-.85.82-.8,1.84-.56,2.82-.5.16,0,.3.2.47.29.42.22.77.53,1.23.73a4.44,4.44,0,0,0,1.45.41.34.34,0,0,1,.26.14c.12.34.41.27.67.28a1.33,1.33,0,0,1,1.34,1,.78.78,0,0,0,.25.35l1.88,1.5a.54.54,0,0,1,.22.28c.07.35.32.48.63.62a2.9,2.9,0,0,1,.78.57c.36.37.68.78,1,1.17,0,0,0,.06,0,.06.85,0,1.19.93,2,1.11a2.89,2.89,0,0,1,1.14.89,2.92,2.92,0,0,0,1.34.91c.48.14.83.67,1.24,1,.08.07.14.2.21.2.84,0,1.16.77,1.73,1.15a2.25,2.25,0,0,1,1,1.19c.13.4.68.67,1,1l1.57,1.43s.11.07.11.1c0,.46.27.75.47,1.12s.09.62.48.77c.06,0,0,.24,0,.37s0,.36.1.43c.46.39.38.88.37,1.36s0,1,0,1.47-.15.78.38,1a.35.35,0,0,1,.08.28.87.87,0,0,0,.63.95,1.71,1.71,0,0,0,1.3,0,2.29,2.29,0,0,1,1.44-.33c.32,0,.65,0,1,0a3.29,3.29,0,0,0,.6-.15,10.09,10.09,0,0,1,1-.28c.37-.08.8.06,1-.39,0-.07.25-.07.38-.08.4-.05.82.09,1.14-.35.1-.13.59,0,.89,0,.14,0,.23.23.37.27.74.24,1.4.64,2.11.91a2.72,2.72,0,0,1,1,.72.77.77,0,0,0,.74.3,1.31,1.31,0,0,1,1.3.87.84.84,0,0,0,.61.53c.23.05.4.28.6.43.62.48,1.23,1,1.86,1.44a2.7,2.7,0,0,1,1.06,1.79,3.43,3.43,0,0,1-.48,1.59c-.3.7-1,1.07-1.52,1.63-.06.08-.22.13-.22.19,0,.68-.78.72-1.06,1.16-.06.1-.29.1-.44.12-.36.06-.75-.05-1,.34-.06.09-.34.05-.53.07s-.67-.06-.91.32c-.09.14-.49.13-.74.13l-8.45,0c-.36,0-.76-.13-1,.32,0,.09-.3.07-.44.13A4,4,0,0,0,99,36c-.11.06-.22.19-.32.18-.65-.08-1,.38-1.56.63,0,.38,0,.73,0,1.09a1.19,1.19,0,0,1-.28.93,1.08,1.08,0,0,0-.2.64c0,.54,0,1.08,0,1.62,0,.29.1.64-.37.74-.06,0-.12.23-.11.34a2.54,2.54,0,0,1-1,2.15,1.28,1.28,0,0,0-.52,1.12c-.66-.14-.93.39-1.36.63s-.87.53-1.31.8c-.06,0-.15.07-.18.13a2.47,2.47,0,0,1-2.42,1.25,1.13,1.13,0,0,0-.32,0,7,7,0,0,1-1.08.4c-.38.08-.79,0-1.07.39-.07.1-.35.08-.53.08-.67,0-1.34,0-2,0A3.09,3.09,0,0,1,83,48.84a5.26,5.26,0,0,0-1.73-.68,7.63,7.63,0,0,1-1.55-.48c0-.24-.08-.49-.12-.79l-.83-.14c-.19-.31.07-.83-.49-1,0,0,0-.18-.07-.28s0-.33,0-.37c-.79-.5-.33-1.25-.44-1.89,0-.26,0-.53-.32-.7-.14-.06-.13-.46-.15-.71,0-.47.11-1-.35-1.35-.1-.08-.11-.29-.12-.44s.08-.62-.37-.75c-.08,0-.1-.32-.11-.49,0-.54,0-1.09,0-1.63,0-.24,0-.47-.28-.66-.15-.09-.15-.44-.18-.68,0-.47.15-1-.39-1.32a.2.2,0,0,1,0-.14A3,3,0,0,0,75,32.49c-.12-.19,0-.49-.35-.62-.11-.05-.15-.36-.15-.55,0-.9,0-1.8,0-2.7,0-.34.11-.7-.3-1-.15-.09-.11-.47-.13-.72,0-.45-.08-.91-.12-1.37,0-.11,0-.26,0-.3.57-.48.32-.91,0-1.43A1.92,1.92,0,0,1,74,22.76a1.44,1.44,0,0,0-.67-1.41.54.54,0,0,1-.25-.51c0-.31,0-.62,0-.93s.17-.78-.37-1c-.07,0-.08-.28-.08-.43,0-.47,0-.93,0-1.39A1,1,0,0,0,71.88,16Z" fill="#040000"/>
          <path d="M34.55,49.41a1.09,1.09,0,0,1-1.58.12,2,2,0,0,0-.82-.19c-.4,0-.8,0-1.11-.32a.68.68,0,0,0-.43-.15c-.29,0-.59,0-.75-.32,0-.08-.23-.09-.35-.14l-.62-.28c-.07,0-.13-.13-.19-.12-.71.1-1.2-.4-1.8-.6-.31-.1-.55-.41-.84-.61a18,18,0,0,0-1.66-1.47,4.91,4.91,0,0,1-1.27-1c-.23-.27-.52-.74-1.07-.58a.1.1,0,0,1-.08,0c-.29-.53-.87-.36-1.32-.49a12.85,12.85,0,0,1-1.4-.49,2.55,2.55,0,0,1-.71-.56c-.38-.36-.66-.81-1.3-.83-.22,0-.44-.3-.64-.49-.55-.53-1.09-1.08-1.64-1.62,0,0-.07-.1-.11-.1-.75,0-1.09-.6-1.57-1s-1.11-1-1.71-1.44a.6.6,0,0,1-.28-.57c0-.49,0-1,0-1.47a.86.86,0,0,1,.3-.73c.29-.25.36-.71.59-1s.39-1,.88-1.37c.24-.17,0-.69.43-.82.18-.93,1.18-1.13,1.73-1.74a4.73,4.73,0,0,1,1.38-1.13A2.6,2.6,0,0,1,18,27.49a.63.63,0,0,0,.6-.25,19.44,19.44,0,0,1,1.5-1.35.55.55,0,0,1,.78-.07.92.92,0,0,0,.72.27,1.77,1.77,0,0,1,1.89,1.38l.79.06c.25,0,.47,0,.61.27a.6.6,0,0,0,.33.19,5.65,5.65,0,0,1,2.95,1.72c.1.12.37.14.56.16.37,0,.75-.05,1,.32.06.09.29.08.44.08q2.42.07,4.83.12c.8,0,1.61,0,2.41,0,.32,0,.72-.13.87.35,0,.08.34.1.52.11.72,0,1.45,0,2.17,0,.25,0,.52,0,.67.29.06.13.41.13.64.17s.62-.07.83.32c.07.13.48.1.74.13.43.05.92-.12,1.21.38,0,.06.2.07.3.07l2.49,0c0-.36.07-.68.08-1,0-.54,0-1.08,0-1.62a1.2,1.2,0,0,0-.27-.76,2,2,0,0,1-.1-1.93c.21-.47.86-.79,1.37-1.08s.93-.69,1.58-.54a.19.19,0,0,0,.15,0c1-.76,2.07-.38,3.09-.36.6,0,1.18.48,1.85.49.41.56,1.31.53,1.64,1.23.06.11.52,0,.59.14.29.52,1,.34,1.34.76a2,2,0,0,0,1.33.5c.8,0,1.24.51,1.79.86.25.16.4.47.65.61s.56.6,1.11.58c.24,0,.51.41.76.63.07.07.14.18.22.19A8.35,8.35,0,0,1,67.62,32a6.77,6.77,0,0,1,1.88,1.52c.27.26.68.5.59,1,.67.36.33,1.16.8,1.66.22.23.06.79.09,1.19a2.84,2.84,0,0,1-1.18,2.36,4.31,4.31,0,0,0-1.21,2,3.57,3.57,0,0,1-1.16,1.66,1,1,0,0,0-.4.5.79.79,0,0,1-.35.41c-.84.39-1.28,1.19-2,1.7a2.41,2.41,0,0,0-.46.37,1.58,1.58,0,0,0-.61,1.16l-.74.09c-.15,0-.41,0-.44.12-.2.5-.67.32-1.06.4,0,.27-.09.52-.13.76-.31.23-.89-.12-1,.46-.52.1-.41.52-.48.87L58.65,51a.53.53,0,0,0-.18.24,2.49,2.49,0,0,1-1.61,1.58c-.19.08-.32.29-.51.35-.43.12-.62.66-1.2.56-.16,0-.27.43-.66.4-.88-.05-1.77,0-2.65-.06-.25,0-.47-.36-.72-.54a1.39,1.39,0,0,0-.57-.33c-.4,0-.58-.3-.83-.53-.45-.42-.39-1.1-.89-1.5-.15-.13-.06-.54-.06-.82,0-.77-.09-.84-.86-.9-.26,0-.53,0-.7-.26a.57.57,0,0,0-.42-.18c-.5,0-1,0-1.52,0-.06,0-.14,0-.16,0-.43.61-1.09.35-1.66.39s-1.11-.11-1.58.37a.85.85,0,0,1-.8-.06,1.23,1.23,0,0,0-1-.32c-.59,0-1.18,0-1.77,0-.27,0-.6-.09-.74.29,0,.07-.22.12-.34.13-.65,0-1.29,0-1.93,0A2.35,2.35,0,0,1,34.55,49.41Z" fill="#040000"/>
        </g>
        <g>
          <path d="M95.73,243.71c.38.32.53.93,1.14.88.22.4.65.42,1,.62a.83.83,0,0,1,.25.59c.05.67.56,1.13.75,1.73,0,.1.19.16.2.25.1.84.72,1.36,1.14,2a3.52,3.52,0,0,1,.91,1.74,2.85,2.85,0,0,0,.61,1.23,1,1,0,0,1,.15,1,9,9,0,0,1-1,1.86C100,256.79,99,257.88,98,259c-.29.34-.68.59-1,.95a7,7,0,0,0-.94,1.48,7,7,0,0,1-1.76,2.29,9.28,9.28,0,0,0-1.78,2.36,30.11,30.11,0,0,1-2.73,4.13c-.21.28-.39.58-.57.85.48.47.9.94,1.37,1.34a4.41,4.41,0,0,0,1.48,1c.14,0,.24.19.37.29A4.46,4.46,0,0,0,94.66,275c.27,0,.54.37.77.61s.37.62.63.78.56.79,1.13.62c.33.45.89.44,1.33.68a8.9,8.9,0,0,1,2.48,2.18c.24.28.66.21,1,.55a3.91,3.91,0,0,0,1.45.69,11.35,11.35,0,0,0,1.26.62,3.25,3.25,0,0,1,1.36.89,1.62,1.62,0,0,0,1.26.5c.17,0,.35.18.52.3s.1.16.15.16c.94,0,1.66.84,2.65.72a1.9,1.9,0,0,1,.94.39,16.82,16.82,0,0,1,2.19,1.3,7.68,7.68,0,0,0,1.75,1.13,4.92,4.92,0,0,1,1.85,1,4,4,0,0,0,1.6.61c.26.08.56.05.68.38a.26.26,0,0,0,.18.14c.58.2,1.17.36,1.74.58a2.28,2.28,0,0,1,.95.57,1.64,1.64,0,0,0,1.27.45c.29,0,.59,0,.8.31.07.12.33.13.51.16.37.08.84-.15,1.06.41,0,.08.3.07.46.08.71.06,1.5-.19,2.06.51.72.09,1.3.79,2.11.55a.12.12,0,0,1,.08,0,17.17,17.17,0,0,0,1.84.73,2.16,2.16,0,0,0,.81.31c.11,0,.26,0,.32.06.43.53,1,.41,1.59.48.31,0,.59.31.9.42s.74,0,.93.23a1.5,1.5,0,0,0,1.12.36c.39,0,.84-.13,1.06.39.64-.09.92.74,1.58.64.08,0,.2.14.29.23s.09.16.16.17c.65.18,1.29.36,1.95.5.34.08.63.08.85.49a1.62,1.62,0,0,0,.94.58,4.14,4.14,0,0,0,1.06.07c.37,0,.79-.1,1,.37.76,0,1.27.72,2.1.73.64,0,1.27.53,2,.5.45.65,1.4.23,1.83.91a.12.12,0,0,0,.08,0c1.08-.11,1.81.66,2.7,1.14a2,2,0,0,0,.43,1.16,3,3,0,0,1,.56,1.38,1.84,1.84,0,0,1-.69,1.91,2.3,2.3,0,0,1-.91.54c-.49.15-1,.46-1.49.66-.17.07-.28.39-.37.61a3.32,3.32,0,0,0-.1.71c-.3-.13-.54-.22-.77-.33-.5-.24-.7-.2-1.11.23a1.93,1.93,0,0,1-1.31.65c-.62.06-1.2.51-1.88.54-.07,0-.11.18-.2.24a3.17,3.17,0,0,1-1.42.7,3.33,3.33,0,0,0-1.4.71,4.13,4.13,0,0,0-.88.66c-.25.29-.77.35-1.17.5s-.89,0-1.15.49c0,.08-.31,0-.46.09a1.66,1.66,0,0,0-.45.25c-.11.07-.21.22-.3.22a1.74,1.74,0,0,0-1.16.53,2.21,2.21,0,0,1-1.19.52,1.68,1.68,0,0,0-.44.19c-.28.1-.56.19-.83.3s-.7.33-1.07.45-.78.2-1.17.31c-.76.23-1.18.94-1.77,1.41-.11.08-.2.26-.29.26-.45,0-.62.34-.9.56a11.15,11.15,0,0,1-1.28.92,1.1,1.1,0,0,1-.55.09c-.33,0-.67,0-.89.33a.23.23,0,0,1-.12.1c-.87.19-1.74.43-2.62.54s-1.48,0-2.22,0a3.13,3.13,0,0,1-2.56-.9.16.16,0,0,0-.14-.07,3,3,0,0,1-1.64-.55,6.06,6.06,0,0,0-.92-.39c-.17.52-.57.41-.89.27-.35-.53-.65-1-1-1.46s-.62-.84-1-1.39c-.45,0-.81-.74-1.5-.61a6.55,6.55,0,0,1-1.08-1.16c-.34-.57-.94-.83-1.28-1.38a3.21,3.21,0,0,0-.85-.79c-.37-.28-.54-.77-1.12-.84-.28,0-.52-.46-.77-.71-.76-.77-1.57-1.49-2.26-2.32a6.27,6.27,0,0,1-1.31-1.75,6.64,6.64,0,0,0-1.47-1.73,4.8,4.8,0,0,1-1.4-1.83.91.91,0,0,0-.41-.46c-.47-.29-.48-.87-.82-1.24-.61-.68-1.19-1.38-1.82-2a8.55,8.55,0,0,1-1.47-1.69,6.45,6.45,0,0,0-1.17-1.29c-.71-.73-1.38-1.52-2.16-2.18a16.1,16.1,0,0,1-2-1.93c-1.31-.36-1.88-1.63-2.82-2.45-.06-.05-.1-.14-.17-.16-.94-.3-1.44-1.13-2-1.82-.3-.35-.47-.82-.9-1.07a4.15,4.15,0,0,1-1.15-.75c-.27-.31-.8-.49-.7-1.09,0-.11-.12-.28-.21-.39A9.06,9.06,0,0,0,84,283.2a20.74,20.74,0,0,1-1.87-1.88c-.61-.64-.85-.6-1.45.07a6,6,0,0,1-1.18,1c-.41.25-.88.39-1.31.62a1.67,1.67,0,0,0-.48.44c-.51.73-1,1.5-1.53,2.21a3.84,3.84,0,0,1-1,.82A4.64,4.64,0,0,0,73.66,288,5.45,5.45,0,0,1,71.53,290a16.46,16.46,0,0,0-1.71,1.2c-.37.26-.74.52-1.1.8-.17.14-.3.32-.46.46a8.56,8.56,0,0,1-1.19,1,4,4,0,0,0-1.37,1.14,2,2,0,0,1-.7.68,8.54,8.54,0,0,0-1.87,1.4c-.08.07-.19.19-.27.18a2.45,2.45,0,0,0-1.73.68c-.85.61-1.73.26-2.58.41-.66.11-1.15-.4-1.71-.65a6.59,6.59,0,0,1-.87-.56c0-.33,0-.74,0-1.2,1,0,1.38-.88,1.87-1.56.08-.1.09-.33.17-.36.89-.32,1.08-1.25,1.58-1.9.27-.36.35-.88.63-1.23.71-.91,1.5-1.74,2.22-2.64a7.78,7.78,0,0,0,1.36-2,9.59,9.59,0,0,1,.94-1.57,14.62,14.62,0,0,1,.92-1.52,22,22,0,0,0,1.19-1.92c.15-.23.34-.44.47-.67.71-1.21,1.53-2.34,2.28-3.52a16.62,16.62,0,0,0,1.57-2.53,4.73,4.73,0,0,1,.95-1.45,1.58,1.58,0,0,0,.12-1.6,1.26,1.26,0,0,0-1-.85l-.78-.07-.16-.87a1.69,1.69,0,0,1-1.18-.64c-.05-.06-.18-.12-.17-.15.13-.61-.48-.86-.63-1.36s-.49-.63-.75-.94-.67-.63-.67-1.17c0-.24-.56-.79-.89-.94,0,1-.75,1.77-.59,2.8a.66.66,0,0,1-.16.54c-.43.3-.34.72-.35,1.13s.1,1-.39,1.36c-.12.09-.07.43-.08.65,0,.48,0,1,0,1.44a5.32,5.32,0,0,1-.92,2.35.35.35,0,0,0-.06.24c.1.72-.53,1.2-.59,1.87,0,.08-.13.16-.19.24a.75.75,0,0,0,0,1.13.75.75,0,0,1,.16.85c-.41.87-.87,1.71-1.28,2.58-.25.52-.42,1.07-.65,1.6s-.42.88-.66,1.36l-1.09.2a.82.82,0,0,0-.12.2c-.08.46.1.94-.47,1.31-.32.21-.45.72-.91,1A1.12,1.12,0,0,0,57,288a2.62,2.62,0,0,1-.14.77c-1-.11-1.37.66-1.78,1.21a19.45,19.45,0,0,1-1.77,2c-.63.67-1.42,1.2-2,1.91s-1.14,1-1.36,1.84a1,1,0,0,1-.63.65c-.67.15-1,.7-1.45,1.1s-.81,1.11-1.61,1.06c-.15,0-.29.29-.46.41-.63.45-1.28.9-1.92,1.33a1,1,0,0,1-.38.14c-.55.09-1.16-.06-1.57.5-.84-.07-1.44.76-2.29.63a.24.24,0,0,0-.17,0c-1,.75-2.22.25-3.33.34-.18,0-.37-.15-.56-.24s-.28-.21-.43-.21a1.57,1.57,0,0,1-1.24-.56c-.28-.36-.89-.32-1.09-.59s-.63-.37-1-.49a2.12,2.12,0,0,0-.11-.21c-.85-1.41-.42-1.13.36-2.27a23,23,0,0,1,2-2s.1-.06.12-.1A6.85,6.85,0,0,1,36,292.7s0-.05,0-.07a13,13,0,0,1,.56-1.83,7.56,7.56,0,0,1,.71-1.61c.1-.25.22-.49.33-.74a5,5,0,0,1,.54-1.08c.55-.7.55-1.75,1.4-2.24A19.14,19.14,0,0,1,41,282.87a6.05,6.05,0,0,1,1.09-1.79c-.07-.67.71-1,.64-1.7,0-.23.43-.49.66-.74.07-.07.22-.14.22-.21,0-1,.81-1.83.6-2.89-.14-.68.5-1,.69-1.58.09-.26.21-.51.28-.77.11-.43-.11-1,.43-1.26.07,0,0-.26.07-.4s0-.32.05-.41c.63-.75.33-1.67.48-2.5.08-.41-.11-.9.41-1.18.11-.06.06-.42.08-.65s-.06-.67.35-.85c.1-.05.11-.35.12-.54,0-.67,0-1.35.06-2a1.22,1.22,0,0,1,.34-1c.18-.18.13-.63.15-1,0-.53-.06-1.07.39-1.49.09-.09.09-.32.09-.48,0-1.35.07-2.69.1-4a1.23,1.23,0,0,1,.3-1,.94.94,0,0,0,.15-.62c0-1.68,0-3.36,0-5,0-.36-.14-.79.34-1,.11-.05.12-.35.13-.53l.12-4.79a.7.7,0,0,1,0-.25,4.64,4.64,0,0,0,.46-2.26c.65-.47.39-1.19.49-1.82.07-.47.33-.91.1-1.42,0-.1.1-.29.16-.45a2.69,2.69,0,0,0,.22-.62c.05-.46,0-.92.4-1.3.14-.13.11-.48.11-.73,0-.76,0-1.52,0-2.28,0-.48-.11-1,.29-1.43.09-.09,0-.32,0-.49,0-1.63,0-3.26,0-4.9a3.07,3.07,0,0,0-.23-1.62,2.35,2.35,0,0,1,0-1.32c.08-.58.27-1.14.4-1.71a4.78,4.78,0,0,0,.09-.76c0-.27-.06-.56.29-.71.07,0,.12-.18.14-.28a18.92,18.92,0,0,0,.46-1.91c.09-.54.49-.75.85-1.06.12.09.25.25.38.25a5.32,5.32,0,0,1,2.27,1,1.43,1.43,0,0,0,.55.12c.44,0,.87,0,1.31,0,.16,0,.43,0,.47.07.31.61.84.4,1.3.41.77,0,1.54,0,2.3,0a9.75,9.75,0,0,1,2.55.44,6.2,6.2,0,0,0,2.27,0,4.94,4.94,0,0,0,1.17-.36,3.4,3.4,0,0,0,.52-.31,1,1,0,0,1,.27-.16c1.09-.19,2.17-.37,3.26-.54.35-.06.66,0,1-.36a3.12,3.12,0,0,1,1.49-.53A6.16,6.16,0,0,1,76,215a.56.56,0,0,0,.59-.65c0-1,0-2,0-3,0-.11,0-.28-.08-.31-.51-.23-.36-.7-.36-1.09,0-2,0-4.1,0-6.16,0-.39.16-.84-.35-1.11-.11-.06-.09-.42-.09-.64l0-4.47c0-.31,0-.62,0-.93a2,2,0,0,1,.4-1.63l-.33-.48c0-.05,0-.09,0-.1.86-.81.21-1.85.41-2.76,0-.13,0-.36-.07-.4-.56-.33-.35-.88-.36-1.35,0-.76,0-1.52,0-2.28a2.21,2.21,0,0,0-.33-1.44c0-.07-.12-.16-.11-.22.11-.88-.45-1.59-.61-2.4a12.31,12.31,0,0,0-.73-2c-.21-.54-.45-1.08-.68-1.62a4.2,4.2,0,0,0-.22-.53,1.25,1.25,0,0,1,0-1.34,6.17,6.17,0,0,1,2.45-2.41.63.63,0,0,1,.31-.12c1.37,0,2.63-.74,4-.53a5.46,5.46,0,0,0,1,0,7.28,7.28,0,0,1,3.27.86,16.66,16.66,0,0,1,2.21,1.17c.56.37,1.13.73,1.69,1.11.92.64,1.85,1.27,2.75,2A38.61,38.61,0,0,1,94.19,183a19.28,19.28,0,0,1,2,2.55,1.91,1.91,0,0,1,.32.84,4.55,4.55,0,0,1-.91,3.64c-.49.6-.81,1.35-1.26,2a2.72,2.72,0,0,0-.39,1.68c0,2.62,0,5.24-.08,7.85a6.16,6.16,0,0,1-.22,1.12c0,.06-.07.12,0,.16.42.79-.38,1.47-.21,2.24,0,.1,0,.29-.05.32-.61.34-.34.92-.42,1.41a5.74,5.74,0,0,1-.43,1.92,4.54,4.54,0,0,0-.06,1.86c.42.05.79.15,1.15-.2a1.14,1.14,0,0,1,.69-.22c1.17-.05,2.35-.08,3.53-.11a1.27,1.27,0,0,0,1-.26c.11-.11.36-.08.53-.14s.37-.16.56-.24a1.75,1.75,0,0,1,.51-.22,1.68,1.68,0,0,0,1.16-.48,6.6,6.6,0,0,1,2-1.09,5.88,5.88,0,0,0,.77-.57,1.61,1.61,0,0,1,1.83-.09,3.15,3.15,0,0,0,.93.21c.26,0,.56-.05.66.34,0,0,.07.11.11.11.48,0,.73.37,1.09.58.61.33,1.26.59,1.86.94a2.9,2.9,0,0,0,1.61.65c.11,0,.22.23.35.31a8.26,8.26,0,0,1,2.37,2s.08.09.12.09c.88.07,1.17,1,1.79,1.37s.51,1,1,1.35a6.13,6.13,0,0,1,1.31,1.43c.5.8,1.44,1.2,1.74,2.16a.43.43,0,0,0,.27.27,2.16,2.16,0,0,1,1.15.91c.05.06.11.15.17.16.7.06,1.06.62,1.5,1.06a8.36,8.36,0,0,0,1.25,1.2c.42.28.59.93,1,1.21s.51.93.88,1.33c.21.22.14.75.12,1.14,0,.65-.27,1.31.35,1.86a.82.82,0,0,1,0,.79c-.43.42-.38,1-.48,1.49a2.13,2.13,0,0,0-1.12.56,8.92,8.92,0,0,1-2,1.1,22,22,0,0,0-2.5,1.06c-.48.32-.89.74-1.34,1.11a1,1,0,0,1-.32.22,3.65,3.65,0,0,0-2.18,1.36.52.52,0,0,1-.19.14,6.37,6.37,0,0,0-2.3,1.38.88.88,0,0,1-.37.15c-.23.06-.52,0-.56.36a.15.15,0,0,1-.11.12c-1.06.18-1.48,1.23-2.26,1.8a16.36,16.36,0,0,1-1.73,1.35,8.22,8.22,0,0,0-2.48,1.75c-.59,0-.89.75-1.53.7-.11,0-.23.12-.35.17s-.48.21-.73.29-.39,0-.47.09c-.52.59-1.2.39-1.84.44s-1.12-.24-1.56.39c-.08.11-.61.05-.8-.1a1.6,1.6,0,0,0-1.08-.32c-.77,0-1.53,0-2.3,0-.17,0-.43-.06-.49-.18C96.44,243.3,96.09,243.56,95.73,243.71Zm7.17-20.21a1.33,1.33,0,0,0-1.36,0,2.6,2.6,0,0,1-1.4.3c-.73.07-1.57-.32-2.19.44,0,.06-.21,0-.31,0a3.7,3.7,0,0,1-.74,0c-1.1-.21-2.05.44-3.09.55a.36.36,0,0,0-.22.11c-.28.34-.67.31-1,.32s-.59.09-.89.1c-.9,0-1.71.56-2.63.42a.75.75,0,0,0-.53.18,2.88,2.88,0,0,0-1.16,2.4c0,.22,0,.56-.08.64-.51.37-.36.89-.42,1.37,0,.11,0,.28-.07.31-.51.3-.4.8-.33,1.2.2,1.08-.58,1.89-.68,2.87,0,.06-.14.08-.19.15a.74.74,0,0,0-.16.35,2.1,2.1,0,0,1-.51,1.7c0,1.15,0,2.3,0,3.45,0,.34.34.66.57,1.07h.82l5.1,0a1,1,0,0,1,.87.3,3.29,3.29,0,0,0,1.16.66.33.33,0,0,0,.29-.09c.69-.7,1.51-1.33,1.49-2.49,0-.15.16-.31.25-.47a6.46,6.46,0,0,0,.73-1.37c.16-.64.73-1.13.6-1.85a.17.17,0,0,1,.08-.14c.44-.16.41-.57.4-.91a1.92,1.92,0,0,1,.6-1.32c.3-.34.71-.72.76-1.12.08-.61.75-.89.66-1.53.37-.29.31-.85.57-1.13a8.2,8.2,0,0,0,.88-1.75c.07-.13.16-.26.24-.4s.24-.27.22-.38c-.11-.59.4-.79.64-1.16,0-.08.26-.1.26-.16a5.84,5.84,0,0,1,.64-1.87A7.78,7.78,0,0,0,102.9,223.5Zm-31.6,7.72a2.74,2.74,0,0,0-.56,1.45,9.47,9.47,0,0,0-.22,1.9c0,.71,0,1.41,0,2.11,0,.19,0,.48-.13.53-.36.18-.34.49-.34.79a3.66,3.66,0,0,1-.43,2.27,1,1,0,0,0-.08.41,3.67,3.67,0,0,1-.42,2c-.24.33-.08,1-.1,1.48,0,.34.11.82-.06,1-.5.5-.29,1.09-.37,1.64a2,2,0,0,1-.29,1,1,1,0,0,0-.29.73c0,.59,0,1.18,0,1.77,0,.91-.74,1.6-.59,2.52,0,0,0,0-.06.06-.43.28-.34.73-.36,1.14s0,.71-.09.8c-.58.41-.3,1-.35,1.46a.62.62,0,0,0,.61.74,9.11,9.11,0,0,1,2.46.45,14.21,14.21,0,0,1,1.75.86c.31.15.54.6.84.65a2.41,2.41,0,0,1,1.48.92c.65.82,1.64,1.2,2.25,2.06a.85.85,0,0,0,.86,0c.19-.2.37-.36.59-.34a2.36,2.36,0,0,1,.71.27l.5-.31c1.23-2.18,2.4-4.25,3.61-6.41-.4-.12-.69-.29-1,.08a.62.62,0,0,1-.41.22,1.31,1.31,0,0,0-1,.53c-.24.25-.57.55-.86.55a2,2,0,0,0-1.75.89c-.55.68-.6.63-1.38.18a.62.62,0,0,0-.23-.07,3,3,0,0,1-1.93-1c-.17-.18-.37-.34-.55-.52-.38-.39-.95-.71-1.1-1.17a3.3,3.3,0,0,0-.9-1.25c-.33-.37-.71-.69-.67-1.28,0-.12-.16-.25-.24-.37s-.19-.2-.21-.31a1.13,1.13,0,0,0-.46-.75,1.93,1.93,0,0,1-.44-.78c-.1-.31.13-.5.31-.72a.83.83,0,0,0,.1-.48A1.71,1.71,0,0,1,70,247.7c.29-.33.68-.16.92-.5.06-.21.14-.47.2-.72.38-.1.72-.11,1-.49a1.22,1.22,0,0,1,.75-.53c.54-.1.87-.71,1.47-.6a1.15,1.15,0,0,1,1-.48s.1-.11.16-.16A1.25,1.25,0,0,0,76,243c0-.48.12-1.1-.12-1.4a2.18,2.18,0,0,1-.41-1.37.79.79,0,0,0-.12-.47,1.76,1.76,0,0,1-.3-1.51c0-.52-.24-1.15.39-1.52.06,0,.06-.21.06-.32l.09-2c0-.57-.16-1.19.4-1.64,0,0,.06-.15.06-.23,0-.72,0-1.45,0-2.2-.6-.05-1.11-.22-1.5.33a.61.61,0,0,1-.44.14,4.52,4.52,0,0,0-2.37.92Z" fill="#040000"/>
          <path d="M16.09,253.91l.53-.36c0-.1,0-.19,0-.2a.85.85,0,0,1-.45-.94c0-.31.12-.67-.35-.82-.1,0-.09-.45-.12-.69s.13-.71-.37-.81a.22.22,0,0,1-.1-.2c.15-.54-.3-.78-.55-1.07s-.55-.49-.47-.94c0-.08-.15-.19-.24-.29s-.18-.13-.21-.21a2.53,2.53,0,0,0-.82-1.33c-.07-.07-.16-.16-.16-.25,0-.36,0-.73-.44-.87-.05,0,0-.25-.07-.39a1.06,1.06,0,0,0-.09-.4c-.1-.16-.36-.29-.37-.45a15.54,15.54,0,0,1,0-1.93c0-.29.56-.25.47-.68s.06-.48.36-.66.15-.54.24-.91c.31,0,.64,0,1,0a.79.79,0,0,1,.38.24.62.62,0,0,0,1,0,1.17,1.17,0,0,1,1.43,0c.08.1.21.17.27.27a1.06,1.06,0,0,0,1.15.51c.25,0,.5,0,.58.32,0,.06.1.15.17.15.37,0,.77,0,.92.48,0,.05.21.08.31.06.74-.15,1.16.32,1.55.84,0,.06.11.16.16.16.93-.07,1.21.82,1.75,1.28A28.38,28.38,0,0,1,25.59,246a.27.27,0,0,0,.2.11c.48-.11.71.23,1,.53a1.23,1.23,0,0,0,1,.56c.21,0,.44.32.63.53L30.46,250c.05.06.1.18.15.18.93-.09,1.23.79,1.76,1.26.81.7,1.47,1.58,2.24,2.32a.69.69,0,0,1,.26.55,15.69,15.69,0,0,0,0,1.94,1.73,1.73,0,0,1-.75,1.55c-.43.41-.84.83-1.25,1.25,0,0,0,.14-.06.14-.29.08-.67,0-.83.23s-.3.43-.63.4-.44,0-.49.3c0,0,0,.07,0,.07-.28.07-.66,0-.82.23s-.3.43-.62.4-.45,0-.5.3c0,0,0,.07,0,.07-.28.07-.66,0-.82.23s-.29.44-.62.4-.44,0-.5.3a.28.28,0,0,1-.16.16c-.91-.12-1.11.87-1.75,1.16a1,1,0,0,0-.47.49c-.16.41-.7.55-.63,1.15,0,.22-.39.5-.63.74s-.48.37-.7.59a.75.75,0,0,0-.11.39c0,.24,0,.51-.32.59a.29.29,0,0,0-.16.24c.16.59-.36.82-.63,1.12s-.43.36-.39.72c0,.21-.09.3-.27.44A10.09,10.09,0,0,0,19.57,271a.43.43,0,0,0-.09.23c0,.32.06.69-.4.8-.06,0-.1.24-.1.37s0,.52-.34.58c-.07,0-.14.17-.15.27,0,.32.05.69-.41.79-.06,0-.09.25-.1.38s0,.52-.34.58c-.06,0-.14.17-.15.26,0,.32.06.7-.41.8-.06,0-.1.25-.1.38,0,.88,0,1.75,0,2.62,0,.23,0,.42.28.53s.26.31.42.51c.45-.43.88-.83,1.29-1.24l2.31-2.34c.18-.19.43-.32.54-.54.18-.39.45-.45.83-.48.2,0,.39-.3.57-.48.74-.74,1.48-1.48,2.21-2.24s1.44-1.52,2.18-2.27,1.53-1.5,2.29-2.25c.09-.09.19-.27.26-.26.47.09.73-.21,1-.53.08-.09.25-.2.23-.28-.11-.65.44-.88.76-1.21s.89-.74.78-1.48h.93c0,1.08,0,2.14-.06,3.2,0,.27-.48.49-.7.77s-.86.57-.75,1.21c0,0,0,.14,0,.15-.64.25-.35.83-.48,1.27a1.52,1.52,0,0,1-.64.83c-.28.16-.38.34-.32.58a1.32,1.32,0,0,1-.66,1.43.78.78,0,0,0-.36.66c0,.15-.18.29-.27.44a1.19,1.19,0,0,0-.21.4c0,.27,0,.57-.37.64-.06,0-.12.24-.13.37s0,.57-.36.64c-.07,0-.13.24-.14.37,0,.28,0,.56-.36.65-.08,0-.11.28-.15.44s0,.37-.07.39c-.59.21-.45.72-.42,1.13s-.42.7-.65.92a.9.9,0,0,0-.36.74c0,.37.13.79-.39,1-.08,0-.06.31-.11.46a3.3,3.3,0,0,1-.26.45c-.07.11-.21.2-.22.31,0,.33,0,.68-.41.8-.07,0-.08.24-.1.38s0,.35-.07.39c-.81.44-.33,1.2-.41,1.8,0,.19.26.41.44.68-.63.24-.48.82-.48,1.35,0,.11,0,.29.07.32.61.3.36.87.41,1.34,0,.31-.13.68.34.83.09,0,.13.29.14.45,0,.33,0,.67,0,1,0,.13,0,.37.07.39.54.2.39.66.41,1s0,.48.3.61c.12.05.15.38.18.58.05.36-.14.8.39,1,.06,0,.09.25.09.38s0,.52.33.58a.09.09,0,0,1,.07,0c-.1.64.58,1,.58,1.6a12.79,12.79,0,0,0,.06,1.52c0,.33.18.64.21,1,.08.86.13,1.72.18,2.59,0,.07,0,.21-.08.22-.57.12-.32.63-.47,1-.15,0-.33,0-.5.09s-.35.1-.39.21c-.1.28-.3.28-.52.29s-.36,0-.38.07c-.24.64-.77.39-1.19.42a9.55,9.55,0,0,1-1.07,0c-.32,0-.67.11-.88-.37-.13-.31-.7-.18-.94.14l-.26.31c-.17-.46-.43-.72-.87-.59a.73.73,0,0,0-.32.18c-.41.42-.6.41-1,0a.86.86,0,0,0-.49-.2c-.49,0-1,0-1.48,0-.22,0-.41,0-.51-.29,0-.12-.3-.19-.47-.22s-.41,0-.52-.3c0-.12-.3-.19-.47-.21s-.59,0-.95,0c.18-1.07-.76-1.35-1.16-2-.16-.24-.55-.34-.68-.6a.77.77,0,0,0-.83-.48c-.09,0-.2-.14-.29-.23s-.21-.26-.28-.24c-.57.17-.85-.36-1.08-.64s-.49-.32-.77-.44-.78-.5-.77-.76c0-.65-.51-.83-.77-1.23,0-.08-.17-.11-.24-.19A1.5,1.5,0,0,1,7,297.17c0-.14,0-.36-.08-.39-.61-.25-.39-.79-.4-1.22,0-.76,0-1.52,0-2.28,0-.19,0-.5.12-.54.65-.3.33-.87.35-1.32,0-.16-.28-.33-.48-.56.66-.26.52-.84.52-1.37s0-1.07,0-1.6c0-.34.14-.76-.38-.9-.07,0-.09-.3-.1-.46,0-.39,0-.79,0-1.18s.15-.75-.37-.9c-.09,0-.08-.4-.11-.62s.14-.75-.38-.9c-.07,0-.1-.29-.1-.45,0-.4,0-.79,0-1.19s.16-.73-.36-.91c-.08,0-.1-.75,0-.79.5-.22.36-.63.38-1a5.1,5.1,0,0,1,0-.68,2,2,0,0,1,.23-.47c.08-.13.23-.24.24-.37,0-.31,0-.63.41-.72.06,0,.09-.24.1-.37s0-.52.32-.59a.32.32,0,0,0,.17-.25c-.09-.46.25-.65.48-.94s.29-.33.51-.28c.71.15,1.08-.32,1.52-.75a1.27,1.27,0,0,0,.48-1.27c-.09-.41.28-.46.47-.67.35-.41.61-.92,1.27-.87.18,0,.73-.74.75-.93,0-.44-.17-1,.44-1.2.05,0,0-.21.06-.32s0-.37.05-.4c.62-.26.41-.82.47-1.28a1.18,1.18,0,0,1,.22-.39c.08-.12.23-.24.25-.37,0-.3,0-.63.4-.72.06,0,.1-.24.11-.37,0-.34,0-.68,0-1,0-.14,0-.38.05-.41.69-.32.39-.94.45-1.45,0-.33-.07-.7.39-.81.06,0,.1-.24.1-.38,0-.33,0-.67,0-1,0-.14,0-.37.06-.4.68-.32.37-.95.44-1.46,0-.28-.1-.64.33-.76a.31.31,0,0,0,.15-.25,17.93,17.93,0,0,0,0-1.94C16.59,254.33,16.32,254.17,16.09,253.91Z" fill="#040000"/>
          <path d="M33.39,231.08a1,1,0,0,0-1.17-.61c-.29,0-.61.08-.71-.37,0-.08-.3-.16-.43-.13-.66.18-1-.28-1.42-.65s-.6-.53-1.09,0a.66.66,0,0,1-.92,0c-.34-.42-.61-.88-1.28-.89-.23,0-.46-.44-.7-.67a1,1,0,0,0-.42-.28c-.25-.06-.57,0-.62-.38,0-.05-.12-.1-.19-.13a2.54,2.54,0,0,1-1.27-.86.76.76,0,0,0-.5-.17,2,2,0,0,1-2.07-.94,1.09,1.09,0,0,0-1.09-.65c-.19,0-.47-.35-.68-.57-.55-.58-.54-.59-.53-1.49,0-.31,0-.62,0-.93,0-.14,0-.34.09-.39.8-.49.25-1.27.38-1.89a.17.17,0,0,0-.06-.15c-.58-.21-.39-.71-.39-1.12,0-1,0-1.91,0-2.87,0-.19,0-.51-.08-.55-.54-.21-.44-.67-.38-1,.07-.6-.52-.69-.7-1.08-.05-.13-.26-.21-.28-.33-.05-.32,0-.68-.41-.79-.07,0-.05-.32-.1-.47a3,3,0,0,0-.24-.47c-.07-.13-.22-.24-.23-.37,0-.31,0-.63-.4-.7,0,0-.1-.16-.09-.22.15-.65-.47-.83-.72-1.24-.07-.12-.25-.23-.25-.35,0-.52,0-1.05,0-1.65.89.14,1.24-.5,1.71-1l.46.6c.29-.29.55-.53.79-.79s.74-.42.92-.08.41.31.67.32c.87,0,1.75,0,2.63,0,.29,0,.58-.07.75.33.06.13.42.14.65.17s.67-.11.82.36c0,.09.28.15.42.15.44,0,.88,0,1.32,0s.53,0,.74.35.77.19,1.19-.37a1,1,0,0,0,1.11.55c.28,0,.57,0,.64.36,0,.05.13.14.18.12.52-.14.76.31,1,.57s.47.52.92.52c.21,0,.44.31.63.52l2.64,2.9c.21.22.47.4.68.62a.72.72,0,0,1,.24.38c0,.33,0,.6.39.72.07,0,.09.25.11.38s0,.51.32.59c.07,0,.16.22.16.34,0,.32,0,.59.38.73.09,0,.14.31.11.45-.15.71.3,1.08.72,1.48.1.09.26.22.24.29-.16.62.39.89.68,1.18A.83.83,0,0,1,39,219c0,.31,0,.62,0,.93,0,.14,0,.35.08.39.8.47.23,1.22.38,1.82,0,.06,0,.15-.1.21-.54.66-.53.8.14,1.37-.67.22-.52.79-.53,1.28a3.67,3.67,0,0,1-.07,1.25c-.13.32-.61.48-.81.79s-.76.59-.66,1.2c0,.14-.28.35-.46.49-.37.29-.56.87-1.18.76-.05,0-.14,0-.15,0-.25.63-.8.4-1.25.47s-.62.49-.89.79A1,1,0,0,0,33.39,231.08Z" fill="#040000"/>
        </g>
      </g>
    </g>
  </g>
</svg>
