<svg xmlns="http://www.w3.org/2000/svg" width="44.62" height="36.69" viewBox="0 0 44.62 36.69">
  <title>hamburger</title>
  <g id="圖層_2" data-name="圖層 2">
    <g id="menu">
      <g>
        <path d="M36.43,18.51a.42.42,0,0,0-.45.1.2.2,0,0,1-.27.06.19.19,0,0,0-.13.06c-.11.16-.33.14-.52.14s-.29,0-.28.19-.1.18-.22.17a.69.69,0,0,0-.55.07c-.06,0-.23,0-.35,0a.52.52,0,0,0-.18,0c-.07,0-.12.12-.25.05s0,0-.08,0a1.24,1.24,0,0,1-.54.07.23.23,0,0,0-.16.06.78.78,0,0,1-.76.2c-.11,0-.32-.05-.43.08s-.21,0-.32,0a.63.63,0,0,1-.53-.19l-.25-.18s-.09-.07-.08-.09c.06-.25-.28-.3-.42-.45s0,0-.05,0c-.2.06-.29-.07-.4-.15l-.78-.56a.5.5,0,0,0-.16-.1.34.34,0,0,1-.38-.13c-.14-.13-.31,0-.46-.08s-.12,0-.16,0-.17-.14-.31-.08-.09-.05-.15-.07l-.18-.05a.65.65,0,0,1-.16,0c-.09-.06-.17-.13-.29-.06a.16.16,0,0,1-.08,0c-.14-.15-.33-.07-.5-.11s-.12,0-.16,0a5.36,5.36,0,0,1-.44-.32c.25-.14.16-.33.12-.53l.27,0c0-.11,0-.2,0-.3a.16.16,0,0,1,.2-.19.23.23,0,0,0,.25-.06l.63-.49a.27.27,0,0,1,.27-.08c.05,0,.14-.05.21-.09s.13-.14.29-.08a.2.2,0,0,0,.14,0l.32-.24a.26.26,0,0,1,.28-.07c.15,0,.23-.11.18-.3a.4.4,0,0,0,.42-.1.18.18,0,0,1,.25,0,.11.11,0,0,0,.08,0c.08-.13.26-.08.4-.08a.62.62,0,0,0,.36-.07.53.53,0,0,1,.29,0l1.42.07h.33a.76.76,0,0,1,.16,0,.26.26,0,0,0,.29.07s.09,0,.13.06.13.1.23.05a.22.22,0,0,1,.13,0,.3.3,0,0,0,.29.07.21.21,0,0,1,.15.07.75.75,0,0,0,.58.15h.13c.13.16.33.1.48.11a.37.37,0,0,1,.26.07l.25.18s.1.07.13.06c.31-.06.38.2.58.29a.07.07,0,0,1,0,.06c.05.23.09.25.4.24-.1.17.09.25.22.35a1.81,1.81,0,0,1,.33.26c0,.09,0,.2,0,.3s0,.26.17.37,0,.11,0,.18.1.27-.08.37c0,0,0,0,0,0,.1.17-.09.23-.18.33s0,.21,0,.32A.22.22,0,0,0,36.43,18.51Z" fill="#231815"/>
        <path d="M38.89,2.54c-.77,0-.85.11-.88.21s0,.15-.53.13c-.08,0-.23.05-.2.09s-.48.21-1,.26c-.65.07-.7.08-.22.24.24.08.18.19-.15.21-.54,0-1.11.06-1.21.21a5.08,5.08,0,0,1-.87.09,2.14,2.14,0,0,0-.39.07c-.1,0,0,.14-.52.11a.31.31,0,0,0-.17,0,4.47,4.47,0,0,1-1.18.21c-.15,0-.26,0-.27.09,0,.21-.36.35-1.38.39-.35,0-.93,0-.91.18a3,3,0,0,1-.75.1,6.48,6.48,0,0,1-1.8,0L25.44,5A4,4,0,0,1,25,5a8.45,8.45,0,0,0-2.12-.28h-.18a3.85,3.85,0,0,1-1.35,0l-3.3-.29c-.22,0-.59,0-.64,0a3.39,3.39,0,0,1-1.27,0,6.83,6.83,0,0,0-1.34,0c-.16,0-.28,0-.42,0a2.76,2.76,0,0,0-1,0s-.37,0-.55,0h-.58c-.15,0-.31,0-.46,0a2.15,2.15,0,0,0-.87,0H10.7a6.58,6.58,0,0,0-1.52,0,3.49,3.49,0,0,1-.44,0l-1.9-.17c.29-.19-.4-.34-1-.5l.76,0-.8-.26c-.33-.1-.37-.21,0-.22s.42-.06.46-.12.26-.41.4-.61,0-.14.5-.14a.42.42,0,0,0,.29-.13c.1-.07,0-.17.53-.15a.34.34,0,0,0,.24-.09c.08-.09.13-.2.21-.3s.05-.12.5-.13.34-.16-.25-.32c.6,0,.79-.08.8-.2s0-.13.5-.11c.06,0,.18,0,.17,0S10.69.84,11,.8s.66-.06.72-.16a2.57,2.57,0,0,1,.69-.09L16.17.23c.29,0,.53-.07.82-.09a2.4,2.4,0,0,1,.47,0,2.45,2.45,0,0,0,.88,0,4.33,4.33,0,0,1,.45,0,1.7,1.7,0,0,0,.73,0,2.69,2.69,0,0,1,.41,0,2.53,2.53,0,0,0,.89,0,4,4,0,0,1,.54,0,6.65,6.65,0,0,0,1.81,0,2.49,2.49,0,0,1,.36,0A5.09,5.09,0,0,0,25,0a3.71,3.71,0,0,1,.82,0l1.07.09a2.88,2.88,0,0,0,.46,0,9.17,9.17,0,0,1,2.14.09.86.86,0,0,1,.23.05,3,3,0,0,0,1.6.1c.16.18.83.2,1.4.26s1,.07,1.42.14.46.19.79.26a4.4,4.4,0,0,0,1.29.28,2,2,0,0,1,.49.15c.28.12.93.22.71.35,0,0,0,0,0,0,.68.12.33.23.35.34s.47.19.78.28A2.46,2.46,0,0,0,38.89,2.54Z" fill="#231815"/>
        <path d="M44.62,33.25c-1,0-1.13.13-1.17.27s0,.19-.71.16c-.12,0-.31.07-.28.11.15.23-.64.28-1.28.34-.86.09-.93.11-.28.32.32.11.23.25-.21.28-.72,0-1.48.06-1.62.26a6.56,6.56,0,0,1-1.16.12,2.26,2.26,0,0,0-.52.09c-.14.07,0,.18-.7.13a.85.85,0,0,0-.24.05,5.71,5.71,0,0,1-1.57.26c-.2,0-.35.08-.36.13-.05.27-.48.45-1.85.49-.46,0-1.25.05-1.22.24a3.91,3.91,0,0,1-1,.13,9.9,9.9,0,0,1-2.41,0l-1.42-.13a3.63,3.63,0,0,1-.58-.08A12.36,12.36,0,0,0,23.2,36H23a5.55,5.55,0,0,1-1.81,0l-4.42-.4c-.29,0-.79-.07-.86,0a4.84,4.84,0,0,1-1.69,0,9.85,9.85,0,0,0-1.81.07c-.21,0-.37,0-.56,0a3.88,3.88,0,0,0-1.3,0s-.49,0-.74,0-.51,0-.77,0-.41,0-.61,0a2.84,2.84,0,0,0-1.17,0H6.87a8.83,8.83,0,0,0-2,0,4,4,0,0,1-.59,0l-2.55-.22c.39-.25-.52-.44-1.29-.66l1-.06C1,34.64.7,34.52.35,34.42s-.5-.28.06-.29S1,34.05,1,34c.19-.26.35-.53.54-.79.06-.08,0-.18.66-.18.22,0,.29-.11.4-.17s-.05-.22.7-.2a.46.46,0,0,0,.32-.11,4.73,4.73,0,0,0,.28-.39C4,32,4,32,4.6,32s.45-.2-.34-.41c.8,0,1.06-.1,1.06-.26s0-.17.68-.14c.08,0,.23,0,.22,0-.11-.17.62-.18,1.09-.23s.89-.07,1-.21a3.88,3.88,0,0,1,.92-.12l5-.4c.38,0,.71-.08,1.09-.12.18,0,.43,0,.63,0a3,3,0,0,0,1.19,0c.05,0,.39,0,.6,0a2.53,2.53,0,0,0,1,0,2.44,2.44,0,0,1,.55,0,3.54,3.54,0,0,0,1.2,0,3.85,3.85,0,0,1,.72,0,8.68,8.68,0,0,0,2.42,0A4.89,4.89,0,0,1,24,30a7,7,0,0,0,1.95,0,5,5,0,0,1,1.1,0l1.43.13a3.72,3.72,0,0,0,.62,0,12.76,12.76,0,0,1,2.87.13l.31.06a4.15,4.15,0,0,0,2.14.15c.21.23,1.11.26,1.87.33s1.39.1,1.91.19.62.25,1.06.35a6,6,0,0,0,1.73.37,2.52,2.52,0,0,1,.66.2c.37.15,1.24.29.94.46,0,0,0,0,0,.05.91.16.45.3.48.44s.63.26,1,.38C44.29,33.2,44.47,33.22,44.62,33.25Z" fill="#231815"/>
        <path d="M23,16.38c-.22-.12-.36-.31-.66-.37a1.88,1.88,0,0,1-.63-.32.15.15,0,0,0-.1,0,4.48,4.48,0,0,1-.74-.23,1.32,1.32,0,0,0-.28,0,1.34,1.34,0,0,1-.52-.07c-.14,0-.24-.08-.39-.1h-.19l-.39-.07c-.2,0-.41-.07-.61-.12a2.06,2.06,0,0,0-.85-.07,1.81,1.81,0,0,1-.61,0,1.57,1.57,0,0,0-.37,0l-.74,0a.39.39,0,0,1-.18,0l-5-.31a9.82,9.82,0,0,0-1.35.12,3.71,3.71,0,0,1-.82,0,2.43,2.43,0,0,0-.81,0,2.52,2.52,0,0,1-.48.05l-.38,0c-.42,0-.83,0-1.24,0-.2,0-.19.48-.37.52s-.15.07-.15.16a.42.42,0,0,1-.07.27C5,15.86,5,16,5,16.13s0,.33-.08.46,0,.05,0,.06,0,.26-.13.36-.07.08,0,.12.14.16.12.25c.15.09.08.2.11.3l.11.26a.26.26,0,0,0,0,.09.36.36,0,0,1,0,.27c-.08.12,0,.26,0,.39s.12.31,0,.46,0,.05,0,.06,0,.26,0,.37a.12.12,0,0,0,0,.13c.06.07.17.13.18.22.17.07.12.19.18.29l.35.47a.17.17,0,0,1,.1,0c.08.08.19.16.22.25s.11.12.19.15l.6.3,3.74-1.28,1.85-.55h.08l3-.84a.3.3,0,0,1,.18-.08,2.21,2.21,0,0,0,.46-.11,4.45,4.45,0,0,1,.76-.2c.37-.09.74-.16,1.1-.26l.21-.05c.2,0,.38-.11.59-.15s.3-.08.45-.12a4.12,4.12,0,0,0,.47-.13,2.88,2.88,0,0,1,.64-.14l.95-.13a3.4,3.4,0,0,0,.34-.12c.23,0,.4-.16.69-.09l.09,0a1,1,0,0,1,.72,0v0h0l.21-.16a2.09,2.09,0,0,0-.1-.21C23.2,16.62,23.18,16.47,23,16.38Z" fill="#231815"/>
      </g>
    </g>
  </g>
</svg>
