<svg xmlns="http://www.w3.org/2000/svg" width="333.58" height="102.11" viewBox="0 0 333.58 102.11">
  <title>more-white</title>
  <g id="圖層_2" data-name="圖層 2">
    <g id="TEXT">
      <g>
        <path d="M130.34,51.7h-10V21.82l-9.79,19.44h-6.77L93.91,21.82V51.7h-10V.43h9.81l13.43,27.73L120.46.43h9.88Z" fill="#fff"/>
        <path d="M182.75,26.06a75.27,75.27,0,0,1-.64,11.6,15.83,15.83,0,0,1-4.47,8.85,19.9,19.9,0,0,1-27.72,0,16.45,16.45,0,0,1-4.46-8.85,73.22,73.22,0,0,1-.58-11.6,74.83,74.83,0,0,1,.58-11.59,16.1,16.1,0,0,1,4.46-8.85A19,19,0,0,1,163.82,0a18.76,18.76,0,0,1,13.82,5.62,16.72,16.72,0,0,1,4.47,8.85A69.49,69.49,0,0,1,182.75,26.06Zm-10,0V22.32c0-1.44-.05-2.69-.15-3.74q-.87-9.66-8.86-9.65-7.69,0-8.85,9.65v7.48c0,3.32,0,5.81.14,7.49q.94,9.66,8.79,9.65a8.26,8.26,0,0,0,7-3.46Q172.75,37.16,172.75,26.06Z" fill="#fff"/>
        <path d="M236.11,51.7H224.43l-9.94-20.45h-7.18V51.7h-10V.43h20.09a17.12,17.12,0,0,1,12,4.25Q234,8.93,234,16.13q0,10-9.36,13.46ZM224,16.13a6.24,6.24,0,0,0-2.09-4.93,7.53,7.53,0,0,0-5.18-1.84h-9.43V22.9h9.43A7.63,7.63,0,0,0,222,21.1,6.26,6.26,0,0,0,224,16.13Z" fill="#fff"/>
        <path d="M282.47,51.7H248.7V.43h33.77V9.36H258.71v12h20.23v8.93H258.71V42.77h23.76Z" fill="#fff"/>
      </g>
      <g>
        <line x1="333.41" y1="59.33" x2="166.79" y2="101.45" fill="none" stroke="#c9c9c9" stroke-miterlimit="10" stroke-width="1.36"/>
        <line x1="0.17" y1="59.33" x2="166.79" y2="101.45" fill="none" stroke="#c9c9c9" stroke-miterlimit="10" stroke-width="1.36"/>
      </g>
    </g>
  </g>
</svg>
