<svg xmlns="http://www.w3.org/2000/svg" width="55.77" height="62.69" viewBox="0 0 55.77 62.69">
  <title>pockin</title>
  <g id="圖層_2" data-name="圖層 2">
    <g id="DESGIN">
      <polyline points="46.32 51.99 28.31 61.57 8.72 51.99" fill="none" stroke="#c9c9c9" stroke-miterlimit="10" stroke-width="2"/>
    </g>
    <g id="TEXT">
      <g>
        <path d="M7.15,3.19a2.92,2.92,0,0,1-.93,2.26,3.37,3.37,0,0,1-2.36.85H2v3.75H0V.08H3.86A3.38,3.38,0,0,1,6.22.94,2.91,2.91,0,0,1,7.15,3.19Zm-1.94,0a1.31,1.31,0,0,0-.4-1,1.46,1.46,0,0,0-1-.37H2V4.56H3.77a1.5,1.5,0,0,0,1-.36A1.29,1.29,0,0,0,5.21,3.2Z" fill="#fff"/>
        <path d="M16.66,5.07a13.66,13.66,0,0,1-.13,2.25A3.07,3.07,0,0,1,15.67,9,3.7,3.7,0,0,1,13,10.14,3.67,3.67,0,0,1,10.28,9a3.17,3.17,0,0,1-.87-1.72A13.73,13.73,0,0,1,9.3,5.07a14.21,14.21,0,0,1,.11-2.26,3.11,3.11,0,0,1,.87-1.72A3.66,3.66,0,0,1,13,0a3.66,3.66,0,0,1,2.69,1.09,3.31,3.31,0,0,1,.86,1.72A12.77,12.77,0,0,1,16.66,5.07Zm-1.95,0V4.34c0-.28,0-.52,0-.73C14.57,2.36,14,1.74,13,1.74s-1.57.62-1.72,1.87V5.07c0,.64,0,1.13,0,1.45C11.39,7.77,12,8.4,13,8.4a1.61,1.61,0,0,0,1.36-.67A5.62,5.62,0,0,0,14.71,5.07Z" fill="#fff"/>
        <path d="M27.55,10.05H25.28L22.71,5.51,21.43,7.05v3H19.49V.08h1.94V4.42L25,.08h2.36l-3.3,4Z" fill="#fff"/>
        <path d="M36.2,10.05H29.64V.08H36.2V1.82H31.58V4.16h3.94V5.89H31.58V8.32H36.2Z" fill="#fff"/>
        <path d="M45,10.05H43V.08H45Z" fill="#fff"/>
        <path d="M55.77,10.05H54L50.09,3.94v6.11H48.15V.08h1.73l3.95,6.11V.08h1.94Z" fill="#fff"/>
        <path d="M19.64,19.61A15.11,15.11,0,0,1,18,23c.24,1,.55,1.58.9,1.61s.37-.65.44-1.79a2.54,2.54,0,0,0,.64.47c-.23,1.86-.66,2.35-1.09,2.34-.66,0-1.16-.67-1.5-1.78a8.49,8.49,0,0,1-1.74,1.75,3.53,3.53,0,0,0-.6-.55H10.79v.55H10v-4c-.19.23-.36.46-.55.65a5.86,5.86,0,0,0-.51-.66,8.66,8.66,0,0,0,1.7-2.52h-.13a2.08,2.08,0,0,0-.21-.59h.89c.12,0,.14,0,.14-.15V15.93H9.18v-.67H12v3.15c0,.35-.06.49-.31.6a2.75,2.75,0,0,1-.91.12l.58.19c-.11.23-.23.48-.36.72h1.58c-.1-.26-.23-.55-.34-.78L13,19a9.48,9.48,0,0,1,.49,1h1.79v.66H13.3v.82H15v.59H13.3v.81H15v.59H13.3v.9h1.92v.5a8.25,8.25,0,0,0,1.92-2,31.79,31.79,0,0,1-.5-3.94l-1.1.16-.11-.75,1.16-.16c-.07-1.06-.11-2.19-.14-3.37h.82c0,1.13.06,2.22.12,3.25l2.43-.36.1.76-2.48.36c.1,1.14.21,2.17.35,3A13.23,13.23,0,0,0,19,19.24ZM9.13,18.21c.52-.24,1.19-.63,1.92-1l.16.56L9.37,18.83Zm.52-2.15a10.62,10.62,0,0,1,1.27.66l-.29.55a11,11,0,0,0-1.27-.73Zm2.86,4.64H10.79v.82h1.72Zm0,1.41H10.79v.81h1.72Zm-1.72,2.3h1.72v-.9H10.79Zm3.62-6.68c-.64.37-1.25.75-1.83,1.1l-.25-.62c.51-.25,1.18-.64,1.91-1.05Zm.17-1.8h-2.2v-.67H15.3v3.15c0,.36-.06.53-.33.65a3.65,3.65,0,0,1-1.27.12,2.5,2.5,0,0,0-.2-.64h.92c.13,0,.16,0,.16-.15Zm-.78,1.35c-.29-.21-.83-.55-1.24-.78l.32-.46a10.36,10.36,0,0,1,1.23.7Zm5.06.12a9.32,9.32,0,0,0-1.19-1.88l.65-.35A8.75,8.75,0,0,1,19.54,17Z" fill="#fff"/>
        <path d="M33.31,19.69v1H22.45v-1Z" fill="#fff"/>
        <path d="M41.56,16.6v2.11l.16-.18A32.14,32.14,0,0,1,46,21.05l-.63.83a27.42,27.42,0,0,0-3.8-2.44V25.7h-.94V16.6H36v-.9H46.62v.9Z" fill="#fff"/>
      </g>
    </g>
  </g>
</svg>
